<?xml version="1.0" encoding="UTF-8"?>
<svg width="50px" height="50px" viewBox="0 0 50 50" version="1.1" xmlns="http://www.w3.org/2000/svg" xmlns:xlink="http://www.w3.org/1999/xlink">
    <!-- Generator: Sketch 55.2 (78181) - https://sketchapp.com -->
    <title>Group 6</title>
    <desc>Created with Sketch.</desc>
    <g id="Page1" stroke="none" stroke-width="1" fill="none" fill-rule="evenodd">
        <g id="ThankYou_Subhead_B" transform="translate(-735.000000, -540.000000)">
            <g id="Group-6" transform="translate(735.000000, 540.000000)">
                <circle id="Oval-Copy" fill="#0A5CA8" cx="25" cy="25" r="25"></circle>
                <g id="icon_share_email" transform="translate(12.500000, 15.833333)" fill="#FFFFFF">
                    <path d="M1,0 L24,0 C24.5522847,-1.01453063e-16 25,0.44771525 25,1 L25,2.5 L12.5,11.875 L0,2.5 L0,1 C-6.76353751e-17,0.44771525 0.44771525,1.01453063e-16 1,0 Z" id="Rectangle"></path>
                    <path d="M0,3.75 L12.5,13.125 L25,3.75 L25,17.125 C25,17.6772847 24.5522847,18.125 24,18.125 L1,18.125 C0.44771525,18.125 6.76353751e-17,17.6772847 0,17.125 L0,3.75 Z" id="Rectangle"></path>
                </g>
            </g>
        </g>
    </g>
</svg>