<?xml version="1.0" encoding="UTF-8"?>
<svg width="294px" height="160px" viewBox="0 0 294 160" version="1.1" xmlns="http://www.w3.org/2000/svg" xmlns:xlink="http://www.w3.org/1999/xlink">
    <!-- Generator: Sketch 55.2 (78181) - https://sketchapp.com -->
    <title>Group</title>
    <desc>Created with Sketch.</desc>
    <g id="Page1" stroke="none" stroke-width="1" fill="none" fill-rule="evenodd">
        <g id="Home_New" transform="translate(-150.000000, -857.000000)">
            <g id="Group" transform="translate(150.000000, 857.000000)">
                <g id="Group-6" transform="translate(95.113285, 20.000000)" fill="#6CC6F3">
                    <path d="M11.1620928,139.376774 C10.0804799,129.540645 9.43693151,121.614839 9.17047989,109.974516 C8.99435086,102.35129 8.98080247,94.7235484 9.11177022,87.1003226 C9.22467344,80.5248387 10.1211251,73.6806452 9.18177022,67.1458065 C8.24467344,60.6470968 4.92983473,54.7896774 3.06467344,48.5529032 C0.0749960218,38.5496774 -0.268229785,27.6183871 1.0120928,17.3058065 C1.56306054,12.8867742 2.08241538,7.29580645 4.32015731,3.36 C6.21467344,0.0270967742 10.6246734,-1.81774194 12.602738,2.63064516 C14.0659638,5.92064516 10.118867,14.4064516 10.504996,23.7209677 C10.9746734,34.9164516 18.9817702,40.4848387 29.5337057,40.2658065 C40.3566089,40.0422581 50.5133831,45.7754839 52.5885444,56.21 C53.4759638,60.6674194 60.8101573,104.408387 48.4969315,100.206129 L48.2778992,102.290323 C48.6708025,110.335806 47.3069315,127.138065 46.0853186,139.376774 L11.1620928,139.376774 Z" id="Fill-1"></path>
                    <path d="M30.7228025,32.9433548 C23.9892541,32.9433548 18.5292541,27.4856129 18.5292541,20.7498065 C18.5292541,14.0162581 23.9892541,8.55625806 30.7228025,8.55625806 C37.4563509,8.55625806 42.9163509,14.0162581 42.9163509,20.7498065 C42.9163509,27.4856129 37.4563509,32.9433548 30.7228025,32.9433548" id="Fill-4"></path>
                </g>
                <g id="Group-6" transform="translate(151.500000, 20.000000)" fill="#B3EFFF">
                    <path d="M11.1620928,139.376774 C10.0804799,129.540645 9.43693151,121.614839 9.17047989,109.974516 C8.99435086,102.35129 8.98080247,94.7235484 9.11177022,87.1003226 C9.22467344,80.5248387 10.1211251,73.6806452 9.18177022,67.1458065 C8.24467344,60.6470968 4.92983473,54.7896774 3.06467344,48.5529032 C0.0749960218,38.5496774 -0.268229785,27.6183871 1.0120928,17.3058065 C1.56306054,12.8867742 2.08241538,7.29580645 4.32015731,3.36 C6.21467344,0.0270967742 10.6246734,-1.81774194 12.602738,2.63064516 C14.0659638,5.92064516 10.118867,14.4064516 10.504996,23.7209677 C10.9746734,34.9164516 18.9817702,40.4848387 29.5337057,40.2658065 C40.3566089,40.0422581 50.5133831,45.7754839 52.5885444,56.21 C53.4759638,60.6674194 60.8101573,104.408387 48.4969315,100.206129 L48.2778992,102.290323 C48.6708025,110.335806 47.3069315,127.138065 46.0853186,139.376774 L11.1620928,139.376774 Z" id="Fill-1"></path>
                    <path d="M30.7228025,32.9433548 C23.9892541,32.9433548 18.5292541,27.4856129 18.5292541,20.7498065 C18.5292541,14.0162581 23.9892541,8.55625806 30.7228025,8.55625806 C37.4563509,8.55625806 42.9163509,14.0162581 42.9163509,20.7498065 C42.9163509,27.4856129 37.4563509,32.9433548 30.7228025,32.9433548" id="Fill-4"></path>
                </g>
                <g id="Group-6" transform="translate(23.809524, 0.000000)" fill="#6CC6F3">
                    <path d="M12.4049032,159.287742 C11.1687742,148.046452 10.4332903,138.988387 10.1287742,125.685161 C9.92748387,116.972903 9.912,108.255484 10.0616774,99.5432258 C10.1907097,92.0283871 11.2152258,84.2064516 10.1416774,76.7380645 C9.07070968,69.3109677 5.28232258,62.6167742 3.15070968,55.4890323 C-0.266064516,44.0567742 -0.658322581,31.563871 0.804903226,19.7780645 C1.43458065,14.7277419 2.02812903,8.33806452 4.58554839,3.84 C6.75070968,0.0309677419 11.7907097,-2.07741935 14.0513548,3.00645161 C15.7236129,6.76645161 11.2126452,16.4645161 11.6539355,27.1096774 C12.1907097,39.9045161 21.3416774,46.2683871 33.4010323,46.0180645 C45.7700645,45.7625806 57.3778065,52.3148387 59.7494194,64.24 C60.7636129,69.3341935 69.1455484,119.323871 55.0732903,114.52129 L54.8229677,116.903226 C55.272,126.098065 53.7132903,145.300645 52.3171613,159.287742 L12.4049032,159.287742 Z" id="Fill-1"></path>
                    <path d="M34.76,37.6495484 C27.0645161,37.6495484 20.8245161,31.412129 20.8245161,23.7140645 C20.8245161,16.0185806 27.0645161,9.77858065 34.76,9.77858065 C42.4554839,9.77858065 48.6954839,16.0185806 48.6954839,23.7140645 C48.6954839,31.412129 42.4554839,37.6495484 34.76,37.6495484" id="Fill-4"></path>
                </g>
                <g id="Group-6" transform="translate(239.297998, 80.000000) scale(-1, 1) translate(-239.297998, -80.000000) translate(207.297998, 0.000000)" fill="#B3EFFF">
                    <path d="M12.4049032,159.287742 C11.1687742,148.046452 10.4332903,138.988387 10.1287742,125.685161 C9.92748387,116.972903 9.912,108.255484 10.0616774,99.5432258 C10.1907097,92.0283871 11.2152258,84.2064516 10.1416774,76.7380645 C9.07070968,69.3109677 5.28232258,62.6167742 3.15070968,55.4890323 C-0.266064516,44.0567742 -0.658322581,31.563871 0.804903226,19.7780645 C1.43458065,14.7277419 2.02812903,8.33806452 4.58554839,3.84 C6.75070968,0.0309677419 11.7907097,-2.07741935 14.0513548,3.00645161 C15.7236129,6.76645161 11.2126452,16.4645161 11.6539355,27.1096774 C12.1907097,39.9045161 21.3416774,46.2683871 33.4010323,46.0180645 C45.7700645,45.7625806 57.3778065,52.3148387 59.7494194,64.24 C60.7636129,69.3341935 69.1455484,119.323871 55.0732903,114.52129 L54.8229677,116.903226 C55.272,126.098065 53.7132903,145.300645 52.3171613,159.287742 L12.4049032,159.287742 Z" id="Fill-1"></path>
                    <path d="M34.76,37.6495484 C27.0645161,37.6495484 20.8245161,31.412129 20.8245161,23.7140645 C20.8245161,16.0185806 27.0645161,9.77858065 34.76,9.77858065 C42.4554839,9.77858065 48.6954839,16.0185806 48.6954839,23.7140645 C48.6954839,31.412129 42.4554839,37.6495484 34.76,37.6495484" id="Fill-4"></path>
                </g>
                <g id="Group-6" transform="translate(-0.000000, 40.000000)" fill="#0A5CA9">
                    <path d="M9.30367742,119.465806 C8.37658065,111.034839 7.82496774,104.24129 7.59658065,94.263871 C7.4456129,87.7296774 7.434,81.1916129 7.54625806,74.6574194 C7.64303226,69.0212903 8.41141935,63.1548387 7.60625806,57.5535484 C6.80303226,51.9832258 3.96174194,46.9625806 2.36303226,41.6167742 C-0.199548387,33.0425806 -0.493741935,23.6729032 0.603677419,14.8335484 C1.07593548,11.0458065 1.52109677,6.25354839 3.43916129,2.88 C5.06303226,0.0232258065 8.84303226,-1.55806452 10.5385161,2.25483871 C11.7927097,5.07483871 8.40948387,12.3483871 8.74045161,20.3322581 C9.14303226,29.9283871 16.0062581,34.7012903 25.0507742,34.5135484 C34.3275484,34.3219355 43.0333548,39.236129 44.8120645,48.18 C45.5727097,52.0006452 51.8591613,89.4929032 41.3049677,85.8909677 L41.1172258,87.6774194 C41.454,94.5735484 40.2849677,108.975484 39.237871,119.465806 L9.30367742,119.465806 Z" id="Fill-1"></path>
                    <path d="M26.07,28.2371613 C20.2983871,28.2371613 15.6183871,23.5590968 15.6183871,17.7855484 C15.6183871,12.0139355 20.2983871,7.33393548 26.07,7.33393548 C31.8416129,7.33393548 36.5216129,12.0139355 36.5216129,17.7855484 C36.5216129,23.5590968 31.8416129,28.2371613 26.07,28.2371613" id="Fill-4"></path>
                </g>
                <g id="Group-6" transform="translate(189.232332, 30.447000)" fill="#2A9CE6">
                    <path d="M10.0789839,129.42129 C9.07462903,120.287742 8.47704839,112.928065 8.22962903,102.119194 C8.06608065,95.0404839 8.0535,87.9575806 8.1751129,80.878871 C8.27995161,74.7730645 9.11237097,68.4177419 8.2401129,62.3496774 C7.36995161,56.3151613 4.2918871,50.876129 2.55995161,45.0848387 C-0.216177419,35.796129 -0.534887097,25.6456452 0.653983871,16.0696774 C1.16559677,11.9662903 1.64785484,6.77467742 3.72575806,3.12 C5.48495161,0.0251612903 9.57995161,-1.68790323 11.4167258,2.44274194 C12.7754355,5.49774194 9.11027419,13.3774194 9.46882258,22.0266129 C9.90495161,32.4224194 17.3401129,37.5930645 27.1383387,37.3896774 C37.1881774,37.1820968 46.6194677,42.5058065 48.5464032,52.195 C49.3704355,56.3340323 56.1807581,96.9506452 44.7470484,93.0485484 L44.5436613,94.983871 C44.9085,102.454677 43.6420484,118.056774 42.5076935,129.42129 L10.0789839,129.42129 Z" id="Fill-1"></path>
                    <path d="M28.2425,30.5902581 C21.9899194,30.5902581 16.9199194,25.5223548 16.9199194,19.2676774 C16.9199194,13.0150968 21.9899194,7.94509677 28.2425,7.94509677 C34.4950806,7.94509677 39.5650806,13.0150968 39.5650806,19.2676774 C39.5650806,25.5223548 34.4950806,30.5902581 28.2425,30.5902581" id="Fill-4"></path>
                </g>
                <g id="Group-6" transform="translate(151.113285, 100.000000) scale(-1, 1) translate(-151.113285, -100.000000) translate(126.113285, 40.000000)" fill="#0A5CA9">
                    <path d="M9.76886129,119.465806 C8.79540968,111.034839 8.21621613,104.24129 7.97640968,94.263871 C7.81789355,87.7296774 7.8057,81.1916129 7.92357097,74.6574194 C8.02518387,69.0212903 8.83199032,63.1548387 7.98657097,57.5535484 C7.14318387,51.9832258 4.15982903,46.9625806 2.48118387,41.6167742 C-0.209525806,33.0425806 -0.518429032,23.6729032 0.63386129,14.8335484 C1.12973226,11.0458065 1.59715161,6.25354839 3.61111935,2.88 C5.31618387,0.0232258065 9.28518387,-1.55806452 11.0654419,2.25483871 C12.3823452,5.07483871 8.82995806,12.3483871 9.17747419,20.3322581 C9.60018387,29.9283871 16.806571,34.7012903 26.3033129,34.5135484 C36.0439258,34.3219355 45.1850226,39.236129 47.0526677,48.18 C47.8513452,52.0006452 54.4521194,89.4929032 43.3702161,85.8909677 L43.1730871,87.6774194 C43.5267,94.5735484 42.2992161,108.975484 41.1997645,119.465806 L9.76886129,119.465806 Z" id="Fill-1"></path>
                    <path d="M27.3735,28.2371613 C21.3133065,28.2371613 16.3993065,23.5590968 16.3993065,17.7855484 C16.3993065,12.0139355 21.3133065,7.33393548 27.3735,7.33393548 C33.4336935,7.33393548 38.3476935,12.0139355 38.3476935,17.7855484 C38.3476935,23.5590968 33.4336935,28.2371613 27.3735,28.2371613" id="Fill-4"></path>
                </g>
                <g id="Group-6" transform="translate(272.002174, 105.000000) scale(-1, 1) translate(-272.002174, -105.000000) translate(250.002174, 50.000000)" fill="#2A9CE6">
                    <path d="M8.52837097,109.510323 C7.67853226,101.781935 7.1728871,95.5545161 6.96353226,86.4085484 C6.82514516,80.418871 6.8145,74.4256452 6.91740323,68.4359677 C7.0061129,63.2695161 7.71046774,57.8919355 6.97240323,52.7574194 C6.2361129,47.6512903 3.63159677,43.0490323 2.1661129,38.1487097 C-0.182919355,30.2890323 -0.452596774,21.7001613 0.553370968,13.5974194 C0.986274194,10.1253226 1.39433871,5.73241935 3.15256452,2.64 C4.6411129,0.0212903226 8.1061129,-1.42822581 9.66030645,2.06693548 C10.8099839,4.65193548 7.70869355,11.3193548 8.01208065,18.6379032 C8.3811129,27.4343548 14.6724032,31.8095161 22.9632097,31.6374194 C31.4669194,31.4617742 39.4472419,35.9664516 41.0777258,44.165 C41.7749839,47.6672581 47.5375645,82.0351613 37.8628871,78.7333871 L37.6907903,80.3709677 C37.9995,86.6924194 36.9278871,99.8941935 35.9680484,109.510323 L8.52837097,109.510323 Z" id="Fill-1"></path>
                    <path d="M23.8975,25.8840645 C18.6068548,25.8840645 14.3168548,21.5958387 14.3168548,16.3034194 C14.3168548,11.0127742 18.6068548,6.72277419 23.8975,6.72277419 C29.1881452,6.72277419 33.4781452,11.0127742 33.4781452,16.3034194 C33.4781452,21.5958387 29.1881452,25.8840645 23.8975,25.8840645" id="Fill-4"></path>
                </g>
                <g id="Group-6" transform="translate(93.000000, 85.447000) scale(-1, 1) translate(-93.000000, -85.447000) translate(63.000000, 10.447000)" fill="#0A5CA9">
                    <path d="M11.6295968,149.332258 C10.4707258,138.793548 9.78120968,130.301613 9.49572581,117.829839 C9.30701613,109.662097 9.2925,101.489516 9.43282258,93.3217742 C9.55379032,86.2766129 10.5142742,78.9435484 9.50782258,71.9419355 C8.50379032,64.9790323 4.95217742,58.7032258 2.95379032,52.0209677 C-0.249435484,41.3032258 -0.617177419,29.591129 0.754596774,18.5419355 C1.34491935,13.8072581 1.90137097,7.81693548 4.29895161,3.6 C6.32879032,0.0290322581 11.0537903,-1.94758065 13.1731452,2.81854839 C14.7408871,6.34354839 10.5118548,15.4354839 10.9255645,25.4153226 C11.4287903,37.4104839 20.0078226,43.3766129 31.3134677,43.1419355 C42.9094355,42.9024194 53.7916935,49.0451613 56.0150806,60.225 C56.9658871,65.0008065 64.8239516,111.866129 51.6312097,107.36371 L51.3965323,109.596774 C51.8175,118.216935 50.3562097,136.219355 49.0473387,149.332258 L11.6295968,149.332258 Z" id="Fill-1"></path>
                    <path d="M32.5875,35.2964516 C25.3729839,35.2964516 19.5229839,29.448871 19.5229839,22.2319355 C19.5229839,15.0174194 25.3729839,9.16741935 32.5875,9.16741935 C39.8020161,9.16741935 45.6520161,15.0174194 45.6520161,22.2319355 C45.6520161,29.448871 39.8020161,35.2964516 32.5875,35.2964516" id="Fill-4"></path>
                </g>
            </g>
        </g>
    </g>
</svg>