<?xml version="1.0" encoding="UTF-8"?>
<svg width="24px" height="29px" viewBox="0 0 24 29" version="1.1" xmlns="http://www.w3.org/2000/svg" xmlns:xlink="http://www.w3.org/1999/xlink">
    <!-- Generator: Sketch 60.1 (88133) - https://sketch.com -->
    <title>icon_Resource_Blue</title>
    <desc>Created with Sketch.</desc>
    <g id="Page1" stroke="none" stroke-width="1" fill="none" fill-rule="evenodd">
        <g id="Resources_Article_With_Photo_Desktop" transform="translate(-925.000000, -458.000000)" fill="#095DA8" fill-rule="nonzero">
            <g id="Group-10" transform="translate(925.000000, 371.000000)">
                <g id="Group-7" transform="translate(2.000000, 86.000000)">
                    <g id="icon_Resource_Blue" transform="translate(0.000000, 3.000000)">
                        <path d="M20,-2 L5,-2 C4.46956702,-2 3.96085919,-1.78928632 3.58578644,-1.41421356 L-1.41421356,3.58578644 C-1.78928632,3.96085919 -2,4.46956702 -2,5 L-2,25 C-2,26.1045695 -1.1045695,27 0,27 L20,27 C21.1045695,27 22,26.1045695 22,25 L22,0 C22,-1.1045695 21.1045695,-2 20,-2 Z M20,0 L20,25 L0,25 L0,5 L5,0 L20,0 Z" id="Rectangle"></path>
                        <path d="M6,0 L6,5 C6,5.51283584 5.61395981,5.93550716 5.11662113,5.99327227 L5,6 L0,6 L0,4 L4,4 L4,0 L6,0 Z" id="Path-3"></path>
                        <path d="M15,9 C15.5522847,9 16,9.44771525 16,10 C16,10.5128358 15.6139598,10.9355072 15.1166211,10.9932723 L15,11 L5,11 C4.44771525,11 4,10.5522847 4,10 C4,9.48716416 4.38604019,9.06449284 4.88337887,9.00672773 L5,9 L15,9 Z" id="Path-4"></path>
                        <path d="M15,14 C15.5522847,14 16,14.4477153 16,15 C16,15.5128358 15.6139598,15.9355072 15.1166211,15.9932723 L15,16 L5,16 C4.44771525,16 4,15.5522847 4,15 C4,14.4871642 4.38604019,14.0644928 4.88337887,14.0067277 L5,14 L15,14 Z" id="Path-4"></path>
                        <path d="M15,19 C15.5522847,19 16,19.4477153 16,20 C16,20.5128358 15.6139598,20.9355072 15.1166211,20.9932723 L15,21 L5,21 C4.44771525,21 4,20.5522847 4,20 C4,19.4871642 4.38604019,19.0644928 4.88337887,19.0067277 L5,19 L15,19 Z" id="Path-4"></path>
                        <path d="M15,4 C15.5522847,4 16,4.44771525 16,5 C16,5.51283584 15.6139598,5.93550716 15.1166211,5.99327227 L15,6 L10,6 C9.44771525,6 9,5.55228475 9,5 C9,4.48716416 9.38604019,4.06449284 9.88337887,4.00672773 L10,4 L15,4 Z" id="Path-4"></path>
                    </g>
                </g>
            </g>
        </g>
    </g>
</svg>