<?xml version="1.0" encoding="UTF-8"?>
<svg width="31px" height="23px" viewBox="0 0 31 23" version="1.1" xmlns="http://www.w3.org/2000/svg" xmlns:xlink="http://www.w3.org/1999/xlink">
    <!-- Generator: Sketch 60.1 (88133) - https://sketch.com -->
    <title>icon_share_email</title>
    <desc>Created with Sketch.</desc>
    <g id="Page1" stroke="none" stroke-width="1" fill="none" fill-rule="evenodd">
        <g id="Resources_Article_No_Photo_Desktop" transform="translate(-294.000000, -364.000000)" fill="#095DA8" fill-rule="nonzero">
            <g id="Group-9" transform="translate(165.000000, 361.000000)">
                <g id="icon_share_email" transform="translate(129.558824, 3.000000)">
                    <path d="M1.70710678,3.20710678 L9.75,11.25 L9.75,11.25 L0,21 L0,3.91421356 C-6.22746887e-16,3.36192881 0.44771525,2.91421356 1,2.91421356 C1.26521649,2.91421356 1.5195704,3.0195704 1.70710678,3.20710678 Z" id="Rectangle"></path>
                    <path d="M21.9571068,3.20710678 L30,11.25 L30,11.25 L20.25,21 L20.25,3.91421356 C20.25,3.36192881 20.6977153,2.91421356 21.25,2.91421356 C21.5152165,2.91421356 21.7695704,3.0195704 21.9571068,3.20710678 Z" id="Rectangle" transform="translate(25.125000, 11.250000) scale(-1, 1) translate(-25.125000, -11.250000) "></path>
                    <path d="M3.91421356,0 L26.0857864,0 C26.6380712,1.23081457e-15 27.0857864,0.44771525 27.0857864,1 C27.0857864,1.26521649 26.9804296,1.5195704 26.7928932,1.70710678 L16.0606602,12.4393398 L16.0606602,12.4393398 C15.4748738,13.0251262 14.5251263,13.0251262 13.9393398,12.4393398 L3.20710678,1.70710678 C2.81658249,1.31658249 2.81658249,0.683417511 3.20710678,0.292893219 C3.39464316,0.10535684 3.64899707,-9.50481243e-16 3.91421356,0 Z" id="Rectangle"></path>
                    <path d="M11.25,12.75 L13.9393398,15.4393398 C14.5251263,16.0251262 15.4748738,16.0251262 16.0606602,15.4393398 L18.75,12.75 L28.5,22.5 L1.5,22.5 L11.25,12.75 Z" id="Rectangle"></path>
                </g>
            </g>
        </g>
    </g>
</svg>