<?xml version="1.0" encoding="UTF-8"?>
<svg width="31px" height="25px" viewBox="0 0 31 25" version="1.1" xmlns="http://www.w3.org/2000/svg" xmlns:xlink="http://www.w3.org/1999/xlink">
    <!-- Generator: Sketch 60.1 (88133) - https://sketch.com -->
    <title>icon_share_twitter</title>
    <desc>Created with Sketch.</desc>
    <g id="Page1" stroke="none" stroke-width="1" fill="none" fill-rule="evenodd">
        <g id="Resources_Article_No_Photo_Desktop" transform="translate(-199.000000, -363.000000)" fill="#095DA8" fill-rule="nonzero">
            <g id="Group-9" transform="translate(165.000000, 361.000000)">
                <g id="icon_share_twitter" transform="translate(34.558824, 2.000000)">
                    <path d="M30,3.33382274 C28.8961922,3.81155246 27.7099747,4.13442964 26.4649402,4.27964406 C27.7357621,3.53622336 28.7116208,2.35908704 29.171184,0.956525693 C27.9820037,1.6447949 26.6647646,2.14469231 25.2628114,2.41413145 C24.1400197,1.24674035 22.5404368,0.517241379 20.7702184,0.517241379 C17.3710084,0.517241379 14.6151652,3.20659949 14.6151652,6.52372081 C14.6151652,6.99448966 14.6697026,7.45294313 14.7746077,7.89254873 C9.65927798,7.64206455 5.12410842,5.25073869 2.08844508,1.61673724 C1.55865248,2.5038731 1.25513003,3.53568791 1.25513003,4.63646887 C1.25513003,6.72033856 2.34181938,8.5588644 3.99330626,9.6359784 C2.98430813,9.60481515 2.03533414,9.33462637 1.20542083,8.88474015 C1.2049819,8.90979922 1.2049819,8.93496547 1.2049819,8.96023875 C1.2049819,11.8705241 3.32656644,14.2982607 6.14221442,14.8499898 C5.62569955,14.9872796 5.08197081,15.0606364 4.52057501,15.0606364 C4.12399868,15.0606364 3.7383957,15.0230477 3.36266872,14.9529035 C4.14583562,17.3393033 6.41885219,19.0758792 9.1121475,19.1243911 C7.00570613,20.7353501 4.35180512,21.6956286 1.4682322,21.6956286 C0.97146933,21.6956286 0.481509931,21.6672497 0,21.611777 C2.72380116,23.3160116 5.95906946,24.3103448 9.43487325,24.3103448 C20.7558433,24.3103448 26.9465599,15.1576602 26.9465599,7.22023597 C26.9465599,6.95979241 26.9406343,6.70074104 26.9287831,6.44318892 C28.131241,5.59631901 29.1748052,4.53837417 30,3.33382274" id="Path"></path>
                </g>
            </g>
        </g>
    </g>
</svg>