<?xml version="1.0" encoding="UTF-8"?>
<svg width="26px" height="25px" viewBox="0 0 26 25" version="1.1" xmlns="http://www.w3.org/2000/svg" xmlns:xlink="http://www.w3.org/1999/xlink">
    <!-- Generator: Sketch 60.1 (88133) - https://sketch.com -->
    <title>icon_share_linkedin</title>
    <desc>Created with Sketch.</desc>
    <g id="Page1" stroke="none" stroke-width="1" fill="none" fill-rule="evenodd">
        <g id="Resources_Article_No_Photo_Desktop" transform="translate(-249.000000, -363.000000)" fill="#095DA8" fill-rule="nonzero">
            <g id="Group-9" transform="translate(165.000000, 361.000000)">
                <g id="icon_share_linkedin" transform="translate(84.558824, 2.000000)">
                    <path d="M3.30808561,0.404491888 C1.68002378,0.404491888 0.362306776,1.72415721 0.362306776,3.34870826 C0.362306776,4.97468621 1.68002378,6.29435155 3.30808561,6.29435155 C4.93186681,6.29435155 6.25148629,4.97468621 6.25148629,3.34870826 C6.25148629,1.72415721 4.93186681,0.404491888 3.30808561,0.404491888 Z M0.767063017,24.871691 L5.84649224,24.871691 L5.84649224,8.52843629 L0.767063017,8.52843629 L0.767063017,24.871691 Z M9.03253267,8.52846009 L9.03253267,24.8717147 L14.1074435,24.8717147 L14.1074435,16.7870108 C14.1074435,14.6554266 14.513151,12.5909078 17.1559572,12.5909078 C19.7604756,12.5909078 19.795434,15.0288047 19.795434,16.9239953 L19.795434,24.8717147 L24.871296,24.8717147 L24.871296,15.9073132 C24.871296,11.5073982 23.9214744,8.12226284 18.7780737,8.12226284 C16.3072057,8.12226284 14.6503686,9.47664991 13.9721284,10.7615934 L13.9041141,10.7615934 L13.9041141,8.52846009 L9.03253267,8.52846009 Z" id="Shape"></path>
                </g>
            </g>
        </g>
    </g>
</svg>