<?xml version="1.0" encoding="UTF-8"?>
<svg width="50px" height="50px" viewBox="0 0 50 50" version="1.1" xmlns="http://www.w3.org/2000/svg" xmlns:xlink="http://www.w3.org/1999/xlink">
    <!-- Generator: Sketch 55.2 (78181) - https://sketchapp.com -->
    <title>Group 4</title>
    <desc>Created with Sketch.</desc>
    <g id="Page1" stroke="none" stroke-width="1" fill="none" fill-rule="evenodd">
        <g id="ThankYou_Subhead_B" transform="translate(-670.000000, -540.000000)">
            <g id="Group-4" transform="translate(670.000000, 540.000000)">
                <circle id="Oval" fill="#0A5CA8" cx="25" cy="25" r="25"></circle>
                <g id="icon_share_linkedin" transform="translate(15.000000, 15.000000)" fill="#FFFFFF">
                    <g id="Group-3">
                        <path d="M2.35662307,8.8817842e-15 C3.65564804,8.8817842e-15 4.71134364,1.05573226 4.71134364,2.3553731 C4.71134364,3.65615548 3.65564804,4.71188774 2.35662307,4.71188774 C1.0541736,4.71188774 4.35207426e-14,3.65615548 4.35207426e-14,2.3553731 C4.35207426e-14,1.05573226 1.0541736,8.8817842e-15 2.35662307,8.8817842e-15 L2.35662307,8.8817842e-15 Z M0.323804994,19.5737593 L4.38734839,19.5737593 L4.38734839,6.4991555 L0.323804994,6.4991555 L0.323804994,19.5737593 Z" id="Fill-4"></path>
                        <path d="M6.93618074,6.49917453 L10.8334459,6.49917453 L10.8334459,8.28568127 L10.8878573,8.28568127 C11.4304495,7.25772643 12.7559191,6.17421675 14.7326136,6.17421675 C18.8473341,6.17421675 19.6071914,8.88232505 19.6071914,12.402257 L19.6071914,19.5737783 L15.5465018,19.5737783 L15.5465018,13.2156027 C15.5465018,11.6994502 15.5185351,9.74913279 13.4349203,9.74913279 C11.3206754,9.74913279 10.9961094,11.4007478 10.9961094,13.1060151 L10.9961094,19.5737783 L6.93618074,19.5737783 L6.93618074,6.49917453 Z" id="Fill-6"></path>
                    </g>
                </g>
            </g>
        </g>
    </g>
</svg>