<?xml version="1.0" encoding="UTF-8"?>
<svg width="247px" height="40px" viewBox="0 0 247 40" version="1.1" xmlns="http://www.w3.org/2000/svg" xmlns:xlink="http://www.w3.org/1999/xlink">
    <!-- Generator: Sketch 53.2 (72643) - https://sketchapp.com -->
    <title>Seattle_Children's_logo_horiz</title>
    <desc>Created with Sketch.</desc>
    <g id="Page-1" stroke="none" stroke-width="1" fill="none" fill-rule="evenodd" opacity="0.5">
        <g id="XL-Desktop-v1.0" transform="translate(-1043.000000, -2089.000000)" fill="#FFFFFF" fill-rule="nonzero">
            <g id="Group" transform="translate(0.000000, 2029.441344)">
                <g id="Seattle_Children's_logo_horiz" transform="translate(1043.000000, 58.815961)">
                    <path d="M23.9815884,31.5048736 C23.9669667,31.1868098 24.1477878,30.8919871 24.4379223,30.7608368 C24.7280568,30.6296864 25.0688363,30.6887284 25.2979395,30.9098396 C25.5270427,31.1309508 25.5981423,31.4694202 25.477372,31.7640266 C25.3566017,32.0586331 25.0683824,32.249804 24.75,32.2464801 C24.3339656,32.2514895 23.991348,31.9208237 23.9815884,31.5048736 M40.5024368,19.7731949 C40.5024368,19.308574 40.4130866,18.5312274 40.4130866,18.5312274 C39.2742488,8.05731626 30.1393668,0.30530512 19.6197192,0.885633859 C9.10007158,1.4659626 0.873323922,10.1757485 0.893501805,20.7113718 C0.843983319,24.5171838 1.93299963,28.250954 4.02075812,31.4333935 C4.15478339,31.6388989 4.36922383,31.6299639 4.37815884,31.3797834 C4.37815884,31.3797834 4.37815884,31.2278881 4.37815884,31.2278881 C4.40543154,30.7685951 4.54668799,30.3233302 4.78916968,29.9323105 C5.02832536,29.5561848 5.36076771,29.2483678 5.75415162,29.0388087 C6.00093188,28.9044752 6.27733047,28.83384 6.55830325,28.8333032 C6.82354193,28.8504504 7.0766979,28.9504627 7.28203971,29.1192238 C7.75559567,29.5034296 8.54187726,30.2450361 8.98862816,30.5935018 C9.77235677,31.2301937 10.6378079,31.7590806 11.5619134,32.166065 C12.5188058,32.5961177 13.5039495,32.9603224 14.5104693,33.2561372 C14.5104693,33.4169675 13.9296931,34.5874549 11.1598375,33.3722924 C10.1607289,32.9101263 9.22160038,32.3280467 8.3631769,31.6388989 C7.88962094,31.2725632 7.60370036,30.9240975 7.05866426,30.5130866 C6.62228604,30.2804176 6.08338147,30.3763869 5.75415162,30.7453971 C4.93212996,31.5495487 4.79810469,33.4259025 8.04151625,35.9902527 C8.87539367,36.6626341 9.74968512,37.2832916 10.6594765,37.8487365 C16.1067815,41.0450968 22.7506584,41.4562835 28.5505259,38.956006 C34.3503933,36.4557285 38.6129034,31.3428836 40.0288809,25.1878159 C40.1885896,24.4242368 40.257569,23.6444691 40.2343863,22.8647112 C40.2343863,22.7306859 40.1629061,22.6324007 40.0288809,22.5966606 C40.073556,22.5966606 38.9745487,22.3196751 37.5538809,24.0083935 C36.8926895,24.75 36.3387184,25.9740975 35.5256318,27.1267148 C34.7059701,28.3510003 33.7854389,29.5046529 32.7736462,30.5756318 C30.7275271,32.7111011 28.0916968,34.65 25.6881769,34.6142599 C24.9040442,34.696903 24.1350618,34.3566453 23.6688628,33.7207581 C23.2935921,33.166787 23.4901625,32.9970217 23.6688628,33.148917 C23.7657338,33.2579276 23.8735165,33.3567284 23.9905235,33.4437726 C24.4718246,33.7634577 25.0530995,33.8968651 25.6256318,33.8190433 C27.7611011,33.7386282 30.2271661,31.8890794 32.1303249,29.7536101 C33.0668511,28.6830234 33.9154538,27.538605 34.66787,26.3314982 C35.4273466,25.2056859 35.9009025,24.0173285 36.6961191,23.0523466 C37.3837705,22.1371223 38.4247254,21.5534093 39.5642599,21.4440433 C39.666997,21.4687617 39.7734728,21.4210311 39.8233755,21.3278881 C39.8537552,21.265886 39.8537552,21.1933198 39.8233755,21.1313177 C35.632852,13.6884477 26.4744585,25.1163357 19.5855596,25.7685921 C10.4271661,26.6620939 8.45252708,19.6212996 8.98862816,15.6720217 C9.75703971,10.1859206 14.1351986,5.71841155 20.9079422,5.27166065 C29.4587545,4.71768953 33.5777978,9.91787004 34.0692238,11.4636282 C34.4486847,12.3836607 34.526885,13.4002652 34.2925993,14.367509 C34.0513538,15.6988267 32.15713,17.5841155 31.3083032,18.3703971 C31.1117329,18.5759025 31.3708484,18.5133574 31.4512635,18.4865523 C32.3026369,18.0688468 33.176648,17.6989581 34.0692238,17.3786101 C34.7214801,17.1641697 35.4094765,16.9765343 35.7490072,16.815704 C35.9655022,16.6892273 36.1716509,16.5458195 36.3655235,16.3868231 C36.5311702,16.2488515 36.7717178,16.2488515 36.9373646,16.3868231 C37.1518051,16.5476534 37.14287,16.833574 37.3126354,17.0480144 C37.4564023,17.2203894 37.6324384,17.3630394 37.8308664,17.4679603 C38.8394204,18.0620048 39.7079935,18.8665778 40.3773466,19.8268051 L40.3773466,19.8268051 C40.4935018,20.0323105 40.5024368,19.8268051 40.5024368,19.78213" id="Shape"></path>
                    <path d="M22.3375451,12.4554152 L22.3375451,12.4554152 L22.3375451,12.4554152 C22.3231554,12.8100724 22.0313027,13.0900932 21.6763538,13.0898014 C21.4267554,13.1191658 21.1824892,13.0025165 21.0484311,12.789937 C20.9143729,12.5773576 20.9143729,12.3066677 21.0484311,12.0940882 C21.1824892,11.8815088 21.4267554,11.7648595 21.6763538,11.7942238 C22.0415197,11.7942238 22.3375451,12.0902493 22.3375451,12.4554152 M30.6649819,10.0608303 C29.6627889,9.11609026 28.5051035,8.35135288 27.24287,7.80027076 C25.4669066,7.16682183 23.5975666,6.83462893 21.7120939,6.81741877 C19.6016895,6.85304025 17.5316936,7.40197248 15.6809567,8.416787 C13.4499661,9.72044885 11.7960784,11.8213332 11.0526173,14.2960289 C10.152219,16.9449554 10.7536821,19.8736705 12.6251805,21.9533394 C14.1165564,23.4643987 16.1888479,24.2561705 18.307852,24.1245487 C20.089397,24.0452636 21.8236658,23.5265177 23.3561372,22.6145307 C23.3561372,22.6145307 28.8779783,19.7374549 30.1288809,19.1120036 C30.218231,19.0405235 30.1288809,18.9958484 30.0574007,18.9779783 C29.0388087,18.9154332 27.4483755,18.9779783 27.20713,18.9779783 C26.6107775,18.9467232 26.0128343,18.9676512 25.4201264,19.0405235 C25.0197219,19.0666296 24.6407758,19.2308396 24.3479242,19.5051444 C24.2380523,19.6359615 24.1185882,19.7584122 23.9905235,19.8714801 C23.8490489,20.046159 23.6172148,20.1199244 23.4008123,20.0591155 C23.2042419,20.0591155 23.1148917,19.8536101 22.9004513,19.5408845 C22.7194916,19.2893714 22.4762449,19.0892317 22.1945848,18.9601083 C21.6428767,18.7432343 21.0539036,18.6369762 20.4611913,18.6473827 C19.7168935,18.6463785 18.9774413,18.7671054 18.2721119,19.0047834 L18.2721119,19.0047834 C17.9951264,19.0762635 18.1559567,19.1566787 18.2721119,19.2013538 L18.3793321,19.2013538 C18.6262779,19.3092025 18.841571,19.4783614 19.0047834,19.6927798 C19.2507904,20.0853242 19.306598,20.5678956 19.1566787,21.0062274 C19.0239749,21.2957795 18.7972542,21.531947 18.5133574,21.6763538 C18.1578857,21.8054732 17.7716924,21.82416 17.4054152,21.7299639 C16.8376097,21.5851508 16.3768799,21.1711617 16.1723827,20.6220217 C16.0341874,20.2195654 16.0341874,19.7825105 16.1723827,19.3800542 C16.2259928,19.2460289 16.0562274,19.317509 16.0562274,19.317509 L15.7971119,19.4157942 C15.4453773,19.5274238 15.0677093,19.5274238 14.7159747,19.4157942 L14.7159747,19.4157942 C14.3664733,19.2934258 14.0636183,19.0655039 13.849278,18.7635379 C13.7241778,18.5787583 13.619332,18.381049 13.5365523,18.1738267 C13.5138002,18.0889532 13.5138002,17.9995847 13.5365523,17.9147112 C13.5793672,17.8004102 13.6618076,17.7052867 13.7688628,17.6466606 C14.0123934,17.5377303 14.2482273,17.4123503 14.4747292,17.2713899 C14.8715109,17.034206 15.2376164,16.7491238 15.5648014,16.4225632 C15.8689088,16.1235573 16.1170449,15.7725355 16.2974729,15.3861011 C16.5476534,15.3861011 16.833574,16.0830325 16.1902527,16.815704 C15.9350683,17.1176188 15.6334626,17.3769997 15.2967509,17.5841155 C15.1371901,17.694178 14.9699784,17.7927134 14.7963899,17.8789711 C14.6444946,17.9504513 14.4121841,18.0755415 14.5462094,18.298917 C14.8829011,18.7994289 15.5254436,18.993686 16.0830325,18.7635379 C16.4793123,18.6529388 16.8604384,18.4938862 17.2177798,18.2899819 C17.6913357,18.0219314 17.9147112,17.9057762 18.0219314,17.8521661 C18.0717398,17.8183502 18.125824,17.7913082 18.1827617,17.7717509 C19.1890541,17.4365223 20.2580191,17.33268 21.3100181,17.4679603 C23.384556,17.8700522 25.5067715,17.9663797 27.6092058,17.7538809 C28.8444884,17.6298644 30.0159741,17.1451117 30.9777076,16.3600181 C31.1857416,16.200773 31.382762,16.0276338 31.5674188,15.841787 C31.5674188,15.6362816 31.1385379,15.4843863 30.2897112,15.5290614 C29.0924188,15.5916065 27.4930505,15.9043321 25.8222022,15.9132671 C24.2882953,16.0413128 22.7476724,15.7640007 21.3546931,15.1091155 C20.8606508,14.8207454 20.4960693,14.3538254 20.3361011,13.8046029 C20.2288809,13.3935921 20.3986462,13.2238267 20.4343863,13.2416968 C20.6539765,13.8059394 21.0828804,14.2636503 21.6316787,14.5194043 C22.9828981,15.0483753 24.4460413,15.2266575 25.8847473,15.0376354 C27.4662455,14.9393502 28.8779783,14.6981047 30.1110108,14.5819495 C30.7227878,14.4644933 31.3563991,14.5690392 31.8980144,14.8768051 C31.9521355,14.935362 32.0282503,14.9686588 32.1079874,14.9686588 C32.1877244,14.9686588 32.2638392,14.935362 32.3179603,14.8768051 L32.4787906,14.6087545 C33.0685018,13.5633574 32.2732852,11.5529783 30.691787,10.1412455" id="Shape"></path>
                    <polygon id="Path" points="51.4120939 31.5495487 52.3055957 31.5495487 52.3055957 33.658213 54.7269856 33.658213 54.7269856 31.5495487 55.6204874 31.5495487 55.6204874 36.633574 54.7269856 36.633574 54.7269856 34.4802347 52.2966606 34.4802347 52.2966606 36.633574 51.4031588 36.633574"></polygon>
                    <path d="M58.3724729,34.0960289 L58.3724729,34.0960289 C58.5739382,32.7886973 59.6989419,31.8237814 61.0217058,31.8237814 C62.3444696,31.8237814 63.4694733,32.7886973 63.6709386,34.0960289 L63.6709386,34.0960289 C63.6760516,34.8036448 63.3935144,35.4829859 62.8881128,35.9782795 C62.3827112,36.4735731 61.6978015,36.7423299 60.9904332,36.7229242 C60.2900978,36.7377809 59.6141691,36.465495 59.1196903,35.9693285 C58.6252115,35.4731621 58.3552302,34.7963096 58.3724729,34.0960289 L58.3724729,34.0960289 Z M62.7327617,34.0960289 L62.7327617,34.0960289 C62.7327617,33.1485714 61.9646957,32.3805054 61.0172383,32.3805054 C60.0697808,32.3805054 59.3017148,33.1485714 59.3017148,34.0960289 L59.3017148,34.0960289 C59.2872473,34.5634237 59.462235,35.0168371 59.7869503,35.3533296 C60.1116656,35.6898222 60.5585597,35.8808459 61.0261733,35.8830325 C61.4930723,35.8835511 61.939796,35.6927541 62.262259,35.3550965 C62.5847219,35.017439 62.7547625,34.5624096 62.7327617,34.0960289 L62.7327617,34.0960289 Z" id="Shape"></path>
                    <path d="M66.0476534,35.8740975 L66.5837545,35.2397112 C67.0138509,35.654784 67.5854838,35.8911015 68.1831227,35.9009025 C68.7370939,35.9009025 69.0766245,35.641787 69.0766245,35.2665162 L69.0766245,35.2665162 C69.0766245,34.9001805 68.8711191,34.7125451 67.9329422,34.4891697 C66.8518051,34.2300542 66.2442238,33.9083935 66.2442238,32.9791516 L66.2442238,32.9791516 C66.2634033,32.5486427 66.4614262,32.1456837 66.7905254,31.8674761 C67.1196247,31.5892685 67.5499205,31.4610715 67.9776173,31.5138087 C68.646718,31.501917 69.2985444,31.7265756 69.818231,32.1481949 L69.3357401,32.8183213 C68.9462727,32.4994337 68.4628141,32.3173519 67.9597473,32.3000903 C67.4415162,32.3000903 67.1377256,32.5681408 67.1377256,32.8987365 L67.1377256,32.8987365 C67.1377256,33.2918773 67.3700361,33.4616426 68.3350181,33.6939531 C69.3,33.9262635 69.9701264,34.3372744 69.9701264,35.1771661 L69.9701264,35.1771661 C69.9701264,36.124278 69.2195848,36.6871841 68.1831227,36.6871841 C67.3940619,36.6961152 66.6309574,36.4055608 66.0476534,35.8740975 Z" id="Path"></path>
                    <path d="M72.8293321,31.5495487 L74.8307762,31.5495487 C75.317556,31.4852803 75.8084327,31.6337877 76.177951,31.9571161 C76.5474692,32.2804446 76.7598229,32.7472639 76.7607401,33.2382671 L76.7607401,33.2382671 C76.7501323,33.7477525 76.522513,34.2284734 76.1351176,34.5595514 C75.7477222,34.8906294 75.2374066,35.0405665 74.732491,34.9716606 L73.7228339,34.9716606 L73.7228339,36.633574 L72.8293321,36.633574 L72.8293321,31.5495487 Z M74.759296,34.1853791 C75.4294224,34.1853791 75.8493682,33.8101083 75.8493682,33.2918773 L75.8493682,33.2918773 C75.8493682,32.7021661 75.4294224,32.3983755 74.759296,32.3983755 L73.7228339,32.3983755 L73.7228339,34.1853791 L74.759296,34.1853791 Z" id="Shape"></path>
                    <polygon id="Path" points="79.5216606 31.5495487 80.4151625 31.5495487 80.4151625 36.633574 79.5216606 36.633574"></polygon>
                    <polygon id="Path" points="84.8290614 32.3715704 83.2207581 32.3715704 83.2207581 31.5495487 87.3308664 31.5495487 87.3308664 32.3715704 85.7225632 32.3715704 85.7225632 36.633574 84.8290614 36.633574"></polygon>
                    <path d="M91.2265343,31.5138087 L92.0306859,31.5138087 L94.2644404,36.615704 L93.3173285,36.615704 L92.8080325,35.3916065 L90.4134477,35.3916065 L89.9041516,36.633574 L89.0106498,36.633574 L91.2265343,31.5138087 Z M92.5042419,34.6053249 L91.6107401,32.5770758 L90.7172383,34.6053249 L92.5042419,34.6053249 Z" id="Shape"></path>
                    <polygon id="Path" points="96.9538809 31.5495487 97.8473827 31.5495487 97.8473827 35.8026173 100.527888 35.8026173 100.527888 36.633574 96.9538809 36.633574"></polygon>
                    <path d="M105.325993,34.0513538 L105.325993,34.0513538 C105.367435,33.6755093 105.685009,33.3910265 106.063132,33.3910265 C106.441254,33.3910265 106.758829,33.6755093 106.800271,34.0513538 L106.800271,34.0513538 C106.758829,34.4271983 106.441254,34.7116811 106.063132,34.7116811 C105.685009,34.7116811 105.367435,34.4271983 105.325993,34.0513538 L105.325993,34.0513538 Z" id="Path"></path>
                    <path d="M112.331047,31.5495487 L114.591606,31.5495487 C115.125491,31.5188532 115.649604,31.7021322 116.048014,32.0588448 C116.329439,32.3505948 116.480905,32.7437622 116.46796,33.148917 L116.46796,33.148917 C116.500566,33.8906415 115.98914,34.5460246 115.261733,34.6946751 L116.628791,36.633574 L115.583394,36.633574 L114.368231,34.8465704 L113.251354,34.8465704 L113.251354,36.633574 L112.357852,36.633574 L112.331047,31.5495487 Z M114.520126,34.0602888 C115.163448,34.0602888 115.565523,33.7296931 115.565523,33.2114621 L115.565523,33.2114621 C115.565523,32.666426 115.172383,32.3715704 114.511191,32.3715704 L113.215614,32.3715704 L113.215614,34.0692238 L114.520126,34.0602888 Z" id="Shape"></path>
                    <polygon id="Path" points="119.371841 31.5495487 123.124549 31.5495487 123.124549 32.3447653 120.265343 32.3447653 120.265343 33.667148 122.802888 33.667148 122.802888 34.4623646 120.265343 34.4623646 120.265343 35.8204874 123.169224 35.8204874 123.169224 36.633574 119.371841 36.633574"></polygon>
                    <path d="M125.688899,35.8740975 L126.225,35.2397112 C126.654091,35.6563169 127.226359,35.892897 127.824368,35.9009025 C128.378339,35.9009025 128.71787,35.641787 128.71787,35.2665162 L128.71787,35.2665162 C128.71787,34.9001805 128.512365,34.7125451 127.574188,34.4891697 C126.493051,34.2300542 125.885469,33.9083935 125.885469,32.9791516 L125.885469,32.9791516 C125.904649,32.5486427 126.102672,32.1456837 126.431771,31.8674761 C126.76087,31.5892685 127.191166,31.4610715 127.618863,31.5138087 C128.270232,31.5107104 128.902253,31.7350779 129.405866,32.1481949 L128.93231,32.8183213 C128.542843,32.4994337 128.059384,32.3173519 127.556318,32.3000903 C127.038087,32.3000903 126.725361,32.5681408 126.725361,32.8987365 L126.725361,32.8987365 C126.725361,33.2918773 126.957671,33.4616426 127.931588,33.6939531 C128.905505,33.9262635 129.557762,34.3372744 129.557762,35.1771661 L129.557762,35.1771661 C129.557762,36.124278 128.816155,36.6871841 127.770758,36.6871841 C127.000178,36.6826974 126.25855,36.3930487 125.688899,35.8740975 L125.688899,35.8740975 Z" id="Path"></path>
                    <polygon id="Path" points="132.470578 31.5495487 136.23222 31.5495487 136.23222 32.3447653 133.364079 32.3447653 133.364079 33.667148 135.901625 33.667148 135.901625 34.4623646 133.364079 34.4623646 133.364079 35.8204874 136.26796 35.8204874 136.26796 36.633574 132.470578 36.633574"></polygon>
                    <path d="M140.923105,31.5138087 L141.754061,31.5138087 L143.978881,36.633574 L143.085379,36.633574 L142.576083,35.4094765 L140.172563,35.4094765 L139.609657,36.633574 L138.716155,36.633574 L140.923105,31.5138087 Z M142.200812,34.6053249 L141.30731,32.5770758 L140.413809,34.6053249 L142.200812,34.6053249 Z" id="Shape"></path>
                    <path d="M146.659386,31.5495487 L148.919946,31.5495487 C149.45383,31.5188532 149.977944,31.7021322 150.376354,32.0588448 C150.66017,32.3496888 150.814779,32.7426523 150.805235,33.148917 L150.805235,33.148917 C150.828111,33.8867771 150.314147,34.5330112 149.590072,34.6768051 L151.001805,36.633574 L149.956408,36.633574 L148.705505,34.8465704 L147.597563,34.8465704 L147.597563,36.633574 L146.704061,36.633574 L146.659386,31.5495487 Z M148.848466,34.0602888 C149.491787,34.0602888 149.893863,33.7296931 149.893863,33.2114621 L149.893863,33.2114621 C149.893863,32.666426 149.500722,32.3715704 148.848466,32.3715704 L147.552888,32.3715704 L147.552888,34.0692238 L148.848466,34.0602888 Z" id="Shape"></path>
                    <path d="M153.476805,34.0960289 L153.476805,34.0960289 C153.462118,33.3988611 153.731982,32.7257761 154.22422,32.2318525 C154.716458,31.7379289 155.388616,31.4657654 156.08583,31.4780686 C156.830411,31.451866 157.552305,31.7367389 158.078339,32.2643502 L157.506498,32.9255415 C157.13461,32.5369267 156.623586,32.3119475 156.08583,32.3000903 C155.624338,32.3067355 155.185443,32.5009929 154.870226,32.8381237 C154.555009,33.1752545 154.390643,33.6261961 154.414982,34.0870939 L154.414982,34.0870939 C154.39567,34.5466788 154.561734,34.9947667 154.875893,35.3307658 C155.190052,35.6667648 155.625985,35.8625241 156.08583,35.8740975 C156.640496,35.8669187 157.167546,35.6308779 157.542238,35.2218412 L158.114079,35.7936823 C157.596364,36.3879906 156.837731,36.7164035 156.05009,36.6871841 C155.362273,36.6945313 154.700739,36.4233091 154.216038,35.9352413 C153.731336,35.4471735 153.464698,34.7837784 153.476805,34.0960289 L153.476805,34.0960289 Z" id="Path"></path>
                    <polygon id="Path" points="160.830325 31.5495487 161.723827 31.5495487 161.723827 33.658213 164.145217 33.658213 164.145217 31.5495487 165.038718 31.5495487 165.038718 36.633574 164.145217 36.633574 164.145217 34.4802347 161.723827 34.4802347 161.723827 36.633574 160.830325 36.633574"></polygon>
                    <path d="M170.891155,34.0513538 L170.891155,34.0513538 C170.891125,33.6501743 171.213742,33.3235747 171.614892,33.3186823 C172.021006,33.3186528 172.351605,33.6452694 172.356498,34.0513538 L172.356498,34.0513538 C172.356498,34.455997 172.02847,34.7840251 171.623827,34.7840251 C171.219183,34.7840251 170.891155,34.455997 170.891155,34.0513538 L170.891155,34.0513538 Z" id="Path"></path>
                    <polygon id="Path" points="177.887274 31.5495487 181.657852 31.5495487 181.657852 32.3626354 178.780776 32.3626354 178.780776 33.7475632 181.380866 33.7475632 181.380866 34.5517148 178.825451 34.5517148 178.825451 36.633574 177.931949 36.633574"></polygon>
                    <path d="M184.061372,34.0960289 L184.061372,34.0960289 C184.056175,33.3891853 184.338987,32.710691 184.84468,32.2167981 C185.350372,31.7229053 186.035353,31.4561878 186.741877,31.4780686 C187.448986,31.4485029 188.137058,31.7114688 188.644212,32.2050993 C189.151367,32.6987297 189.43283,33.3794445 189.422383,34.0870939 L189.422383,34.0870939 C189.427496,34.7947098 189.144958,35.4740509 188.639557,35.9693445 C188.134155,36.464638 187.449246,36.7333949 186.741877,36.7139892 C186.033192,36.7436615 185.343686,36.4794949 184.836246,35.9838948 C184.328806,35.4882948 184.048437,34.805217 184.061372,34.0960289 Z M188.430596,34.0960289 L188.430596,34.0960289 C188.430596,33.1485714 187.66253,32.3805054 186.715072,32.3805054 C185.767615,32.3805054 184.999549,33.1485714 184.999549,34.0960289 L184.999549,34.0960289 C184.985081,34.5634237 185.160069,35.0168371 185.484784,35.3533296 C185.8095,35.6898222 186.256394,35.8808459 186.724007,35.8830325 C187.187797,35.878692 187.629843,35.685769 187.948405,35.3486667 C188.266966,35.0115644 188.434601,34.5593225 188.412726,34.0960289 L188.430596,34.0960289 Z" id="Shape"></path>
                    <path d="M192.031408,34.4623646 L192.031408,31.5495487 L192.92491,31.5495487 L192.92491,34.4266245 C192.92491,35.3737365 193.416336,35.8740975 194.211552,35.8740975 C195.006769,35.8740975 195.480325,35.4005415 195.480325,34.4623646 L195.480325,31.5495487 L196.373827,31.5495487 L196.373827,34.4266245 C196.448506,35.0324416 196.246374,35.6396761 195.823507,36.0798742 C195.40064,36.5200723 194.802009,36.7464176 194.193682,36.6961191 C193.592704,36.7489515 192.999957,36.5278774 192.580354,36.0944031 C192.160751,35.6609288 191.959065,35.061308 192.031408,34.4623646 Z" id="Path"></path>
                    <polygon id="Path" points="199.393863 31.5495487 200.215884 31.5495487 202.89639 35.0520758 202.89639 31.5495487 203.789892 31.5495487 203.789892 36.633574 203.048285 36.633574 200.251625 33.0595668 200.251625 36.633574 199.358123 36.633574"></polygon>
                    <path d="M206.926083,31.5495487 L208.811372,31.5495487 C209.506358,31.5077239 210.187839,31.7543126 210.695141,32.231177 C211.202444,32.7080414 211.490674,33.372981 211.491877,34.0692238 L211.491877,34.0692238 C211.490396,34.7669157 211.202717,35.4334429 210.696047,35.9130904 C210.189377,36.3927379 209.508098,36.6434912 208.811372,36.606769 L206.926083,36.606769 L206.926083,31.5495487 Z M208.811372,35.8026173 C209.28197,35.8412043 209.746606,35.676696 210.088081,35.3505875 C210.429556,35.0244789 210.615269,34.5679044 210.598375,34.0960289 L210.598375,34.0960289 C210.614992,33.6234703 210.429525,33.1662074 210.088416,32.8387434 C209.747308,32.5112793 209.282859,32.3446225 208.811372,32.3805054 L207.81065,32.3805054 L207.81065,35.8204874 L208.811372,35.8026173 Z" id="Shape"></path>
                    <path d="M215.843231,31.5138087 L216.665253,31.5138087 L218.907942,36.633574 L217.96083,36.633574 L217.451534,35.4094765 L215.048014,35.4094765 L214.520848,36.633574 L213.627347,36.633574 L215.843231,31.5138087 Z M217.120939,34.6053249 L216.227437,32.5770758 L215.333935,34.6053249 L217.120939,34.6053249 Z" id="Shape"></path>
                    <polygon id="Path" points="222.169224 32.3715704 220.560921 32.3715704 220.560921 31.5495487 224.671029 31.5495487 224.671029 32.3715704 223.062726 32.3715704 223.062726 36.633574 222.169224 36.633574"></polygon>
                    <polygon id="Path" points="227.46769 31.5495487 228.361191 31.5495487 228.361191 36.633574 227.46769 36.633574"></polygon>
                    <path d="M231.175722,34.0960289 L231.175722,34.0960289 C231.377187,32.7886973 232.502191,31.8237814 233.824955,31.8237814 C235.147719,31.8237814 236.272722,32.7886973 236.474188,34.0960289 L236.474188,34.0960289 C236.479301,34.8036448 236.196764,35.4829859 235.691362,35.9782795 C235.18596,36.4735731 234.501051,36.7423299 233.793682,36.7229242 C233.093347,36.7377809 232.417418,36.465495 231.922939,35.9693285 C231.428461,35.4731621 231.158479,34.7963096 231.175722,34.0960289 Z M235.536011,34.0960289 L235.536011,34.0960289 C235.536011,33.1485714 234.767945,32.3805054 233.820487,32.3805054 C232.87303,32.3805054 232.104964,33.1485714 232.104964,34.0960289 L232.104964,34.0960289 C232.090496,34.5634237 232.265484,35.0168371 232.590199,35.3533296 C232.914915,35.6898222 233.361809,35.8808459 233.829422,35.8830325 C234.295515,35.8810099 234.740721,35.6894247 235.06263,35.3523476 C235.384538,35.0152704 235.555436,34.5617207 235.536011,34.0960289 L235.536011,34.0960289 Z" id="Shape"></path>
                    <polygon id="Path" points="239.226173 31.5495487 240.05713 31.5495487 242.737635 35.0520758 242.737635 31.5495487 243.631137 31.5495487 243.631137 36.633574 242.880596 36.633574 240.083935 33.0595668 240.083935 36.633574 239.190433 36.633574"></polygon>
                    <path d="M236.777978,11.1598375 L236.777978,8.69377256 L235.401986,8.69377256 C234.859898,8.75835233 234.4223,9.16701832 234.320848,9.7034296 L234.320848,10.9900722 L235.607491,10.9900722 L235.607491,11.1955776 C235.695466,11.8832142 235.23388,12.5208285 234.553159,12.6519856 L234.553159,13.6795126 C235.185865,13.6499859 235.779603,13.3653354 236.198837,12.8905398 C236.618072,12.4157441 236.827018,11.7913307 236.777978,11.1598375" id="Path"></path>
                    <path d="M50.2416065,21.5870036 L52.0286101,19.5230144 C53.4108389,20.8678669 55.2557778,21.6320617 57.1841155,21.6584838 C58.9711191,21.6584838 60.0969314,20.8364621 60.0969314,19.5944946 L60.0969314,19.5498195 C60.0969314,18.3703971 59.4357401,17.7628159 56.3888989,17.0301444 C52.8774368,16.1902527 50.9296029,15.1895307 50.9296029,12.1248195 L50.9296029,12.0801444 C50.9296029,9.2566787 53.2795126,7.30884477 56.5407942,7.30884477 C58.7050695,7.27005794 60.8121039,8.00514362 62.4825812,9.38176895 L60.9368231,11.5619134 C59.6734171,10.5226275 58.1040812,9.92627987 56.4693141,9.86425993 C54.7805957,9.86425993 53.7888087,10.7577617 53.7888087,11.8210289 L53.7888087,11.8210289 C53.7888087,13.0898014 54.5482852,13.6527076 57.6934116,14.4032491 C61.1691336,15.2967509 62.9740072,16.4940433 62.9740072,19.2192238 L62.9740072,19.2638989 C62.9740072,22.3464801 60.5615523,24.1781588 57.1037004,24.1781588 C54.5726939,24.2034838 52.1241778,23.2789139 50.2416065,21.5870036 L50.2416065,21.5870036 Z" id="Path"></path>
                    <path d="M64.6448556,17.8700361 L64.6448556,17.825361 C64.6448556,14.2513538 67.1555957,11.365343 70.7027978,11.365343 C74.6520758,11.365343 76.6445848,14.4657942 76.6445848,18.0308664 C76.6445848,18.2899819 76.6445848,18.5490975 76.6445848,18.8350181 L67.4861913,18.8350181 C67.6555702,20.6649878 69.2235447,22.0448053 71.0601986,21.9801444 C72.3408862,21.9901486 73.564279,21.4500337 74.4197653,20.4969314 L76.0816787,21.9801444 C74.8484602,23.5082636 72.9691679,24.368503 71.0065884,24.3032491 C69.2916742,24.354271 67.6326604,23.6904452 66.4262927,22.4705227 C65.2199249,21.2506003 64.5746765,19.5842732 64.6448556,17.8700361 L64.6448556,17.8700361 Z M73.8300542,16.9765343 C73.6424188,15.1895307 72.5612816,13.7152527 70.6849278,13.7152527 C68.808574,13.7152527 67.7185018,15.0555054 67.4593863,16.9765343 L73.8300542,16.9765343 Z" id="Shape"></path>
                    <path d="M117.942238,17.8700361 L117.942238,17.825361 C117.942238,14.2513538 120.461913,11.365343 124.000181,11.365343 C127.949458,11.365343 129.941968,14.4657942 129.941968,18.0308664 C129.941968,18.2899819 129.941968,18.5490975 129.941968,18.8350181 L120.828249,18.8350181 C120.997628,20.6649878 122.565602,22.0448053 124.402256,21.9801444 C125.682944,21.9901486 126.906337,21.4500337 127.761823,20.4969314 L129.423736,21.9801444 C127.691848,24.1031183 124.810404,24.9048356 122.23091,23.9814369 C119.651416,23.0580383 117.933375,20.6098128 117.942238,17.8700361 Z M127.127437,16.9765343 C126.939801,15.1895307 125.858664,13.7152527 123.98231,13.7152527 C122.105957,13.7152527 121.015884,15.0555054 120.765704,16.9765343 L127.127437,16.9765343 Z" id="Shape"></path>
                    <path d="M136.768321,15.8149819 L136.768321,15.7613718 C136.719215,13.4961924 137.596199,11.30899 139.196612,9.70520444 C140.797024,8.10141885 142.982376,7.21983207 145.247653,7.26416968 C147.659649,7.17760807 149.997109,8.10805333 151.689801,9.82851986 L149.831318,11.9729242 C148.632642,10.7032161 146.975469,9.96633717 145.229783,9.92680505 C143.731591,9.94915569 142.306805,10.5793871 141.282408,11.6728636 C140.25801,12.7663401 139.721965,14.2291672 139.797292,15.7256318 L139.797292,15.7703069 C139.797292,18.9958484 142.075722,21.6227437 145.229783,21.6227437 C147.031573,21.6010337 148.742164,20.8267322 149.947473,19.4872744 L151.805957,21.3636282 C150.131804,23.2880989 147.680964,24.3576758 145.131498,24.276444 C142.888787,24.3012448 140.732095,23.4144968 139.155453,21.8193259 C137.578811,20.2241551 136.71732,18.0572506 136.768321,15.8149819 L136.768321,15.8149819 Z" id="Path"></path>
                    <rect id="Rectangle" x="169.229242" y="11.5887184" width="2.84133574" height="12.4018051"></rect>
                    <path d="M78.1456679,17.807491 L78.1456679,17.7628159 C78.1456679,13.6527076 80.8261733,11.3296029 83.658574,11.3296029 C85.2910531,11.3290079 86.8148081,12.1479423 87.7150722,13.5097473 L87.7150722,11.1151625 L90.3955776,11.1151625 L90.3955776,23.9905235 L87.7150722,23.9905235 L87.7150722,21.9175993 C86.8708114,23.3579689 85.3281302,24.2448407 83.658574,24.249639 C80.8708484,24.249639 78.1456679,21.9175993 78.1456679,17.807491 Z M87.7597473,17.807491 L87.7597473,17.7628159 C87.7597473,15.368231 86.142509,13.7956679 84.3108303,13.7956679 C82.4791516,13.7956679 80.8976534,15.2967509 80.8976534,17.7628159 L80.8976534,17.807491 C80.8976534,20.2020758 82.4702166,21.774639 84.3108303,21.774639 C86.151444,21.774639 87.7597473,20.1842058 87.7597473,17.807491 Z" id="Shape"></path>
                    <path d="M197.687274,11.6155235 L200.52861,11.6155235 L200.52861,14.4032491 C201.148124,12.5214381 202.945581,11.2829461 204.924639,11.374278 L204.924639,14.3853791 L204.754874,14.3853791 C202.270939,14.3853791 200.52861,16.0026173 200.52861,19.290704 L200.52861,24.0173285 L197.687274,24.0173285 L197.687274,11.6155235 Z" id="Path"></path>
                    <path d="M100.572563,14.0279783 L100.572563,11.6155235 L97.2308664,11.6155235 L97.2308664,6.0400722 L95.6046931,6.0400722 C94.9256318,6.0400722 94.4878159,6.47788809 94.4252708,7.3267148 L94.4252708,11.6155235 L92.8527076,11.6155235 L92.8527076,14.0279783 L94.4252708,14.0279783 L94.4252708,20.5505415 C94.4252708,23.2310469 95.9084838,24.1870939 97.999278,24.1870939 C98.8929296,24.212008 99.7764486,23.9926729 100.554693,23.5527076 L100.554693,21.2296029 C100.002845,21.5150103 99.388897,21.6592881 98.7676895,21.6495487 C98.3431904,21.7116397 97.9144645,21.568142 97.6128732,21.2630232 C97.3112818,20.9579045 97.1727788,20.5275391 97.2398014,20.1037906 L97.2398014,14.0279783 L100.572563,14.0279783 Z" id="Path"></path>
                    <path d="M109.900722,14.0279783 L109.900722,11.6155235 L106.559025,11.6155235 L106.559025,6.0400722 L104.906047,6.0400722 C104.218051,6.0400722 103.762365,6.49575812 103.71769,7.37138989 L103.71769,11.6155235 L102.145126,11.6155235 L102.145126,14.0279783 L103.71769,14.0279783 L103.71769,20.5505415 C103.71769,23.2310469 105.200903,24.1870939 107.291697,24.1870939 C108.18802,24.2104911 109.074016,23.9913074 109.856047,23.5527076 L109.856047,21.2296029 C109.303309,21.5125952 108.689972,21.6567294 108.069043,21.6495487 C107.644544,21.7116397 107.215818,21.568142 106.914227,21.2630232 C106.612636,20.9579045 106.474133,20.5275391 106.541155,20.1037906 L106.541155,14.0279783 L109.900722,14.0279783 Z" id="Path"></path>
                    <path d="M113.930415,6.0400722 C113.614687,6.02791973 113.307632,6.14491108 113.080039,6.36407545 C112.852445,6.58323981 112.723954,6.88566271 112.724188,7.20162455 L112.724187,23.9905235 L115.565523,23.9905235 L115.565523,6.0400722 L113.930415,6.0400722 Z" id="Path"></path>
                    <path d="M161.223466,11.3296029 C159.635221,11.3153233 158.158818,12.145375 157.345668,13.5097473 L157.345668,6.04900722 L155.630144,6.04900722 C154.968953,6.09368231 154.531137,6.53149819 154.504332,7.40712996 L154.504332,23.9905235 L157.345668,23.9905235 L157.345668,16.9765343 C157.345668,15.0555054 158.498285,13.9028881 160.133394,13.9028881 C161.768502,13.9028881 162.813899,15.0018953 162.813899,16.9318592 L162.813899,23.9815884 L165.655235,23.9815884 L165.655235,16.0830325 C165.637365,13.2059567 164.011191,11.3296029 161.223466,11.3296029 Z" id="Path"></path>
                    <path d="M177.047383,6.03113718 C176.394073,6.07416954 175.898643,6.6375221 175.93944,7.29097473 L175.93944,23.9905235 L178.789711,23.9905235 L178.789711,6.03113718 L177.047383,6.03113718 Z" id="Path"></path>
                    <path d="M192.370939,6.04900722 C191.818484,6.07145877 191.364103,6.49176155 191.298736,7.04079422 L191.298736,13.5097473 C190.333415,12.1331729 188.753745,11.3182899 187.072473,11.3296029 C184.114982,11.3296029 181.318321,13.6527076 181.318321,17.7628159 L181.318321,17.807491 C181.318321,21.9175993 184.159657,24.249639 187.072473,24.249639 C188.790467,24.2583776 190.390133,23.3756867 191.298736,21.9175993 L191.298736,23.9905235 L194.140072,23.9905235 L194.140072,6.04900722 L192.370939,6.04900722 Z M191.343412,17.807491 C191.343412,19.7813607 189.743274,21.3814982 187.769404,21.3814982 C185.795535,21.3814982 184.195397,19.7813607 184.195397,17.807491 L184.195397,17.7628159 C184.195397,15.2967509 185.82157,13.7956679 187.769404,13.7956679 C188.77508,13.8320463 189.723027,14.2746451 190.396601,15.0223116 C191.070174,15.769978 191.411803,16.7588095 191.343412,17.7628159 L191.343412,17.807491 Z" id="Shape"></path>
                    <path d="M206.282762,17.8700361 L206.282762,17.825361 C206.282762,14.2513538 208.793502,11.365343 212.340704,11.365343 C216.289982,11.365343 218.282491,14.4657942 218.282491,18.0308664 C218.282491,18.2899819 218.282491,18.5490975 218.237816,18.8350181 L209.124097,18.8350181 C209.289165,20.6671783 210.859826,22.0493599 212.698105,21.9801444 C213.978792,21.9901486 215.202185,21.4500337 216.057671,20.4969314 L217.72852,21.9801444 C216.495301,23.5082636 214.616009,24.368503 212.65343,24.3032491 C210.936988,24.3568034 209.275592,23.6940946 208.067239,22.4738793 C206.858887,21.2536641 206.212441,19.5858726 206.282762,17.8700361 L206.282762,17.8700361 Z M215.459025,16.9765343 C215.27139,15.1895307 214.199188,13.7152527 212.313899,13.7152527 C210.580505,13.7152527 209.356408,15.0555054 209.097292,16.9765343 L215.459025,16.9765343 Z" id="Shape"></path>
                    <path d="M221.150632,11.6155235 L223.991968,11.6155235 L223.991968,13.5365523 C224.793553,12.1701598 226.258799,11.3304481 227.84296,11.3296029 C230.639621,11.3296029 232.256859,13.2059567 232.256859,16.0919675 L232.256859,23.9905235 L229.415523,23.9905235 L229.415523,16.9765343 C229.415523,15.0465704 228.450542,13.9475632 226.735018,13.9475632 C225.019495,13.9475632 223.947292,15.1001805 223.947292,17.0212094 L223.947292,24.0262635 L221.105957,24.0262635 L221.150632,11.6155235 Z" id="Path"></path>
                    <path d="M236.965614,22.3375451 L238.234386,20.4165162 C239.394366,21.3420239 240.817405,21.8768366 242.299819,21.9444043 C243.514982,21.9444043 244.220848,21.4172383 244.220848,20.6041516 L244.220848,20.5505415 C244.220848,19.5855596 242.907401,19.2638989 241.450993,18.817148 C239.619314,18.298917 237.573195,17.5483755 237.573195,15.1716606 L237.573195,15.1895307 C237.573195,12.8396209 239.529964,11.4100181 241.996029,11.4100181 C243.616488,11.4409655 245.195571,11.9270752 246.552888,12.8128159 L245.418141,14.841065 C244.376796,14.149159 243.172185,13.7424874 241.924549,13.6616426 C240.816606,13.6616426 240.18222,14.1798736 240.18222,14.9125451 L240.18222,14.9125451 C240.18222,15.8060469 241.522473,16.1813177 242.978881,16.6459386 C244.765884,17.2088448 246.829874,18.0398014 246.829874,20.2646209 L246.829874,20.2646209 C246.829874,22.8736462 244.81056,24.1692238 242.228339,24.1692238 C240.320871,24.1513094 238.472007,23.5078167 236.965614,22.3375451 L236.965614,22.3375451 Z" id="Path"></path>
                    <path d="M169.104152,7.55902527 C169.104244,6.91694945 169.492528,6.33865453 170.086791,6.09552265 C170.681054,5.85239077 171.363335,5.99268294 171.813455,6.45056286 C172.263574,6.90844279 172.392184,7.59302258 172.13893,8.18304275 C171.885676,8.77306292 171.300828,9.1514061 170.658845,9.14052347 C169.797923,9.12118442 169.108772,8.42015195 169.104152,7.55902527 L169.104152,7.55902527 Z" id="Path"></path>
                </g>
            </g>
        </g>
    </g>
</svg>