<?xml version="1.0" encoding="UTF-8"?>
<svg width="226px" height="31px" viewBox="0 0 226 31" version="1.1" xmlns="http://www.w3.org/2000/svg" xmlns:xlink="http://www.w3.org/1999/xlink">
    <!-- Generator: Sketch 53.2 (72643) - https://sketchapp.com -->
    <title>uw-medicine-logo</title>
    <desc>Created with Sketch.</desc>
    <g id="Page-1" stroke="none" stroke-width="1" fill="none" fill-rule="evenodd" opacity="0.5">
        <g id="XL-Desktop-v1.0" transform="translate(-432.000000, -2093.000000)" fill="#FFFFFF" fill-rule="nonzero">
            <g id="Group" transform="translate(0.000000, 2029.441344)">
                <g id="uw-medicine-logo" transform="translate(432.666667, 64.315961)">
                    <path d="M106.036959,0.426422088 L106.036959,0.852844177 C105.041974,0.994984873 103.762708,1.27926627 103.762708,3.26923601 C103.762708,3.41137671 103.762708,4.26422088 103.904849,5.40134645 L105.752678,24.5903404 C106.036959,27.148873 106.1791,28.0017171 108.453351,28.7124206 L108.453351,29.1388427 L100.06705,29.1388427 L100.06705,28.7124206 C101.346316,28.2859985 102.341301,27.8595764 102.341301,26.0117474 C102.341301,25.5853253 102.341301,25.5853253 102.199161,24.0217777 L100.351331,4.54850228 L90.1172014,29.1388427 L89.6907793,29.1388427 L79.1723678,4.97492437 L77.4666794,24.306059 C77.3245387,24.8746218 77.3245387,25.4431846 77.3245387,26.0117474 C77.3245387,27.8595764 78.3195236,28.2859985 79.5987899,28.7124206 L79.5987899,29.1388427 L72.6338957,29.1388427 L72.6338957,28.7124206 C74.6238655,28.2859985 74.9081469,27.5752951 75.1924283,24.5903404 L77.0402573,5.54348715 C77.182398,4.26422088 77.182398,3.8377988 77.182398,3.5535174 C77.182398,1.56354766 76.3295538,1.27926627 74.9081469,0.994984873 L74.9081469,0.426422088 L81.0201968,0.426422088 L90.5436235,22.45823 L100.06705,0.426422088 L106.036959,0.426422088 Z M126.789501,24.5903404 C126.363079,25.3010439 125.936657,26.0117474 125.510235,26.5803102 C123.946687,28.7124206 121.388155,29.8495462 118.829622,29.8495462 C112.859713,29.8495462 109.874758,25.1589032 109.874758,20.1839789 C109.874758,15.2090545 113.001853,9.94984873 118.971763,9.94984873 C123.520265,9.94984873 127.073782,12.9348034 127.215923,18.7625719 L112.859713,18.7625719 C112.859713,19.4732754 112.859713,20.1839789 113.001853,20.8946823 C113.286135,24.4481997 116.128949,27.148873 119.682466,27.148873 C122.098858,27.0067323 124.51525,25.8696067 126.078797,24.0217777 L126.789501,24.5903404 Z M123.804546,17.1990242 C123.662406,13.2190847 121.246014,11.6555371 118.829622,11.6555371 C116.128949,11.6555371 113.854698,13.5033661 113.001853,17.1990242 L123.804546,17.1990242 Z M147.399902,0 L147.399902,23.0267928 C147.399902,25.8696067 147.826324,26.4381695 149.247731,26.8645916 L149.389872,27.2910137 L146.404917,29.8495462 C145.409932,29.1388427 144.699229,28.1438578 144.414947,26.8645916 C142.282837,28.7124206 140.577149,29.8495462 137.876475,29.8495462 C132.475129,29.8495462 129.348034,25.727466 129.348034,20.6104009 C129.348034,15.0669138 132.75941,9.94984873 138.729319,9.94984873 C140.577149,9.94984873 142.424978,10.3762708 143.988525,11.3712557 L143.988525,5.82776854 C143.988525,4.54850228 143.846385,3.12709532 141.714274,3.41137671 L141.572133,2.98495462 L147.399902,0 Z M144.272807,17.6254463 C144.272807,16.6304615 144.130666,15.6354766 143.846385,14.6404917 C142.99354,12.7926627 141.145711,11.5133964 139.155742,11.6555371 C135.033661,11.6555371 132.75941,15.2090545 132.75941,19.7575568 C132.75941,24.5903404 135.744365,27.4331544 139.013601,27.4331544 C139.866445,27.4331544 140.577149,27.2910137 141.429993,27.0067323 C142.567118,26.5803102 143.562103,25.727466 144.414947,24.7324811 L144.272807,17.6254463 Z M152.943389,15.3511952 C152.943389,14.0719289 152.943389,13.2190847 150.953419,13.2190847 L150.811279,12.7926627 L156.212625,9.66556734 L156.212625,25.0167625 C156.212625,27.2910137 156.212625,28.1438578 158.486876,28.7124206 L158.486876,29.1388427 L150.953419,29.1388427 L150.953419,28.7124206 C152.943389,28.1438578 152.943389,27.2910137 152.943389,24.8746218 L152.943389,15.3511952 Z M156.639047,2.41639183 C156.639047,3.5535174 155.786203,4.54850228 154.649077,4.54850228 C154.649077,4.54850228 154.506937,4.54850228 154.506937,4.54850228 C153.369811,4.54850228 152.516967,3.6956581 152.516967,2.70067323 C152.516967,2.70067323 152.516967,2.70067323 152.516967,2.70067323 C152.516967,1.56354766 153.369811,0.568562785 154.506937,0.568562785 C154.506937,0.568562785 154.649077,0.568562785 154.649077,0.568562785 C155.786203,0.426422088 156.639047,1.27926627 156.639047,2.41639183 C156.639047,2.41639183 156.639047,2.41639183 156.639047,2.41639183 L156.639047,2.41639183 Z M175.970182,24.5903404 C173.695931,29.1388427 170.710976,29.8495462 168.294584,29.8495462 C165.878192,29.9916869 163.746082,28.8545613 162.324675,26.8645916 C160.903268,25.0167625 160.192565,22.7425114 160.192565,20.3261196 C160.192565,17.767587 160.903268,15.0669138 162.608956,13.076944 C164.172504,10.9448336 166.588896,9.80770804 169.147428,9.94984873 C171.279539,9.94984873 173.411649,10.6605522 175.117338,12.0819592 L174.406634,15.7776173 L173.980212,15.7776173 C173.269509,14.2140696 172.274524,11.6555371 168.863147,11.6555371 C164.598926,11.6555371 163.177519,16.0618987 163.177519,19.3311347 C163.177519,24.1639183 166.162474,27.2910137 169.573851,27.2910137 C171.848102,27.0067323 173.980212,26.0117474 175.401619,24.1639183 L175.970182,24.5903404 Z M179.239418,15.3511952 C179.239418,14.0719289 179.239418,13.2190847 177.249448,13.2190847 L176.965167,12.7926627 L182.366513,9.66556734 L182.366513,25.0167625 C182.366513,27.2910137 182.366513,28.1438578 184.640764,28.7124206 L184.640764,29.1388427 L177.107307,29.1388427 L177.107307,28.7124206 C179.097277,28.1438578 179.097277,27.2910137 179.097277,24.8746218 L179.239418,15.3511952 Z M182.935076,2.41639183 C182.935076,3.5535174 182.082232,4.54850228 180.945106,4.54850228 C180.945106,4.54850228 180.802966,4.54850228 180.802966,4.54850228 C179.66584,4.54850228 178.812996,3.6956581 178.812996,2.70067323 C178.812996,2.70067323 178.812996,2.70067323 178.812996,2.70067323 C178.812996,1.56354766 179.66584,0.568562785 180.802966,0.568562785 C180.802966,0.568562785 180.945106,0.568562785 180.945106,0.568562785 C181.940091,0.426422088 182.935076,1.27926627 182.935076,2.41639183 C182.935076,2.41639183 182.935076,2.41639183 182.935076,2.41639183 L182.935076,2.41639183 Z M191.605658,9.66556734 L191.605658,12.7926627 C193.169206,10.9448336 195.443457,9.80770804 197.859849,9.94984873 C199.849819,9.80770804 201.697648,10.6605522 202.976914,12.2240999 C204.11404,13.7876475 204.11404,15.2090545 204.11404,17.4833056 L204.11404,24.7324811 C204.11404,27.148873 204.25618,28.1438578 206.388291,28.5702799 L206.388291,28.996702 L198.996975,28.996702 L198.996975,28.5702799 C199.707678,28.5702799 200.418382,28.0017171 200.844804,27.4331544 C200.986944,27.0067323 201.129085,26.7224509 201.129085,24.8746218 L201.129085,17.0568835 C201.271226,15.6354766 200.702663,14.2140696 199.707678,13.2190847 C198.854834,12.5083813 197.717708,12.2240999 196.580583,12.2240999 C195.301317,12.2240999 194.164191,12.5083813 193.169206,13.3612254 C192.032081,14.3562103 191.463518,15.7776173 191.747799,17.1990242 L191.747799,24.7324811 C191.747799,27.4331544 192.032081,28.0017171 194.02205,28.5702799 L194.02205,28.996702 L186.204312,28.996702 L186.204312,28.5702799 C188.336422,28.1438578 188.336422,26.7224509 188.336422,24.7324811 L188.336422,16.7726021 C188.336422,14.2140696 188.336422,13.2190847 186.204312,13.2190847 L186.062171,12.7926627 L191.605658,9.66556734 Z M224.013737,24.5903404 C223.587315,25.3010439 223.160893,26.0117474 222.734471,26.5803102 C221.170923,28.7124206 218.612391,29.8495462 216.053858,29.8495462 C210.083949,29.8495462 207.098994,25.1589032 207.098994,20.1839789 C207.098994,15.2090545 210.22609,9.94984873 216.33814,9.94984873 C220.886642,9.94984873 224.440159,12.9348034 224.5823,18.7625719 L210.22609,18.7625719 C210.22609,19.4732754 210.22609,20.1839789 210.36823,20.8946823 C210.652512,24.4481997 213.495326,27.148873 217.048843,27.148873 C219.465235,27.0067323 221.881627,25.8696067 223.445174,24.0217777 L224.013737,24.5903404 Z M221.028783,17.1990242 C220.886642,13.2190847 218.47025,11.6555371 216.053858,11.6555371 C213.353185,11.6555371 211.078934,13.5033661 210.22609,17.1990242 L221.028783,17.1990242 Z M65.1004388,0.142140696 L63.8211726,0.284281392 L62.3997656,0.142140696 C61.26264,1.16963928e-17 59.9833738,-0.142140696 59.5569517,0.284281392 L59.414811,0.568562785 C59.414811,0.994984873 59.8412331,1.13712557 60.1255145,1.27926627 C60.836218,1.42140696 61.4047807,1.98996975 61.5469214,2.70067323 C61.5469214,2.98495462 61.6890621,3.12709532 61.6890621,3.41137671 C61.6890621,5.25920576 58.5619668,13.7876475 55.2927308,21.6053858 C54.0134645,18.1940091 49.607103,3.26923601 49.607103,3.12709532 C49.607103,2.70067323 49.4649623,2.27425114 49.4649623,1.98996975 C49.4649623,0.994984873 49.8913844,0.994984873 50.3178064,0.994984873 C50.6020878,0.994984873 50.8863692,0.852844177 50.8863692,0.426422088 L50.7442285,0.142140696 C50.3178064,1.16963928e-17 49.1806809,1.16963928e-17 47.4749925,0.142140696 L45.9114449,0.284281392 L44.3478972,0.142140696 C43.0686309,1.16963928e-17 41.9315054,-0.142140696 41.5050833,0.284281392 L41.3629426,0.710703481 C41.3629426,1.13712557 41.7893647,1.27926627 42.0736461,1.27926627 C42.9264902,1.42140696 43.6371937,1.98996975 44.0636158,2.70067323 C44.3478972,3.12709532 44.6321786,3.8377988 45.2007414,5.25920576 L46.6221483,8.67058247 C46.6221483,8.81272316 41.647224,21.1789637 41.3629426,21.7475265 C40.6522391,19.8996975 36.6722996,9.23914525 34.5401892,3.41137671 L34.5401892,2.84281392 L34.5401892,2.13211044 C34.5401892,1.13712557 34.9666113,1.13712557 35.3930333,1.13712557 C35.6773147,1.13712557 35.9615961,0.994984873 36.1037368,0.568562785 L35.9615961,0.284281392 C35.6773147,1.16963928e-17 34.5401892,1.16963928e-17 32.8345008,0.142140696 L31.2709532,0.284281392 L29.7074055,0.142140696 C28.8545613,1.16963928e-17 28.1438578,1.16963928e-17 27.2910137,0.142140696 C27.148873,0.142140696 27.0067323,0.142140696 26.7224509,0.284281392 L25.4431846,0.426422088 L23.879637,0.284281392 C22.8846521,0.142140696 21.8896672,5.11483612e-17 21.6053858,0.426422088 L21.4632451,0.710703481 C21.4632451,1.27926627 22.0318079,1.42140696 22.6003707,1.42140696 C22.6003707,1.42140696 22.8846521,1.42140696 22.8846521,1.42140696 C24.1639183,1.56354766 25.727466,1.70568835 25.727466,9.66556734 L25.727466,19.3311347 C25.727466,24.306059 22.6003707,27.2910137 17.0568835,27.4331544 C14.6404917,27.7174358 12.2240999,26.8645916 10.3762708,25.3010439 C7.95987899,23.0267928 7.67559759,19.0468533 7.67559759,15.2090545 L7.67559759,3.26923601 C7.5334569,2.27425114 8.10201968,1.42140696 9.09700455,1.27926627 C9.52342664,1.13712557 9.80770804,0.994984873 9.80770804,0.568562785 L9.52342664,0.142140696 C9.09700455,-0.142140696 8.10201968,0.142140696 7.10703481,0.284281392 C6.53847202,0.426422088 5.82776854,0.568562785 5.11706506,0.568562785 C4.40636158,0.568562785 3.8377988,0.426422088 3.12709532,0.284281392 C1.84782905,0.142140696 0.710703481,1.16963928e-17 0.142140696,0.284281392 C0,0.426422088 0,0.568562785 0,0.710703481 C0,1.27926627 0.426422088,1.42140696 0.994984873,1.56354766 C1.98996975,1.84782905 3.26923601,2.13211044 3.26923601,5.25920576 L3.26923601,19.188994 C3.26923601,21.6053858 4.26422088,24.0217777 5.96990924,25.727466 C8.81272316,28.1438578 12.5083813,29.4231241 16.2040394,29.1388427 C25.4431846,28.8545613 27.2910137,23.0267928 27.2910137,18.3361498 L27.2910137,3.26923601 C27.2910137,2.13211044 27.5752951,1.70568835 28.0017171,1.56354766 C28.7124206,1.70568835 29.5652648,2.27425114 30.1338276,3.97993949 C30.1338276,4.12208019 35.8194554,18.0518684 37.0987217,21.7475265 L39.5151135,28.996702 C39.5151135,29.1388427 39.6572542,29.2809834 39.9415356,29.2809834 C40.225817,29.2809834 40.3679577,28.996702 40.3679577,28.996702 C41.3629426,25.5853253 46.4800076,12.7926627 47.3328518,10.6605522 C48.185696,12.7926627 53.0184797,26.1538881 53.7291831,28.996702 C53.7291831,29.2809834 53.8713238,29.4231241 54.1556052,29.4231241 C54.4398866,29.4231241 54.5820273,29.2809834 54.5820273,29.1388427 C54.5820273,29.1388427 55.4348715,26.7224509 55.4348715,26.7224509 L56.8562785,22.8846521 C56.8562785,22.8846521 58.1355447,19.6154161 58.1355447,19.4732754 C58.1355447,19.4732754 63.8211726,4.26422088 63.8211726,4.26422088 C64.9582981,1.42140696 66.0954237,1.42140696 66.6639865,1.27926627 C66.9482679,1.27926627 67.37469,1.27926627 67.37469,0.710703481 C67.37469,0.426422088 67.37469,0.284281392 67.2325493,0.284281392 C66.9482679,1.16963928e-17 66.0954237,1.16963928e-17 65.1004388,0.142140696 Z" id="Shape"></path>
                </g>
            </g>
        </g>
    </g>
</svg>