<?xml version="1.0" encoding="UTF-8"?>
<svg width="114px" height="35px" viewBox="0 0 114 35" version="1.1" xmlns="http://www.w3.org/2000/svg" xmlns:xlink="http://www.w3.org/1999/xlink">
    <!-- Generator: Sketch 53.2 (72643) - https://sketchapp.com -->
    <title>logo_Audere</title>
    <desc>Created with Sketch.</desc>
    <g id="Page-1" stroke="none" stroke-width="1" fill="none" fill-rule="evenodd" opacity="0.5">
        <g id="FluAtHome_LandingPage_Desktop-v1.2" transform="translate(-1176.000000, -2044.000000)" fill="#FFFFFF" fill-rule="nonzero">
            <g id="Group" transform="translate(0.000000, 1983.220672)">
                <g id="logo_Audere" transform="translate(1176.000000, 60.461748)">
                    <path d="M105.725449,16.5288045 C106.591769,16.8723877 103.320367,19.3879073 103.320367,19.3879073 L97.2683947,19.1253116 C97.2683947,19.1253116 104.628437,16.0944172 105.725449,16.5288045 Z" id="Path"></path>
                    <ellipse id="Oval" transform="translate(107.731728, 2.464750) rotate(-10.400000) translate(-107.731728, -2.464750) " cx="107.731728" cy="2.46474966" rx="3.08979434" ry="1.93142823"></ellipse>
                    <polygon id="Path" points="101.833142 6.89129667 101.666259 6.94528831 101.835597 6.89375084"></polygon>
                    <path d="M96.3677159,5.42861404 C97.8402152,5.41634322 99.5728561,5.83355135 101.158247,6.21885533 C101.661351,6.13786787 105.023558,5.36235158 105.084912,5.14393085 C105.489849,3.88003563 96.9640782,5.22737247 96.3677159,5.42861404 Z" id="Path"></path>
                    <polygon id="Path" points="101.602451 6.96982997 101.602451 6.96982997 101.676076 6.94528831"></polygon>
                    <path d="M113.703941,13.9887432 C114.582532,8.97979149 112.062104,7.0311841 109.80918,6.26793864 C105.300878,4.73899354 100.66496,7.28641731 100.250206,7.42139641 C98.2868733,8.05947944 92.3968762,10.6118115 92.3968762,10.6118115 C94.6356962,10.0593828 96.9093685,9.65925584 99.2022771,9.41417878 C101.028176,9.23257054 102.935063,9.16876224 104.540087,9.41417878 C107.126777,9.81666192 108.923227,11.0093863 108.280235,13.7433267 C106.984436,19.235749 95.9578703,26.8976537 95.9578703,26.8976537 C95.9578703,26.8976537 111.951667,23.9600176 113.703941,13.9887432 Z" id="Path"></path>
                    <path d="M14.2194348,33.9239294 L14.2194348,34.8491498 L9.21048305,34.8491498 C9.24484137,34.6724499 9.35037048,33.7177795 9.35037048,33.5435338 L9.42154128,32.166747 C8.32698348,34.2846918 6.70478009,35.0233956 4.51321032,35.0233956 C1.58784507,35.0160331 0,33.710417 0,31.0304683 C0,27.4302076 2.8934611,25.7368334 9.42154128,25.7368334 L9.42154128,23.6900594 C9.42154128,21.4813105 8.43987509,20.6223525 6.14032203,20.6223525 C3.98801891,20.6223525 3.45791916,21.3586022 3.45791916,22.0948518 C3.45791916,22.6593099 3.77450651,22.8311015 3.77450651,23.4372803 C3.77450651,24.247155 3.17569013,24.6373673 2.40017384,24.6373673 C1.37678683,24.6373673 0.846687091,23.9305676 0.846687091,22.9783514 C0.846687091,21.0371065 3.0358027,19.6603197 6.5624385,19.6603197 C10.3737575,19.6603197 12.4524357,21.2481647 12.4524357,24.6373673 L12.4524357,33.3152964 C12.4524357,33.7742253 12.5947772,33.9877377 12.9113646,33.9877377 L14.2194348,33.9239294 Z M9.42154128,29.1235818 L9.42154128,26.6890496 C4.97459343,26.6890496 3.21004845,27.9161323 3.21004845,30.7482393 C3.21004845,32.7582008 4.09354802,33.7472295 5.57586397,33.7472295 C7.62018382,33.7472295 9.27919968,31.8771554 9.42154128,29.1235818 Z" id="Shape"></path>
                    <path d="M32.1790178,33.9239294 L32.1790178,34.8491498 L27.1676119,34.8491498 C27.273141,34.6037333 27.3443118,34.1423502 27.3443118,32.3066344 L27.3443118,31.8501596 C26.3920956,34.0368211 24.4164924,35.2000955 21.8052603,35.2000955 C18.6639285,35.2000955 17.3583124,33.5778921 17.3583124,29.6266857 L17.3583124,21.5745687 C17.3583124,21.1156398 17.218425,20.8677691 16.9018377,20.8677691 L15.6305799,20.9389399 L15.6305799,20.021082 L20.3941151,20.021082 L20.3941151,29.6193232 C20.3941151,32.5815009 20.7107025,34.0368211 22.5464183,34.0368211 C25.1920087,34.0368211 27.0988952,31.8845179 27.3443118,28.2842572 L27.3811243,21.6162896 C27.3811243,21.1254565 27.2387827,20.8800399 26.9565536,20.8800399 L25.2975378,20.9512107 L25.2975378,20.021082 L30.4512853,20.021082 L30.4512853,33.3226589 C30.4512853,33.7815878 30.5936269,33.9951002 30.9102142,33.9951002 L32.1790178,33.9239294 Z" id="Shape"></path>
                    <path d="M41.3158759,19.6676822 C43.5737081,19.6676822 44.9161366,20.9732982 45.3750656,22.5611433 L45.3750656,10.5995407 C45.3750656,10.2117826 45.232724,9.89519522 44.9161366,9.89519522 L43.2914791,9.96636602 L43.2914791,9.08041228 L48.4452266,9.08041228 L48.4452266,33.3202047 C48.4452266,33.7791337 48.585114,33.9926461 48.9017014,33.9926461 L50.2073174,33.9214753 L50.2073174,34.8491498 L45.1271949,34.8491498 C45.1745207,34.664731 45.1984324,34.4750862 45.1983657,34.2846918 L45.1983657,33.4993588 C45.1983657,33.0404299 45.2695365,32.5815009 45.2695365,32.4759718 C44.7394367,34.1349877 43.6105206,35.192733 41.3428717,35.192733 C36.4026366,35.192733 34.6380916,32.5815009 34.6380916,27.4670201 C34.6380916,22.3525392 36.9057405,19.6676822 41.3158759,19.6676822 Z M41.3526884,34.2405168 C44.2805078,34.2405168 45.3038948,32.3360844 45.3038948,28.3505196 L45.3038948,26.8780203 C45.3038948,23.0691555 44.1038079,20.61499 41.3158759,20.61499 C38.6359272,20.61499 37.8947692,23.3661095 37.8947692,27.4596576 C37.8947692,32.4759718 38.6359272,34.2405168 41.3526884,34.2405168 Z" id="Shape"></path>
                    <path d="M65.5262183,26.3381039 L65.5262183,27.3614909 L55.3586108,27.3614909 C55.3586108,31.6292847 56.83111,33.9877377 59.8055586,34.0294586 C61.8703205,34.0711274 63.7542318,32.8569218 64.5690938,30.9592975 L65.3789684,31.5581139 C64.4267522,33.8527586 61.9210492,35.192733 59.3098172,35.192733 C54.3352237,35.192733 52.1485623,32.4416135 52.1485623,27.4670201 C52.1485623,22.350085 54.5830945,19.6676822 59.2411005,19.6676822 C62.9444363,19.6676822 65.4157809,22.1390268 65.5262183,26.3381039 Z M55.4003316,26.4779914 L61.8204285,26.4779914 C62.2449991,26.4779914 62.5272281,26.2669331 62.5272281,25.3147169 C62.5272281,22.1733851 61.6437285,20.6223525 59.2460089,20.6223525 C56.4163561,20.61499 55.3954232,23.3145721 55.3954232,26.4779914 L55.4003316,26.4779914 Z" id="Shape"></path>
                    <path d="M79.7751031,22.4212558 C79.7751031,23.550172 79.1394743,24.0802717 78.3026038,24.0802717 C77.7381458,24.0802717 76.9969878,23.7955885 76.9969878,22.9857139 C76.9969878,22.350085 77.2792168,22.0040477 77.2792168,21.3978688 C77.2792168,21.0788273 77.1025169,20.6616192 76.4668881,20.6616192 C74.1403392,20.6616192 72.8690815,24.6128256 72.7635523,27.2240577 L72.7635523,33.3275672 C72.7635523,33.7864962 72.9034398,34.0000086 73.2224813,34.0000086 L75.3747844,33.9288378 L75.3747844,34.8491498 L68.1325421,34.8491498 L68.1325421,33.9312919 L69.2614582,34.0024627 C69.5780455,34.0024627 69.717933,33.7889503 69.717933,33.3300214 L69.717933,21.5745687 C69.717933,21.1156398 69.5780455,20.8677691 69.2614582,20.8677691 L67.9902005,20.9389399 L67.9902005,20.021082 L72.9647939,20.021082 C72.8237378,20.550247 72.7527785,21.0956436 72.7537357,21.6432854 L72.7537357,23.3612012 C73.8826518,20.64444 75.2226262,19.6554113 76.881642,19.6554113 C78.7787119,19.6676822 79.7751031,20.9045816 79.7751031,22.4212558 Z" id="Path"></path>
                    <path d="M94.558996,26.3381039 L94.558996,27.3614909 L84.3962967,27.3614909 C84.3962967,31.6292847 85.868796,33.9877377 88.8432446,34.0294586 C90.9081984,34.0718047 92.7924554,32.8573764 93.6067798,30.9592975 L94.4191085,31.5581139 C93.4644382,33.8527586 90.9611894,35.192733 88.3499573,35.192733 C83.3729097,35.192733 81.1862483,32.4416135 81.1862483,27.4670201 C81.1862483,22.350085 83.6207804,19.6676822 88.2787865,19.6676822 C91.9845764,19.6676822 94.4534669,22.1390268 94.558996,26.3381039 Z M84.4331092,26.4779914 L90.8532061,26.4779914 C91.2777767,26.4779914 91.5600058,26.2669331 91.5600058,25.3147169 C91.5600058,22.1733851 90.6789604,20.6223525 88.2787865,20.6223525 C85.4564962,20.61499 84.4232925,23.3145721 84.4232925,26.4779914 L84.4331092,26.4779914 Z" id="Shape"></path>
                </g>
            </g>
        </g>
    </g>
</svg>