<?xml version="1.0" encoding="UTF-8"?>
<svg width="157px" height="35px" viewBox="0 0 157 35" version="1.1" xmlns="http://www.w3.org/2000/svg" xmlns:xlink="http://www.w3.org/1999/xlink">
    <!-- Generator: Sketch 57.1 (83088) - https://sketch.com -->
    <title>logo_SeattleChildrens</title>
    <desc>Created with Sketch.</desc>
    <g id="logo_SeattleChildrens" stroke="none" stroke-width="1" fill="none" fill-rule="evenodd">
        <g transform="translate(0.000000, 4.463899)" fill-rule="nonzero">
            <path d="M15.2125632,19.9849097 C15.203288,19.783148 15.3179906,19.5961292 15.5020356,19.5129348 C15.6860805,19.4297405 15.9022517,19.4671934 16.0475818,19.6074538 C16.1929119,19.7477143 16.2380135,19.9624201 16.1614037,20.1493017 C16.0847938,20.3361834 15.9019638,20.4574514 15.7,20.455343 C15.4360913,20.4585206 15.2187541,20.2487649 15.2125632,19.9849097 M25.6924549,12.5429964 C25.6924549,12.2482671 25.6357762,11.7551625 25.6357762,11.7551625 C24.9133619,5.11110567 19.1187094,0.193668298 12.44564,0.561796023 C5.77257066,0.929923749 0.553987296,6.45491923 0.566787004,13.1381227 C0.535375277,15.5523146 1.22618563,17.9208072 2.55054152,19.9395668 C2.63555957,20.0699278 2.77158845,20.0642599 2.77725632,19.9055596 C2.77725632,19.9055596 2.77725632,19.8092058 2.77725632,19.8092058 C2.79455657,19.5178563 2.88416167,19.2354054 3.03797834,18.9873646 C3.18968518,18.7487718 3.4005678,18.5535101 3.6501083,18.4205776 C3.80665174,18.335364 3.98198337,18.2905571 4.16021661,18.2902166 C4.32846902,18.3010938 4.48905685,18.3645359 4.61931408,18.4715884 C4.91971119,18.7153069 5.41848375,19.1857401 5.70187726,19.406787 C6.19903035,19.8106684 6.74802361,20.1461642 7.33422383,20.4043321 C7.94122226,20.6771332 8.56614173,20.9081641 9.20462094,21.0958123 C9.20462094,21.1978339 8.83620939,21.9403249 7.07916968,21.1694946 C6.44539168,20.8763226 5.84966165,20.5070842 5.30512635,20.0699278 C5.00472924,19.8375451 4.8233574,19.6164982 4.47761733,19.3557762 C4.20080367,19.2081841 3.8589531,19.2690616 3.6501083,19.5031408 C3.12866426,20.0132491 3.04364621,21.2035018 5.10108303,22.8301805 C5.6300477,23.2567013 6.18464874,23.6504112 6.76176895,24.0090975 C10.2172311,26.0366876 14.4317308,26.2975213 18.1108386,24.7114866 C21.7899465,23.125452 24.4938418,19.8821524 25.3920578,15.9777256 C25.4933679,15.4933543 25.5371246,14.9987138 25.5224188,14.5040794 C25.5224188,14.4190614 25.4770758,14.3567148 25.3920578,14.3340433 C25.4203971,14.3340433 24.7232491,14.1583394 23.8220578,15.2295668 C23.4026354,15.7 23.0512274,16.4764982 22.5354513,17.2076534 C22.0155043,17.9842709 21.4315714,18.7160829 20.7897473,19.3954513 C19.4918051,20.7500722 17.8197834,21.98 16.2951264,21.9573285 C15.7977169,22.0097526 15.309918,21.7939124 15.0141877,21.3905415 C14.7761372,21.0391336 14.9008303,20.931444 15.0141877,21.0277978 C15.0756372,21.096948 15.1440085,21.1596217 15.218231,21.2148375 C15.5235413,21.4176277 15.8922692,21.5022538 16.2554513,21.4528881 C17.6100722,21.4018773 19.1744043,20.2286282 20.3816606,18.8740072 C20.9757399,18.1948876 21.5140454,17.4689333 21.9913357,16.703213 C22.4731047,15.9890614 22.7735018,15.2352347 23.2779422,14.6231047 C23.7141494,14.0425382 24.3744723,13.6722637 25.0973285,13.6028881 C25.1624991,13.618568 25.2300413,13.5882905 25.2616968,13.5292058 C25.2809679,13.4898751 25.2809679,13.4438433 25.2616968,13.4045126 C22.6034657,8.6831769 16.7938989,15.9323827 12.4239711,16.3461372 C6.61440433,16.9129242 5.36180505,12.4466426 5.70187726,9.94144404 C6.18931408,6.46137184 8.9665704,3.62743682 13.2628159,3.34404332 C18.6869675,2.99263538 21.2998556,6.29133574 21.6115884,7.27187726 C21.852297,7.85549387 21.9019028,8.50037023 21.7532852,9.11393502 C21.6002527,9.95844765 20.3986643,11.1543682 19.8602166,11.6531408 C19.7355235,11.7835018 19.8998917,11.7438267 19.9509025,11.7268231 C20.4909656,11.4618543 21.0453888,11.2272179 21.6115884,11.0240072 C22.025343,10.8879783 22.461769,10.7689531 22.677148,10.6669314 C22.8144802,10.5867018 22.9452492,10.495732 23.068231,10.3948736 C23.173308,10.3073523 23.3258978,10.3073523 23.4309747,10.3948736 C23.5670036,10.4968953 23.5613357,10.6782671 23.6690253,10.814296 C23.7602228,10.923641 23.8718902,11.0141301 23.9977617,11.0806859 C24.6375313,11.4575142 25.1885049,11.9678897 25.6131047,12.5770036 L25.6131047,12.5770036 C25.686787,12.7073646 25.6924549,12.5770036 25.6924549,12.5486643" id="Shape" fill="#018390"></path>
            <path d="M14.1696751,7.90101083 L14.1696751,7.90101083 L14.1696751,7.90101083 C14.1605471,8.12598533 13.9754122,8.3036147 13.7502527,8.3034296 C13.5919216,8.32205668 13.436973,8.24806098 13.3519341,8.11321259 C13.2668952,7.9783642 13.2668952,7.80665385 13.3519341,7.67180546 C13.436973,7.53695707 13.5919216,7.46296137 13.7502527,7.48158845 C13.9818933,7.48158845 14.1696751,7.66937024 14.1696751,7.90101083 M19.45213,6.38202166 C18.8163954,5.782732 18.0820252,5.29762587 17.2813357,4.94805054 C16.154765,4.54622637 14.9689614,4.33550199 13.7729242,4.32458484 C12.434203,4.34718109 11.1211147,4.69539265 9.94711191,5.33913357 C8.5318977,6.16610291 7.48276491,7.49878511 7.01115523,9.06859206 C6.43999346,10.7489212 6.82152761,12.6067324 8.00870036,13.9259567 C8.95474484,14.8844873 10.2692894,15.3867425 11.6134657,15.3032491 C12.7435771,15.2529551 13.8436991,14.923892 14.8158123,14.3453791 C14.8158123,14.3453791 18.318556,12.5203249 19.1120578,12.123574 C19.1687365,12.078231 19.1120578,12.0498917 19.0667148,12.038556 C18.4205776,11.9988809 17.4116968,12.038556 17.2586643,12.038556 C16.880372,12.0187294 16.5010707,12.032005 16.1250903,12.078231 C15.8710963,12.0947913 15.6307144,12.1989568 15.4449458,12.3729603 C15.3752494,12.4559433 15.2994681,12.5336191 15.218231,12.605343 C15.1284876,12.7161494 14.9814251,12.762942 14.8441516,12.7243682 C14.7194585,12.7243682 14.6627798,12.5940072 14.5267509,12.3956318 C14.4119603,12.2360861 14.2576584,12.1091288 14.0789892,12.0272202 C13.7290168,11.8896476 13.3554055,11.8222435 12.9794224,11.8288448 C12.5072819,11.8282078 12.0382153,11.9047901 11.5907942,12.0555596 L11.5907942,12.0555596 C11.4150903,12.1009025 11.5171119,12.1519134 11.5907942,12.1802527 L11.6588087,12.1802527 C11.8154571,12.2486658 11.9520268,12.3559707 12.0555596,12.4919856 C12.2116125,12.7409935 12.2470137,13.0471096 12.1519134,13.3251625 C12.0677336,13.5088379 11.9239148,13.6586492 11.7438267,13.7502527 C11.5183356,13.8321588 11.2733564,13.8440126 11.0410108,13.7842599 C10.6808271,13.6923987 10.3885662,13.4297874 10.2588448,13.081444 C10.1711815,12.8261485 10.1711815,12.5489056 10.2588448,12.2936101 C10.292852,12.2085921 10.1851625,12.253935 10.1851625,12.253935 L10.0207942,12.3162816 C9.79767371,12.3870931 9.55810247,12.3870931 9.33498195,12.3162816 L9.33498195,12.3162816 C9.11327804,12.238658 8.92116393,12.0940772 8.78519856,11.9025271 C8.70584209,11.7853134 8.63933381,11.6598978 8.5868231,11.5284477 C8.57239046,11.4746087 8.57239046,11.4179184 8.5868231,11.3640794 C8.61398243,11.2915734 8.66627797,11.2312323 8.73418773,11.1940433 C8.88866978,11.1249441 9.03826943,11.0454101 9.18194946,10.9559928 C9.43364532,10.8055367 9.66588191,10.6246967 9.8734296,10.4175451 C10.0663381,10.2278727 10.2237416,10.0052043 10.3381949,9.7600722 C10.4968953,9.7600722 10.6782671,10.2021661 10.2701805,10.6669314 C10.1083059,10.8584491 9.91698433,11.0229857 9.7033935,11.1543682 C9.60217718,11.2241856 9.49610754,11.2866909 9.38599278,11.3414079 C9.28963899,11.3867509 9.14227437,11.4661011 9.22729242,11.6077978 C9.4408706,11.9252943 9.84846319,12.04852 10.2021661,11.9025271 C10.4535435,11.8323693 10.6953084,11.7314753 10.9219856,11.60213 C11.2223827,11.4320939 11.3640794,11.3584116 11.4320939,11.3244043 C11.4636895,11.3029535 11.4979974,11.2857995 11.5341155,11.2733935 C12.1724505,11.0607435 12.8505414,10.9948718 13.51787,11.0806859 C14.8338395,11.3357503 16.1800531,11.396855 17.5137184,11.2620578 C18.2973118,11.1833887 19.0404361,10.875889 19.6505054,10.37787 C19.7824704,10.276854 19.907449,10.1670243 20.0245848,10.0491336 C20.0245848,9.91877256 19.7525271,9.82241877 19.2140794,9.85075812 C18.4545848,9.89043321 17.4400361,10.0888087 16.3801444,10.0944765 C15.4071207,10.1757015 14.4298367,9.99979033 13.5462094,9.58436823 C13.2328168,9.40144256 13.001547,9.10525488 12.9000722,8.75685921 C12.8320578,8.49613718 12.9397473,8.38844765 12.9624188,8.39978339 C13.1017144,8.75770704 13.3737868,9.04805291 13.7219134,9.21028881 C14.5790505,9.54583807 15.5071858,9.65893019 16.4198195,9.53902527 C17.4230325,9.4766787 18.318556,9.32364621 19.100722,9.2499639 C19.4887987,9.17545637 19.8907259,9.24177436 20.234296,9.43700361 C20.2686274,9.4741488 20.3169103,9.49527041 20.367491,9.49527041 C20.4180717,9.49527041 20.4663546,9.4741488 20.5006859,9.43700361 L20.6027076,9.26696751 C20.976787,8.60382671 20.4723466,7.32855596 19.4691336,6.43303249" id="Shape" fill="#FE7D1F"></path>
            <polygon id="Path" fill="#54585F" points="32.6129242 20.0132491 33.1797112 20.0132491 33.1797112 21.3508664 34.715704 21.3508664 34.715704 20.0132491 35.282491 20.0132491 35.282491 23.2382671 34.715704 23.2382671 34.715704 21.8723105 33.1740433 21.8723105 33.1740433 23.2382671 32.6072563 23.2382671"></polygon>
            <path d="M37.0281949,21.6285921 L37.0281949,21.6285921 C37.1559932,20.7992948 37.8696318,20.1872068 38.7087184,20.1872068 C39.547805,20.1872068 40.2614437,20.7992948 40.3892419,21.6285921 L40.3892419,21.6285921 C40.3924852,22.0774636 40.2132596,22.5083992 39.8926615,22.8225854 C39.5720633,23.1367716 39.1375953,23.3072557 38.6888809,23.2949458 C38.2446277,23.3043701 37.8158567,23.1316473 37.5021874,22.8169074 C37.188518,22.5021675 37.0172571,22.0728105 37.0281949,21.6285921 L37.0281949,21.6285921 Z M39.7941155,21.6285921 L39.7941155,21.6285921 C39.7941155,21.0275786 39.3068979,20.540361 38.7058845,20.540361 C38.1048711,20.540361 37.6176534,21.0275786 37.6176534,21.6285921 L37.6176534,21.6285921 C37.608476,21.9250809 37.7194784,22.2127007 37.9254594,22.4261525 C38.1314404,22.6396044 38.4149247,22.760779 38.7115523,22.7621667 C39.0077267,22.7624951 39.2911029,22.6414642 39.4956552,22.4272734 C39.7002074,22.2130825 39.8080716,21.9244376 39.7941155,21.6285921 L39.7941155,21.6285921 Z" id="Shape" fill="#54585F"></path>
            <path d="M41.8968953,22.7564982 L42.2369675,22.3540794 C42.5097963,22.6173781 42.8724079,22.7672846 43.2515162,22.7735018 C43.6029242,22.7735018 43.8183032,22.6091336 43.8183032,22.371083 L43.8183032,22.371083 C43.8183032,22.1387004 43.6879422,22.0196751 43.0928159,21.8779783 C42.4070036,21.7136101 42.0215884,21.5095668 42.0215884,20.9201083 L42.0215884,20.9201083 C42.0337548,20.6470178 42.1593693,20.3914034 42.3681313,20.2149242 C42.5768932,20.0384451 42.8498486,19.9571241 43.1211552,19.9905776 C43.5455948,19.9830342 43.9590767,20.1255449 44.2887365,20.3929964 L43.9826715,20.8180866 C43.7356154,20.6158024 43.4289366,20.5003 43.1098195,20.4893502 C42.781083,20.4893502 42.5883755,20.6593863 42.5883755,20.8690975 L42.5883755,20.8690975 C42.5883755,21.1184838 42.7357401,21.2261733 43.34787,21.3735379 C43.96,21.5209025 44.3850903,21.7816245 44.3850903,22.3144043 L44.3850903,22.3144043 C44.3850903,22.9151986 43.9089892,23.2722744 43.2515162,23.2722744 C42.7509807,23.2779397 42.2669104,23.0936284 41.8968953,22.7564982 Z" id="Path" fill="#54585F"></path>
            <path d="M46.1988087,20.0132491 L47.4684116,20.0132491 C47.7771971,19.9724809 48.0885816,20.0666855 48.322983,20.2717868 C48.5573845,20.4768881 48.6920897,20.7730118 48.6926715,21.0844765 L48.6926715,21.0844765 C48.6859425,21.4076652 48.5415537,21.7126074 48.295812,21.9226245 C48.0500703,22.1326417 47.7263549,22.2277533 47.406065,22.1840433 L46.7655957,22.1840433 L46.7655957,23.2382671 L46.1988087,23.2382671 L46.1988087,20.0132491 Z M47.4230686,21.6852708 C47.8481588,21.6852708 48.1145487,21.4472202 48.1145487,21.1184838 L48.1145487,21.1184838 C48.1145487,20.7444043 47.8481588,20.5516968 47.4230686,20.5516968 L46.7655957,20.5516968 L46.7655957,21.6852708 L47.4230686,21.6852708 Z" id="Shape" fill="#54585F"></path>
            <polygon id="Path" fill="#54585F" points="50.4440433 20.0132491 51.0108303 20.0132491 51.0108303 23.2382671 50.4440433 23.2382671"></polygon>
            <polygon id="Path" fill="#54585F" points="53.8107581 20.5346931 52.7905415 20.5346931 52.7905415 20.0132491 55.3977617 20.0132491 55.3977617 20.5346931 54.3775451 20.5346931 54.3775451 23.2382671 53.8107581 23.2382671"></polygon>
            <path d="M57.8689531,19.9905776 L58.3790614,19.9905776 L59.7960289,23.2269314 L59.1952347,23.2269314 L58.8721661,22.4504332 L57.3531769,22.4504332 L57.0301083,23.2382671 L56.4633213,23.2382671 L57.8689531,19.9905776 Z M58.6794585,21.9516606 L58.1126715,20.6650542 L57.5458845,21.9516606 L58.6794585,21.9516606 Z" id="Shape" fill="#54585F"></path>
            <polygon id="Path" fill="#54585F" points="61.5020578 20.0132491 62.0688448 20.0132491 62.0688448 22.7111552 63.7692058 22.7111552 63.7692058 23.2382671 61.5020578 23.2382671"></polygon>
            <path d="M66.812852,21.6002527 L66.812852,21.6002527 C66.8391403,21.3618382 67.0405918,21.1813784 67.2804513,21.1813784 C67.5203107,21.1813784 67.7217622,21.3618382 67.7480505,21.6002527 L67.7480505,21.6002527 C67.7217622,21.8386672 67.5203107,22.019127 67.2804513,22.019127 C67.0405918,22.019127 66.8391403,21.8386672 66.812852,21.6002527 L66.812852,21.6002527 Z" id="Path" fill="#54585F"></path>
            <path d="M71.2564621,20.0132491 L72.6904332,20.0132491 C73.0290991,19.9937776 73.3615672,20.1100394 73.614296,20.3363177 C73.7928159,20.5213874 73.8888975,20.7707906 73.8806859,21.0277978 L73.8806859,21.0277978 C73.9013694,21.4983059 73.5769496,21.9140439 73.1155235,22.0083394 L73.9827076,23.2382671 L73.3195668,23.2382671 L72.5487365,22.1046931 L71.8402527,22.1046931 L71.8402527,23.2382671 L71.2734657,23.2382671 L71.2564621,20.0132491 Z M72.6450903,21.6059206 C73.0531769,21.6059206 73.308231,21.3962094 73.308231,21.0674729 L73.308231,21.0674729 C73.308231,20.7217329 73.0588448,20.5346931 72.6394224,20.5346931 L71.8175812,20.5346931 L71.8175812,21.6115884 L72.6450903,21.6059206 Z" id="Shape" fill="#54585F"></path>
            <polygon id="Path" fill="#54585F" points="75.7227437 20.0132491 78.1032491 20.0132491 78.1032491 20.5176895 76.2895307 20.5176895 76.2895307 21.3565343 77.8992058 21.3565343 77.8992058 21.8609747 76.2895307 21.8609747 76.2895307 22.722491 78.1315884 22.722491 78.1315884 23.2382671 75.7227437 23.2382671"></polygon>
            <path d="M79.7299278,22.7564982 L80.07,22.3540794 C80.3421909,22.6183505 80.7052054,22.7684236 81.0845487,22.7735018 C81.4359567,22.7735018 81.6513357,22.6091336 81.6513357,22.371083 L81.6513357,22.371083 C81.6513357,22.1387004 81.5209747,22.0196751 80.9258484,21.8779783 C80.2400361,21.7136101 79.8546209,21.5095668 79.8546209,20.9201083 L79.8546209,20.9201083 C79.8667873,20.6470178 79.9924018,20.3914034 80.2011638,20.2149242 C80.4099257,20.0384451 80.6828811,19.9571241 80.9541877,19.9905776 C81.3673797,19.9886123 81.7682981,20.1309383 82.0877617,20.3929964 L81.7873646,20.8180866 C81.5403085,20.6158024 81.2336297,20.5003 80.9145126,20.4893502 C80.5857762,20.4893502 80.3874007,20.6593863 80.3874007,20.8690975 L80.3874007,20.8690975 C80.3874007,21.1184838 80.5347653,21.2261733 81.1525632,21.3735379 C81.770361,21.5209025 82.1841155,21.7816245 82.1841155,22.3144043 L82.1841155,22.3144043 C82.1841155,22.9151986 81.7136823,23.2722744 81.0505415,23.2722744 C80.5617294,23.2694283 80.0912825,23.0856915 79.7299278,22.7564982 L79.7299278,22.7564982 Z" id="Path" fill="#54585F"></path>
            <polygon id="Path" fill="#54585F" points="84.0318412 20.0132491 86.4180144 20.0132491 86.4180144 20.5176895 84.5986282 20.5176895 84.5986282 21.3565343 86.2083032 21.3565343 86.2083032 21.8609747 84.5986282 21.8609747 84.5986282 22.722491 86.4406859 22.722491 86.4406859 23.2382671 84.0318412 23.2382671"></polygon>
            <path d="M89.3936462,19.9905776 L89.9207581,19.9905776 L91.3320578,23.2382671 L90.7652708,23.2382671 L90.4422022,22.461769 L88.9175451,22.461769 L88.5604693,23.2382671 L87.9936823,23.2382671 L89.3936462,19.9905776 Z M90.2041516,21.9516606 L89.6373646,20.6650542 L89.0705776,21.9516606 L90.2041516,21.9516606 Z" id="Shape" fill="#54585F"></path>
            <path d="M93.0324188,20.0132491 L94.4663899,20.0132491 C94.8050558,19.9937776 95.1375238,20.1100394 95.3902527,20.3363177 C95.5702899,20.5208127 95.6683648,20.7700865 95.6623105,21.0277978 L95.6623105,21.0277978 C95.6768218,21.4958546 95.3507922,21.9057889 94.8914801,21.9970036 L95.7870036,23.2382671 L95.1238628,23.2382671 L94.330361,22.1046931 L93.6275451,22.1046931 L93.6275451,23.2382671 L93.0607581,23.2382671 L93.0324188,20.0132491 Z M94.4210469,21.6059206 C94.8291336,21.6059206 95.0841877,21.3962094 95.0841877,21.0674729 L95.0841877,21.0674729 C95.0841877,20.7217329 94.8348014,20.5346931 94.4210469,20.5346931 L93.5992058,20.5346931 L93.5992058,21.6115884 L94.4210469,21.6059206 Z" id="Shape" fill="#54585F"></path>
            <path d="M97.3570036,21.6285921 L97.3570036,21.6285921 C97.3476872,21.1863483 97.5188736,20.7593812 97.8311214,20.446064 C98.1433693,20.1327468 98.5697486,19.9601017 99.0120217,19.9679061 C99.4843412,19.9512847 99.9422699,20.131992 100.275957,20.4666787 L99.913213,20.8861011 C99.6773084,20.6395858 99.3531436,20.4968717 99.0120217,20.4893502 C98.7192771,20.4935656 98.4408671,20.6167914 98.2409111,20.8306482 C98.040955,21.0445049 97.9366904,21.3305567 97.95213,21.6229242 L97.95213,21.6229242 C97.9398796,21.9144589 98.0452209,22.1987005 98.2445056,22.4118393 C98.4437904,22.6249781 98.7203221,22.7491567 99.0120217,22.7564982 C99.3638701,22.7519444 99.6982009,22.6022134 99.9358845,22.3427437 L100.298628,22.7054874 C99.9702191,23.0824829 99.4889847,23.2908095 98.9893502,23.2722744 C98.5530381,23.276935 98.1333983,23.104887 97.8259309,22.7952844 C97.5184635,22.4856818 97.3493237,22.0648615 97.3570036,21.6285921 L97.3570036,21.6285921 Z" id="Path" fill="#54585F"></path>
            <polygon id="Path" fill="#54585F" points="102.021661 20.0132491 102.588448 20.0132491 102.588448 21.3508664 104.12444 21.3508664 104.12444 20.0132491 104.691227 20.0132491 104.691227 23.2382671 104.12444 23.2382671 104.12444 21.8723105 102.588448 21.8723105 102.588448 23.2382671 102.021661 23.2382671"></polygon>
            <path d="M108.403682,21.6002527 L108.403682,21.6002527 C108.403663,21.3457671 108.608313,21.1385908 108.86278,21.1354874 C109.120395,21.1354687 109.330109,21.3426558 109.333213,21.6002527 L109.333213,21.6002527 C109.333213,21.8569355 109.12513,22.065018 108.868448,22.065018 C108.611765,22.065018 108.403682,21.8569355 108.403682,21.6002527 L108.403682,21.6002527 Z" id="Path" fill="#54585F"></path>
            <polygon id="Path" fill="#54585F" points="112.841625 20.0132491 115.233466 20.0132491 115.233466 20.5290253 113.408412 20.5290253 113.408412 21.4075451 115.057762 21.4075451 115.057762 21.9176534 113.436751 21.9176534 113.436751 23.2382671 112.869964 23.2382671"></polygon>
            <path d="M116.758123,21.6285921 L116.758123,21.6285921 C116.754826,21.1802105 116.934226,20.7498121 117.255009,20.4365144 C117.575792,20.1232167 118.010305,19.9540262 118.458484,19.9679061 C118.907033,19.9491513 119.343507,20.115962 119.665218,20.4290933 C119.986928,20.7422245 120.165472,21.1740314 120.158845,21.6229242 L120.158845,21.6229242 C120.162088,22.0717957 119.982863,22.5027313 119.662264,22.8169175 C119.341666,23.1311037 118.907198,23.3015879 118.458484,23.289278 C118.008934,23.3081005 117.571551,23.1405281 117.249659,22.8261474 C116.927768,22.5117668 116.749917,22.0784609 116.758123,21.6285921 Z M119.529711,21.6285921 L119.529711,21.6285921 C119.529711,21.0275786 119.042494,20.540361 118.44148,20.540361 C117.840467,20.540361 117.353249,21.0275786 117.353249,21.6285921 L117.353249,21.6285921 C117.344072,21.9250809 117.455074,22.2127007 117.661055,22.4261525 C117.867036,22.6396044 118.15052,22.760779 118.447148,22.7621661 C118.74135,22.7594127 119.021759,22.6370333 119.223836,22.4231947 C119.425914,22.209356 119.532252,21.9224793 119.518375,21.6285921 L119.529711,21.6285921 Z" id="Shape" fill="#54585F"></path>
            <path d="M121.813863,21.8609747 L121.813863,20.0132491 L122.38065,20.0132491 L122.38065,21.8383032 C122.38065,22.4390975 122.692383,22.7564982 123.196823,22.7564982 C123.701264,22.7564982 124.001661,22.4561011 124.001661,21.8609747 L124.001661,20.0132491 L124.568448,20.0132491 L124.568448,21.8383032 C124.61582,22.2225993 124.487599,22.6077946 124.219356,22.8870313 C123.951113,23.1662681 123.571375,23.3098487 123.185487,23.2779422 C122.80426,23.3114561 122.428256,23.1712192 122.162083,22.8962476 C121.895911,22.621276 121.767972,22.2409106 121.813863,21.8609747 Z" id="Path" fill="#54585F"></path>
            <polygon id="Path" fill="#54585F" points="126.484188 20.0132491 127.005632 20.0132491 128.705993 22.2350542 128.705993 20.0132491 129.27278 20.0132491 129.27278 23.2382671 128.802347 23.2382671 127.028303 20.9711191 127.028303 23.2382671 126.461516 23.2382671"></polygon>
            <path d="M131.262202,20.0132491 L132.458123,20.0132491 C132.898983,19.9867178 133.331275,20.1431397 133.65308,20.4456355 C133.974884,20.7481313 134.157721,21.1699314 134.158484,21.6115884 L134.158484,21.6115884 C134.157544,22.0541647 133.975057,22.4769719 133.653654,22.7812331 C133.332251,23.0854944 132.900087,23.2445581 132.458123,23.2212635 L131.262202,23.2212635 L131.262202,20.0132491 Z M132.458123,22.7111552 C132.756644,22.7356326 133.051383,22.6312779 133.267995,22.4244131 C133.484607,22.2175482 133.602413,21.9279232 133.591697,21.6285921 L133.591697,21.6285921 C133.602237,21.3288277 133.484588,21.0387659 133.268208,20.8310412 C133.051828,20.6233166 132.757207,20.5175989 132.458123,20.540361 L131.823321,20.540361 L131.823321,22.722491 L132.458123,22.7111552 Z" id="Shape" fill="#54585F"></path>
            <path d="M136.918736,19.9905776 L137.440181,19.9905776 L138.862816,23.2382671 L138.262022,23.2382671 L137.938953,22.461769 L136.414296,22.461769 L136.079892,23.2382671 L135.513105,23.2382671 L136.918736,19.9905776 Z M137.729242,21.9516606 L137.162455,20.6650542 L136.595668,21.9516606 L137.729242,21.9516606 Z" id="Shape" fill="#54585F"></path>
            <polygon id="Path" fill="#54585F" points="140.931588 20.5346931 139.911372 20.5346931 139.911372 20.0132491 142.518592 20.0132491 142.518592 20.5346931 141.498375 20.5346931 141.498375 23.2382671 140.931588 23.2382671"></polygon>
            <polygon id="Path" fill="#54585F" points="144.292635 20.0132491 144.859422 20.0132491 144.859422 23.2382671 144.292635 23.2382671"></polygon>
            <path d="M146.644801,21.6285921 L146.644801,21.6285921 C146.7726,20.7992948 147.486238,20.1872068 148.325325,20.1872068 C149.164411,20.1872068 149.87805,20.7992948 150.005848,21.6285921 L150.005848,21.6285921 C150.009092,22.0774636 149.829866,22.5083992 149.509268,22.8225854 C149.18867,23.1367716 148.754202,23.3072557 148.305487,23.2949458 C147.861234,23.3043701 147.432463,23.1316473 147.118794,22.8169074 C146.805125,22.5021675 146.633864,22.0728105 146.644801,21.6285921 Z M149.410722,21.6285921 L149.410722,21.6285921 C149.410722,21.0275786 148.923504,20.540361 148.322491,20.540361 C147.721478,20.540361 147.23426,21.0275786 147.23426,21.6285921 L147.23426,21.6285921 C147.225083,21.9250809 147.336085,22.2127007 147.542066,22.4261525 C147.748047,22.6396044 148.031531,22.760779 148.328159,22.7621661 C148.623821,22.760883 148.906235,22.6393522 149.110436,22.4255296 C149.314636,22.2117069 149.423044,21.9240006 149.410722,21.6285921 L149.410722,21.6285921 Z" id="Shape" fill="#54585F"></path>
            <polygon id="Path" fill="#54585F" points="151.751552 20.0132491 152.278664 20.0132491 153.979025 22.2350542 153.979025 20.0132491 154.545812 20.0132491 154.545812 23.2382671 154.069711 23.2382671 152.295668 20.9711191 152.295668 23.2382671 151.728881 23.2382671"></polygon>
            <path d="M150.198556,7.07916968 L150.198556,5.51483755 L149.325704,5.51483755 C148.981834,5.5558033 148.704247,5.81503788 148.639892,6.15530686 L148.639892,6.97148014 L149.456065,6.97148014 L149.456065,7.10184116 C149.511871,7.53803888 149.219067,7.94250535 148.787256,8.02570397 L148.787256,8.67750903 C149.188609,8.65877894 149.565243,8.47821279 149.831181,8.17702926 C150.09712,7.87584573 150.229664,7.47975324 150.198556,7.07916968" id="Path" fill="#54585F"></path>
            <path d="M31.8704332,13.693574 L33.0040072,12.384296 C33.880815,13.2373944 35.0511398,13.7221563 36.2743682,13.738917 C37.4079422,13.738917 38.1220939,13.2174729 38.1220939,12.429639 L38.1220939,12.4012996 C38.1220939,11.6531408 37.7026715,11.2677256 35.7699278,10.8029603 C33.5424549,10.2701805 32.3068592,9.63537906 32.3068592,7.69129964 L32.3068592,7.66296029 C32.3068592,5.87191336 33.797509,4.63631769 35.8662816,4.63631769 C37.2391754,4.61171352 38.5757588,5.07801029 39.6354152,5.95126354 L38.6548736,7.33422383 C37.8534403,6.67495967 36.8579424,6.29667046 35.8209386,6.25732852 C34.7497112,6.25732852 34.1205776,6.82411552 34.1205776,7.49859206 L34.1205776,7.49859206 C34.1205776,8.3034296 34.6023466,8.66050542 36.5974368,9.1366065 C38.8022383,9.7033935 39.947148,10.4628881 39.947148,12.1915884 L39.947148,12.2199278 C39.947148,14.175343 38.4168231,15.3372563 36.2233574,15.3372563 C34.6178301,15.353321 33.06463,14.7668262 31.8704332,13.693574 L31.8704332,13.693574 Z" id="Path" fill="#54585F"></path>
            <path d="M41.0070397,11.3357401 L41.0070397,11.3074007 C41.0070397,9.04025271 42.5997112,7.20953069 44.8498556,7.20953069 C47.3550542,7.20953069 48.6189892,9.17628159 48.6189892,11.4377617 C48.6189892,11.60213 48.6189892,11.7664982 48.6189892,11.94787 L42.8094224,11.94787 C42.9168668,13.1086993 43.9115011,13.9839775 45.0765704,13.9429603 C45.8889662,13.9493064 46.6650174,13.606688 47.2076895,13.0020939 L48.2619134,13.9429603 C47.4796293,14.9123126 46.2875126,15.4579999 45.0425632,15.4166065 C43.9547186,15.4489719 42.9023341,15.0278784 42.1370826,14.2540286 C41.3718311,13.4801788 40.962522,12.4231551 41.0070397,11.3357401 L41.0070397,11.3357401 Z M46.8336101,10.7689531 C46.7145848,9.63537906 46.0287726,8.70018051 44.8385199,8.70018051 C43.6482671,8.70018051 42.956787,9.55036101 42.7924188,10.7689531 L46.8336101,10.7689531 Z" id="Shape" fill="#54585F"></path>
            <path d="M74.8158628,11.3357401 L74.8158628,11.3074007 C74.8158628,9.04025271 76.4142238,7.20953069 78.6587004,7.20953069 C81.1638989,7.20953069 82.4278339,9.17628159 82.4278339,11.4377617 C82.4278339,11.60213 82.4278339,11.7664982 82.4278339,11.94787 L76.6466065,11.94787 C76.7540509,13.1086993 77.7486852,13.9839775 78.9137545,13.9429603 C79.7261503,13.9493064 80.5022015,13.606688 81.0448736,13.0020939 L82.0990975,13.9429603 C81.0004856,15.2896549 79.1726603,15.7982189 77.5363752,15.2124671 C75.9000901,14.6267152 74.8102622,13.0736994 74.8158628,11.3357401 Z M80.6424549,10.7689531 C80.5234296,9.63537906 79.8376173,8.70018051 78.6473646,8.70018051 C77.4571119,8.70018051 76.7656318,9.55036101 76.6069314,10.7689531 L80.6424549,10.7689531 Z" id="Shape" fill="#54585F"></path>
            <path d="M86.7580866,10.03213 L86.7580866,9.99812274 C86.7269363,8.56122106 87.2832454,7.17378358 88.2984567,6.15643271 C89.313668,5.13908185 90.6999312,4.57985307 92.1368953,4.60797834 C93.6669286,4.55306855 95.1496811,5.14329039 96.2234296,6.23465704 L95.0445126,7.59494585 C94.2841407,6.78951486 93.2329238,6.32208055 92.1255596,6.29700361 C91.175191,6.31118159 90.2713872,6.71096474 89.6215676,7.40460439 C88.971748,8.09824404 88.6317113,9.0261788 88.6794946,9.97545126 L88.6794946,10.0037906 C88.6794946,12.0498917 90.1248014,13.7162455 92.1255596,13.7162455 C93.2685129,13.7024739 94.3536151,13.2113008 95.1181949,12.3616245 L96.2971119,13.5518773 C95.2351243,14.7726527 93.6804499,15.4511317 92.063213,15.3996029 C90.6405637,15.4153351 89.2724805,14.8528323 88.272348,13.8409461 C87.2722156,12.82906 86.7257346,11.4544983 86.7580866,10.03213 L86.7580866,10.03213 Z" id="Path" fill="#54585F"></path>
            <rect id="Rectangle" fill="#54585F" x="107.349458" y="7.35122744" width="1.80238267" height="7.86700361"></rect>
            <path d="M49.5711913,11.296065 L49.5711913,11.2677256 C49.5711913,8.66050542 51.2715523,7.18685921 53.0682671,7.18685921 C54.1038195,7.18648181 55.0704035,7.70596746 55.6414801,8.56981949 L55.6414801,7.05083032 L57.3418412,7.05083032 L57.3418412,15.218231 L55.6414801,15.218231 L55.6414801,13.9032852 C55.1059288,14.8169742 54.1273392,15.3795555 53.0682671,15.3825993 C51.2998917,15.3825993 49.5711913,13.9032852 49.5711913,11.296065 Z M55.6698195,11.296065 L55.6698195,11.2677256 C55.6698195,9.74873646 54.643935,8.75119134 53.4820217,8.75119134 C52.3201083,8.75119134 51.3168953,9.7033935 51.3168953,11.2677256 L51.3168953,11.296065 C51.3168953,12.8150542 52.3144404,13.8125993 53.4820217,13.8125993 C54.6496029,13.8125993 55.6698195,12.8037184 55.6698195,11.296065 Z" id="Shape" fill="#54585F"></path>
            <path d="M125.401625,7.36823105 L127.204007,7.36823105 L127.204007,9.1366065 C127.596992,7.94289203 128.737197,7.15726275 129.992599,7.21519856 L129.992599,9.12527076 L129.88491,9.12527076 C128.309242,9.12527076 127.204007,10.1511552 127.204007,12.2369314 L127.204007,15.2352347 L125.401625,15.2352347 L125.401625,7.36823105 Z" id="Path" fill="#54585F"></path>
            <path d="M63.7975451,8.89855596 L63.7975451,7.36823105 L61.6777617,7.36823105 L61.6777617,3.83148014 L60.6462094,3.83148014 C60.2154513,3.83148014 59.9377256,4.10920578 59.8980505,4.64765343 L59.8980505,7.36823105 L58.9005054,7.36823105 L58.9005054,8.89855596 L59.8980505,8.89855596 L59.8980505,13.0361011 C59.8980505,14.7364621 60.838917,15.3429242 62.1651986,15.3429242 C62.7320806,15.3587283 63.2925351,15.2195945 63.7862094,14.9405054 L63.7862094,13.4668592 C63.4361482,13.6479055 63.0466943,13.7394272 62.6526354,13.7332491 C62.3833572,13.7726361 62.1113977,13.6816092 61.9200852,13.4880592 C61.7287727,13.2945091 61.6409143,13.0215096 61.6834296,12.7527076 L61.6834296,8.89855596 L63.7975451,8.89855596 Z" id="Path" fill="#54585F"></path>
            <path d="M69.7148014,8.89855596 L69.7148014,7.36823105 L67.5950181,7.36823105 L67.5950181,3.83148014 L66.5464621,3.83148014 C66.1100361,3.83148014 65.8209747,4.12054152 65.7926354,4.67599278 L65.7926354,7.36823105 L64.7950903,7.36823105 L64.7950903,8.89855596 L65.7926354,8.89855596 L65.7926354,13.0361011 C65.7926354,14.7364621 66.7335018,15.3429242 68.0597834,15.3429242 C68.62836,15.3577661 69.1903858,15.2187283 69.6864621,14.9405054 L69.6864621,13.4668592 C69.3358364,13.6463735 68.94677,13.7378041 68.5528881,13.7332491 C68.2836099,13.7726361 68.0116504,13.6816092 67.8203379,13.4880592 C67.6290254,13.2945091 67.541167,13.0215096 67.5836823,12.7527076 L67.5836823,8.89855596 L69.7148014,8.89855596 Z" id="Path" fill="#54585F"></path>
            <path d="M72.2710108,3.83148014 C72.0707308,3.82377131 71.8759527,3.897984 71.7315801,4.03700948 C71.5872074,4.17603495 71.5057001,4.36787493 71.5058482,4.56830325 L71.5058482,15.218231 L73.308231,15.218231 L73.308231,3.83148014 L72.2710108,3.83148014 Z" id="Path" fill="#54585F"></path>
            <path d="M102.271047,7.18685921 C101.263554,7.17780102 100.327008,7.70433887 99.8111913,8.56981949 L99.8111913,3.83714801 L98.7229603,3.83714801 C98.3035379,3.86548736 98.0258123,4.143213 98.0088087,4.69866426 L98.0088087,15.218231 L99.8111913,15.218231 L99.8111913,10.7689531 C99.8111913,9.55036101 100.542347,8.81920578 101.579567,8.81920578 C102.616787,8.81920578 103.279928,9.51635379 103.279928,10.7406137 L103.279928,15.2125632 L105.08231,15.2125632 L105.08231,10.2021661 C105.070975,8.37711191 104.039422,7.18685921 102.271047,7.18685921 Z" id="Path" fill="#54585F"></path>
            <path d="M112.308845,3.82581227 C111.894422,3.85310957 111.580149,4.21046856 111.606029,4.62498195 L111.606029,15.218231 L113.414079,15.218231 L113.414079,3.82581227 L112.308845,3.82581227 Z" id="Path" fill="#54585F"></path>
            <path d="M122.029242,3.83714801 C121.678796,3.85139001 121.390562,4.11800632 121.349097,4.46628159 L121.349097,8.56981949 C120.736752,7.69659856 119.734699,7.17968289 118.668195,7.18685921 C116.79213,7.18685921 115.018087,8.66050542 115.018087,11.2677256 L115.018087,11.296065 C115.018087,13.9032852 116.820469,15.3826401 118.668195,15.3826401 C119.757993,15.3881426 120.772731,14.8282134 121.349097,13.9032852 L121.349097,15.218231 L123.15148,15.218231 L123.15148,3.83714801 L122.029242,3.83714801 Z M121.377437,11.296065 C121.377437,12.5481763 120.3624,13.563213 119.110289,13.563213 C117.858178,13.563213 116.843141,12.5481763 116.843141,11.296065 L116.843141,11.2677256 C116.843141,9.7033935 117.874693,8.75119134 119.110289,8.75119134 C119.748232,8.77426776 120.349557,9.05502737 120.776834,9.5293047 C121.20411,10.003582 121.420821,10.6308407 121.377437,11.2677256 L121.377437,11.296065 Z" id="Shape" fill="#54585F"></path>
            <path d="M130.854116,11.3357401 L130.854116,11.3074007 C130.854116,9.04025271 132.446787,7.20953069 134.696931,7.20953069 C137.20213,7.20953069 138.466065,9.17628159 138.466065,11.4377617 C138.466065,11.60213 138.466065,11.7664982 138.437726,11.94787 L132.656498,11.94787 C132.761208,13.1100888 133.757546,13.9868667 134.923646,13.9429603 C135.736042,13.9493064 136.512093,13.606688 137.054765,13.0020939 L138.114657,13.9429603 C137.332373,14.9123126 136.140256,15.4579999 134.895307,15.4166065 C133.806493,15.4505783 132.752597,15.0301933 131.986087,14.2561578 C131.219577,13.4821223 130.809508,12.4241697 130.854116,11.3357401 L130.854116,11.3357401 Z M136.675018,10.7689531 C136.555993,9.63537906 135.875848,8.70018051 134.679928,8.70018051 C133.580361,8.70018051 132.803863,9.55036101 132.639495,10.7689531 L136.675018,10.7689531 Z" id="Shape" fill="#54585F"></path>
            <path d="M140.285451,7.36823105 L142.087834,7.36823105 L142.087834,8.5868231 C142.596314,7.72006099 143.525784,7.18739538 144.530686,7.18685921 C146.304729,7.18685921 147.330614,8.37711191 147.330614,10.2078339 L147.330614,15.218231 L145.528231,15.218231 L145.528231,10.7689531 C145.528231,9.54469314 144.916101,8.84754513 143.82787,8.84754513 C142.739639,8.84754513 142.059495,9.57870036 142.059495,10.7972924 L142.059495,15.2409025 L140.257112,15.2409025 L140.285451,7.36823105 Z" id="Path" fill="#54585F"></path>
            <path d="M150.317581,14.1696751 L151.122419,12.951083 C151.858244,13.5381728 152.76094,13.8774276 153.7013,13.9202888 C154.47213,13.9202888 154.919892,13.5858845 154.919892,13.0701083 L154.919892,13.0361011 C154.919892,12.4239711 154.086715,12.2199278 153.162852,11.9365343 C152.000939,11.6077978 150.702996,11.1316968 150.702996,9.62404332 L150.702996,9.63537906 C150.702996,8.14472924 151.94426,7.23787004 153.508592,7.23787004 C154.53652,7.25750135 155.538201,7.56586188 156.399206,8.12772563 L155.679386,9.41433213 C155.018816,8.97542613 154.254679,8.71745663 153.463249,8.66617329 C152.760433,8.66617329 152.358014,8.99490975 152.358014,9.45967509 L152.358014,9.45967509 C152.358014,10.0264621 153.208195,10.2645126 154.132058,10.5592419 C155.265632,10.9163177 156.57491,11.4434296 156.57491,12.8547292 L156.57491,12.8547292 C156.57491,14.5097473 155.293971,15.3315884 153.655957,15.3315884 C152.445967,15.3202246 151.273152,14.9120292 150.317581,14.1696751 L150.317581,14.1696751 Z" id="Path" fill="#54585F"></path>
            <path d="M107.270108,4.79501805 C107.270167,4.38772147 107.516473,4.02088388 107.893439,3.86665477 C108.270406,3.71242566 108.703207,3.80141907 108.988737,4.0918722 C109.274267,4.38232533 109.35585,4.81658402 109.1952,5.19085944 C109.03455,5.56513486 108.663556,5.80513437 108.256318,5.79823105 C107.710198,5.78596345 107.273039,5.3412681 107.270108,4.79501805 L107.270108,4.79501805 Z" id="Path" fill="#54585F"></path>
        </g>
    </g>
</svg>