<?xml version="1.0" encoding="UTF-8"?>
<svg width="144px" height="35px" viewBox="0 0 144 35" version="1.1" xmlns="http://www.w3.org/2000/svg" xmlns:xlink="http://www.w3.org/1999/xlink">
    <!-- Generator: Sketch 57.1 (83088) - https://sketch.com -->
    <title>logo_UWMedicine</title>
    <desc>Created with Sketch.</desc>
    <g id="logo_UWMedicine" stroke="none" stroke-width="1" fill="none" fill-rule="evenodd">
        <g transform="translate(0.000000, 7.500000)" fill="#4B2E83" fill-rule="nonzero" id="Shape">
            <path d="M67.8181818,0.272727273 L67.8181818,0.545454545 C67.1818182,0.636363636 66.3636364,0.818181818 66.3636364,2.09090909 C66.3636364,2.18181818 66.3636364,2.72727273 66.4545455,3.45454545 L67.6363636,15.7272727 C67.8181818,17.3636364 67.9090909,17.9090909 69.3636364,18.3636364 L69.3636364,18.6363636 L64,18.6363636 L64,18.3636364 C64.8181818,18.0909091 65.4545455,17.8181818 65.4545455,16.6363636 C65.4545455,16.3636364 65.4545455,16.3636364 65.3636364,15.3636364 L64.1818182,2.90909091 L57.6363636,18.6363636 L57.3636364,18.6363636 L50.6363636,3.18181818 L49.5454545,15.5454545 C49.4545455,15.9090909 49.4545455,16.2727273 49.4545455,16.6363636 C49.4545455,17.8181818 50.0909091,18.0909091 50.9090909,18.3636364 L50.9090909,18.6363636 L46.4545455,18.6363636 L46.4545455,18.3636364 C47.7272727,18.0909091 47.9090909,17.6363636 48.0909091,15.7272727 L49.2727273,3.54545455 C49.3636364,2.72727273 49.3636364,2.45454545 49.3636364,2.27272727 C49.3636364,1 48.8181818,0.818181818 47.9090909,0.636363636 L47.9090909,0.272727273 L51.8181818,0.272727273 L57.9090909,14.3636364 L64,0.272727273 L67.8181818,0.272727273 Z M81.0909091,15.7272727 C80.8181818,16.1818182 80.5454545,16.6363636 80.2727273,17 C79.2727273,18.3636364 77.6363636,19.0909091 76,19.0909091 C72.1818182,19.0909091 70.2727273,16.0909091 70.2727273,12.9090909 C70.2727273,9.72727273 72.2727273,6.36363636 76.0909091,6.36363636 C79,6.36363636 81.2727273,8.27272727 81.3636364,12 L72.1818182,12 C72.1818182,12.4545455 72.1818182,12.9090909 72.2727273,13.3636364 C72.4545455,15.6363636 74.2727273,17.3636364 76.5454545,17.3636364 C78.0909091,17.2727273 79.6363636,16.5454545 80.6363636,15.3636364 L81.0909091,15.7272727 Z M79.1818182,11 C79.0909091,8.45454545 77.5454545,7.45454545 76,7.45454545 C74.2727273,7.45454545 72.8181818,8.63636364 72.2727273,11 L79.1818182,11 Z M94.2727273,0 L94.2727273,14.7272727 C94.2727273,16.5454545 94.5454545,16.9090909 95.4545455,17.1818182 L95.5454545,17.4545455 L93.6363636,19.0909091 C93,18.6363636 92.5454545,18 92.3636364,17.1818182 C91,18.3636364 89.9090909,19.0909091 88.1818182,19.0909091 C84.7272727,19.0909091 82.7272727,16.4545455 82.7272727,13.1818182 C82.7272727,9.63636364 84.9090909,6.36363636 88.7272727,6.36363636 C89.9090909,6.36363636 91.0909091,6.63636364 92.0909091,7.27272727 L92.0909091,3.72727273 C92.0909091,2.90909091 92,2 90.6363636,2.18181818 L90.5454545,1.90909091 L94.2727273,0 Z M92.2727273,11.2727273 C92.2727273,10.6363636 92.1818182,10 92,9.36363636 C91.4545455,8.18181818 90.2727273,7.36363636 89,7.45454545 C86.3636364,7.45454545 84.9090909,9.72727273 84.9090909,12.6363636 C84.9090909,15.7272727 86.8181818,17.5454545 88.9090909,17.5454545 C89.4545455,17.5454545 89.9090909,17.4545455 90.4545455,17.2727273 C91.1818182,17 91.8181818,16.4545455 92.3636364,15.8181818 L92.2727273,11.2727273 Z M97.8181818,9.81818182 C97.8181818,9 97.8181818,8.45454545 96.5454545,8.45454545 L96.4545455,8.18181818 L99.9090909,6.18181818 L99.9090909,16 C99.9090909,17.4545455 99.9090909,18 101.363636,18.3636364 L101.363636,18.6363636 L96.5454545,18.6363636 L96.5454545,18.3636364 C97.8181818,18 97.8181818,17.4545455 97.8181818,15.9090909 L97.8181818,9.81818182 Z M100.181818,1.54545455 C100.181818,2.27272727 99.6363636,2.90909091 98.9090909,2.90909091 C98.9090909,2.90909091 98.8181818,2.90909091 98.8181818,2.90909091 C98.0909091,2.90909091 97.5454545,2.36363636 97.5454545,1.72727273 C97.5454545,1.72727273 97.5454545,1.72727273 97.5454545,1.72727273 C97.5454545,1 98.0909091,0.363636364 98.8181818,0.363636364 C98.8181818,0.363636364 98.9090909,0.363636364 98.9090909,0.363636364 C99.6363636,0.272727273 100.181818,0.818181818 100.181818,1.54545455 C100.181818,1.54545455 100.181818,1.54545455 100.181818,1.54545455 L100.181818,1.54545455 Z M112.545455,15.7272727 C111.090909,18.6363636 109.181818,19.0909091 107.636364,19.0909091 C106.090909,19.1818182 104.727273,18.4545455 103.818182,17.1818182 C102.909091,16 102.454545,14.5454545 102.454545,13 C102.454545,11.3636364 102.909091,9.63636364 104,8.36363636 C105,7 106.545455,6.27272727 108.181818,6.36363636 C109.545455,6.36363636 110.909091,6.81818182 112,7.72727273 L111.545455,10.0909091 L111.272727,10.0909091 C110.818182,9.09090909 110.181818,7.45454545 108,7.45454545 C105.272727,7.45454545 104.363636,10.2727273 104.363636,12.3636364 C104.363636,15.4545455 106.272727,17.4545455 108.454545,17.4545455 C109.909091,17.2727273 111.272727,16.6363636 112.181818,15.4545455 L112.545455,15.7272727 Z M114.636364,9.81818182 C114.636364,9 114.636364,8.45454545 113.363636,8.45454545 L113.181818,8.18181818 L116.636364,6.18181818 L116.636364,16 C116.636364,17.4545455 116.636364,18 118.090909,18.3636364 L118.090909,18.6363636 L113.272727,18.6363636 L113.272727,18.3636364 C114.545455,18 114.545455,17.4545455 114.545455,15.9090909 L114.636364,9.81818182 Z M117,1.54545455 C117,2.27272727 116.454545,2.90909091 115.727273,2.90909091 C115.727273,2.90909091 115.636364,2.90909091 115.636364,2.90909091 C114.909091,2.90909091 114.363636,2.36363636 114.363636,1.72727273 C114.363636,1.72727273 114.363636,1.72727273 114.363636,1.72727273 C114.363636,1 114.909091,0.363636364 115.636364,0.363636364 C115.636364,0.363636364 115.727273,0.363636364 115.727273,0.363636364 C116.363636,0.272727273 117,0.818181818 117,1.54545455 C117,1.54545455 117,1.54545455 117,1.54545455 L117,1.54545455 Z M122.545455,6.18181818 L122.545455,8.18181818 C123.545455,7 125,6.27272727 126.545455,6.36363636 C127.818182,6.27272727 129,6.81818182 129.818182,7.81818182 C130.545455,8.81818182 130.545455,9.72727273 130.545455,11.1818182 L130.545455,15.8181818 C130.545455,17.3636364 130.636364,18 132,18.2727273 L132,18.5454545 L127.272727,18.5454545 L127.272727,18.2727273 C127.727273,18.2727273 128.181818,17.9090909 128.454545,17.5454545 C128.545455,17.2727273 128.636364,17.0909091 128.636364,15.9090909 L128.636364,10.9090909 C128.727273,10 128.363636,9.09090909 127.727273,8.45454545 C127.181818,8 126.454545,7.81818182 125.727273,7.81818182 C124.909091,7.81818182 124.181818,8 123.545455,8.54545455 C122.818182,9.18181818 122.454545,10.0909091 122.636364,11 L122.636364,15.8181818 C122.636364,17.5454545 122.818182,17.9090909 124.090909,18.2727273 L124.090909,18.5454545 L119.090909,18.5454545 L119.090909,18.2727273 C120.454545,18 120.454545,17.0909091 120.454545,15.8181818 L120.454545,10.7272727 C120.454545,9.09090909 120.454545,8.45454545 119.090909,8.45454545 L119,8.18181818 L122.545455,6.18181818 Z M143.272727,15.7272727 C143,16.1818182 142.727273,16.6363636 142.454545,17 C141.454545,18.3636364 139.818182,19.0909091 138.181818,19.0909091 C134.363636,19.0909091 132.454545,16.0909091 132.454545,12.9090909 C132.454545,9.72727273 134.454545,6.36363636 138.363636,6.36363636 C141.272727,6.36363636 143.545455,8.27272727 143.636364,12 L134.454545,12 C134.454545,12.4545455 134.454545,12.9090909 134.545455,13.3636364 C134.727273,15.6363636 136.545455,17.3636364 138.818182,17.3636364 C140.363636,17.2727273 141.909091,16.5454545 142.909091,15.3636364 L143.272727,15.7272727 Z M141.363636,11 C141.272727,8.45454545 139.727273,7.45454545 138.181818,7.45454545 C136.454545,7.45454545 135,8.63636364 134.454545,11 L141.363636,11 Z M43,0.181818182 C42.8181818,0 42.2727273,0 41.6363636,0.0909090909 L40.8181818,0.181818182 L39.9090909,0.0909090909 C39.1818182,0 38.3636364,-0.0909090909 38.0909091,0.181818182 L38,0.363636364 L38,0.363636364 C38,0.636363636 38.2727273,0.727272727 38.4545455,0.818181818 C38.9090909,0.909090909 39.2727273,1.27272727 39.3636364,1.72727273 C39.3636364,1.90909091 39.4545455,2 39.4545455,2.18181818 C39.4545455,2.18181818 39.4545455,2.18181818 39.4545455,2.18181818 C39.4545455,3.36363636 37.4545455,8.81818182 35.3636364,13.8181818 C34.5454545,11.6363636 31.7272727,2.09090909 31.7272727,2 C31.7272727,1.72727273 31.6363636,1.45454545 31.6363636,1.27272727 L31.6363636,1.27272727 C31.6363636,0.636363636 31.9090909,0.636363636 32.1818182,0.636363636 C32.3636364,0.636363636 32.5454545,0.545454545 32.5454545,0.272727273 L32.4545455,0.0909090909 C32.1818182,0 31.4545455,0 30.3636364,0.0909090909 L29.3636364,0.181818182 L28.3636364,0.0909090909 C27.5454545,0 26.8181818,-0.0909090909 26.5454545,0.181818182 L26.4545455,0.454545455 L26.4545455,0.454545455 C26.4545455,0.727272727 26.7272727,0.818181818 26.9090909,0.818181818 C27.4545455,0.909090909 27.9090909,1.27272727 28.1818182,1.72727273 C28.3636364,2 28.5454545,2.45454545 28.9090909,3.36363636 L29.8181818,5.54545455 C29.8181818,5.63636364 26.6363636,13.5454545 26.4545455,13.9090909 C26,12.7272727 23.4545455,5.90909091 22.0909091,2.18181818 L22.0909091,1.81818182 L22.0909091,1.36363636 C22.0909091,0.727272727 22.3636364,0.727272727 22.6363636,0.727272727 C22.8181818,0.727272727 23,0.636363636 23.0909091,0.363636364 L23,0.181818182 C22.8181818,0 22.0909091,0 21,0.0909090909 L20,0.181818182 L19,0.0909090909 C18.4545455,0 18,0 17.4545455,0.0909090909 C17.3636364,0.0909090909 17.2727273,0.0909090909 17.0909091,0.181818182 L16.2727273,0.272727273 L15.2727273,0.181818182 C14.6363636,0.0909090909 14,0 13.8181818,0.272727273 L13.7272727,0.454545455 C13.7272727,0.818181818 14.0909091,0.909090909 14.4545455,0.909090909 C14.4545455,0.909090909 14.6363636,0.909090909 14.6363636,0.909090909 C15.4545455,1 16.4545455,1.09090909 16.4545455,6.18181818 L16.4545455,12.3636364 C16.4545455,15.5454545 14.4545455,17.4545455 10.9090909,17.5454545 C9.36363636,17.7272727 7.81818182,17.1818182 6.63636364,16.1818182 C5.09090909,14.7272727 4.90909091,12.1818182 4.90909091,9.72727273 L4.90909091,2.09090909 C4.81818182,1.45454545 5.18181818,0.909090909 5.81818182,0.818181818 C6.09090909,0.727272727 6.27272727,0.636363636 6.27272727,0.363636364 L6.09090909,0.0909090909 C5.81818182,-0.0909090909 5.18181818,0.0909090909 4.54545455,0.181818182 C4.18181818,0.272727273 3.72727273,0.363636364 3.27272727,0.363636364 C2.81818182,0.363636364 2.45454545,0.272727273 2,0.181818182 C1.18181818,0.0909090909 0.454545455,0 0.0909090909,0.181818182 C0,0.272727273 0,0.363636364 0,0.454545455 C0,0.818181818 0.272727273,0.909090909 0.636363636,1 C1.27272727,1.18181818 2.09090909,1.36363636 2.09090909,3.36363636 L2.09090909,12.2727273 C2.09090909,13.8181818 2.72727273,15.3636364 3.81818182,16.4545455 C5.63636364,18 8,18.8181818 10.3636364,18.6363636 C16.2727273,18.4545455 17.4545455,14.7272727 17.4545455,11.7272727 L17.4545455,2.09090909 C17.4545455,1.36363636 17.6363636,1.09090909 17.9090909,1 C18.3636364,1.09090909 18.9090909,1.45454545 19.2727273,2.54545455 C19.2727273,2.63636364 22.9090909,11.5454545 23.7272727,13.9090909 L25.2727273,18.5454545 C25.2727273,18.6363636 25.3636364,18.7272727 25.5454545,18.7272727 C25.7272727,18.7272727 25.8181818,18.5454545 25.8181818,18.5454545 C26.4545455,16.3636364 29.7272727,8.18181818 30.2727273,6.81818182 C30.8181818,8.18181818 33.9090909,16.7272727 34.3636364,18.5454545 C34.3636364,18.7272727 34.4545455,18.8181818 34.6363636,18.8181818 C34.8181818,18.8181818 34.9090909,18.7272727 34.9090909,18.6363636 C34.9090909,18.6363636 35.4545455,17.0909091 35.4545455,17.0909091 L36.3636364,14.6363636 C36.3636364,14.6363636 37.1818182,12.5454545 37.1818182,12.4545455 C37.1818182,12.4545455 40.8181818,2.72727273 40.8181818,2.72727273 C41.5454545,0.909090909 42.2727273,0.909090909 42.6363636,0.818181818 C42.8181818,0.818181818 43.0909091,0.818181818 43.0909091,0.454545455 C43.0909091,0.272727273 43.0909091,0.181818182 43,0.181818182 L43,0.181818182 Z"></path>
        </g>
    </g>
</svg>