<?xml version="1.0" encoding="UTF-8"?>
<svg width="135px" height="35px" viewBox="0 0 135 35" version="1.1" xmlns="http://www.w3.org/2000/svg" xmlns:xlink="http://www.w3.org/1999/xlink">
    <!-- Generator: Sketch 57.1 (83088) - https://sketch.com -->
    <title>logo_FredHutch</title>
    <desc>Created with Sketch.</desc>
    <g id="logo_FredHutch" stroke="none" stroke-width="1" fill="none" fill-rule="evenodd">
        <g transform="translate(-0.000000, 0.000000)" fill-rule="nonzero">
            <g id="g238" transform="translate(2.815433, 18.578843) scale(-1, 1) rotate(-180.000000) translate(-2.815433, -18.578843) translate(0.815433, 13.078843)" fill="#88C540">
                <path d="M0,6.38831203 C0,4.46117123 0.349227724,2.61494906 0.983800052,0.908205026 L3.51357161,7.86294738 C3.86492878,8.83184138 3.36557572,9.90294836 2.39774645,10.2574997 C1.65563753,10.5247441 0.853904374,10.2937001 0.360939629,9.73472281 C0.126701522,8.65616279 0,7.53714347 0,6.38831203" id="path240"></path>
            </g>
            <g id="g242" transform="translate(5.123178, 8.707181) scale(-1, 1) rotate(-180.000000) translate(-5.123178, -8.707181) translate(1.396662, 3.383587)" fill="#1C7B7E">
                <path d="M2.12943734,1.06471867 C3.08874886,0.715490947 4.1683736,1.21271457 4.5218602,2.18054384 L7.36998264,10.0072908 C4.56444894,8.40808334 2.29979233,5.97094231 0.915658057,3.03657765 C0.817703939,2.19651462 1.30747453,1.36496934 2.12943734,1.06471867" id="path244"></path>
            </g>
            <g id="g246" transform="translate(24.146080, 24.377710) scale(-1, 1) rotate(-180.000000) translate(-24.146080, -24.377710) translate(21.484284, 21.715913)" fill="#35B5B9">
                <path d="M4.25887468,2.12943734 C3.90538808,1.16054335 2.8342811,0.661190295 1.86645183,1.01361217 C0.896493121,1.36603405 0.397140064,2.43607632 0.749561944,3.40709975 C1.10091911,4.37492902 2.17309081,4.87534679 3.1419848,4.5218602 C4.11194351,4.16943832 4.60916713,3.09726661 4.25887468,2.12943734" id="path248"></path>
            </g>
            <g id="g250" transform="translate(21.817115, 29.708543) scale(-1, 1) rotate(-180.000000) translate(-21.817115, -29.708543) translate(19.155318, 25.982028)" fill="#88C540">
                <path d="M4.25887468,2.12943734 C3.90538808,1.1573492 2.82682807,0.661190295 1.86645183,1.01254746 C0.906075589,1.36071046 0.399269502,2.4350116 0.751691382,3.40390559 L1.49060614,5.43538881 C1.84409274,6.40534752 2.914135,6.90257114 3.88196427,6.5522787 C4.85085826,6.1987921 5.35021132,5.12768512 4.99672472,4.15772641 L4.25887468,2.12943734 Z" id="path252"></path>
            </g>
            <g id="g254" transform="translate(27.330973, 15.750720) scale(-1, 1) rotate(-180.000000) translate(-27.330973, -15.750720) translate(23.072099, 8.830049)" fill="#88C540">
                <path d="M4.25887468,2.12943734 C3.9064528,1.16054335 2.82789279,0.663319732 1.86858127,1.01148274 C0.907140308,1.36177518 0.398204783,2.43607632 0.750626663,3.40497031 L3.97565952,12.2634297 C4.3280814,13.2312589 5.4002531,13.7316767 6.36914709,13.3792548 C7.33697636,13.0268329 7.83632942,11.955726 7.48497226,10.9857672 L4.25887468,2.12943734 Z" id="path256"></path>
            </g>
            <g id="g258" transform="translate(30.138530, 16.095157) scale(-1, 1) rotate(-180.000000) translate(-30.138530, -16.095157) translate(28.009093, 11.303923)" fill="#1C7B7E">
                <path d="M4.25887468,3.19415601 C4.25887468,5.11171434 3.91497055,6.94835405 3.28678654,8.64764505 L1.12114876,2.69373824 C0.769791599,1.72590897 1.27659769,0.653737264 2.23697393,0.302380103 C2.86728738,0.0734655883 3.54977205,0.209749578 4.04273679,0.604760205 C4.18327966,1.44695267 4.25887468,2.31256895 4.25887468,3.19415601" id="path260"></path>
            </g>
            <g id="g262" transform="translate(27.922105, 26.263327) scale(-1, 1) rotate(-180.000000) translate(-27.922105, -26.263327) translate(23.663230, 20.407374)" fill="#35B5B9">
                <path d="M7.4530307,8.51774937 C7.65426253,9.41956608 7.16023306,10.3533244 6.27119297,10.6780636 C5.30229898,11.0304854 4.23012728,10.5300677 3.8777054,9.56223838 L0.677161075,0.774050474 C3.71906232,2.5148655 6.12213236,5.23948058 7.4530307,8.51774937" id="path264"></path>
            </g>
            <g id="g266" transform="translate(19.726433, 8.707181) scale(-1, 1) rotate(-180.000000) translate(-19.726433, -8.707181) translate(15.999918, 2.318869)" fill="#88C540">
                <path d="M4.25887468,2.12943734 C3.90432337,1.16054335 2.82576335,0.664384451 1.86538711,1.01254746 C0.903946152,1.3628399 0.397140064,2.43820576 0.749561944,3.40603503 L3.55190149,11.1060805 C3.90432337,12.0749744 4.97649507,12.5753922 5.94645378,12.2219056 C6.91321833,11.8705485 7.41363611,10.7962473 7.05908479,9.82948277 L4.25887468,2.12943734 Z" id="path268"></path>
            </g>
            <g id="g270" transform="translate(13.506560, 26.598181) scale(-1, 1) rotate(-180.000000) translate(-13.506560, -26.598181) translate(9.247685, 19.145150)" fill="#88C540">
                <path d="M6.38831203,13.8413427 C5.41941803,14.1948293 4.34724633,13.6954763 3.99482445,12.7265823 L0.207620141,2.32215142 C1.30960397,1.76530356 2.48505338,1.33409249 3.71693288,1.04768317 L7.50413719,11.4489199 C7.85655907,12.4188786 7.35507658,13.4910503 6.38831203,13.8413427" id="path272"></path>
            </g>
            <g id="g274" transform="translate(11.412152, 5.071273) scale(-1, 1) rotate(-180.000000) translate(-11.412152, -5.071273) translate(8.217996, 1.344757)" fill="#88C540">
                <path d="M2.12943734,1.06471867 C3.08874886,0.715490947 4.16730888,1.21164985 4.52079548,2.18054384 L6.15833279,6.68110966 C4.59106691,6.46497177 3.09620189,6.01778993 1.71206762,5.37576457 L1.01361217,3.45714152 C0.662255013,2.48718282 1.17012582,1.41501111 2.12943734,1.06471867" id="path276"></path>
            </g>
            <g id="g278" transform="translate(9.554856, 10.450232) scale(-1, 1) rotate(-180.000000) translate(-9.554856, -10.450232) translate(6.893060, 7.788435)" fill="#35B5B9">
                <path d="M4.25887468,2.12943734 C3.90432337,1.15947863 2.8342811,0.660125576 1.86645183,1.01361217 C0.89755784,1.36603405 0.396075346,2.43714104 0.747432507,3.40603503 C1.10091911,4.37599374 2.17309081,4.87428208 3.14092008,4.5218602 C4.11087879,4.1683736 4.61023185,3.09833133 4.25887468,2.12943734" id="path280"></path>
            </g>
            <g id="g282" transform="translate(5.641696, 21.326013) scale(-1, 1) rotate(-180.000000) translate(-5.641696, -21.326013) translate(1.915180, 16.002420)" fill="#35B5B9">
                <path d="M4.25887468,7.4530307 C3.29956316,7.80012898 2.79275707,8.87230068 3.1419848,9.84119468 L0.60901908,2.87899929 C0.257661918,1.9101053 0.764468006,0.837933594 1.72590897,0.486576433 C2.68309105,0.138413427 3.76271578,0.635637047 4.11620238,1.6024016 L6.65129754,8.56672643 C6.29781094,7.59889715 5.21925092,7.10380297 4.25887468,7.4530307" id="path284"></path>
            </g>
            <g id="g286" transform="translate(7.501759, 16.485057) scale(-1, 1) rotate(-180.000000) translate(-7.501759, -16.485057) translate(4.307603, 12.758542)" fill="#88C540">
                <path d="M4.25887468,2.12943734 C3.90538808,1.16160807 2.82682807,0.665449169 1.86751655,1.01467689 C0.906075589,1.3628399 0.40033422,2.43714104 0.750626663,3.40603503 L1.7450739,6.13810314 C2.0985605,7.10806185 3.1707322,7.60635018 4.13643204,7.2539283 C5.10745546,6.90044171 5.60467908,5.83039944 5.25332192,4.86044073 L4.25887468,2.12943734 Z" id="path288"></path>
            </g>
            <g id="g290" transform="translate(25.336968, 7.065278) scale(-1, 1) rotate(-180.000000) translate(-25.336968, -7.065278) translate(22.675172, 3.871122)" fill="#1C7B7E">
                <path d="M4.25887468,2.12943734 L4.86789376,3.80104566 C3.93626493,4.71350956 2.89071119,5.51098384 1.75678581,6.16897998 L0.751691382,3.40816447 C0.40033422,2.43927048 0.909269745,1.36603405 1.86751655,1.01574161 C2.82682807,0.666513888 3.90751752,1.16267279 4.25887468,2.12943734" id="path292"></path>
            </g>
            <g id="g294" transform="translate(16.010246, 31.288266) scale(-1, 1) rotate(-180.000000) translate(-16.010246, -31.288266) translate(13.348449, 29.158829)" fill="#35B5B9">
                <path d="M3.19415601,0 C3.60087855,0 4.00227748,0.0202296547 4.40048227,0.0500417775 L4.79655761,1.13711954 C5.14791477,2.10707825 4.64962644,3.17818523 3.68073245,3.53060711 C2.71077374,3.88302899 1.63966675,3.38474065 1.28724487,2.41478195 L0.494029463,0.236367545 C1.37135765,0.084112775 2.27317436,0 3.19415601,0" id="path296"></path>
            </g>
            <g id="g298" transform="translate(20.806484, 19.909192) scale(-1, 1) rotate(-180.000000) translate(-20.806484, -19.909192) translate(15.482890, 9.794365)" fill="#1C3A62">
                <path d="M4.25887468,2.12943734 C3.90751752,1.16054335 2.82576335,0.665449169 1.86645183,1.01680633 C0.906075589,1.3628399 0.396075346,2.43714104 0.751691382,3.40816447 L6.35317631,18.8050612 C6.70772763,19.7739552 7.77883461,20.2733082 8.74666388,19.9208863 C9.71555787,19.5684645 10.2138462,18.4962928 9.86355377,17.5273988 L4.25887468,2.12943734 Z" id="path300"></path>
            </g>
            <g id="g302" transform="translate(16.963169, 3.078226) scale(-1, 1) rotate(-180.000000) translate(-16.963169, -3.078226) translate(14.301372, 0.948789)" fill="#35B5B9">
                <path d="M1.06471867,3.19415601 C0.817703939,2.27210964 1.32025115,1.29256847 2.2295209,0.96144096 C3.1877677,0.613277954 4.26739243,1.10730742 4.62194375,2.07620141 L4.95839485,3.00357137 C4.07574307,3.15795558 3.16860276,3.24206835 2.2412328,3.24206835 C1.84515746,3.24206835 1.45334099,3.22290342 1.06471867,3.19415601" id="path304"></path>
            </g>
            <g id="g306" transform="translate(8.138035, 27.576764) scale(-1, 1) rotate(-180.000000) translate(-8.138035, -27.576764) translate(5.476239, 23.850248)" fill="#1C7B7E">
                <path d="M3.19415601,0 L5.12342624,5.30229898 C4.76355133,4.34192274 3.69989738,3.85002271 2.73632698,4.20031516 C1.76636828,4.55273704 1.26701522,5.62490874 1.62050182,6.59380273 L1.62050182,6.59486745 L0.0798539003,2.36367545 C1.01254746,1.45334099 2.05810119,0.657996139 3.19415601,0" id="path308"></path>
            </g>
            <g id="g310" transform="translate(9.007378, 25.454034) scale(-1, 1) rotate(-180.000000) translate(-9.007378, -25.454034) translate(6.345581, 22.792237)" fill="#88C540">
                <path d="M4.25887468,2.12943734 C3.90325865,1.1573492 2.8342811,0.660125576 1.86538711,1.01254746 C0.895428402,1.36603405 0.396075346,2.43820576 0.750626663,3.40603503 C1.10198382,4.37599374 2.17309081,4.87428208 3.14092008,4.52292491 C4.11087879,4.16943832 4.61023185,3.09833133 4.25887468,2.12943734" id="path312"></path>
            </g>
            <g id="g314" transform="translate(13.684474, 13.888953) scale(-1, 1) rotate(-180.000000) translate(-13.684474, -13.888953) translate(7.828521, 4.306485)" fill="#1C3A62">
                <path d="M9.58246804,8.51774937 C9.20875178,8.65403336 8.82225891,8.68597492 8.45599568,8.62848011 C7.96303094,8.56779114 6.90044171,8.58695608 7.39553589,10.1680633 L7.39340645,10.1680633 L9.52284379,16.0208218 C9.87420095,16.9886511 9.37591262,18.0618875 8.40701863,18.4132447 C7.43812463,18.7667313 6.36808237,18.2652488 6.01353105,17.2974195 L0.845386625,3.09513718 C0.491900026,2.1273079 1.00083555,1.05087733 1.96014707,0.702714323 C2.92052331,0.35242188 3.99908333,0.848580781 4.35363465,1.81747477 L5.28952236,4.38877036 L5.29165179,4.38877036 C5.930483,5.92302997 6.76202828,5.24267474 7.09741466,4.88173511 C7.34123524,4.60384353 7.65639196,4.38131733 8.02584934,4.24609806 C9.20662235,3.81595172 10.5130322,4.42390608 10.9410491,5.60467908 C11.3711954,6.78332265 10.7621763,8.08973246 9.58246804,8.51774937" id="path316"></path>
            </g>
            <g id="g318" transform="translate(44.874662, 12.862990) scale(-1, 1) rotate(-180.000000) translate(-44.874662, -12.862990) translate(41.680506, 7.539397)" fill="#1C3A62">
                <path d="M0,9.58246804 C0,9.71662259 0.107536586,9.8369358 0.255532481,9.8369358 L5.80804035,9.8369358 C5.95497153,9.8369358 6.06357283,9.71662259 6.06357283,9.58246804 L6.06357283,8.1206093 C6.06357283,7.98645475 5.95497153,7.86614154 5.80804035,7.86614154 L2.09217219,7.86614154 L2.09217219,5.93474187 L5.15004421,5.93474187 C5.28526348,5.93474187 5.40557669,5.81336394 5.40557669,5.67920939 L5.40557669,4.21735066 C5.40557669,4.0831961 5.28526348,3.96288289 5.15004421,3.96288289 L2.09217219,3.96288289 L2.09217219,0.703779041 C2.09217219,0.56855977 1.97185898,0.44824656 1.83770443,0.44824656 L0.255532481,0.44824656 C0.107536586,0.44824656 0,0.56855977 0,0.703779041 L0,9.58246804 Z" id="path320"></path>
            </g>
            <g id="g322" transform="translate(54.317120, 12.862990) scale(-1, 1) rotate(-180.000000) translate(-54.317120, -12.862990) translate(50.590605, 7.539397)" fill="#1C3A62">
                <path d="M0,9.58246804 C0,9.71662259 0.107536586,9.8369358 0.254467762,9.8369358 L4.265263,9.8369358 C5.87511763,9.8369358 7.18898047,8.5369143 7.18898047,6.9398363 C7.18898047,5.70582736 6.37021181,4.71350956 5.20434486,4.24396862 L7.04098457,0.837933594 C7.13574453,0.663319732 7.04098457,0.44824656 6.81313478,0.44824656 L5.029731,0.44824656 C4.92219442,0.44824656 4.84234052,0.515323837 4.81465783,0.56855977 L3.03125406,4.12365541 L2.10601353,4.12365541 L2.10601353,0.703779041 C2.10601353,0.56855977 1.9846356,0.44824656 1.85154577,0.44824656 L0.254467762,0.44824656 C0.107536586,0.44824656 0,0.56855977 0,0.703779041 L0,9.58246804 Z M4.09064913,5.82720529 C4.64110869,5.82720529 5.11064962,6.33720553 5.11064962,6.90044171 C5.11064962,7.46367788 4.64110869,7.91937747 4.09064913,7.91937747 L2.10601353,7.91937747 L2.10601353,5.82720529 L4.09064913,5.82720529 Z" id="path324"></path>
            </g>
            <g id="g326" transform="translate(63.748078, 12.862990) scale(-1, 1) rotate(-180.000000) translate(-63.748078, -12.862990) translate(60.553922, 7.539397)" fill="#1C3A62">
                <path d="M0,9.58246804 C0,9.71662259 0.107536586,9.8369358 0.254467762,9.8369358 L5.80697563,9.8369358 C5.95497153,9.8369358 6.06250811,9.71662259 6.06250811,9.58246804 L6.06250811,8.1206093 C6.06250811,7.98645475 5.95497153,7.86614154 5.80697563,7.86614154 L2.09217219,7.86614154 L2.09217219,6.20198626 L5.15004421,6.20198626 C5.28526348,6.20198626 5.40451197,6.08167305 5.40451197,5.9475185 L5.40451197,4.48565976 C5.40451197,4.33872858 5.28526348,4.231192 5.15004421,4.231192 L2.09217219,4.231192 L2.09217219,2.42010554 L5.80697563,2.42010554 C5.95497153,2.42010554 6.06250811,2.29979233 6.06250811,2.16563778 L6.06250811,0.703779041 C6.06250811,0.56855977 5.95497153,0.44824656 5.80697563,0.44824656 L0.254467762,0.44824656 C0.107536586,0.44824656 0,0.56855977 0,0.703779041 L0,9.58246804 Z" id="path328"></path>
            </g>
            <g id="g330" transform="translate(74.075424, 12.862990) scale(-1, 1) rotate(-180.000000) translate(-74.075424, -12.862990) translate(69.816549, 7.539397)" fill="#1C3A62">
                <path d="M0,9.58246804 C0,9.71662259 0.107536586,9.8369358 0.241691138,9.8369358 L3.51357161,9.8369358 C6.10296742,9.8369358 8.22175758,7.73198699 8.22175758,5.15643252 C8.22175758,2.55426009 6.10296742,0.44824656 3.51357161,0.44824656 L0.241691138,0.44824656 C0.107536586,0.44824656 0,0.56855977 0,0.703779041 L0,9.58246804 Z M3.38048178,2.43394688 C4.89557645,2.43394688 5.99543084,3.62749651 5.99543084,5.15643252 C5.99543084,6.67152719 4.89557645,7.86614154 3.38048178,7.86614154 L2.09217219,7.86614154 L2.09217219,2.43394688 L3.38048178,2.43394688 Z" id="path332"></path>
            </g>
            <g id="g334" transform="translate(88.839877, 12.862990) scale(-1, 1) rotate(-180.000000) translate(-88.839877, -12.862990) translate(84.581003, 7.539397)" fill="#1C3A62">
                <path d="M0,9.58246804 C0,9.71662259 0.12031321,9.8369358 0.255532481,9.8369358 L1.85154577,9.8369358 C1.99847695,9.8369358 2.10601353,9.71662259 2.10601353,9.58246804 L2.10601353,6.20198626 L5.9421949,6.20198626 L5.9421949,9.58246804 C5.9421949,9.71662259 6.04973149,9.8369358 6.19666266,9.8369358 L7.79267595,9.8369358 C7.9268305,9.8369358 8.04820843,9.71662259 8.04820843,9.58246804 L8.04820843,0.703779041 C8.04820843,0.56855977 7.9268305,0.44824656 7.79267595,0.44824656 L6.19666266,0.44824656 C6.04973149,0.44824656 5.9421949,0.56855977 5.9421949,0.703779041 L5.9421949,4.231192 L2.10601353,4.231192 L2.10601353,0.703779041 C2.10601353,0.56855977 1.99847695,0.44824656 1.85154577,0.44824656 L0.255532481,0.44824656 C0.12031321,0.44824656 0,0.56855977 0,0.703779041 L0,9.58246804 Z" id="path336"></path>
            </g>
            <g id="g338" transform="translate(99.903263, 12.862990) scale(-1, 1) rotate(-180.000000) translate(-99.903263, -12.862990) translate(95.644388, 7.539397)" fill="#1C3A62">
                <path d="M0,9.58246804 C0,9.71662259 0.12031321,9.8369358 0.255532481,9.8369358 L1.9047817,9.8369358 C2.0527776,9.8369358 2.15924946,9.71662259 2.15924946,9.58246804 L2.15924946,4.15027338 C2.15924946,3.21119151 2.85770491,2.46056485 3.8095634,2.46056485 C4.77526324,2.46056485 5.48649531,3.21119151 5.48649531,4.15027338 L5.48649531,9.58246804 C5.48649531,9.71662259 5.59296718,9.8369358 5.74096307,9.8369358 L7.39021229,9.8369358 C7.52436685,9.8369358 7.64574478,9.71662259 7.64574478,9.58246804 L7.64574478,4.04273679 C7.64574478,2.00380054 5.92835356,0.314092008 3.8095634,0.314092008 C1.70354987,0.314092008 0,2.00380054 0,4.04273679 L0,9.58246804 Z" id="path340"></path>
            </g>
            <g id="g342" transform="translate(108.859144, 12.982771) scale(-1, 1) rotate(-180.000000) translate(-108.859144, -12.982771) translate(104.600269, 8.191537)" fill="#1C3A62">
                <path d="M3.19415601,7.4530307 L1.27659769,7.4530307 C1.12860179,7.4530307 1.02212992,7.57334391 1.02212992,7.70749846 L1.02212992,9.16935719 C1.02212992,9.30351175 1.12860179,9.42488967 1.27659769,9.42488967 L7.23156921,9.42488967 C7.37850039,9.42488967 7.48603698,9.30351175 7.48603698,9.16935719 L7.48603698,7.70749846 C7.48603698,7.57334391 7.37850039,7.4530307 7.23156921,7.4530307 L5.31294617,7.4530307 L5.31294617,0.290668197 C5.31294617,0.156513645 5.19263296,0.0362004348 5.05847841,0.0362004348 L3.44968849,0.0362004348 C3.31446922,0.0362004348 3.19415601,0.156513645 3.19415601,0.290668197 L3.19415601,7.4530307 Z" id="path344"></path>
            </g>
            <g id="g346" transform="translate(117.923733, 13.538554) scale(-1, 1) rotate(-180.000000) translate(-117.923733, -13.538554) translate(113.132499, 8.214961)" fill="#1C3A62">
                <path d="M5.32359335,10.6471867 C6.66513888,10.6471867 7.65745668,10.2308817 8.56992058,9.39933643 C8.69023379,9.29286456 8.69023379,9.13209204 8.58376192,9.02455545 L7.53714347,7.93747769 C7.44238351,7.84378245 7.29545233,7.84378245 7.20175709,7.93747769 C6.70559819,8.38040066 6.04760205,8.6220918 5.39067063,8.6220918 C3.87557596,8.6220918 2.76188023,7.36040017 2.76188023,5.85914685 C2.76188023,4.36960543 3.88835259,3.13559649 5.40451197,3.13559649 C6.03482543,3.13559649 6.71837481,3.36344628 7.20175709,3.77975128 C7.29545233,3.8606699 7.46900148,3.8606699 7.5499201,3.76590994 L8.59653855,2.65327893 C8.69023379,2.55851897 8.67639245,2.38496982 8.58376192,2.29127458 C7.67023331,1.40542865 6.51714298,0.990188364 5.32359335,0.990188364 C2.6405023,0.990188364 0.481252839,3.12281986 0.481252839,5.80484619 C0.481252839,8.48793724 2.6405023,10.6471867 5.32359335,10.6471867" id="path348"></path>
            </g>
            <g id="g350" transform="translate(128.373521, 12.862990) scale(-1, 1) rotate(-180.000000) translate(-128.373521, -12.862990) translate(124.114646, 7.539397)" fill="#1C3A62">
                <path d="M0,9.58246804 C0,9.71662259 0.12031321,9.8369358 0.254467762,9.8369358 L1.85154577,9.8369358 C1.99847695,9.8369358 2.10601353,9.71662259 2.10601353,9.58246804 L2.10601353,6.20198626 L5.94113018,6.20198626 L5.94113018,9.58246804 C5.94113018,9.71662259 6.04866677,9.8369358 6.19666266,9.8369358 L7.79267595,9.8369358 C7.9268305,9.8369358 8.04714371,9.71662259 8.04714371,9.58246804 L8.04714371,0.703779041 C8.04714371,0.56855977 7.9268305,0.44824656 7.79267595,0.44824656 L6.19666266,0.44824656 C6.04866677,0.44824656 5.94113018,0.56855977 5.94113018,0.703779041 L5.94113018,4.231192 L2.10601353,4.231192 L2.10601353,0.703779041 C2.10601353,0.56855977 1.99847695,0.44824656 1.85154577,0.44824656 L0.254467762,0.44824656 C0.12031321,0.44824656 0,0.56855977 0,0.703779041 L0,9.58246804 Z" id="path352"></path>
            </g>
            <g id="g354" transform="translate(43.089449, 24.972036) scale(-1, 1) rotate(-180.000000) translate(-43.089449, -24.972036) translate(40.427652, 22.310239)" fill="#1C3A62">
                <path d="M3.19415601,5.32359335 C3.87131709,5.32359335 4.36002296,5.10852018 4.81678727,4.69966821 C4.87641151,4.64643228 4.87641151,4.56551366 4.82317558,4.51227773 L4.41432361,4.08958441 C4.36747599,4.03634848 4.30039871,4.03634848 4.24609806,4.08958441 C3.96607705,4.33766387 3.59023136,4.48565976 3.21438567,4.48565976 C2.35622242,4.48565976 1.71952065,3.76803938 1.71952065,2.92371747 C1.71952065,2.08578388 2.36367545,1.3745518 3.2218387,1.3745518 C3.62323764,1.3745518 3.96607705,1.52893601 4.24609806,1.75678581 C4.30039871,1.80363343 4.3738643,1.79724512 4.41432361,1.75678581 L4.82956389,1.32770418 C4.88386454,1.28085656 4.8700232,1.19461435 4.82317558,1.14670201 C4.36747599,0.70484376 3.79146319,0.496158901 3.19415601,0.496158901 C1.85367521,0.496158901 0.774050474,1.56300701 0.774050474,2.90348782 C0.774050474,4.24396862 1.85367521,5.32359335 3.19415601,5.32359335" id="path356"></path>
            </g>
            <g id="g358" transform="translate(48.804858, 24.634094) scale(-1, 1) rotate(-180.000000) translate(-48.804858, -24.634094) translate(46.675421, 21.439938)" fill="#1C3A62">
                <path d="M0,5.32359335 C0,5.39067063 0.0596242456,5.45029488 0.127766241,5.45029488 L0.763403287,5.45029488 C0.837933594,5.45029488 0.891169528,5.39067063 0.891169528,5.32359335 L0.891169528,2.58194278 C0.891169528,2.01231829 1.27979184,1.56300701 1.86325767,1.56300701 C2.44672351,1.56300701 2.84173413,2.01231829 2.84173413,2.57448975 L2.84173413,5.32359335 C2.84173413,5.39067063 2.89603478,5.45029488 2.96950037,5.45029488 L3.60620214,5.45029488 C3.67327941,5.45029488 3.73396838,5.39067063 3.73396838,5.32359335 L3.73396838,2.53403044 C3.73396838,1.51509467 2.92265275,0.691002417 1.86325767,0.691002417 C0.811315627,0.691002417 0,1.51509467 0,2.53403044 L0,5.32359335 Z" id="path360"></path>
            </g>
            <g id="g362" transform="translate(54.120040, 24.634094) scale(-1, 1) rotate(-180.000000) translate(-54.120040, -24.634094) translate(51.990603, 21.439938)" fill="#1C3A62">
                <path d="M0,5.32359335 C0,5.39067063 0.0532359335,5.45029488 0.126701522,5.45029488 L2.04425985,5.45029488 C2.84918716,5.45029488 3.50611858,4.8072048 3.50611858,4.00973051 C3.50611858,3.39219369 3.09620189,2.88964647 2.51380078,2.65540837 L3.432653,0.95292321 C3.4784359,0.865616279 3.432653,0.758079694 3.3187281,0.758079694 L2.61494906,0.758079694 C2.55319537,0.758079694 2.52018909,0.792150691 2.50634775,0.818768658 L1.61517822,2.5947194 L0.870939873,2.5947194 L0.870939873,0.884781216 C0.870939873,0.818768658 0.811315627,0.758079694 0.744238351,0.758079694 L0.126701522,0.758079694 C0.0532359335,0.758079694 0,0.818768658 0,0.884781216 L0,5.32359335 Z M1.97079426,3.31233979 C2.3264103,3.31233979 2.63411399,3.62004348 2.63411399,3.99588917 C2.63411399,4.35150521 2.3264103,4.64643228 1.97079426,4.64643228 L0.877328185,4.64643228 L0.877328185,3.31233979 L1.97079426,3.31233979 L1.97079426,3.31233979 Z" id="path364"></path>
            </g>
            <g id="g366" transform="translate(58.661066, 24.634094) scale(-1, 1) rotate(-180.000000) translate(-58.661066, -24.634094) translate(57.063988, 21.439938)" fill="#1C3A62">
                <path d="M0,5.32359335 C0,5.39067063 0.0532359335,5.45029488 0.126701522,5.45029488 L2.85557548,5.45029488 C2.92904106,5.45029488 2.982277,5.39067063 2.982277,5.32359335 L2.982277,4.77419852 C2.982277,4.70712124 2.92904106,4.64643228 2.85557548,4.64643228 L0.870939873,4.64643228 L0.870939873,3.54657789 L2.52764212,3.54657789 C2.59365468,3.54657789 2.65434365,3.48695365 2.65434365,3.41987637 L2.65434365,2.86302851 C2.65434365,2.78956292 2.59365468,2.73526227 2.52764212,2.73526227 L0.870939873,2.73526227 L0.870939873,1.56300701 L2.85557548,1.56300701 C2.92904106,1.56300701 2.982277,1.50231804 2.982277,1.43524077 L2.982277,0.884781216 C2.982277,0.818768658 2.92904106,0.758079694 2.85557548,0.758079694 L0.126701522,0.758079694 C0.0532359335,0.758079694 0,0.818768658 0,0.884781216 L0,5.32359335 Z" id="path368"></path>
            </g>
            <g id="g370" transform="translate(62.538345, 24.815948) scale(-1, 1) rotate(-180.000000) translate(-62.538345, -24.815948) translate(60.408908, 22.154151)" fill="#1C3A62">
                <path d="M1.06471867,1.06471867 L1.30640981,1.47995895 C1.35964574,1.57471891 1.47357064,1.57471891 1.5342596,1.52680657 C1.56726588,1.50764164 2.11027241,1.11156629 2.54574234,1.11156629 C2.89497007,1.11156629 3.15689086,1.33941609 3.15689086,1.62795485 C3.15689086,1.96972954 2.8683521,2.20396765 2.30511592,2.43181744 C1.67480247,2.68628521 1.04448902,3.08874886 1.04448902,3.88089956 C1.04448902,4.47714201 1.48741198,5.16707971 2.55319537,5.16707971 C3.23674476,5.16707971 3.75952163,4.8189167 3.89367618,4.71776843 C3.96075346,4.67730912 3.98098311,4.56338422 3.93413549,4.49737167 L3.67966773,4.11513766 C3.62536707,4.03421904 3.52528352,3.98098311 3.4443649,4.03421904 C3.39112897,4.06829004 2.88219344,4.4026117 2.51273606,4.4026117 C2.13050206,4.4026117 1.92288192,4.14814394 1.92288192,3.93413549 C1.92288192,3.61897876 2.17096137,3.40390559 2.71396789,3.18350883 C3.364511,2.92158803 4.11513766,2.53296572 4.11513766,1.66734944 C4.11513766,0.97741174 3.51783049,0.340709975 2.57236031,0.340709975 C1.7280384,0.340709975 1.23294422,0.735720602 1.09772495,0.863486842 C1.0381007,0.924175806 1.00509443,0.957182085 1.06471867,1.06471867" id="path372"></path>
            </g>
            <g id="g374" transform="translate(69.263747, 24.815948) scale(-1, 1) rotate(-180.000000) translate(-69.263747, -24.815948) translate(67.134310, 22.154151)" fill="#1C3A62">
                <path d="M1.06471867,1.06471867 L1.30534509,1.47995895 C1.35964574,1.57471891 1.47357064,1.57471891 1.5342596,1.52680657 C1.56726588,1.50764164 2.11027241,1.11156629 2.54574234,1.11156629 C2.89497007,1.11156629 3.15582614,1.33941609 3.15582614,1.62795485 C3.15582614,1.96972954 2.86728738,2.20396765 2.30511592,2.43181744 C1.67480247,2.68628521 1.04448902,3.08874886 1.04448902,3.88089956 C1.04448902,4.47714201 1.48741198,5.16707971 2.55213065,5.16707971 C3.23674476,5.16707971 3.75952163,4.8189167 3.89367618,4.71776843 C3.95968874,4.67730912 3.98098311,4.56338422 3.93307077,4.49737167 L3.67966773,4.11513766 C3.62536707,4.03421904 3.52528352,3.98098311 3.4443649,4.03421904 C3.39112897,4.06829004 2.88112872,4.4026117 2.51273606,4.4026117 C2.13050206,4.4026117 1.92288192,4.14814394 1.92288192,3.93413549 C1.92288192,3.61897876 2.16989665,3.40390559 2.71290317,3.18350883 C3.364511,2.92158803 4.11407294,2.53296572 4.11407294,1.66734944 C4.11407294,0.97741174 3.51783049,0.340709975 2.57236031,0.340709975 C1.7280384,0.340709975 1.2318795,0.735720602 1.09772495,0.863486842 C1.03703599,0.924175806 1.00402971,0.957182085 1.06471867,1.06471867" id="path376"></path>
            </g>
            <g id="g378" transform="translate(73.482482, 24.779109) scale(-1, 1) rotate(-180.000000) translate(-73.482482, -24.779109) translate(71.353044, 22.117312)" fill="#1C3A62">
                <path d="M2.12943734,4.25887468 L1.10304854,4.25887468 C1.02958295,4.25887468 0.976347021,4.31956365 0.976347021,4.38664092 L0.976347021,4.93603576 C0.976347021,5.00311303 1.02958295,5.063802 1.10304854,5.063802 L4.03315433,5.063802 C4.10661991,5.063802 4.16092057,5.00311303 4.16092057,4.93603576 L4.16092057,4.38664092 C4.16092057,4.31956365 4.10661991,4.25887468 4.03315433,4.25887468 L3.00676553,4.25887468 L3.00676553,0.498288338 C3.00676553,0.431211062 2.94714128,0.370522097 2.880064,0.370522097 L2.25720358,0.370522097 C2.18906159,0.370522097 2.12943734,0.431211062 2.12943734,0.498288338 L2.12943734,4.25887468 Z" id="path380"></path>
            </g>
            <g id="g382" transform="translate(78.080363, 24.766545) scale(-1, 1) rotate(-180.000000) translate(-78.080363, -24.766545) translate(74.886207, 21.572389)" fill="#1C3A62">
                <path d="M1.06471867,1.06471867 L3.14943783,5.57593168 C3.16966748,5.61639099 3.20267376,5.65046199 3.26336273,5.65046199 L3.33044,5.65046199 C3.39751728,5.65046199 3.42413525,5.61639099 3.4443649,5.57593168 L5.5088544,1.06471867 C5.54931371,0.978476459 5.49501306,0.891169528 5.39492951,0.891169528 L4.81252839,0.891169528 C4.71138012,0.891169528 4.6645325,0.930564118 4.61768488,1.02425936 L4.28868681,1.74933278 L2.28382155,1.74933278 L1.9558882,1.02425936 C1.92927023,0.957182085 1.86858127,0.891169528 1.7621094,0.891169528 L1.17864357,0.891169528 C1.07749529,0.891169528 1.02425936,0.978476459 1.06471867,1.06471867 L1.06471867,1.06471867 Z M3.95968874,2.49250641 L3.28998069,3.96820649 L3.26975104,3.96820649 L2.61281962,2.49250641 L3.95968874,2.49250641 L3.95968874,2.49250641 Z" id="path384"></path>
            </g>
            <g id="g386" transform="translate(83.709637, 24.634094) scale(-1, 1) rotate(-180.000000) translate(-83.709637, -24.634094) translate(81.580200, 21.439938)" fill="#1C3A62">
                <path d="M0,5.32359335 C0,5.39067063 0.0543006522,5.45029488 0.127766241,5.45029488 L2.04532457,5.45029488 C2.84918716,5.45029488 3.50611858,4.8072048 3.50611858,4.00973051 C3.50611858,3.39219369 3.09726661,2.88964647 2.51380078,2.65540837 L3.432653,0.95292321 C3.47950062,0.865616279 3.432653,0.758079694 3.3187281,0.758079694 L2.61494906,0.758079694 C2.55426009,0.758079694 2.52018909,0.792150691 2.50741247,0.818768658 L1.61624294,2.5947194 L0.872004591,2.5947194 L0.872004591,0.884781216 C0.872004591,0.818768658 0.811315627,0.758079694 0.744238351,0.758079694 L0.127766241,0.758079694 C0.0543006522,0.758079694 0,0.818768658 0,0.884781216 L0,5.32359335 Z M1.97079426,3.31233979 C2.3264103,3.31233979 2.63517871,3.62004348 2.63517871,3.99588917 C2.63517871,4.35150521 2.3264103,4.64643228 1.97079426,4.64643228 L0.878392903,4.64643228 L0.878392903,3.31233979 L1.97079426,3.31233979 L1.97079426,3.31233979 Z" id="path388"></path>
            </g>
            <g id="g390" transform="translate(87.373973, 24.779109) scale(-1, 1) rotate(-180.000000) translate(-87.373973, -24.779109) translate(85.244535, 22.117312)" fill="#1C3A62">
                <path d="M2.12943734,4.25887468 L1.10304854,4.25887468 C1.02958295,4.25887468 0.975282303,4.31956365 0.975282303,4.38664092 L0.975282303,4.93603576 C0.975282303,5.00311303 1.02958295,5.063802 1.10304854,5.063802 L4.03315433,5.063802 C4.10768463,5.063802 4.16092057,5.00311303 4.16092057,4.93603576 L4.16092057,4.38664092 C4.16092057,4.31956365 4.10768463,4.25887468 4.03315433,4.25887468 L3.00783025,4.25887468 L3.00783025,0.498288338 C3.00783025,0.431211062 2.94714128,0.370522097 2.880064,0.370522097 L2.25720358,0.370522097 C2.19012631,0.370522097 2.12943734,0.431211062 2.12943734,0.498288338 L2.12943734,4.25887468 Z" id="path392"></path>
            </g>
            <g id="g394" transform="translate(95.333703, 24.634094) scale(-1, 1) rotate(-180.000000) translate(-95.333703, -24.634094) translate(93.204266, 21.439938)" fill="#1C3A62">
                <path d="M0,5.32359335 C0,5.39067063 0.0606889642,5.45029488 0.127766241,5.45029488 L0.750626663,5.45029488 C0.82515697,5.45029488 0.878392903,5.39067063 0.878392903,5.32359335 L0.878392903,3.54657789 L3.06426033,3.54657789 L3.06426033,5.32359335 C3.06426033,5.39067063 3.11749627,5.45029488 3.19096186,5.45029488 L3.80743397,5.45029488 C3.87451124,5.45029488 3.93520021,5.39067063 3.93520021,5.32359335 L3.93520021,0.884781216 C3.93520021,0.818768658 3.87451124,0.758079694 3.80743397,0.758079694 L3.19096186,0.758079694 C3.11749627,0.758079694 3.06426033,0.818768658 3.06426033,0.884781216 L3.06426033,2.73526227 L0.878392903,2.73526227 L0.878392903,0.884781216 C0.878392903,0.818768658 0.82515697,0.758079694 0.750626663,0.758079694 L0.127766241,0.758079694 C0.0606889642,0.758079694 0,0.818768658 0,0.884781216 L0,5.32359335 Z" id="path396"></path>
            </g>
            <g id="g398" transform="translate(100.592881, 24.634094) scale(-1, 1) rotate(-180.000000) translate(-100.592881, -24.634094) translate(98.995803, 21.439938)" fill="#1C3A62">
                <path d="M0,5.32359335 C0,5.39067063 0.0543006522,5.45029488 0.127766241,5.45029488 L2.85557548,5.45029488 C2.92904106,5.45029488 2.98334172,5.39067063 2.98334172,5.32359335 L2.98334172,4.77419852 C2.98334172,4.70712124 2.92904106,4.64643228 2.85557548,4.64643228 L0.872004591,4.64643228 L0.872004591,3.54657789 L2.52764212,3.54657789 C2.5947194,3.54657789 2.65434365,3.48695365 2.65434365,3.41987637 L2.65434365,2.86302851 C2.65434365,2.78956292 2.5947194,2.73526227 2.52764212,2.73526227 L0.872004591,2.73526227 L0.872004591,1.56300701 L2.85557548,1.56300701 C2.92904106,1.56300701 2.98334172,1.50231804 2.98334172,1.43524077 L2.98334172,0.884781216 C2.98334172,0.818768658 2.92904106,0.758079694 2.85557548,0.758079694 L0.127766241,0.758079694 C0.0543006522,0.758079694 0,0.818768658 0,0.884781216 L0,5.32359335 Z" id="path400"></path>
            </g>
            <g id="g402" transform="translate(105.860364, 24.634094) scale(-1, 1) rotate(-180.000000) translate(-105.860364, -24.634094) translate(103.730926, 21.439938)" fill="#1C3A62">
                <path d="M0,5.32359335 C0,5.39067063 0.0543006522,5.45029488 0.127766241,5.45029488 L2.04532457,5.45029488 C2.84918716,5.45029488 3.50611858,4.8072048 3.50611858,4.00973051 C3.50611858,3.39219369 3.09726661,2.88964647 2.51380078,2.65540837 L3.432653,0.95292321 C3.47950062,0.865616279 3.432653,0.758079694 3.3187281,0.758079694 L2.61494906,0.758079694 C2.55426009,0.758079694 2.52018909,0.792150691 2.50741247,0.818768658 L1.61624294,2.5947194 L0.872004591,2.5947194 L0.872004591,0.884781216 C0.872004591,0.818768658 0.811315627,0.758079694 0.744238351,0.758079694 L0.127766241,0.758079694 C0.0543006522,0.758079694 0,0.818768658 0,0.884781216 L0,5.32359335 Z M1.97079426,3.31233979 C2.3264103,3.31233979 2.63517871,3.62004348 2.63517871,3.99588917 C2.63517871,4.35150521 2.3264103,4.64643228 1.97079426,4.64643228 L0.878392903,4.64643228 L0.878392903,3.31233979 L1.97079426,3.31233979 L1.97079426,3.31233979 Z" id="path404"></path>
            </g>
            <g id="g406" transform="translate(110.369234, 24.634094) scale(-1, 1) rotate(-180.000000) translate(-110.369234, -24.634094) translate(108.772156, 21.439938)" fill="#1C3A62">
                <path d="M0,5.32359335 C0,5.39067063 0.0532359335,5.45029488 0.126701522,5.45029488 L2.85557548,5.45029488 C2.92904106,5.45029488 2.982277,5.39067063 2.982277,5.32359335 L2.982277,4.77419852 C2.982277,4.70712124 2.92904106,4.64643228 2.85557548,4.64643228 L0.870939873,4.64643228 L0.870939873,3.54657789 L2.52764212,3.54657789 C2.59365468,3.54657789 2.65434365,3.48695365 2.65434365,3.41987637 L2.65434365,2.86302851 C2.65434365,2.78956292 2.59365468,2.73526227 2.52764212,2.73526227 L0.870939873,2.73526227 L0.870939873,1.56300701 L2.85557548,1.56300701 C2.92904106,1.56300701 2.982277,1.50231804 2.982277,1.43524077 L2.982277,0.884781216 C2.982277,0.818768658 2.92904106,0.758079694 2.85557548,0.758079694 L0.126701522,0.758079694 C0.0532359335,0.758079694 0,0.818768658 0,0.884781216 L0,5.32359335 Z" id="path408"></path>
            </g>
            <g id="g410" transform="translate(113.031137, 23.146469) scale(-1, 1) rotate(-180.000000) translate(-113.031137, -23.146469) translate(111.966419, 21.549391)" fill="#1C3A62">
                <path d="M1.06471867,2.12943734 L0.701649604,2.12943734 C0.677161075,2.12943734 0.659060857,2.149667 0.659060857,2.17202609 L0.659060857,2.29659817 C0.659060857,2.31895727 0.677161075,2.33918692 0.701649604,2.33918692 L1.65989641,2.33918692 C1.68438494,2.33918692 1.70248515,2.31895727 1.70248515,2.29659817 L1.70248515,2.17202609 C1.70248515,2.149667 1.68438494,2.12943734 1.65989641,2.12943734 L1.29682734,2.12943734 L1.29682734,0.820898095 C1.29682734,0.798539003 1.27659769,0.779374067 1.25423859,0.779374067 L1.10730742,0.779374067 C1.08494833,0.779374067 1.06471867,0.798539003 1.06471867,0.820898095 L1.06471867,2.12943734 Z" id="path412"></path>
            </g>
            <g id="g414" transform="translate(114.741714, 22.948006) scale(-1, 1) rotate(-180.000000) translate(-114.741714, -22.948006) translate(113.144636, 21.350928)" fill="#1C3A62">
                <path d="M1.06471867,2.12943734 C1.06897755,2.14753756 1.08601304,2.16244362 1.10411326,2.16244362 L1.1403137,2.16244362 C1.15415504,2.16244362 1.17331998,2.15179643 1.17757885,2.13795509 L1.64392563,0.999770832 L1.6535081,0.999770832 L2.11666072,2.13795509 C2.12091959,2.15179643 2.13901981,2.16244362 2.15392587,2.16244362 L2.19012631,2.16244362 C2.20822652,2.16244362 2.22526202,2.14753756 2.23058562,2.12943734 L2.50421831,0.631378172 C2.51060663,0.60050133 2.49570056,0.580271676 2.46482372,0.580271676 L2.31895727,0.580271676 C2.29979233,0.580271676 2.28169211,0.596242456 2.27636852,0.611148517 L2.11240184,1.60772519 L2.10494881,1.60772519 L1.70461459,0.582401113 C1.699291,0.569624489 1.68651437,0.557912584 1.66628472,0.557912584 L1.62582541,0.557912584 C1.60878991,0.557912584 1.59281913,0.569624489 1.58856026,0.582401113 L1.18503188,1.60772519 L1.17544941,1.60772519 L1.01574161,0.611148517 C1.01361217,0.596242456 0.99338252,0.580271676 0.975282303,0.580271676 L0.830480563,0.580271676 C0.798539003,0.580271676 0.783632942,0.60050133 0.787891816,0.631378172 L1.06471867,2.12943734 Z" id="path416"></path>
            </g>
        </g>
    </g>
</svg>