<?xml version="1.0" encoding="UTF-8"?>
<svg width="133px" height="33px" viewBox="0 0 133 33" version="1.1" xmlns="http://www.w3.org/2000/svg" xmlns:xlink="http://www.w3.org/1999/xlink">
    <!-- Generator: Sketch 55.2 (78181) - https://sketchapp.com -->
    <title>logo_FredHutch</title>
    <desc>Created with Sketch.</desc>
    <g id="Page-1" stroke="none" stroke-width="1" fill="none" fill-rule="evenodd" fill-opacity="0.7">
        <g id="logo_FredHutch" fill="#FFFFFF" fill-rule="nonzero">
            <path d="M0.815433,18.1904188 C0.815433,16.263278 1.16466072,14.4170558 1.79923305,12.7103118 L4.32900461,19.6650541 C4.68036178,20.6339481 4.18100872,21.7050551 3.21317945,22.0596064 C2.47107053,22.3268508 1.66933737,22.0958068 1.17637263,21.5368295 C0.942134522,20.4582695 0.815433,19.3392502 0.815433,18.1904188" id="path240" transform="translate(2.628450, 17.440475) scale(-1, 1) rotate(-180.000000) translate(-2.628450, -17.440475) "></path>
            <path d="M3.52609934,3.1350965 C4.48541086,2.78586878 5.5650356,3.2830924 5.9185222,4.25092167 L8.76664464,12.0776686 C5.96111094,10.4784612 3.69645433,8.04132014 2.31232006,5.10695548 C2.21436594,4.26689245 2.70413653,3.43534717 3.52609934,3.1350965" id="path244" transform="translate(5.533284, 7.550576) scale(-1, 1) rotate(-180.000000) translate(-5.533284, -7.550576) "></path>
            <path d="M25.7431587,22.6330355 C25.3896721,21.6641415 24.3185651,21.1647885 23.3507358,21.5172104 C22.3807771,21.8696322 21.8814241,22.9396745 22.2338459,23.9106979 C22.5852031,24.8785272 23.6573748,25.378945 24.6262688,25.0254584 C25.5962275,24.6730365 26.0934511,23.6008648 25.7431587,22.6330355" id="path248" transform="translate(23.988077, 23.271553) scale(-1, 1) rotate(-180.000000) translate(-23.988077, -23.271553) "></path>
            <path d="M23.4141927,27.0003307 C23.0607061,26.0282426 21.9821461,25.5320837 21.0217698,25.8834408 C20.0613936,26.2316038 19.5545875,27.305905 19.9070094,28.274799 L20.6459241,30.3062822 C20.9994107,31.2762409 22.069453,31.7734645 23.0372823,31.4231721 C24.0061763,31.0696855 24.5055293,29.9985785 24.1520427,29.0286198 L23.4141927,27.0003307 Z" id="path252" transform="translate(22.030210, 28.652976) scale(-1, 1) rotate(-180.000000) translate(-22.030210, -28.652976) "></path>
            <path d="M27.3309737,9.40825254 C26.9785518,8.43935855 25.8999918,7.94213493 24.9406803,8.29029794 C23.9792393,8.64059038 23.4703038,9.71489152 23.8227257,10.6837855 L27.0477585,19.5422449 C27.4001804,20.5100741 28.4723521,21.0104919 29.4412461,20.65807 C30.4090754,20.3056481 30.9084284,19.2345412 30.5570713,18.2645824 L27.3309737,9.40825254 Z" id="path256" transform="translate(27.190166, 14.475103) scale(-1, 1) rotate(-180.000000) translate(-27.190166, -14.475103) "></path>
            <path d="M32.2679677,14.2416638 C32.2679677,16.1592221 31.9240635,17.9958618 31.2958795,19.6951528 L29.1302418,13.741246 C28.7788846,12.7734167 29.2856907,11.701245 30.2460669,11.3498879 C30.8763804,11.1209734 31.5588651,11.2572573 32.0518298,11.652268 C32.1923727,12.4944604 32.2679677,13.3600767 32.2679677,14.2416638" id="path260" transform="translate(30.643284, 15.466949) scale(-1, 1) rotate(-180.000000) translate(-30.643284, -15.466949) "></path>
            <path d="M31.1162607,28.0720282 C31.3174925,28.9738449 30.8234631,29.9076032 29.934423,30.2323424 C28.965529,30.5847642 27.8933573,30.0843465 27.5409354,29.1165172 L24.3403911,20.3283293 C27.3822923,22.0691443 29.7853624,24.7937594 31.1162607,28.0720282" id="path264" transform="translate(27.750645, 25.336779) scale(-1, 1) rotate(-180.000000) translate(-27.750645, -25.336779) "></path>
            <path d="M20.2587927,2.98822341 C19.9042414,2.01932942 18.8256814,1.52317052 17.8653051,1.87133353 C16.9038642,2.22162597 16.3970581,3.29699183 16.7494799,4.2648211 L19.5518195,11.9648666 C19.9042414,12.9337605 20.9764131,13.4341783 21.9463718,13.0806917 C22.9131363,12.7293346 23.4135541,11.6550334 23.0590028,10.6882688 L20.2587927,2.98822341 Z" id="path268" transform="translate(19.905154, 7.477140) scale(-1, 1) rotate(-180.000000) translate(-19.905154, -7.477140) "></path>
            <path d="M15.635997,31.8899686 C14.667103,32.2434552 13.5949313,31.7441022 13.2425095,30.7752082 L9.45530514,20.3707773 C10.557289,19.8139294 11.7327384,19.3827184 12.9646179,19.096309 L16.7518222,29.4975458 C17.1042441,30.4675045 16.6027616,31.5396762 15.635997,31.8899686" id="path272" transform="translate(13.159948, 25.549919) scale(-1, 1) rotate(-180.000000) translate(-13.159948, -25.549919) "></path>
            <path d="M10.3474333,1.22840924 C11.3067449,0.879181517 12.3853049,1.37534042 12.7387915,2.34423441 L14.3763288,6.84480023 C12.8090629,6.62866234 11.3141979,6.1814805 9.93006362,5.53945514 L9.23160817,3.62083209 C8.88025101,2.65087339 9.38812182,1.57870168 10.3474333,1.22840924" id="path276" transform="translate(11.748206, 3.980740) scale(-1, 1) rotate(-180.000000) translate(-11.748206, -3.980740) "></path>
            <path d="M11.1519347,8.7064196 C10.7973834,7.73646089 9.7273411,7.23710784 8.75951183,7.59059443 C7.79061784,7.94301631 7.28913535,9.0141233 7.64049251,9.98301729 C7.99397911,10.952976 9.06615081,11.4512643 10.0339801,11.0988425 C11.0039388,10.7453559 11.5032919,9.67531359 11.1519347,8.7064196" id="path280" transform="translate(9.396337, 9.344506) scale(-1, 1) rotate(-180.000000) translate(-9.396337, -9.344506) "></path>
            <path d="M6.17405468,22.885936 C5.21474316,23.2330343 4.70793707,24.305206 5.0571648,25.2741 L2.52419908,18.3119046 C2.17284192,17.3430106 2.67964801,16.2708389 3.64108897,15.9194818 C4.59827105,15.5713188 5.67789578,16.0685424 6.03138238,17.0353069 L8.56647754,23.9996318 C8.21299094,23.0318025 7.13443092,22.5367083 6.17405468,22.885936" id="path284" transform="translate(5.489523, 20.541256) scale(-1, 1) rotate(-180.000000) translate(-5.489523, -20.541256) "></path>
            <path d="M8.56647768,13.0710213 C8.21299108,12.103192 7.13443107,11.6070331 6.17511955,11.9562609 C5.21367859,12.3044239 4.70793722,13.378725 5.05822966,14.347619 L6.0526769,17.0796871 C6.4061635,18.0496458 7.4783352,18.5479341 8.44403504,18.1955123 C9.41505846,17.8420257 9.91228208,16.7719834 9.56092492,15.8020247 L8.56647768,13.0710213 Z" id="path288" transform="translate(7.310317, 15.076578) scale(-1, 1) rotate(-180.000000) translate(-7.310317, -15.076578) "></path>
            <path d="M26.9340467,4.31590139 L27.5430658,5.98750971 C26.6114369,6.89997361 25.5658832,7.69744789 24.4319578,8.35544403 L23.4268634,5.59462852 C23.0755062,4.62573453 23.5844417,3.5524981 24.5426885,3.20220566 C25.5020001,2.85297794 26.5826895,3.34913684 26.9340467,4.31590139" id="path292" transform="translate(25.429260, 5.722949) scale(-1, 1) rotate(-180.000000) translate(-25.429260, -5.722949) "></path>
            <path d="M16.542605,28.7739723 C16.9493275,28.7739723 17.3507265,28.7942019 17.7489313,28.8240141 L18.1450066,29.9110918 C18.4963638,30.8810505 17.9980754,31.9521575 17.0291814,32.3045794 C16.0592227,32.6570013 14.9881158,32.1587129 14.6356939,31.1887542 L13.8424785,29.0103398 C14.7198067,28.8580851 15.6216234,28.7739723 16.542605,28.7739723" id="path296" transform="translate(16.050033, 30.595838) scale(-1, 1) rotate(-180.000000) translate(-16.050033, -30.595838) "></path>
            <path d="M19.7417647,10.2157265 C19.3904075,9.24683249 18.3086534,8.75173831 17.3493418,9.10309547 C16.3889656,9.44912904 15.8789653,10.5234302 16.2345814,11.4944536 L21.8360663,26.8913503 C22.1906176,27.8602443 23.2617246,28.3595973 24.2295539,28.0071754 C25.1984479,27.6547536 25.6967362,26.5825819 25.3464438,25.6136879 L19.7417647,10.2157265 Z" id="path300" transform="translate(20.789793, 18.555154) scale(-1, 1) rotate(-180.000000) translate(-20.789793, -18.555154) "></path>
            <path d="M15.3660907,3.30974329 C15.1190759,2.38769692 15.6216231,1.40815575 16.5308929,1.07702824 C17.4891397,0.728865232 18.5687644,1.2228947 18.9233158,2.19178869 L19.2597669,3.11915865 C18.3771151,3.27354286 17.4699748,3.35765563 16.5426048,3.35765563 C16.1465295,3.35765563 15.754713,3.3384907 15.3660907,3.30974329" id="path304" transform="translate(17.281589, 2.161625) scale(-1, 1) rotate(-180.000000) translate(-17.281589, -2.161625) "></path>
            <path d="M8.67039501,23.7084126 L10.5996652,29.0107115 C10.2397903,28.0503353 9.17613638,27.5584353 8.21256598,27.9087277 C7.24260728,28.2611496 6.74325422,29.3333213 7.09674082,30.3022153 L7.09674082,30.30328 L5.5560929,26.072088 C6.48878646,25.1617535 7.53434019,24.3664087 8.67039501,23.7084126" id="path308" transform="translate(8.077879, 27.005846) scale(-1, 1) rotate(-180.000000) translate(-8.077879, -27.005846) "></path>
            <path d="M10.6044557,23.710458 C10.2488397,22.7383699 9.1798621,22.2411462 8.21096811,22.5935681 C7.2410094,22.9470547 6.74165635,24.0192264 7.09620766,24.9870557 C7.44756482,25.9570144 8.51867181,26.4553027 9.48650108,26.1039456 C10.4564598,25.750459 10.9558129,24.679352 10.6044557,23.710458" id="path312" transform="translate(8.849499, 24.348426) scale(-1, 1) rotate(-180.000000) translate(-8.849499, -24.348426) "></path>
            <path d="M17.410989,11.8721827 C17.0372728,12.0084667 16.6507799,12.0404082 16.2845167,11.9829134 C15.7915519,11.9222244 14.7289627,11.9413894 15.2240569,13.5224966 L15.2219275,13.5224966 L17.3513648,19.3752551 C17.702722,20.3430844 17.2044336,21.4163208 16.2355396,21.767678 C15.2666456,22.1211646 14.1966034,21.6196821 13.8420521,20.6518528 L8.67390763,6.44957048 C8.32042103,5.4817412 8.82935655,4.40531063 9.78866807,4.05714762 C10.7490443,3.70685518 11.8276043,4.20301408 12.1821557,5.17190807 L13.1180434,7.74320366 L13.1201728,7.74320366 C13.759004,9.27746327 14.5905493,8.59710804 14.9259357,8.23616841 C15.1697562,7.95827683 15.484913,7.73575063 15.8543703,7.60053136 C17.0351434,7.17038502 18.3415532,7.77833938 18.7695701,8.95911238 C19.1997164,10.137756 18.5906973,11.4441658 17.410989,11.8721827" id="path316" transform="translate(13.734496, 12.912927) scale(-1, 1) rotate(-180.000000) translate(-13.734496, -12.912927) "></path>
            <path d="M41.680506,16.4838687 C41.680506,16.6180232 41.7880426,16.7383364 41.9360385,16.7383364 L47.4885464,16.7383364 C47.6354775,16.7383364 47.7440788,16.6180232 47.7440788,16.4838687 L47.7440788,15.0220099 C47.7440788,14.8878554 47.6354775,14.7675422 47.4885464,14.7675422 L43.7726782,14.7675422 L43.7726782,12.8361425 L46.8305502,12.8361425 C46.9657695,12.8361425 47.0860827,12.7147646 47.0860827,12.58061 L47.0860827,11.1187513 C47.0860827,10.9845967 46.9657695,10.8642835 46.8305502,10.8642835 L43.7726782,10.8642835 L43.7726782,7.60517968 C43.7726782,7.46996041 43.652365,7.3496472 43.5182104,7.3496472 L41.9360385,7.3496472 C41.7880426,7.3496472 41.680506,7.46996041 41.680506,7.60517968 L41.680506,16.4838687 Z" id="path320" transform="translate(44.712292, 12.043992) scale(-1, 1) rotate(-180.000000) translate(-44.712292, -12.043992) "></path>
            <path d="M50.590605,16.4838687 C50.590605,16.6180232 50.6981416,16.7383364 50.8450728,16.7383364 L54.855868,16.7383364 C56.4657226,16.7383364 57.7795855,15.4383149 57.7795855,13.8412369 C57.7795855,12.607228 56.9608168,11.6149102 55.7949499,11.1453693 L57.6315896,7.73933423 C57.7263495,7.56472037 57.6315896,7.3496472 57.4037398,7.3496472 L55.620336,7.3496472 C55.5127994,7.3496472 55.4329455,7.41672448 55.4052628,7.46996041 L53.6218591,11.025056 L52.6966185,11.025056 L52.6966185,7.60517968 C52.6966185,7.46996041 52.5752406,7.3496472 52.4421508,7.3496472 L50.8450728,7.3496472 C50.6981416,7.3496472 50.590605,7.46996041 50.590605,7.60517968 L50.590605,16.4838687 Z M54.6812541,12.7286059 C55.2317137,12.7286059 55.7012546,13.2386062 55.7012546,13.8018423 C55.7012546,14.3650785 55.2317137,14.8207781 54.6812541,14.8207781 L52.6966185,14.8207781 L52.6966185,12.7286059 L54.6812541,12.7286059 Z" id="path324" transform="translate(54.185095, 12.043992) scale(-1, 1) rotate(-180.000000) translate(-54.185095, -12.043992) "></path>
            <path d="M60.553922,16.4838687 C60.553922,16.6180232 60.6614586,16.7383364 60.8083898,16.7383364 L66.3608976,16.7383364 C66.5088935,16.7383364 66.6164301,16.6180232 66.6164301,16.4838687 L66.6164301,15.0220099 C66.6164301,14.8878554 66.5088935,14.7675422 66.3608976,14.7675422 L62.6460942,14.7675422 L62.6460942,13.1033869 L65.7039662,13.1033869 C65.8391855,13.1033869 65.958434,12.9830737 65.958434,12.8489191 L65.958434,11.3870604 C65.958434,11.2401292 65.8391855,11.1325926 65.7039662,11.1325926 L62.6460942,11.1325926 L62.6460942,9.32150618 L66.3608976,9.32150618 C66.5088935,9.32150618 66.6164301,9.20119297 66.6164301,9.06703842 L66.6164301,7.60517968 C66.6164301,7.46996041 66.5088935,7.3496472 66.3608976,7.3496472 L60.8083898,7.3496472 C60.6614586,7.3496472 60.553922,7.46996041 60.553922,7.60517968 L60.553922,16.4838687 Z" id="path328" transform="translate(63.585176, 12.043992) scale(-1, 1) rotate(-180.000000) translate(-63.585176, -12.043992) "></path>
            <path d="M69.816549,16.4838687 C69.816549,16.6180232 69.9240856,16.7383364 70.0582401,16.7383364 L73.3301206,16.7383364 C75.9195164,16.7383364 78.0383066,14.6333876 78.0383066,12.0578332 C78.0383066,9.45566073 75.9195164,7.3496472 73.3301206,7.3496472 L70.0582401,7.3496472 C69.9240856,7.3496472 69.816549,7.46996041 69.816549,7.60517968 L69.816549,16.4838687 Z M73.1970308,9.33534752 C74.7121254,9.33534752 75.8119798,10.5288971 75.8119798,12.0578332 C75.8119798,13.5729278 74.7121254,14.7675422 73.1970308,14.7675422 L71.9087212,14.7675422 L71.9087212,9.33534752 L73.1970308,9.33534752 Z" id="path332" transform="translate(73.927428, 12.043992) scale(-1, 1) rotate(-180.000000) translate(-73.927428, -12.043992) "></path>
            <path d="M84.581003,16.4838687 C84.581003,16.6180232 84.7013162,16.7383364 84.8365355,16.7383364 L86.4325488,16.7383364 C86.5794799,16.7383364 86.6870165,16.6180232 86.6870165,16.4838687 L86.6870165,13.1033869 L90.5231979,13.1033869 L90.5231979,16.4838687 C90.5231979,16.6180232 90.6307345,16.7383364 90.7776657,16.7383364 L92.3736789,16.7383364 C92.5078335,16.7383364 92.6292114,16.6180232 92.6292114,16.4838687 L92.6292114,7.60517968 C92.6292114,7.46996041 92.5078335,7.3496472 92.3736789,7.3496472 L90.7776657,7.3496472 C90.6307345,7.3496472 90.5231979,7.46996041 90.5231979,7.60517968 L90.5231979,11.1325926 L86.6870165,11.1325926 L86.6870165,7.60517968 C86.6870165,7.46996041 86.5794799,7.3496472 86.4325488,7.3496472 L84.8365355,7.3496472 C84.7013162,7.3496472 84.581003,7.46996041 84.581003,7.60517968 L84.581003,16.4838687 Z" id="path336" transform="translate(88.605107, 12.043992) scale(-1, 1) rotate(-180.000000) translate(-88.605107, -12.043992) "></path>
            <path d="M95.644388,16.6180232 C95.644388,16.7521778 95.7647012,16.872491 95.8999205,16.872491 L97.5491697,16.872491 C97.6971656,16.872491 97.8036375,16.7521778 97.8036375,16.6180232 L97.8036375,11.1858286 C97.8036375,10.2467467 98.5020929,9.49612004 99.4539514,9.49612004 C100.419651,9.49612004 101.130883,10.2467467 101.130883,11.1858286 L101.130883,16.6180232 C101.130883,16.7521778 101.237355,16.872491 101.385351,16.872491 L103.0346,16.872491 C103.168755,16.872491 103.290133,16.7521778 103.290133,16.6180232 L103.290133,11.078292 C103.290133,9.03935573 101.572742,7.3496472 99.4539514,7.3496472 C97.3479379,7.3496472 95.644388,9.03935573 95.644388,11.078292 L95.644388,16.6180232 Z" id="path340" transform="translate(99.467260, 12.111069) scale(-1, 1) rotate(-180.000000) translate(-99.467260, -12.111069) "></path>
            <path d="M107.794425,14.7659456 L105.876867,14.7659456 C105.728871,14.7659456 105.622399,14.8862588 105.622399,15.0204134 L105.622399,16.4822721 C105.622399,16.6164266 105.728871,16.7378046 105.876867,16.7378046 L111.831838,16.7378046 C111.978769,16.7378046 112.086306,16.6164266 112.086306,16.4822721 L112.086306,15.0204134 C112.086306,14.8862588 111.978769,14.7659456 111.831838,14.7659456 L109.913215,14.7659456 L109.913215,7.60358309 C109.913215,7.46942854 109.792902,7.34911533 109.658747,7.34911533 L108.049957,7.34911533 C107.914738,7.34911533 107.794425,7.46942854 107.794425,7.60358309 L107.794425,14.7659456 Z" id="path344" transform="translate(108.854352, 12.043460) scale(-1, 1) rotate(-180.000000) translate(-108.854352, -12.043460) "></path>
            <path d="M118.456092,16.8719586 C119.797638,16.8719586 120.789956,16.4556536 121.70242,15.6241084 C121.822733,15.5176365 121.822733,15.356864 121.716261,15.2493274 L120.669642,14.1622496 C120.574883,14.0685544 120.427951,14.0685544 120.334256,14.1622496 C119.838097,14.6051726 119.180101,14.8468637 118.52317,14.8468637 C117.008075,14.8468637 115.894379,13.5851721 115.894379,12.0839188 C115.894379,10.5943774 117.020852,9.36036843 118.537011,9.36036843 C119.167324,9.36036843 119.850874,9.58821822 120.334256,10.0045232 C120.427951,10.0854418 120.6015,10.0854418 120.682419,9.99068188 L121.729038,8.87805087 C121.822733,8.78329091 121.808891,8.60974176 121.716261,8.51604652 C120.802732,7.63020059 119.649642,7.2149603 118.456092,7.2149603 C115.773001,7.2149603 113.613752,9.3475918 113.613752,12.0296181 C113.613752,14.7127092 115.773001,16.8719586 118.456092,16.8719586" id="path348" transform="translate(117.704108, 12.043459) scale(-1, 1) rotate(-180.000000) translate(-117.704108, -12.043459) "></path>
            <path d="M124.114646,16.4838687 C124.114646,16.6180232 124.234959,16.7383364 124.369114,16.7383364 L125.966192,16.7383364 C126.113123,16.7383364 126.22066,16.6180232 126.22066,16.4838687 L126.22066,13.1033869 L130.055776,13.1033869 L130.055776,16.4838687 C130.055776,16.6180232 130.163313,16.7383364 130.311309,16.7383364 L131.907322,16.7383364 C132.041476,16.7383364 132.16179,16.6180232 132.16179,16.4838687 L132.16179,7.60517968 C132.16179,7.46996041 132.041476,7.3496472 131.907322,7.3496472 L130.311309,7.3496472 C130.163313,7.3496472 130.055776,7.46996041 130.055776,7.60517968 L130.055776,11.1325926 L126.22066,11.1325926 L126.22066,7.60517968 C126.22066,7.46996041 126.113123,7.3496472 125.966192,7.3496472 L124.369114,7.3496472 C124.234959,7.3496472 124.114646,7.46996041 124.114646,7.60517968 L124.114646,16.4838687 Z" id="path352" transform="translate(128.138218, 12.043992) scale(-1, 1) rotate(-180.000000) translate(-128.138218, -12.043992) "></path>
            <path d="M43.621808,26.1376741 C44.2989691,26.1376741 44.787675,25.9226009 45.2444393,25.513749 C45.3040635,25.460513 45.3040635,25.3795944 45.2508276,25.3263585 L44.8419756,24.9036652 C44.795128,24.8504292 44.7280507,24.8504292 44.6737501,24.9036652 C44.393729,25.1517446 44.0178834,25.2997405 43.6420377,25.2997405 C42.7838744,25.2997405 42.1471726,24.5821201 42.1471726,23.7377982 C42.1471726,22.8998646 42.7913274,22.1886325 43.6494907,22.1886325 C44.0508896,22.1886325 44.393729,22.3430168 44.6737501,22.5708666 C44.7280507,22.6177142 44.8015163,22.6113259 44.8419756,22.5708666 L45.2572159,22.1417849 C45.3115165,22.0949373 45.2976752,22.0086951 45.2508276,21.9607828 C44.795128,21.5189245 44.2191152,21.3102396 43.621808,21.3102396 C42.2813272,21.3102396 41.2017025,22.3770878 41.2017025,23.7175686 C41.2017025,25.0580494 42.2813272,26.1376741 43.621808,26.1376741" id="path356" transform="translate(43.247015, 23.723957) scale(-1, 1) rotate(-180.000000) translate(-43.247015, -23.723957) "></path>
            <path d="M46.675421,26.0105461 C46.675421,26.0776233 46.7350452,26.1372476 46.8031872,26.1372476 L47.4388243,26.1372476 C47.5133546,26.1372476 47.5665905,26.0776233 47.5665905,26.0105461 L47.5665905,23.2688955 C47.5665905,22.699271 47.9552128,22.2499597 48.5386787,22.2499597 C49.1221445,22.2499597 49.5171551,22.699271 49.5171551,23.2614425 L49.5171551,26.0105461 C49.5171551,26.0776233 49.5714558,26.1372476 49.6449214,26.1372476 L50.2816231,26.1372476 C50.3487004,26.1372476 50.4093894,26.0776233 50.4093894,26.0105461 L50.4093894,23.2209831 C50.4093894,22.2020474 49.5980737,21.3779551 48.5386787,21.3779551 C47.4867366,21.3779551 46.675421,22.2020474 46.675421,23.2209831 L46.675421,26.0105461 Z" id="path360" transform="translate(48.542405, 23.757601) scale(-1, 1) rotate(-180.000000) translate(-48.542405, -23.757601) "></path>
            <path d="M51.990603,25.9434688 C51.990603,26.0105461 52.0438389,26.0701703 52.1173045,26.0701703 L54.0348629,26.0701703 C54.8397902,26.0701703 55.4967216,25.4270802 55.4967216,24.6296059 C55.4967216,24.0120691 55.0868049,23.5095219 54.5044038,23.2752838 L55.423256,21.5727986 C55.4690389,21.4854917 55.423256,21.3779551 55.3093311,21.3779551 L54.6055521,21.3779551 C54.5437984,21.3779551 54.5107921,21.4120261 54.4969508,21.4386441 L53.6057812,23.2145948 L52.8615429,23.2145948 L52.8615429,21.5046566 C52.8615429,21.4386441 52.8019186,21.3779551 52.7348414,21.3779551 L52.1173045,21.3779551 C52.0438389,21.3779551 51.990603,21.4386441 51.990603,21.5046566 L51.990603,25.9434688 Z M53.9613973,23.9322152 C54.3170133,23.9322152 54.624717,24.2399189 54.624717,24.6157646 C54.624717,24.9713806 54.3170133,25.2663077 53.9613973,25.2663077 L52.8679312,25.2663077 L52.8679312,23.9322152 L53.9613973,23.9322152 L53.9613973,23.9322152 Z" id="path364" transform="translate(53.743662, 23.724063) scale(-1, 1) rotate(-180.000000) translate(-53.743662, -23.724063) "></path>
            <path d="M57.063988,25.9434688 C57.063988,26.0105461 57.1172239,26.0701703 57.1906895,26.0701703 L59.9195635,26.0701703 C59.9930291,26.0701703 60.046265,26.0105461 60.046265,25.9434688 L60.046265,25.3940739 C60.046265,25.3269967 59.9930291,25.2663077 59.9195635,25.2663077 L57.9349279,25.2663077 L57.9349279,24.1664533 L59.5916301,24.1664533 C59.6576427,24.1664533 59.7183317,24.1068291 59.7183317,24.0397518 L59.7183317,23.4829039 C59.7183317,23.4094383 59.6576427,23.3551377 59.5916301,23.3551377 L57.9349279,23.3551377 L57.9349279,22.1828824 L59.9195635,22.1828824 C59.9930291,22.1828824 60.046265,22.1221935 60.046265,22.0551162 L60.046265,21.5046566 C60.046265,21.4386441 59.9930291,21.3779551 59.9195635,21.3779551 L57.1906895,21.3779551 C57.1172239,21.3779551 57.063988,21.4386441 57.063988,21.5046566 L57.063988,25.9434688 Z" id="path368" transform="translate(58.555127, 23.724063) scale(-1, 1) rotate(-180.000000) translate(-58.555127, -23.724063) "></path>
            <path d="M61.4736267,22.034674 L61.7153178,22.4499143 C61.7685537,22.5446742 61.8824786,22.5446742 61.9431676,22.4967619 C61.9761739,22.477597 62.5191804,22.0815216 62.9546503,22.0815216 C63.3038781,22.0815216 63.5657989,22.3093714 63.5657989,22.5979102 C63.5657989,22.9396849 63.2772601,23.173923 62.7140239,23.4017728 C62.0837105,23.6562405 61.453397,24.0587042 61.453397,24.8508549 C61.453397,25.4470973 61.89632,26.137035 62.9621034,26.137035 C63.6456528,26.137035 64.1684296,25.788872 64.3025842,25.6877237 C64.3696615,25.6472644 64.3898911,25.5333395 64.3430435,25.467327 L64.0885757,25.085093 C64.0342751,25.0041744 63.9341915,24.9509384 63.8532729,25.0041744 C63.800037,25.0382454 63.2911014,25.372567 62.9216441,25.372567 C62.5394101,25.372567 62.3317899,25.1180993 62.3317899,24.9040908 C62.3317899,24.5889341 62.5798694,24.3738609 63.1228759,24.1534641 C63.773419,23.8915433 64.5240457,23.502921 64.5240457,22.6373048 C64.5240457,21.9473671 63.9267385,21.3106653 62.9812683,21.3106653 C62.1369464,21.3106653 61.6418522,21.7056759 61.5066329,21.8334422 C61.4470087,21.8941311 61.4140024,21.9271374 61.4736267,22.034674" id="path372" transform="translate(62.983094, 23.723850) scale(-1, 1) rotate(-180.000000) translate(-62.983094, -23.723850) "></path>
            <path d="M68.1990287,22.034674 L68.4396551,22.4499143 C68.4939557,22.5446742 68.6078806,22.5446742 68.6685696,22.4967619 C68.7015759,22.477597 69.2445824,22.0815216 69.6800523,22.0815216 C70.0292801,22.0815216 70.2901361,22.3093714 70.2901361,22.5979102 C70.2901361,22.9396849 70.0015974,23.173923 69.4394259,23.4017728 C68.8091125,23.6562405 68.178799,24.0587042 68.178799,24.8508549 C68.178799,25.4470973 68.621722,26.137035 69.6864407,26.137035 C70.3710548,26.137035 70.8938316,25.788872 71.0279862,25.6877237 C71.0939987,25.6472644 71.1152931,25.5333395 71.0673808,25.467327 L70.8139777,25.085093 C70.7596771,25.0041744 70.6595935,24.9509384 70.5786749,25.0041744 C70.525439,25.0382454 70.0154387,25.372567 69.6470461,25.372567 C69.2648121,25.372567 69.0571919,25.1180993 69.0571919,24.9040908 C69.0571919,24.5889341 69.3042066,24.3738609 69.8472132,24.1534641 C70.498821,23.8915433 71.2483829,23.502921 71.2483829,22.6373048 C71.2483829,21.9473671 70.6521405,21.3106653 69.7066703,21.3106653 C68.8623484,21.3106653 68.3661895,21.7056759 68.2320349,21.8334422 C68.171346,21.8941311 68.1383397,21.9271374 68.1990287,22.034674" id="path376" transform="translate(69.707591, 23.723850) scale(-1, 1) rotate(-180.000000) translate(-69.707591, -23.723850) "></path>
            <path d="M73.4824813,25.2654566 L72.4560925,25.2654566 C72.3826269,25.2654566 72.329391,25.3261456 72.329391,25.3932228 L72.329391,25.9426177 C72.329391,26.0096949 72.3826269,26.0703839 72.4560925,26.0703839 L75.3861983,26.0703839 C75.4596639,26.0703839 75.5139646,26.0096949 75.5139646,25.9426177 L75.5139646,25.3932228 C75.5139646,25.3261456 75.4596639,25.2654566 75.3861983,25.2654566 L74.3598095,25.2654566 L74.3598095,21.5048702 C74.3598095,21.437793 74.3001853,21.377104 74.233108,21.377104 L73.6102476,21.377104 C73.5421056,21.377104 73.4824813,21.437793 73.4824813,21.5048702 L73.4824813,25.2654566 Z" id="path380" transform="translate(73.921678, 23.723744) scale(-1, 1) rotate(-180.000000) translate(-73.921678, -23.723744) "></path>
            <path d="M75.9509257,21.4837882 L78.0356448,25.9950012 C78.0558745,26.0354605 78.0888808,26.0695315 78.1495697,26.0695315 L78.216647,26.0695315 C78.2837243,26.0695315 78.3103422,26.0354605 78.3305719,25.9950012 L80.3950614,21.4837882 C80.4355207,21.3975459 80.3812201,21.310239 80.2811365,21.310239 L79.6987354,21.310239 C79.5975871,21.310239 79.5507395,21.3496336 79.5038919,21.4433288 L79.1748938,22.1684023 L77.1700285,22.1684023 L76.8420952,21.4433288 C76.8154772,21.3762516 76.7547883,21.310239 76.6483164,21.310239 L76.0648506,21.310239 C75.9637023,21.310239 75.9104664,21.3975459 75.9509257,21.4837882 L75.9509257,21.4837882 Z M78.8458957,22.9115759 L78.1761877,24.387276 L78.155958,24.387276 L77.4990266,22.9115759 L78.8458957,22.9115759 L78.8458957,22.9115759 Z" id="path384" transform="translate(78.172930, 23.689885) scale(-1, 1) rotate(-180.000000) translate(-78.172930, -23.689885) "></path>
            <path d="M81.5802,25.9434688 C81.5802,26.0105461 81.6345007,26.0701703 81.7079662,26.0701703 L83.6255246,26.0701703 C84.4293872,26.0701703 85.0863186,25.4270802 85.0863186,24.6296059 C85.0863186,24.0120691 84.6774666,23.5095219 84.0940008,23.2752838 L85.012853,21.5727986 C85.0597006,21.4854917 85.012853,21.3779551 84.8989281,21.3779551 L84.1951491,21.3779551 C84.1344601,21.3779551 84.1003891,21.4120261 84.0876125,21.4386441 L83.1964429,23.2145948 L82.4522046,23.2145948 L82.4522046,21.5046566 C82.4522046,21.4386441 82.3915156,21.3779551 82.3244384,21.3779551 L81.7079662,21.3779551 C81.6345007,21.3779551 81.5802,21.4386441 81.5802,21.5046566 L81.5802,25.9434688 Z M83.5509943,23.9322152 C83.9066103,23.9322152 84.2153787,24.2399189 84.2153787,24.6157646 C84.2153787,24.9713806 83.9066103,25.2663077 83.5509943,25.2663077 L82.4585929,25.2663077 L82.4585929,23.9322152 L83.5509943,23.9322152 L83.5509943,23.9322152 Z" id="path388" transform="translate(83.333259, 23.724063) scale(-1, 1) rotate(-180.000000) translate(-83.333259, -23.724063) "></path>
            <path d="M87.3739723,25.2654566 L86.3475835,25.2654566 C86.274118,25.2654566 86.2198173,25.3261456 86.2198173,25.3932228 L86.2198173,25.9426177 C86.2198173,26.0096949 86.274118,26.0703839 86.3475835,26.0703839 L89.2776893,26.0703839 C89.3522196,26.0703839 89.4054556,26.0096949 89.4054556,25.9426177 L89.4054556,25.3932228 C89.4054556,25.3261456 89.3522196,25.2654566 89.2776893,25.2654566 L88.2523652,25.2654566 L88.2523652,21.5048702 C88.2523652,21.437793 88.1916763,21.377104 88.124599,21.377104 L87.5017386,21.377104 C87.4346613,21.377104 87.3739723,21.437793 87.3739723,21.5048702 L87.3739723,25.2654566 Z" id="path392" transform="translate(87.812636, 23.723744) scale(-1, 1) rotate(-180.000000) translate(-87.812636, -23.723744) "></path>
            <path d="M93.204266,25.9434688 C93.204266,26.0105461 93.264955,26.0701703 93.3320322,26.0701703 L93.9548927,26.0701703 C94.029423,26.0701703 94.0826589,26.0105461 94.0826589,25.9434688 L94.0826589,24.1664533 L96.2685263,24.1664533 L96.2685263,25.9434688 C96.2685263,26.0105461 96.3217623,26.0701703 96.3952279,26.0701703 L97.0117,26.0701703 C97.0787772,26.0701703 97.1394662,26.0105461 97.1394662,25.9434688 L97.1394662,21.5046566 C97.1394662,21.4386441 97.0787772,21.3779551 97.0117,21.3779551 L96.3952279,21.3779551 C96.3217623,21.3779551 96.2685263,21.4386441 96.2685263,21.5046566 L96.2685263,23.3551377 L94.0826589,23.3551377 L94.0826589,21.5046566 C94.0826589,21.4386441 94.029423,21.3779551 93.9548927,21.3779551 L93.3320322,21.3779551 C93.264955,21.3779551 93.204266,21.4386441 93.204266,21.5046566 L93.204266,25.9434688 Z" id="path396" transform="translate(95.171866, 23.724063) scale(-1, 1) rotate(-180.000000) translate(-95.171866, -23.724063) "></path>
            <path d="M98.995803,25.9434688 C98.995803,26.0105461 99.0501037,26.0701703 99.1235692,26.0701703 L101.851378,26.0701703 C101.924844,26.0701703 101.979145,26.0105461 101.979145,25.9434688 L101.979145,25.3940739 C101.979145,25.3269967 101.924844,25.2663077 101.851378,25.2663077 L99.8678076,25.2663077 L99.8678076,24.1664533 L101.523445,24.1664533 C101.590522,24.1664533 101.650147,24.1068291 101.650147,24.0397518 L101.650147,23.4829039 C101.650147,23.4094383 101.590522,23.3551377 101.523445,23.3551377 L99.8678076,23.3551377 L99.8678076,22.1828824 L101.851378,22.1828824 C101.924844,22.1828824 101.979145,22.1221935 101.979145,22.0551162 L101.979145,21.5046566 C101.979145,21.4386441 101.924844,21.3779551 101.851378,21.3779551 L99.1235692,21.3779551 C99.0501037,21.3779551 98.995803,21.4386441 98.995803,21.5046566 L98.995803,25.9434688 Z" id="path400" transform="translate(100.487474, 23.724063) scale(-1, 1) rotate(-180.000000) translate(-100.487474, -23.724063) "></path>
            <path d="M103.730926,25.9434688 C103.730926,26.0105461 103.785227,26.0701703 103.858692,26.0701703 L105.776251,26.0701703 C106.580113,26.0701703 107.237045,25.4270802 107.237045,24.6296059 C107.237045,24.0120691 106.828193,23.5095219 106.244727,23.2752838 L107.163579,21.5727986 C107.210427,21.4854917 107.163579,21.3779551 107.049654,21.3779551 L106.345875,21.3779551 C106.285186,21.3779551 106.251115,21.4120261 106.238338,21.4386441 L105.347169,23.2145948 L104.602931,23.2145948 L104.602931,21.5046566 C104.602931,21.4386441 104.542242,21.3779551 104.475164,21.3779551 L103.858692,21.3779551 C103.785227,21.3779551 103.730926,21.4386441 103.730926,21.5046566 L103.730926,25.9434688 Z" id="path404-path" transform="translate(105.483985, 23.724063) scale(-1, 1) rotate(-180.000000) translate(-105.483985, -23.724063) "></path>
            <path d="M105.70172,22.1818177 C106.057336,22.1818177 106.366105,22.4895214 106.366105,22.8653671 C106.366105,23.2209831 106.057336,23.5159102 105.70172,23.5159102 L104.609319,23.5159102 L104.609319,22.1818177 L105.70172,22.1818177 L105.70172,22.1818177 Z" id="path404-path" transform="translate(105.487712, 22.848864) scale(-1, 1) rotate(-180.000000) translate(-105.487712, -22.848864) "></path>
            <path d="M108.772156,25.9434688 C108.772156,26.0105461 108.825392,26.0701703 108.898858,26.0701703 L111.627731,26.0701703 C111.701197,26.0701703 111.754433,26.0105461 111.754433,25.9434688 L111.754433,25.3940739 C111.754433,25.3269967 111.701197,25.2663077 111.627731,25.2663077 L109.643096,25.2663077 L109.643096,24.1664533 L111.299798,24.1664533 C111.365811,24.1664533 111.4265,24.1068291 111.4265,24.0397518 L111.4265,23.4829039 C111.4265,23.4094383 111.365811,23.3551377 111.299798,23.3551377 L109.643096,23.3551377 L109.643096,22.1828824 L111.627731,22.1828824 C111.701197,22.1828824 111.754433,22.1221935 111.754433,22.0551162 L111.754433,21.5046566 C111.754433,21.4386441 111.701197,21.3779551 111.627731,21.3779551 L108.898858,21.3779551 C108.825392,21.3779551 108.772156,21.4386441 108.772156,21.5046566 L108.772156,25.9434688 Z" id="path408" transform="translate(110.263295, 23.724063) scale(-1, 1) rotate(-180.000000) translate(-110.263295, -23.724063) "></path>
            <path d="M113.031138,22.7544234 L112.668069,22.7544234 C112.64358,22.7544234 112.62548,22.774653 112.62548,22.7970121 L112.62548,22.9215842 C112.62548,22.9439433 112.64358,22.9641729 112.668069,22.9641729 L113.626315,22.9641729 C113.650804,22.9641729 113.668904,22.9439433 113.668904,22.9215842 L113.668904,22.7970121 C113.668904,22.774653 113.650804,22.7544234 113.626315,22.7544234 L113.263246,22.7544234 L113.263246,21.4458841 C113.263246,21.423525 113.243017,21.4043601 113.220658,21.4043601 L113.073726,21.4043601 C113.051367,21.4043601 113.031138,21.423525 113.031138,21.4458841 L113.031138,22.7544234 Z" id="path412" transform="translate(113.147192, 22.184267) scale(-1, 1) rotate(-180.000000) translate(-113.147192, -22.184267) "></path>
            <path d="M114.209355,22.9541651 C114.213614,22.9722654 114.230649,22.9871714 114.248749,22.9871714 L114.28495,22.9871714 C114.298791,22.9871714 114.317956,22.9765242 114.322215,22.9626829 L114.788562,21.8244986 L114.798144,21.8244986 L115.261297,22.9626829 C115.265556,22.9765242 115.283656,22.9871714 115.298562,22.9871714 L115.334762,22.9871714 C115.352863,22.9871714 115.369898,22.9722654 115.375222,22.9541651 L115.648854,21.456106 C115.655243,21.4252291 115.640337,21.4049995 115.60946,21.4049995 L115.463593,21.4049995 C115.444428,21.4049995 115.426328,21.4209703 115.421005,21.4358763 L115.257038,22.432453 L115.249585,22.432453 L114.849251,21.4071289 C114.843927,21.3943523 114.83115,21.3826404 114.810921,21.3826404 L114.770461,21.3826404 C114.753426,21.3826404 114.737455,21.3943523 114.733196,21.4071289 L114.329668,22.432453 L114.320085,22.432453 L114.160378,21.4358763 C114.158248,21.4209703 114.138019,21.4049995 114.119918,21.4049995 L113.975117,21.4049995 C113.943175,21.4049995 113.928269,21.4252291 113.932528,21.456106 L114.209355,22.9541651 Z" id="path416" transform="translate(114.791063, 22.184906) scale(-1, 1) rotate(-180.000000) translate(-114.791063, -22.184906) "></path>
        </g>
    </g>
</svg>