<?xml version="1.0" encoding="UTF-8"?>
<svg width="144px" height="20px" viewBox="0 0 144 20" version="1.1" xmlns="http://www.w3.org/2000/svg" xmlns:xlink="http://www.w3.org/1999/xlink">
    <!-- Generator: Sketch 55.2 (78181) - https://sketchapp.com -->
    <title>logo_UWMedicine</title>
    <desc>Created with Sketch.</desc>
    <g id="Page-1" stroke="none" stroke-width="1" fill="none" fill-rule="evenodd" fill-opacity="0.7">
        <g id="logo_UWMedicine" fill="#FFFFFF" fill-rule="nonzero">
            <path d="M67.8181818,0.772727273 L67.8181818,1.04545454 C67.1818182,1.13636364 66.3636364,1.31818182 66.3636364,2.59090909 C66.3636364,2.68181818 66.3636364,3.22727273 66.4545455,3.95454545 L67.6363636,16.2272727 C67.8181818,17.8636364 67.9090909,18.4090909 69.3636364,18.8636364 L69.3636364,19.1363636 L64,19.1363636 L64,18.8636364 C64.8181818,18.5909091 65.4545455,18.3181818 65.4545455,17.1363636 C65.4545455,16.8636364 65.4545455,16.8636364 65.3636364,15.8636364 L64.1818182,3.40909091 L57.6363636,19.1363636 L57.3636364,19.1363636 L50.6363636,3.68181818 L49.5454545,16.0454545 C49.4545455,16.4090909 49.4545455,16.7727273 49.4545455,17.1363636 C49.4545455,18.3181818 50.0909091,18.5909091 50.9090909,18.8636364 L50.9090909,19.1363636 L46.4545455,19.1363636 L46.4545455,18.8636364 C47.7272727,18.5909091 47.9090909,18.1363636 48.0909091,16.2272727 L49.2727273,4.04545455 C49.3636364,3.22727273 49.3636364,2.95454545 49.3636364,2.77272727 C49.3636364,1.5 48.8181818,1.31818182 47.9090909,1.13636364 L47.9090909,0.772727273 L51.8181818,0.772727273 L57.9090909,14.8636364 L64,0.772727273 L67.8181818,0.772727273 Z M81.0909091,16.2272727 C80.8181818,16.6818182 80.5454545,17.1363636 80.2727273,17.5 C79.2727273,18.8636364 77.6363636,19.5909091 76,19.5909091 C72.1818182,19.5909091 70.2727273,16.5909091 70.2727273,13.4090909 C70.2727273,10.2272727 72.2727273,6.86363636 76.0909091,6.86363636 C79,6.86363636 81.2727273,8.77272727 81.3636364,12.5 L72.1818182,12.5 C72.1818182,12.9545455 72.1818182,13.4090909 72.2727273,13.8636364 C72.4545455,16.1363636 74.2727273,17.8636364 76.5454545,17.8636364 C78.0909091,17.7727273 79.6363636,17.0454545 80.6363636,15.8636364 L81.0909091,16.2272727 Z M79.1818182,11.5 C79.0909091,8.95454545 77.5454545,7.95454545 76,7.95454545 C74.2727273,7.95454545 72.8181818,9.13636364 72.2727273,11.5 L79.1818182,11.5 Z M94.2727273,0.5 L94.2727273,15.2272727 C94.2727273,17.0454545 94.5454545,17.4090909 95.4545455,17.6818182 L95.5454545,17.9545455 L93.6363636,19.5909091 C93,19.1363636 92.5454545,18.5 92.3636364,17.6818182 C91,18.8636364 89.9090909,19.5909091 88.1818182,19.5909091 C84.7272727,19.5909091 82.7272727,16.9545455 82.7272727,13.6818182 C82.7272727,10.1363636 84.9090909,6.86363636 88.7272727,6.86363636 C89.9090909,6.86363636 91.0909091,7.13636364 92.0909091,7.77272727 L92.0909091,4.22727273 C92.0909091,3.40909091 92,2.5 90.6363636,2.68181818 L90.5454545,2.40909091 L94.2727273,0.5 Z M92.2727273,11.7727273 C92.2727273,11.1363636 92.1818182,10.5 92,9.86363636 C91.4545455,8.68181818 90.2727273,7.86363636 89,7.95454545 C86.3636364,7.95454545 84.9090909,10.2272727 84.9090909,13.1363636 C84.9090909,16.2272727 86.8181818,18.0454545 88.9090909,18.0454545 C89.4545455,18.0454545 89.9090909,17.9545455 90.4545455,17.7727273 C91.1818182,17.5 91.8181818,16.9545455 92.3636364,16.3181818 L92.2727273,11.7727273 Z M97.8181818,10.3181818 C97.8181818,9.5 97.8181818,8.95454545 96.5454545,8.95454545 L96.4545455,8.68181818 L99.9090909,6.68181818 L99.9090909,16.5 C99.9090909,17.9545455 99.9090909,18.5 101.363636,18.8636364 L101.363636,19.1363636 L96.5454545,19.1363636 L96.5454545,18.8636364 C97.8181818,18.5 97.8181818,17.9545455 97.8181818,16.4090909 L97.8181818,10.3181818 Z M100.181818,2.04545455 C100.181818,2.77272727 99.6363636,3.40909091 98.9090909,3.40909091 C98.9090909,3.40909091 98.8181818,3.40909091 98.8181818,3.40909091 C98.0909091,3.40909091 97.5454545,2.86363636 97.5454545,2.22727273 C97.5454545,2.22727273 97.5454545,2.22727273 97.5454545,2.22727273 C97.5454545,1.5 98.0909091,0.863636364 98.8181818,0.863636364 C98.8181818,0.863636364 98.9090909,0.863636364 98.9090909,0.863636364 C99.6363636,0.772727273 100.181818,1.31818182 100.181818,2.04545455 C100.181818,2.04545455 100.181818,2.04545455 100.181818,2.04545455 L100.181818,2.04545455 Z M112.545455,16.2272727 C111.090909,19.1363636 109.181818,19.5909091 107.636364,19.5909091 C106.090909,19.6818182 104.727273,18.9545455 103.818182,17.6818182 C102.909091,16.5 102.454545,15.0454545 102.454545,13.5 C102.454545,11.8636364 102.909091,10.1363636 104,8.86363636 C105,7.5 106.545455,6.77272727 108.181818,6.86363636 C109.545455,6.86363636 110.909091,7.31818182 112,8.22727273 L111.545455,10.5909091 L111.272727,10.5909091 C110.818182,9.59090909 110.181818,7.95454545 108,7.95454545 C105.272727,7.95454545 104.363636,10.7727273 104.363636,12.8636364 C104.363636,15.9545455 106.272727,17.9545455 108.454545,17.9545455 C109.909091,17.7727273 111.272727,17.1363636 112.181818,15.9545455 L112.545455,16.2272727 Z M114.636364,10.3181818 C114.636364,9.5 114.636364,8.95454545 113.363636,8.95454545 L113.181818,8.68181818 L116.636364,6.68181818 L116.636364,16.5 C116.636364,17.9545455 116.636364,18.5 118.090909,18.8636364 L118.090909,19.1363636 L113.272727,19.1363636 L113.272727,18.8636364 C114.545455,18.5 114.545455,17.9545455 114.545455,16.4090909 L114.636364,10.3181818 Z M117,2.04545455 C117,2.77272727 116.454545,3.40909091 115.727273,3.40909091 C115.727273,3.40909091 115.636364,3.40909091 115.636364,3.40909091 C114.909091,3.40909091 114.363636,2.86363636 114.363636,2.22727273 C114.363636,2.22727273 114.363636,2.22727273 114.363636,2.22727273 C114.363636,1.5 114.909091,0.863636364 115.636364,0.863636364 C115.636364,0.863636364 115.727273,0.863636364 115.727273,0.863636364 C116.363636,0.772727273 117,1.31818182 117,2.04545455 C117,2.04545455 117,2.04545455 117,2.04545455 L117,2.04545455 Z M122.545455,6.68181818 L122.545455,8.68181818 C123.545455,7.5 125,6.77272727 126.545455,6.86363636 C127.818182,6.77272727 129,7.31818182 129.818182,8.31818182 C130.545455,9.31818182 130.545455,10.2272727 130.545455,11.6818182 L130.545455,16.3181818 C130.545455,17.8636364 130.636364,18.5 132,18.7727273 L132,19.0454545 L127.272727,19.0454545 L127.272727,18.7727273 C127.727273,18.7727273 128.181818,18.4090909 128.454545,18.0454545 C128.545455,17.7727273 128.636364,17.5909091 128.636364,16.4090909 L128.636364,11.4090909 C128.727273,10.5 128.363636,9.59090909 127.727273,8.95454545 C127.181818,8.5 126.454545,8.31818182 125.727273,8.31818182 C124.909091,8.31818182 124.181818,8.5 123.545455,9.04545455 C122.818182,9.68181818 122.454545,10.5909091 122.636364,11.5 L122.636364,16.3181818 C122.636364,18.0454545 122.818182,18.4090909 124.090909,18.7727273 L124.090909,19.0454545 L119.090909,19.0454545 L119.090909,18.7727273 C120.454545,18.5 120.454545,17.5909091 120.454545,16.3181818 L120.454545,11.2272727 C120.454545,9.59090909 120.454545,8.95454545 119.090909,8.95454545 L119,8.68181818 L122.545455,6.68181818 Z M143.272727,16.2272727 C143,16.6818182 142.727273,17.1363636 142.454545,17.5 C141.454545,18.8636364 139.818182,19.5909091 138.181818,19.5909091 C134.363636,19.5909091 132.454545,16.5909091 132.454545,13.4090909 C132.454545,10.2272727 134.454545,6.86363636 138.363636,6.86363636 C141.272727,6.86363636 143.545455,8.77272727 143.636364,12.5 L134.454545,12.5 C134.454545,12.9545455 134.454545,13.4090909 134.545455,13.8636364 C134.727273,16.1363636 136.545455,17.8636364 138.818182,17.8636364 C140.363636,17.7727273 141.909091,17.0454545 142.909091,15.8636364 L143.272727,16.2272727 Z M141.363636,11.5 C141.272727,8.95454545 139.727273,7.95454545 138.181818,7.95454545 C136.454545,7.95454545 135,9.13636364 134.454545,11.5 L141.363636,11.5 Z M43,0.681818182 C42.8181818,0.5 42.2727273,0.5 41.6363636,0.590909091 L40.8181818,0.681818182 L39.9090909,0.590909091 C39.1818182,0.5 38.3636364,0.409090909 38.0909091,0.681818182 L38,0.863636364 L38,0.863636364 C38,1.13636364 38.2727273,1.22727273 38.4545455,1.31818182 C38.9090909,1.40909091 39.2727273,1.77272727 39.3636364,2.22727273 C39.3636364,2.40909091 39.4545455,2.5 39.4545455,2.68181818 C39.4545455,2.68181818 39.4545455,2.68181818 39.4545455,2.68181818 C39.4545455,3.86363636 37.4545455,9.31818182 35.3636364,14.3181818 C34.5454545,12.1363636 31.7272727,2.59090909 31.7272727,2.5 C31.7272727,2.22727273 31.6363636,1.95454545 31.6363636,1.77272727 L31.6363636,1.77272727 C31.6363636,1.13636364 31.9090909,1.13636364 32.1818182,1.13636364 C32.3636364,1.13636364 32.5454545,1.04545455 32.5454545,0.772727273 L32.4545455,0.590909091 C32.1818182,0.5 31.4545455,0.5 30.3636364,0.590909091 L29.3636364,0.681818182 L28.3636364,0.590909091 C27.5454545,0.5 26.8181818,0.409090909 26.5454545,0.681818182 L26.4545455,0.954545455 L26.4545455,0.954545455 C26.4545455,1.22727273 26.7272727,1.31818182 26.9090909,1.31818182 C27.4545455,1.40909091 27.9090909,1.77272727 28.1818182,2.22727273 C28.3636364,2.5 28.5454545,2.95454545 28.9090909,3.86363636 L29.8181818,6.04545455 C29.8181818,6.13636364 26.6363636,14.0454545 26.4545455,14.4090909 C26,13.2272727 23.4545455,6.40909091 22.0909091,2.68181818 L22.0909091,2.31818182 L22.0909091,1.86363636 C22.0909091,1.22727273 22.3636364,1.22727273 22.6363636,1.22727273 C22.8181818,1.22727273 23,1.13636364 23.0909091,0.863636364 L23,0.681818182 C22.8181818,0.5 22.0909091,0.5 21,0.590909091 L20,0.681818182 L19,0.590909091 C18.4545455,0.5 18,0.5 17.4545455,0.590909091 C17.3636364,0.590909091 17.2727273,0.590909091 17.0909091,0.681818182 L16.2727273,0.772727273 L15.2727273,0.681818182 C14.6363636,0.590909091 14,0.5 13.8181818,0.772727273 L13.7272727,0.954545455 C13.7272727,1.31818182 14.0909091,1.40909091 14.4545455,1.40909091 C14.4545455,1.40909091 14.6363636,1.40909091 14.6363636,1.40909091 C15.4545455,1.5 16.4545455,1.59090909 16.4545455,6.68181818 L16.4545455,12.8636364 C16.4545455,16.0454545 14.4545455,17.9545455 10.9090909,18.0454545 C9.36363636,18.2272727 7.81818182,17.6818182 6.63636364,16.6818182 C5.09090909,15.2272727 4.90909091,12.6818182 4.90909091,10.2272727 L4.90909091,2.59090909 C4.81818182,1.95454545 5.18181818,1.40909091 5.81818182,1.31818182 C6.09090909,1.22727273 6.27272727,1.13636364 6.27272727,0.863636364 L6.09090909,0.590909091 C5.81818182,0.409090909 5.18181818,0.590909091 4.54545455,0.681818182 C4.18181818,0.772727273 3.72727273,0.863636364 3.27272727,0.863636364 C2.81818182,0.863636364 2.45454545,0.772727273 2,0.681818182 C1.18181818,0.590909091 0.454545455,0.5 0.0909090909,0.681818182 C0,0.772727273 0,0.863636364 0,0.954545455 C0,1.31818182 0.272727273,1.40909091 0.636363636,1.5 C1.27272727,1.68181818 2.09090909,1.86363636 2.09090909,3.86363636 L2.09090909,12.7727273 C2.09090909,14.3181818 2.72727273,15.8636364 3.81818182,16.9545455 C5.63636364,18.5 8,19.3181818 10.3636364,19.1363636 C16.2727273,18.9545455 17.4545455,15.2272727 17.4545455,12.2272727 L17.4545455,2.59090909 C17.4545455,1.86363636 17.6363636,1.59090909 17.9090909,1.5 C18.3636364,1.59090909 18.9090909,1.95454545 19.2727273,3.04545455 C19.2727273,3.13636364 22.9090909,12.0454545 23.7272727,14.4090909 L25.2727273,19.0454545 C25.2727273,19.1363636 25.3636364,19.2272727 25.5454545,19.2272727 C25.7272727,19.2272727 25.8181818,19.0454545 25.8181818,19.0454545 C26.4545455,16.8636364 29.7272727,8.68181818 30.2727273,7.31818182 C30.8181818,8.68181818 33.9090909,17.2272727 34.3636364,19.0454545 C34.3636364,19.2272727 34.4545455,19.3181818 34.6363636,19.3181818 C34.8181818,19.3181818 34.9090909,19.2272727 34.9090909,19.1363636 C34.9090909,19.1363636 35.4545455,17.5909091 35.4545455,17.5909091 L36.3636364,15.1363636 C36.3636364,15.1363636 37.1818182,13.0454545 37.1818182,12.9545455 C37.1818182,12.9545455 40.8181818,3.22727273 40.8181818,3.22727273 C41.5454545,1.40909091 42.2727273,1.40909091 42.6363636,1.31818182 C42.8181818,1.31818182 43.0909091,1.31818182 43.0909091,0.954545455 C43.0909091,0.772727273 43.0909091,0.681818182 43,0.681818182 L43,0.681818182 Z" id="Shape"></path>
        </g>
    </g>
</svg>