<?xml version="1.0" encoding="UTF-8"?>
<svg width="87px" height="35px" viewBox="0 0 87 35" version="1.1" xmlns="http://www.w3.org/2000/svg" xmlns:xlink="http://www.w3.org/1999/xlink">
    <!-- Generator: Sketch 57.1 (83088) - https://sketch.com -->
    <title>logo_Audere</title>
    <desc>Created with Sketch.</desc>
    <g id="logo_Audere" stroke="none" stroke-width="1" fill="none" fill-rule="evenodd">
        <g transform="translate(-0.000000, 2.500000)" fill-rule="nonzero" id="Page-1">
            <g>
                <g id="FluAtHome_LandingPage_Desktop-v1.2">
                    <g id="Group" transform="translate(0.000000, 0.167993)">
                        <g id="logo_Audere" transform="translate(0.000000, 0.351519)">
                            <path d="M80.486479,12.5830185 C81.1459896,12.8445809 78.6555425,14.7595911 78.6555425,14.7595911 L74.048308,14.5596827 C74.048308,14.5596827 79.6513477,12.2523289 80.486479,12.5830185 Z" id="Path" fill="#10656B"></path>
                            <ellipse id="Oval" fill="#7F1F4F" transform="translate(82.013815, 1.876360) rotate(-10.400000) translate(-82.013815, -1.876360) " cx="82.0138154" cy="1.87636018" rx="2.35219306" ry="1.4703542"></ellipse>
                            <polygon id="Path" fill="#10656B" points="77.5233506 5.24619389 77.3963062 5.28729655 77.5252195 5.2480622"></polygon>
                            <path d="M73.3626409,4.1326855 C74.4836225,4.12334399 75.8026442,4.44095545 77.0095677,4.73427896 C77.3925698,4.67262498 79.9521447,4.08224133 79.9988522,3.9159624 C80.3071219,2.95378652 73.8166385,3.97948468 73.3626409,4.1326855 Z" id="Path" fill="#10656B"></path>
                            <polygon id="Path" fill="#10656B" points="77.3477306 5.30597958 77.3477306 5.30597958 77.4037797 5.28729655"></polygon>
                            <path d="M86.560331,10.6493252 C87.2291832,6.83611946 85.3104363,5.35268714 83.5953344,4.77164502 C80.1632624,3.60769245 76.6340391,5.54699062 76.3182959,5.64974727 C74.8236535,6.13550596 70.3397272,8.07854071 70.3397272,8.07854071 C72.044092,7.65798879 73.7749892,7.35338086 75.5205305,7.16680903 C76.9105475,7.02855464 78.362219,6.97997877 79.5840888,7.16680903 C81.5532795,7.47321067 82.9208777,8.38120574 82.4313819,10.462495 C81.4449184,14.6437563 73.0506343,20.4765973 73.0506343,20.4765973 C73.0506343,20.4765973 85.226363,18.240239 86.560331,10.6493252 Z" id="Path" fill="#10656B"></path>
                            <path d="M10.8249457,25.8255478 L10.8249457,26.5298979 L7.01173992,26.5298979 C7.03789616,26.3953801 7.11823317,25.6686103 7.11823317,25.5359609 L7.17241394,24.4878431 C6.33915096,26.1001883 5.10420289,26.6625474 3.43580861,26.6625474 C1.20879183,26.6569425 0,25.6630054 0,23.6228189 C0,20.8820189 2.20272884,19.5928901 7.17241394,19.5928901 L7.17241394,18.0347257 C7.17241394,16.3532533 6.42509288,15.6993473 4.67449327,15.6993473 C3.03599184,15.6993473 2.63243846,16.2598381 2.63243846,16.8203289 C2.63243846,17.2500386 2.8734495,17.3808198 2.8734495,17.8422905 C2.8734495,18.4588304 2.41758365,18.7558905 1.82720001,18.7558905 C1.04811779,18.7558905 0.644564421,18.2178193 0.644564421,17.4929179 C0.644564421,16.0150905 2.3110904,14.9669727 4.99584134,14.9669727 C7.89731539,14.9669727 9.47976778,16.1757645 9.47976778,18.7558905 L9.47976778,25.3622087 C9.47976778,25.7115813 9.58812926,25.8741236 9.82914034,25.8741236 L10.8249457,25.8255478 Z M7.17241394,22.1711478 L7.17241394,20.3177915 C3.78704951,20.3177915 2.44373989,21.2519428 2.44373989,23.4079641 C2.44373989,24.938104 3.11632885,25.69103 4.24478366,25.69103 C5.80107979,25.69103 7.06405239,24.2673833 7.17241394,22.1711478 Z" id="Shape" fill="#7F1F4F"></path>
                            <path d="M24.4971846,25.8255478 L24.4971846,26.5298979 L20.6821106,26.5298979 C20.7624476,26.3430676 20.8166283,25.9918267 20.8166283,24.5943363 L20.8166283,24.246832 C20.0917269,25.9114897 18.5877433,26.7970652 16.5998692,26.7970652 C14.2084418,26.7970652 13.2145047,25.5621171 13.2145047,22.5541498 L13.2145047,16.4242487 C13.2145047,16.0748762 13.1080115,15.8861776 12.8670005,15.8861776 L11.8992197,15.9403584 L11.8992197,15.2416132 L15.5255951,15.2416132 L15.5255951,22.5485449 C15.5255951,24.8035862 15.7666062,25.9114897 17.1640966,25.9114897 C19.1781269,25.9114897 20.629798,24.2729883 20.8166283,21.5321883 L20.8446529,16.4560099 C20.8446529,16.0823494 20.7362913,15.8955191 20.5214365,15.8955191 L19.2584639,15.9496999 L19.2584639,15.2416132 L23.1818995,15.2416132 L23.1818995,25.3678136 C23.1818995,25.7171862 23.2902611,25.8797285 23.5312721,25.8797285 L24.4971846,25.8255478 Z" id="Shape" fill="#7F1F4F"></path>
                            <path d="M31.4528755,14.9725776 C33.1717139,14.9725776 34.1936754,15.9665146 34.5430481,17.1753065 L34.5430481,8.06919922 C34.5430481,7.77400743 34.4346865,7.53299636 34.1936754,7.53299636 L32.9568591,7.58717714 L32.9568591,6.91271987 L36.8802947,6.91271987 L36.8802947,25.3659453 C36.8802947,25.7153179 36.9867879,25.8778603 37.227799,25.8778603 L38.221736,25.8236795 L38.221736,26.5298979 L34.3543495,26.5298979 C34.3903776,26.3895039 34.4085811,26.2451314 34.4085303,26.1001883 L34.4085303,25.5023314 C34.4085303,25.1529589 34.4627111,24.8035862 34.4627111,24.7232492 C34.0591576,25.9862218 33.1997384,26.7914603 31.4734268,26.7914603 C27.7125335,26.7914603 26.3692239,24.8035862 26.3692239,20.9100435 C26.3692239,17.0165007 28.0955355,14.9725776 31.4528755,14.9725776 Z M31.4809,26.0665588 C33.7097851,26.0665588 34.4888673,24.616756 34.4888673,21.5826324 L34.4888673,20.4616508 C34.4888673,17.5620451 33.5752673,15.6937424 31.4528755,15.6937424 C29.4126889,15.6937424 28.8484615,17.7881097 28.8484615,20.9044386 C28.8484615,24.7232492 29.4126889,26.0665588 31.4809,26.0665588 Z" id="Shape" fill="#7F1F4F"></path>
                            <path d="M49.8836812,20.0506242 L49.8836812,20.8297064 L42.1433033,20.8297064 C42.1433033,24.0786848 43.2642849,25.8741236 45.5286677,25.9058848 C47.1005259,25.9376064 48.5347065,25.0132581 49.1550432,23.5686381 L49.7715831,24.024504 C49.0466817,25.771367 47.1391446,26.7914603 45.1512706,26.7914603 C41.364221,26.7914603 39.6995634,24.697093 39.6995634,20.9100435 C39.6995634,17.0146324 41.5529197,14.9725776 45.0989581,14.9725776 C47.9182269,14.9725776 49.7996076,16.8539584 49.8836812,20.0506242 Z M42.1750645,20.1571175 L47.0625443,20.1571175 C47.3857606,20.1571175 47.6006154,19.9964434 47.6006154,19.271542 C47.6006154,16.8801146 46.9280264,15.6993359 45.1026947,15.6993359 C42.9485418,15.6937424 42.1713278,17.7488754 42.1713278,20.1571175 L42.1750645,20.1571175 Z" id="Shape" fill="#7F1F4F"></path>
                            <path d="M60.7310465,17.0688132 C60.7310465,17.9282324 60.2471562,18.3317858 59.6100649,18.3317858 C59.1803554,18.3317858 58.6161279,18.1150627 58.6161279,17.4985228 C58.6161279,17.0146324 58.8309827,16.7512017 58.8309827,16.2897309 C58.8309827,16.0468516 58.6964649,15.7292402 58.2125746,15.7292402 C56.4414236,15.7292402 55.4736429,18.7372075 55.3933058,20.7250815 L55.3933058,25.3715502 C55.3933058,25.7209229 55.4997991,25.8834652 55.7426784,25.8834652 L57.3811799,25.8292844 L57.3811799,26.5298979 L51.8678187,26.5298979 L51.8678187,25.8311527 L52.7272379,25.8853334 C52.9682489,25.8853334 53.0747422,25.7227911 53.0747422,25.3734185 L53.0747422,16.4242487 C53.0747422,16.0748762 52.9682489,15.8861776 52.7272379,15.8861776 L51.7594571,15.9403584 L51.7594571,15.2416132 L55.5465066,15.2416132 C55.4391237,15.644455 55.3851039,16.0596535 55.3858326,16.4765613 L55.3858326,17.7843731 C56.2452518,15.716162 57.2653451,14.963236 58.5283177,14.963236 C59.9725156,14.9725776 60.7310465,15.9142022 60.7310465,17.0688132 Z" id="Path" fill="#7F1F4F"></path>
                            <path d="M71.9857018,20.0506242 L71.9857018,20.8297064 L64.2490605,20.8297064 C64.2490605,24.0786848 65.3700421,25.8741236 67.6344249,25.9058848 C69.2064292,25.938122 70.640873,25.0136042 71.2608004,23.5686381 L71.8792085,24.024504 C71.1524389,25.771367 69.2467701,26.7914603 67.2588961,26.7914603 C63.4699782,26.7914603 61.8053206,24.697093 61.8053206,20.9100435 C61.8053206,17.0146324 63.6586768,14.9725776 67.2047153,14.9725776 C70.0258523,14.9725776 71.9053648,16.8539584 71.9857018,20.0506242 Z M64.277085,20.1571175 L69.1645648,20.1571175 C69.4877811,20.1571175 69.702636,19.9964434 69.702636,19.271542 C69.702636,16.8801146 69.0319153,15.6993359 67.2047153,15.6993359 C65.0561672,15.6937424 64.2696118,17.7488754 64.2696118,20.1571175 L64.277085,20.1571175 Z" id="Shape" fill="#7F1F4F"></path>
                        </g>
                    </g>
                </g>
            </g>
        </g>
    </g>
</svg>