<?xml version="1.0" encoding="UTF-8"?>
<svg width="157px" height="26px" viewBox="0 0 157 26" version="1.1" xmlns="http://www.w3.org/2000/svg" xmlns:xlink="http://www.w3.org/1999/xlink">
    <!-- Generator: Sketch 55.2 (78181) - https://sketchapp.com -->
    <title>logo_SeattleChildrens</title>
    <desc>Created with Sketch.</desc>
    <g id="Page-1" stroke="none" stroke-width="1" fill="none" fill-rule="evenodd" fill-opacity="0.7">
        <g id="logo_SeattleChildrens" fill="#FFFFFF" fill-rule="nonzero">
            <path d="M15.2125632,19.4488087 C15.203288,19.247047 15.3179906,19.0600282 15.5020356,18.9768338 C15.6860805,18.8936395 15.9022517,18.9310924 16.0475818,19.0713528 C16.1929119,19.2116133 16.2380135,19.4263191 16.1614037,19.6132007 C16.0847938,19.8000824 15.9019638,19.9213504 15.7,19.919242 C15.4360913,19.9224196 15.2187541,19.7126639 15.2125632,19.4488087 M25.6924549,12.0068954 C25.6924549,11.7121661 25.6357762,11.2190615 25.6357762,11.2190615 C24.9133619,4.57500467 19.1187094,-0.342432702 12.44564,0.025695023 C5.77257066,0.393822749 0.553987296,5.91881823 0.566787004,12.6020217 C0.535375277,15.0162136 1.22618563,17.3847062 2.55054152,19.4034658 C2.63555957,19.5338268 2.77158845,19.5281589 2.77725632,19.3694586 C2.77725632,19.3694586 2.77725632,19.2731048 2.77725632,19.2731048 C2.79455657,18.9817553 2.88416167,18.6993044 3.03797834,18.4512636 C3.18968518,18.2126708 3.4005678,18.0174091 3.6501083,17.8844766 C3.80665174,17.799263 3.98198337,17.7544561 4.16021661,17.7541156 C4.32846902,17.7649928 4.48905685,17.8284349 4.61931408,17.9354874 C4.91971119,18.1792059 5.41848375,18.6496391 5.70187726,18.870686 C6.19903035,19.2745674 6.74802361,19.6100632 7.33422383,19.8682311 C7.94122226,20.1410322 8.56614173,20.3720631 9.20462094,20.5597113 C9.20462094,20.6617329 8.83620939,21.4042239 7.07916968,20.6333936 C6.44539168,20.3402216 5.84966165,19.9709832 5.30512635,19.5338268 C5.00472924,19.3014441 4.8233574,19.0803972 4.47761733,18.8196752 C4.20080367,18.6720831 3.8589531,18.7329606 3.6501083,18.9670398 C3.12866426,19.4771481 3.04364621,20.6674008 5.10108303,22.2940795 C5.6300477,22.7206003 6.18464874,23.1143102 6.76176895,23.4729965 C10.2172311,25.5005866 14.4317308,25.7614203 18.1108386,24.1753856 C21.7899465,22.589351 24.4938418,19.3460514 25.3920578,15.4416246 C25.4933679,14.9572533 25.5371246,14.4626128 25.5224188,13.9679784 C25.5224188,13.8829604 25.4770758,13.8206138 25.3920578,13.7979423 C25.4203971,13.7979423 24.7232491,13.6222384 23.8220578,14.6934658 C23.4026354,15.163899 23.0512274,15.9403972 22.5354513,16.6715524 C22.0155043,17.4481699 21.4315714,18.1799819 20.7897473,18.8593503 C19.4918051,20.2139712 17.8197834,21.443899 16.2951264,21.4212275 C15.7977169,21.4736516 15.309918,21.2578114 15.0141877,20.8544405 C14.7761372,20.5030326 14.9008303,20.395343 15.0141877,20.4916968 C15.0756372,20.560847 15.1440085,20.6235207 15.218231,20.6787365 C15.5235413,20.8815267 15.8922692,20.9661528 16.2554513,20.9167871 C17.6100722,20.8657763 19.1744043,19.6925272 20.3816606,18.3379062 C20.9757399,17.6587866 21.5140454,16.9328323 21.9913357,16.167112 C22.4731047,15.4529604 22.7735018,14.6991337 23.2779422,14.0870037 C23.7141494,13.5064372 24.3744723,13.1361627 25.0973285,13.0667871 C25.1624991,13.082467 25.2300413,13.0521895 25.2616968,12.9931048 C25.2809679,12.9537741 25.2809679,12.9077423 25.2616968,12.8684116 C22.6034657,8.1470759 16.7938989,15.3962817 12.4239711,15.8100362 C6.61440433,16.3768232 5.36180505,11.9105416 5.70187726,9.40534304 C6.18931408,5.92527084 8.9665704,3.09133582 13.2628159,2.80794232 C18.6869675,2.45653438 21.2998556,5.75523474 21.6115884,6.73577626 C21.852297,7.31939287 21.9019028,7.96426923 21.7532852,8.57783402 C21.6002527,9.42234665 20.3986643,10.6182672 19.8602166,11.1170398 C19.7355235,11.2474008 19.8998917,11.2077257 19.9509025,11.1907221 C20.4909656,10.9257533 21.0453888,10.6911169 21.6115884,10.4879062 C22.025343,10.3518773 22.461769,10.2328521 22.677148,10.1308304 C22.8144802,10.0506008 22.9452492,9.959631 23.068231,9.8587726 C23.173308,9.7712513 23.3258978,9.7712513 23.4309747,9.8587726 C23.5670036,9.9607943 23.5613357,10.1421661 23.6690253,10.278195 C23.7602228,10.38754 23.8718902,10.4780291 23.9977617,10.5445849 C24.6375313,10.9214132 25.1885049,11.4317887 25.6131047,12.0409026 L25.6131047,12.0409026 C25.686787,12.1712636 25.6924549,12.0409026 25.6924549,12.0125633" id="Shape"></path>
            <path d="M14.1696751,7.36490983 L14.1696751,7.36490983 L14.1696751,7.36490983 C14.1605471,7.58988433 13.9754122,7.7675137 13.7502527,7.7673286 C13.5919216,7.78595568 13.436973,7.71195998 13.3519341,7.57711159 C13.2668952,7.4422632 13.2668952,7.27055285 13.3519341,7.13570446 C13.436973,7.00085607 13.5919216,6.92686037 13.7502527,6.94548745 C13.9818933,6.94548745 14.1696751,7.13326924 14.1696751,7.36490983 M19.45213,5.84592066 C18.8163954,5.246631 18.0820252,4.76152487 17.2813357,4.41194954 C16.154765,4.01012537 14.9689614,3.79940099 13.7729242,3.78848384 C12.434203,3.81108009 11.1211147,4.15929165 9.94711191,4.80303257 C8.5318977,5.63000191 7.48276491,6.96268411 7.01115523,8.53249106 C6.43999346,10.2128202 6.82152761,12.0706314 8.00870036,13.3898557 C8.95474484,14.3483863 10.2692894,14.8506415 11.6134657,14.7671481 C12.7435771,14.7168541 13.8436991,14.387791 14.8158123,13.8092781 C14.8158123,13.8092781 18.318556,11.9842239 19.1120578,11.587473 C19.1687365,11.54213 19.1120578,11.5137907 19.0667148,11.502455 C18.4205776,11.4627799 17.4116968,11.502455 17.2586643,11.502455 C16.880372,11.4826284 16.5010707,11.495904 16.1250903,11.54213 C15.8710963,11.5586903 15.6307144,11.6628558 15.4449458,11.8368593 C15.3752494,11.9198423 15.2994681,11.9975181 15.218231,12.069242 C15.1284876,12.1800484 14.9814251,12.226841 14.8441516,12.1882672 C14.7194585,12.1882672 14.6627798,12.0579062 14.5267509,11.8595308 C14.4119603,11.6999851 14.2576584,11.5730278 14.0789892,11.4911192 C13.7290168,11.3535466 13.3554055,11.2861425 12.9794224,11.2927438 C12.5072819,11.2921068 12.0382153,11.3686891 11.5907942,11.5194586 L11.5907942,11.5194586 C11.4150903,11.5648015 11.5171119,11.6158124 11.5907942,11.6441517 L11.6588087,11.6441517 C11.8154571,11.7125648 11.9520268,11.8198697 12.0555596,11.9558846 C12.2116125,12.2048925 12.2470137,12.5110086 12.1519134,12.7890615 C12.0677336,12.9727369 11.9239148,13.1225482 11.7438267,13.2141517 C11.5183356,13.2960578 11.2733564,13.3079116 11.0410108,13.2481589 C10.6808271,13.1562977 10.3885662,12.8936864 10.2588448,12.545343 C10.1711815,12.2900475 10.1711815,12.0128046 10.2588448,11.7575091 C10.292852,11.6724911 10.1851625,11.717834 10.1851625,11.717834 L10.0207942,11.7801806 C9.79767371,11.8509921 9.55810247,11.8509921 9.33498195,11.7801806 L9.33498195,11.7801806 C9.11327804,11.702557 8.92116393,11.5579762 8.78519856,11.3664261 C8.70584209,11.2492124 8.63933381,11.1237968 8.5868231,10.9923467 C8.57239046,10.9385077 8.57239046,10.8818174 8.5868231,10.8279784 C8.61398243,10.7554724 8.66627797,10.6951313 8.73418773,10.6579423 C8.88866978,10.5888431 9.03826943,10.5093091 9.18194946,10.4198918 C9.43364532,10.2694357 9.66588191,10.0885957 9.8734296,9.8814441 C10.0663381,9.6917717 10.2237416,9.4691033 10.3381949,9.2239712 C10.4968953,9.2239712 10.6782671,9.6660651 10.2701805,10.1308304 C10.1083059,10.3223481 9.91698433,10.4868847 9.7033935,10.6182672 C9.60217718,10.6880846 9.49610754,10.7505899 9.38599278,10.8053069 C9.28963899,10.8506499 9.14227437,10.9300001 9.22729242,11.0716968 C9.4408706,11.3891933 9.84846319,11.512419 10.2021661,11.3664261 C10.4535435,11.2962683 10.6953084,11.1953743 10.9219856,11.066029 C11.2223827,10.8959929 11.3640794,10.8223106 11.4320939,10.7883033 C11.4636895,10.7668525 11.4979974,10.7496985 11.5341155,10.7372925 C12.1724505,10.5246425 12.8505414,10.4587708 13.51787,10.5445849 C14.8338395,10.7996493 16.1800531,10.860754 17.5137184,10.7259568 C18.2973118,10.6472877 19.0404361,10.339788 19.6505054,9.841769 C19.7824704,9.740753 19.907449,9.6309233 20.0245848,9.5130326 C20.0245848,9.38267156 19.7525271,9.28631777 19.2140794,9.31465712 C18.4545848,9.35433221 17.4400361,9.5527077 16.3801444,9.5583755 C15.4071207,9.6396005 14.4298367,9.46368933 13.5462094,9.04826723 C13.2328168,8.86534156 13.001547,8.56915388 12.9000722,8.22075821 C12.8320578,7.96003618 12.9397473,7.85234665 12.9624188,7.86368239 C13.1017144,8.22160604 13.3737868,8.51195191 13.7219134,8.67418781 C14.5790505,9.00973707 15.5071858,9.12282919 16.4198195,9.00292427 C17.4230325,8.9405777 18.318556,8.78754521 19.100722,8.7138629 C19.4887987,8.63935537 19.8907259,8.70567336 20.234296,8.90090261 C20.2686274,8.9380478 20.3169103,8.95916941 20.367491,8.95916941 C20.4180717,8.95916941 20.4663546,8.9380478 20.5006859,8.90090261 L20.6027076,8.73086651 C20.976787,8.06772571 20.4723466,6.79245496 19.4691336,5.89693149" id="Shape"></path>
            <polygon id="Path" points="32.6129242 19.4771481 33.1797112 19.4771481 33.1797112 20.8147654 34.715704 20.8147654 34.715704 19.4771481 35.282491 19.4771481 35.282491 22.7021661 34.715704 22.7021661 34.715704 21.3362095 33.1740433 21.3362095 33.1740433 22.7021661 32.6072563 22.7021661"></polygon>
            <path d="M37.0281949,21.0924911 L37.0281949,21.0924911 C37.1559932,20.2631938 37.8696318,19.6511058 38.7087184,19.6511058 C39.547805,19.6511058 40.2614437,20.2631938 40.3892419,21.0924911 L40.3892419,21.0924911 C40.3924852,21.5413626 40.2132596,21.9722982 39.8926615,22.2864844 C39.5720633,22.6006706 39.1375953,22.7711547 38.6888809,22.7588448 C38.2446277,22.7682691 37.8158567,22.5955463 37.5021874,22.2808064 C37.188518,21.9660665 37.0172571,21.5367095 37.0281949,21.0924911 L37.0281949,21.0924911 Z M39.7941155,21.0924911 L39.7941155,21.0924911 C39.7941155,20.4914776 39.3068979,20.00426 38.7058845,20.00426 C38.1048711,20.00426 37.6176534,20.4914776 37.6176534,21.0924911 L37.6176534,21.0924911 C37.608476,21.3889799 37.7194784,21.6765997 37.9254594,21.8900515 C38.1314404,22.1035034 38.4149247,22.224678 38.7115523,22.2260664 C39.0077267,22.2263941 39.2911029,22.1053632 39.4956552,21.8911724 C39.7002074,21.6769815 39.8080716,21.3883366 39.7941155,21.0924911 L39.7941155,21.0924911 Z" id="Shape"></path>
            <path d="M41.8968953,22.2203972 L42.2369675,21.8179784 C42.5097963,22.0812771 42.8724079,22.2311836 43.2515162,22.2374008 C43.6029242,22.2374008 43.8183032,22.0730326 43.8183032,21.834982 L43.8183032,21.834982 C43.8183032,21.6025994 43.6879422,21.4835741 43.0928159,21.3418773 C42.4070036,21.1775091 42.0215884,20.9734658 42.0215884,20.3840073 L42.0215884,20.3840073 C42.0337548,20.1109168 42.1593693,19.8553024 42.3681313,19.6788232 C42.5768932,19.5023441 42.8498486,19.4210231 43.1211552,19.4544766 C43.5455948,19.4469332 43.9590767,19.5894439 44.2887365,19.8568954 L43.9826715,20.2819856 C43.7356154,20.0797014 43.4289366,19.964199 43.1098195,19.9532492 C42.781083,19.9532492 42.5883755,20.1232853 42.5883755,20.3329965 L42.5883755,20.3329965 C42.5883755,20.5823828 42.7357401,20.6900723 43.34787,20.8374369 C43.96,20.9848015 44.3850903,21.2455235 44.3850903,21.7783033 L44.3850903,21.7783033 C44.3850903,22.3790976 43.9089892,22.7361734 43.2515162,22.7361734 C42.7509807,22.7418387 42.2669104,22.5575274 41.8968953,22.2203972 Z" id="Path"></path>
            <path d="M46.1988087,19.4771481 L47.4684116,19.4771481 C47.7771971,19.4363799 48.0885816,19.5305845 48.322983,19.7356858 C48.5573845,19.9407871 48.6920897,20.2369108 48.6926715,20.5483755 L48.6926715,20.5483755 C48.6859425,20.8715642 48.5415537,21.1765064 48.295812,21.3865235 C48.0500703,21.5965407 47.7263549,21.6916523 47.406065,21.6479423 L46.7655957,21.6479423 L46.7655957,22.7021661 L46.1988087,22.7021661 L46.1988087,19.4771481 Z M47.4230686,21.1491698 C47.8481588,21.1491698 48.1145487,20.9111192 48.1145487,20.5823828 L48.1145487,20.5823828 C48.1145487,20.2083033 47.8481588,20.0155958 47.4230686,20.0155958 L46.7655957,20.0155958 L46.7655957,21.1491698 L47.4230686,21.1491698 Z" id="Shape"></path>
            <polygon id="Path" points="50.4440433 19.4771481 51.0108303 19.4771481 51.0108303 22.7021661 50.4440433 22.7021661"></polygon>
            <polygon id="Path" points="53.8107581 19.9985921 52.7905415 19.9985921 52.7905415 19.4771481 55.3977617 19.4771481 55.3977617 19.9985921 54.3775451 19.9985921 54.3775451 22.7021661 53.8107581 22.7021661"></polygon>
            <path d="M57.8689531,19.4544766 L58.3790614,19.4544766 L59.7960289,22.6908304 L59.1952347,22.6908304 L58.8721661,21.9143322 L57.3531769,21.9143322 L57.0301083,22.7021661 L56.4633213,22.7021661 L57.8689531,19.4544766 Z M58.6794585,21.4155596 L58.1126715,20.1289532 L57.5458845,21.4155596 L58.6794585,21.4155596 Z" id="Shape"></path>
            <polygon id="Path" points="61.5020578 19.4771481 62.0688448 19.4771481 62.0688448 22.1750542 63.7692058 22.1750542 63.7692058 22.7021661 61.5020578 22.7021661"></polygon>
            <path d="M66.812852,21.0641517 L66.812852,21.0641517 C66.8391403,20.8257372 67.0405918,20.6452774 67.2804512,20.6452774 C67.5203107,20.6452774 67.7217622,20.8257372 67.7480505,21.0641517 L67.7480505,21.0641517 C67.7217622,21.3025662 67.5203107,21.483026 67.2804512,21.483026 C67.0405918,21.483026 66.8391403,21.3025662 66.812852,21.0641517 L66.812852,21.0641517 Z" id="Path"></path>
            <path d="M71.2564621,19.4771481 L72.6904332,19.4771481 C73.0290991,19.4576766 73.3615672,19.5739384 73.614296,19.8002167 C73.7928159,19.9852864 73.8888975,20.2346896 73.8806859,20.4916968 L73.8806859,20.4916968 C73.9013694,20.9622049 73.5769496,21.3779429 73.1155235,21.4722384 L73.9827076,22.7021661 L73.3195668,22.7021661 L72.5487365,21.5685921 L71.8402527,21.5685921 L71.8402527,22.7021661 L71.2734657,22.7021661 L71.2564621,19.4771481 Z M72.6450903,21.0698196 C73.0531769,21.0698196 73.308231,20.8601084 73.308231,20.5313719 L73.308231,20.5313719 C73.308231,20.1856319 73.0588448,19.9985921 72.6394224,19.9985921 L71.8175812,19.9985921 L71.8175812,21.0754874 L72.6450903,21.0698196 Z" id="Shape"></path>
            <polygon id="Path" points="75.7227437 19.4771481 78.1032491 19.4771481 78.1032491 19.9815885 76.2895307 19.9815885 76.2895307 20.8204333 77.8992058 20.8204333 77.8992058 21.3248737 76.2895307 21.3248737 76.2895307 22.18639 78.1315884 22.18639 78.1315884 22.7021661 75.7227437 22.7021661"></polygon>
            <path d="M79.7299278,22.2203972 L80.07,21.8179784 C80.3421909,22.0822495 80.7052054,22.2323226 81.0845487,22.2374008 C81.4359567,22.2374008 81.6513357,22.0730326 81.6513357,21.834982 L81.6513357,21.834982 C81.6513357,21.6025994 81.5209747,21.4835741 80.9258484,21.3418773 C80.2400361,21.1775091 79.8546209,20.9734658 79.8546209,20.3840073 L79.8546209,20.3840073 C79.8667873,20.1109168 79.9924018,19.8553024 80.2011638,19.6788232 C80.4099257,19.5023441 80.6828811,19.4210231 80.9541877,19.4544766 C81.3673797,19.4525113 81.7682981,19.5948373 82.0877617,19.8568954 L81.7873646,20.2819856 C81.5403085,20.0797014 81.2336297,19.964199 80.9145126,19.9532492 C80.5857762,19.9532492 80.3874007,20.1232853 80.3874007,20.3329965 L80.3874007,20.3329965 C80.3874007,20.5823828 80.5347653,20.6900723 81.1525632,20.8374369 C81.770361,20.9848015 82.1841155,21.2455235 82.1841155,21.7783033 L82.1841155,21.7783033 C82.1841155,22.3790976 81.7136823,22.7361734 81.0505415,22.7361734 C80.5617294,22.7333273 80.0912825,22.5495905 79.7299278,22.2203972 L79.7299278,22.2203972 Z" id="Path"></path>
            <polygon id="Path" points="84.0318412 19.4771481 86.4180144 19.4771481 86.4180144 19.9815885 84.5986282 19.9815885 84.5986282 20.8204333 86.2083032 20.8204333 86.2083032 21.3248737 84.5986282 21.3248737 84.5986282 22.18639 86.4406859 22.18639 86.4406859 22.7021661 84.0318412 22.7021661"></polygon>
            <path d="M89.3936462,19.4544766 L89.9207581,19.4544766 L91.3320578,22.7021661 L90.7652708,22.7021661 L90.4422022,21.925668 L88.9175451,21.925668 L88.5604693,22.7021661 L87.9936823,22.7021661 L89.3936462,19.4544766 Z M90.2041516,21.4155596 L89.6373646,20.1289532 L89.0705776,21.4155596 L90.2041516,21.4155596 Z" id="Shape"></path>
            <path d="M93.0324188,19.4771481 L94.4663899,19.4771481 C94.8050558,19.4576766 95.1375238,19.5739384 95.3902527,19.8002167 C95.5702899,19.9847117 95.6683648,20.2339855 95.6623105,20.4916968 L95.6623105,20.4916968 C95.6768218,20.9597536 95.3507922,21.3696879 94.8914801,21.4609026 L95.7870036,22.7021661 L95.1238628,22.7021661 L94.330361,21.5685921 L93.6275451,21.5685921 L93.6275451,22.7021661 L93.0607581,22.7021661 L93.0324188,19.4771481 Z M94.4210469,21.0698196 C94.8291336,21.0698196 95.0841877,20.8601084 95.0841877,20.5313719 L95.0841877,20.5313719 C95.0841877,20.1856319 94.8348014,19.9985921 94.4210469,19.9985921 L93.5992058,19.9985921 L93.5992058,21.0754874 L94.4210469,21.0698196 Z" id="Shape"></path>
            <path d="M97.3570036,21.0924911 L97.3570036,21.0924911 C97.3476872,20.6502473 97.5188736,20.2232802 97.8311214,19.909963 C98.1433693,19.5966458 98.5697486,19.4240007 99.0120217,19.4318051 C99.4843412,19.4151837 99.9422699,19.595891 100.275957,19.9305777 L99.913213,20.3500001 C99.6773084,20.1034848 99.3531436,19.9607707 99.0120217,19.9532492 C98.7192771,19.9574646 98.4408671,20.0806904 98.2409111,20.2945472 C98.040955,20.5084039 97.9366904,20.7944557 97.95213,21.0868232 L97.95213,21.0868232 C97.9398796,21.3783579 98.0452209,21.6625995 98.2445056,21.8757383 C98.4437904,22.0888771 98.7203221,22.2130557 99.0120217,22.2203972 C99.3638701,22.2158434 99.6982009,22.0661124 99.9358845,21.8066427 L100.298628,22.1693864 C99.9702191,22.5463819 99.4889847,22.7547085 98.9893502,22.7361734 C98.5530381,22.740834 98.1333983,22.568786 97.8259309,22.2591834 C97.5184635,21.9495808 97.3493237,21.5287605 97.3570036,21.0924911 L97.3570036,21.0924911 Z" id="Path"></path>
            <polygon id="Path" points="102.021661 19.4771481 102.588448 19.4771481 102.588448 20.8147654 104.12444 20.8147654 104.12444 19.4771481 104.691227 19.4771481 104.691227 22.7021661 104.12444 22.7021661 104.12444 21.3362095 102.588448 21.3362095 102.588448 22.7021661 102.021661 22.7021661"></polygon>
            <path d="M108.403682,21.0641517 L108.403682,21.0641517 C108.403663,20.8096661 108.608313,20.6024898 108.86278,20.5993864 C109.120395,20.5993677 109.330109,20.8065548 109.333213,21.0641517 L109.333213,21.0641517 C109.333213,21.3208345 109.12513,21.528917 108.868448,21.528917 C108.611765,21.528917 108.403682,21.3208345 108.403682,21.0641517 L108.403682,21.0641517 Z" id="Path"></path>
            <polygon id="Path" points="112.841625 19.4771481 115.233466 19.4771481 115.233466 19.9929243 113.408412 19.9929243 113.408412 20.8714441 115.057762 20.8714441 115.057762 21.3815524 113.436751 21.3815524 113.436751 22.7021661 112.869964 22.7021661"></polygon>
            <path d="M116.758123,21.0924911 L116.758123,21.0924911 C116.754826,20.6441095 116.934226,20.2137111 117.255009,19.9004134 C117.575792,19.5871157 118.010305,19.4179252 118.458484,19.4318051 C118.907033,19.4130503 119.343507,19.579861 119.665218,19.8929923 C119.986928,20.2061235 120.165472,20.6379304 120.158845,21.0868232 L120.158845,21.0868232 C120.162088,21.5356947 119.982863,21.9666303 119.662264,22.2808165 C119.341666,22.5950027 118.907198,22.7654869 118.458484,22.753177 C118.008934,22.7719995 117.571551,22.6044271 117.249659,22.2900464 C116.927768,21.9756658 116.749917,21.5423599 116.758123,21.0924911 Z M119.529711,21.0924911 L119.529711,21.0924911 C119.529711,20.4914776 119.042494,20.00426 118.44148,20.00426 C117.840467,20.00426 117.353249,20.4914776 117.353249,21.0924911 L117.353249,21.0924911 C117.344072,21.3889799 117.455074,21.6765997 117.661055,21.8900515 C117.867036,22.1035034 118.15052,22.224678 118.447148,22.2260651 C118.74135,22.2233117 119.021759,22.1009323 119.223836,21.8870937 C119.425914,21.673255 119.532252,21.3863783 119.518375,21.0924911 L119.529711,21.0924911 Z" id="Shape"></path>
            <path d="M121.813863,21.3248737 L121.813863,19.4771481 L122.38065,19.4771481 L122.38065,21.3022022 C122.38065,21.9029965 122.692383,22.2203972 123.196823,22.2203972 C123.701264,22.2203972 124.001661,21.9200001 124.001661,21.3248737 L124.001661,19.4771481 L124.568448,19.4771481 L124.568448,21.3022022 C124.61582,21.6864983 124.487599,22.0716936 124.219356,22.3509303 C123.951113,22.6301671 123.571375,22.7737477 123.185487,22.7418412 C122.80426,22.7753551 122.428256,22.6351182 122.162083,22.3601466 C121.895911,22.085175 121.767972,21.7048096 121.813863,21.3248737 Z" id="Path"></path>
            <polygon id="Path" points="126.484188 19.4771481 127.005632 19.4771481 128.705993 21.6989532 128.705993 19.4771481 129.27278 19.4771481 129.27278 22.7021661 128.802347 22.7021661 127.028303 20.4350181 127.028303 22.7021661 126.461516 22.7021661"></polygon>
            <path d="M131.262202,19.4771481 L132.458123,19.4771481 C132.898983,19.4506168 133.331275,19.6070387 133.65308,19.9095345 C133.974884,20.2120303 134.157721,20.6338304 134.158484,21.0754874 L134.158484,21.0754874 C134.157544,21.5180637 133.975057,21.9408709 133.653654,22.2451321 C133.332251,22.5493934 132.900087,22.7084571 132.458123,22.6851625 L131.262202,22.6851625 L131.262202,19.4771481 Z M132.458123,22.1750542 C132.756644,22.1995316 133.051383,22.0951769 133.267995,21.8883121 C133.484607,21.6814472 133.602413,21.3918222 133.591697,21.0924911 L133.591697,21.0924911 C133.602237,20.7927267 133.484588,20.5026649 133.268208,20.2949402 C133.051828,20.0872156 132.757207,19.9814979 132.458123,20.00426 L131.823321,20.00426 L131.823321,22.18639 L132.458123,22.1750542 Z" id="Shape"></path>
            <path d="M136.918736,19.4544766 L137.440181,19.4544766 L138.862816,22.7021661 L138.262022,22.7021661 L137.938953,21.925668 L136.414296,21.925668 L136.079892,22.7021661 L135.513105,22.7021661 L136.918736,19.4544766 Z M137.729242,21.4155596 L137.162455,20.1289532 L136.595668,21.4155596 L137.729242,21.4155596 Z" id="Shape"></path>
            <polygon id="Path" points="140.931588 19.9985921 139.911372 19.9985921 139.911372 19.4771481 142.518592 19.4771481 142.518592 19.9985921 141.498375 19.9985921 141.498375 22.7021661 140.931588 22.7021661"></polygon>
            <polygon id="Path" points="144.292635 19.4771481 144.859422 19.4771481 144.859422 22.7021661 144.292635 22.7021661"></polygon>
            <path d="M146.644801,21.0924911 L146.644801,21.0924911 C146.7726,20.2631938 147.486238,19.6511058 148.325325,19.6511058 C149.164411,19.6511058 149.87805,20.2631938 150.005848,21.0924911 L150.005848,21.0924911 C150.009092,21.5413626 149.829866,21.9722982 149.509268,22.2864844 C149.18867,22.6006706 148.754202,22.7711547 148.305487,22.7588448 C147.861234,22.7682691 147.432463,22.5955463 147.118794,22.2808064 C146.805125,21.9660665 146.633864,21.5367095 146.644801,21.0924911 Z M149.410722,21.0924911 L149.410722,21.0924911 C149.410722,20.4914776 148.923504,20.00426 148.322491,20.00426 C147.721478,20.00426 147.23426,20.4914776 147.23426,21.0924911 L147.23426,21.0924911 C147.225083,21.3889799 147.336085,21.6765997 147.542066,21.8900515 C147.748047,22.1035034 148.031531,22.224678 148.328159,22.2260651 C148.623821,22.224782 148.906235,22.1032512 149.110436,21.8894286 C149.314636,21.6756059 149.423044,21.3878996 149.410722,21.0924911 L149.410722,21.0924911 Z" id="Shape"></path>
            <polygon id="Path" points="151.751552 19.4771481 152.278664 19.4771481 153.979025 21.6989532 153.979025 19.4771481 154.545812 19.4771481 154.545812 22.7021661 154.069711 22.7021661 152.295668 20.4350181 152.295668 22.7021661 151.728881 22.7021661"></polygon>
            <path d="M150.198556,6.54306868 L150.198556,4.97873655 L149.325704,4.97873655 C148.981834,5.0197023 148.704247,5.27893688 148.639892,5.61920586 L148.639892,6.43537914 L149.456065,6.43537914 L149.456065,6.56574016 C149.511871,7.00193788 149.219067,7.40640435 148.787256,7.48960297 L148.787256,8.14140803 C149.188609,8.12267794 149.565243,7.94211179 149.831181,7.64092826 C150.09712,7.33974473 150.229664,6.94365224 150.198556,6.54306868" id="Path"></path>
            <path d="M31.8704332,13.157473 L33.0040072,11.848195 C33.880815,12.7012934 35.0511398,13.1860553 36.2743682,13.202816 C37.4079422,13.202816 38.1220939,12.6813719 38.1220939,11.893538 L38.1220939,11.8651986 C38.1220939,11.1170398 37.7026715,10.7316246 35.7699278,10.2668593 C33.5424549,9.7340795 32.3068592,9.09927806 32.3068592,7.15519864 L32.3068592,7.12685929 C32.3068592,5.33581236 33.797509,4.10021669 35.8662816,4.10021669 C37.2391754,4.07561252 38.5757588,4.54190929 39.6354152,5.41516254 L38.6548736,6.79812283 C37.8534403,6.13885867 36.8579424,5.76056946 35.8209386,5.72122752 C34.7497112,5.72122752 34.1205776,6.28801452 34.1205776,6.96249106 L34.1205776,6.96249106 C34.1205776,7.7673286 34.6023466,8.12440442 36.5974368,8.6005055 C38.8022383,9.1672925 39.947148,9.9267871 39.947148,11.6554874 L39.947148,11.6838268 C39.947148,13.639242 38.4168231,14.8011553 36.2233574,14.8011553 C34.6178301,14.81722 33.06463,14.2307252 31.8704332,13.157473 L31.8704332,13.157473 Z" id="Path"></path>
            <path d="M41.0070397,10.7996391 L41.0070397,10.7712997 C41.0070397,8.50415171 42.5997112,6.67342969 44.8498556,6.67342969 C47.3550542,6.67342969 48.6189892,8.64018059 48.6189892,10.9016607 C48.6189892,11.066029 48.6189892,11.2303972 48.6189892,11.411769 L42.8094224,11.411769 C42.9168668,12.5725983 43.9115011,13.4478765 45.0765704,13.4068593 C45.8889662,13.4132054 46.6650174,13.070587 47.2076895,12.4659929 L48.2619134,13.4068593 C47.4796293,14.3762116 46.2875126,14.9218989 45.0425632,14.8805055 C43.9547186,14.9128709 42.9023341,14.4917774 42.1370826,13.7179276 C41.3718311,12.9440778 40.962522,11.8870541 41.0070397,10.7996391 L41.0070397,10.7996391 Z M46.8336101,10.2328521 C46.7145848,9.09927806 46.0287726,8.16407951 44.8385199,8.16407951 C43.6482671,8.16407951 42.956787,9.01426001 42.7924188,10.2328521 L46.8336101,10.2328521 Z" id="Shape"></path>
            <path d="M74.8158413,10.7996391 L74.8158413,10.7712997 C74.8158413,8.50415171 76.4142238,6.67342969 78.6587004,6.67342969 C81.1638989,6.67342969 82.4278339,8.64018059 82.4278339,10.9016607 C82.4278339,11.066029 82.4278339,11.2303972 82.4278339,11.411769 L76.6466065,11.411769 C76.7540509,12.5725983 77.7486852,13.4478765 78.9137545,13.4068593 C79.7261503,13.4132054 80.5022015,13.070587 81.0448736,12.4659929 L82.0990975,13.4068593 C81.0004856,14.7535539 79.1726603,15.2621179 77.5363752,14.6763661 C75.9000901,14.0906142 74.8102622,12.5375984 74.8158413,10.7996391 Z M80.6424549,10.2328521 C80.5234296,9.09927806 79.8376173,8.16407951 78.6473646,8.16407951 C77.4571119,8.16407951 76.7656318,9.01426001 76.6069314,10.2328521 L80.6424549,10.2328521 Z" id="Shape"></path>
            <path d="M86.7580866,9.496029 L86.7580866,9.46202174 C86.7269363,8.02512006 87.2832454,6.63768258 88.2984567,5.62033171 C89.313668,4.60298085 90.6999312,4.04375207 92.1368953,4.07187734 C93.6669286,4.01696755 95.1496811,4.60718939 96.2234296,5.69855604 L95.0445126,7.05884485 C94.2841407,6.25341386 93.2329238,5.78597955 92.1255596,5.76090261 C91.175191,5.77508059 90.2713872,6.17486374 89.6215676,6.86850339 C88.971748,7.56214304 88.6317113,8.4900778 88.6794946,9.43935026 L88.6794946,9.4676896 C88.6794946,11.5137907 90.1248014,13.1801445 92.1255596,13.1801445 C93.2685129,13.1663729 94.3536151,12.6751998 95.1181949,11.8255235 L96.2971119,13.0157763 C95.2351243,14.2365517 93.6804499,14.9150307 92.063213,14.8635019 C90.6405637,14.8792341 89.2724805,14.3167313 88.272348,13.3048451 C87.2722156,12.292959 86.7257346,10.9183973 86.7580866,9.496029 L86.7580866,9.496029 Z" id="Path"></path>
            <rect id="Rectangle" x="107.349458" y="6.81512644" width="1.80238267" height="7.86700361"></rect>
            <path d="M49.5711913,10.759964 L49.5711913,10.7316246 C49.5711913,8.12440442 51.2715523,6.65075821 53.0682671,6.65075821 C54.1038195,6.65038081 55.0704035,7.16986646 55.6414801,8.03371849 L55.6414801,6.51472932 L57.3418412,6.51472932 L57.3418412,14.68213 L55.6414801,14.68213 L55.6414801,13.3671842 C55.1059288,14.2808732 54.1273392,14.8434545 53.0682671,14.8464983 C51.2998917,14.8464983 49.5711913,13.3671842 49.5711913,10.759964 Z M55.6698195,10.759964 L55.6698195,10.7316246 C55.6698195,9.21263546 54.643935,8.21509034 53.4820217,8.21509034 C52.3201083,8.21509034 51.3168953,9.1672925 51.3168953,10.7316246 L51.3168953,10.759964 C51.3168953,12.2789532 52.3144404,13.2764983 53.4820217,13.2764983 C54.6496029,13.2764983 55.6698195,12.2676174 55.6698195,10.759964 Z" id="Shape"></path>
            <path d="M125.401625,6.83213005 L127.204007,6.83213005 L127.204007,8.6005055 C127.596992,7.40679103 128.737197,6.62116175 129.992599,6.67909756 L129.992599,8.58916976 L129.88491,8.58916976 C128.309242,8.58916976 127.204007,9.6150542 127.204007,11.7008304 L127.204007,14.6991337 L125.401625,14.6991337 L125.401625,6.83213005 Z" id="Path"></path>
            <path d="M63.7975451,8.36245496 L63.7975451,6.83213005 L61.6777617,6.83213005 L61.6777617,3.29537914 L60.6462094,3.29537914 C60.2154513,3.29537914 59.9377256,3.57310478 59.8980505,4.11155243 L59.8980505,6.83213005 L58.9005054,6.83213005 L58.9005054,8.36245496 L59.8980505,8.36245496 L59.8980505,12.5000001 C59.8980505,14.2003611 60.838917,14.8068232 62.1651986,14.8068232 C62.7320806,14.8226273 63.2925351,14.6834935 63.7862094,14.4044044 L63.7862094,12.9307582 C63.4361482,13.1118045 63.0466943,13.2033262 62.6526354,13.1971481 C62.3833572,13.2365351 62.1113977,13.1455082 61.9200852,12.9519582 C61.7287727,12.7584081 61.6409143,12.4854086 61.6834296,12.2166066 L61.6834296,8.36245496 L63.7975451,8.36245496 Z" id="Path"></path>
            <path d="M69.7148014,8.36245496 L69.7148014,6.83213005 L67.5950181,6.83213005 L67.5950181,3.29537914 L66.5464621,3.29537914 C66.1100361,3.29537914 65.8209747,3.58444052 65.7926354,4.13989178 L65.7926354,6.83213005 L64.7950903,6.83213005 L64.7950903,8.36245496 L65.7926354,8.36245496 L65.7926354,12.5000001 C65.7926354,14.2003611 66.7335018,14.8068232 68.0597834,14.8068232 C68.62836,14.8216651 69.1903858,14.6826273 69.6864621,14.4044044 L69.6864621,12.9307582 C69.3358364,13.1102725 68.94677,13.2017031 68.5528881,13.1971481 C68.2836099,13.2365351 68.0116504,13.1455082 67.8203379,12.9519582 C67.6290254,12.7584081 67.541167,12.4854086 67.5836823,12.2166066 L67.5836823,8.36245496 L69.7148014,8.36245496 Z" id="Path"></path>
            <path d="M72.2710108,3.29537914 C72.0707308,3.28767031 71.8759527,3.361883 71.7315801,3.50090848 C71.5872074,3.63993395 71.5057001,3.83177393 71.505848,4.03220225 L71.505848,14.68213 L73.308231,14.68213 L73.308231,3.29537914 L72.2710108,3.29537914 Z" id="Path"></path>
            <path d="M102.271047,6.65075821 C101.263554,6.64170002 100.327008,7.16823787 99.8111913,8.03371849 L99.8111913,3.30104701 L98.7229603,3.30104701 C98.3035379,3.32938636 98.0258123,3.607112 98.0088087,4.16256326 L98.0088087,14.68213 L99.8111913,14.68213 L99.8111913,10.2328521 C99.8111913,9.01426001 100.542347,8.28310478 101.579567,8.28310478 C102.616787,8.28310478 103.279928,8.98025279 103.279928,10.2045127 L103.279928,14.6764622 L105.08231,14.6764622 L105.08231,9.6660651 C105.070975,7.84101091 104.039422,6.65075821 102.271047,6.65075821 Z" id="Path"></path>
            <path d="M112.308845,3.28971127 C111.894422,3.31700857 111.580149,3.67436756 111.606029,4.08888095 L111.606029,14.68213 L113.414079,14.68213 L113.414079,3.28971127 L112.308845,3.28971127 Z" id="Path"></path>
            <path d="M122.029242,3.30104701 C121.678796,3.31528901 121.390562,3.58190532 121.349097,3.93018059 L121.349097,8.03371849 C120.736752,7.16049756 119.734699,6.64358189 118.668195,6.65075821 C116.79213,6.65075821 115.018087,8.12440442 115.018087,10.7316246 L115.018087,10.759964 C115.018087,13.3671842 116.820469,14.8465793 118.668195,14.8465793 C119.757993,14.8520416 120.772731,14.2921124 121.349097,13.3671842 L121.349097,14.68213 L123.15148,14.68213 L123.15148,3.30104701 L122.029242,3.30104701 Z M121.377437,10.759964 C121.377437,12.0120753 120.3624,13.027112 119.110289,13.027112 C117.858178,13.027112 116.843141,12.0120753 116.843141,10.759964 L116.843141,10.7316246 C116.843141,9.1672925 117.874693,8.21509034 119.110289,8.21509034 C119.748232,8.23816676 120.349557,8.51892637 120.776834,8.9932037 C121.20411,9.467481 121.420821,10.0947397 121.377437,10.7316246 L121.377437,10.759964 Z" id="Shape"></path>
            <path d="M130.854116,10.7996391 L130.854116,10.7712997 C130.854116,8.50415171 132.446787,6.67342969 134.696931,6.67342969 C137.20213,6.67342969 138.466065,8.64018059 138.466065,10.9016607 C138.466065,11.066029 138.466065,11.2303972 138.437726,11.411769 L132.656498,11.411769 C132.761208,12.5739878 133.757546,13.4507657 134.923646,13.4068593 C135.736042,13.4132054 136.512093,13.070587 137.054765,12.4659929 L138.114657,13.4068593 C137.332373,14.3762116 136.140256,14.9218989 134.895307,14.8805055 C133.806493,14.9144773 132.752597,14.4940923 131.986087,13.7200568 C131.219577,12.9460213 130.809508,11.8880687 130.854116,10.7996391 L130.854116,10.7996391 Z M136.675018,10.2328521 C136.555993,9.09927806 135.875848,8.16407951 134.679928,8.16407951 C133.580361,8.16407951 132.803863,9.01426001 132.639495,10.2328521 L136.675018,10.2328521 Z" id="Shape"></path>
            <path d="M140.285451,6.83213005 L142.087834,6.83213005 L142.087834,8.0507221 C142.596314,7.18395999 143.525784,6.65129438 144.530686,6.65075821 C146.304729,6.65075821 147.330614,7.84101091 147.330614,9.6717329 L147.330614,14.68213 L145.528231,14.68213 L145.528231,10.2328521 C145.528231,9.00859214 144.916101,8.31144413 143.82787,8.31144413 C142.739639,8.31144413 142.059495,9.04259936 142.059495,10.2611914 L142.059495,14.7048015 L140.257112,14.7048015 L140.285451,6.83213005 Z" id="Path"></path>
            <path d="M150.317581,13.6335741 L151.122419,12.414982 C151.858244,13.0020718 152.76094,13.3413266 153.7013,13.3841878 C154.47213,13.3841878 154.919892,13.0497835 154.919892,12.5340073 L154.919892,12.5000001 C154.919892,11.8878701 154.086715,11.6838268 153.162852,11.4004333 C152.000939,11.0716968 150.702996,10.5955958 150.702996,9.08794232 L150.702996,9.09927806 C150.702996,7.60862824 151.94426,6.70176904 153.508592,6.70176904 C154.53652,6.72140035 155.538201,7.02976088 156.399206,7.59162463 L155.679386,8.87823113 C155.018816,8.43932513 154.254679,8.18135563 153.463249,8.13007229 C152.760433,8.13007229 152.358014,8.45880875 152.358014,8.92357409 L152.358014,8.92357409 C152.358014,9.4903611 153.208195,9.7284116 154.132058,10.0231409 C155.265632,10.3802167 156.57491,10.9073286 156.57491,12.3186282 L156.57491,12.3186282 C156.57491,13.9736463 155.293971,14.7954874 153.655957,14.7954874 C152.445967,14.7841236 151.273152,14.3759282 150.317581,13.6335741 L150.317581,13.6335741 Z" id="Path"></path>
            <path d="M107.270108,4.25891705 C107.270167,3.85162047 107.516473,3.48478288 107.893439,3.33055377 C108.270406,3.17632466 108.703207,3.26531807 108.988737,3.5557712 C109.274267,3.84622433 109.35585,4.28048302 109.1952,4.65475844 C109.03455,5.02903386 108.663556,5.26903337 108.256318,5.26213005 C107.710198,5.24986245 107.273039,4.8051671 107.270108,4.25891705 L107.270108,4.25891705 Z" id="Path"></path>
        </g>
    </g>
</svg>