<?xml version="1.0" encoding="UTF-8"?>
<svg width="160px" height="47px" viewBox="0 0 160 47" version="1.1" xmlns="http://www.w3.org/2000/svg" xmlns:xlink="http://www.w3.org/1999/xlink">
    <!-- Generator: Sketch 53.2 (72643) - https://sketchapp.com -->
    <title>logo_BrotmanBatyInstitute</title>
    <desc>Created with Sketch.</desc>
    <g id="Page-1" stroke="none" stroke-width="1" fill="none" fill-rule="evenodd" opacity="0.496210007">
        <g id="FluAtHome_LandingPage_Desktop-v1.2" transform="translate(-150.000000, -2038.000000)" fill="#FFFFFF" fill-rule="nonzero">
            <g id="Group" transform="translate(0.000000, 1983.220672)">
                <g id="logo_BrotmanBatyInstitute" transform="translate(150.000000, 55.182302)">
                    <rect id="Rectangle" x="45.2415704" y="27.5750577" width="1" height="6.84526559"></rect>
                    <path d="M55.7967667,31.1741339 C55.7967667,32.1533487 55.8263279,33.0715935 55.8170901,33.0715935 L55.8060046,33.0715935 C55.7967667,33.0715935 55.2979215,32.356582 54.7806005,31.6637413 L51.7376443,27.5750577 L50.9930716,27.5750577 L50.9930716,34.4203233 L51.7949192,34.4203233 L51.7949192,30.8323326 C51.7949192,29.7367206 51.765358,28.8849885 51.7745958,28.8849885 L51.7856813,28.8849885 C51.7949192,28.8849885 52.2254042,29.5113164 52.8110855,30.3242494 L55.852194,34.4203233 L56.604157,34.4203233 L56.604157,27.5750577 L55.7967667,27.5750577 L55.7967667,31.1741339 Z" id="Path"></path>
                    <path d="M63.839261,30.5200924 C62.9284065,30.2448037 61.9806005,30.0101617 61.9806005,29.2581986 C61.9806005,28.5727483 62.6161663,28.1496536 63.5159353,28.1496536 C64.3676674,28.1496536 65.0808314,28.6484988 65.2267898,29.4799076 L65.9898383,29.2748268 C65.7644342,28.1792148 64.787067,27.4457275 63.5454965,27.4457275 C62.1764434,27.4457275 61.1676674,28.2383372 61.1676674,29.304388 C61.1676674,30.486836 62.3224018,30.8397229 63.1057737,31.0836028 C64.073903,31.3866051 65.256351,31.5916859 65.256351,32.5893764 C65.256351,33.3025404 64.639261,33.8420323 63.6230947,33.8420323 C62.5145497,33.8420323 61.8531178,33.1381062 61.7551963,32.3454965 L60.9829099,32.5505774 C61.1972286,33.7053118 62.1265589,34.5662818 63.5935335,34.5662818 C65.0993072,34.5662818 66.0969977,33.7237875 66.0969977,32.5709007 C66.0969977,31.2332564 64.7963048,30.8027714 63.839261,30.5200924 Z" id="Path"></path>
                    <polygon id="Path" points="69.6351039 28.3288684 71.9242494 28.3288684 71.9242494 34.4203233 72.7150115 34.4203233 72.7150115 28.3288684 75.0133949 28.3288684 75.0133949 27.5750577 69.6351039 27.5750577"></polygon>
                    <rect id="Rectangle" x="79.2665127" y="27.5750577" width="1" height="6.84526559"></rect>
                    <polygon id="Path" points="84.3196305 28.3288684 86.608776 28.3288684 86.608776 34.4203233 87.3995381 34.4203233 87.3995381 28.3288684 89.6979215 28.3288684 89.6979215 27.5750577 84.3196305 27.5750577"></polygon>
                    <path d="M98.5866051,31.5935335 C98.5866051,33.0715935 97.9011547,33.8106236 96.5709007,33.8106236 C95.2406467,33.8106236 94.5662818,33.0715935 94.5662818,31.5935335 L94.5662818,27.5750577 L93.7644342,27.5750577 L93.7644342,31.5935335 C93.7644342,33.5297921 94.782448,34.5773672 96.5709007,34.5773672 C98.3593533,34.5773672 99.3866051,33.5297921 99.3866051,31.5935335 L99.3866051,27.5842956 L98.5866051,27.5842956 L98.5866051,31.5935335 Z" id="Path"></path>
                    <polygon id="Path" points="103.453118 28.3288684 105.742263 28.3288684 105.742263 34.4203233 106.533025 34.4203233 106.533025 28.3288684 108.831409 28.3288684 108.831409 27.5750577 103.453118 27.5750577"></polygon>
                    <polygon id="Path" points="113.082679 34.4221709 117.533487 34.4221709 117.533487 33.6683603 113.884527 33.6683603 113.884527 31.1538106 116.907159 31.1538106 116.907159 30.4406467 113.884527 30.4406467 113.884527 28.3288684 117.533487 28.3288684 117.533487 27.5750577 113.082679 27.5750577"></polygon>
                    <path d="M52.8554273,19.656351 C52.8554273,18.2448037 52.2678984,17.230485 51.0706697,16.9755196 L51.0706697,16.9588915 C51.8614319,16.7575058 52.7150115,15.8503464 52.7150115,14.7584296 C52.7150115,13.1916859 51.421709,12.0295612 49.5205543,12.0295612 L45.2415704,12.0295612 L45.2415704,22.8822171 L49.1806005,22.8822171 C51.5842956,22.8822171 52.8554273,21.5168591 52.8554273,19.656351 Z M46.9635104,13.4872979 L49.1806005,13.4872979 C50.2669746,13.4872979 50.9949192,14.0785219 50.9949192,14.965358 C50.9949192,15.7893764 50.2669746,16.4545035 49.1806005,16.4545035 L46.9635104,16.4545035 L46.9635104,13.4872979 Z M49.0254042,21.4318707 L46.9635104,21.4318707 L46.9635104,17.7810624 L49.1935335,17.7810624 C50.3575058,17.7810624 51.0725173,18.5200924 51.0725173,19.6101617 C51.0725173,20.7002309 50.2207852,21.4318707 49.0254042,21.4318707 Z" id="Shape"></path>
                    <path d="M129.91224,16.9755196 L129.91224,16.9588915 C130.703002,16.7575058 131.556582,15.8503464 131.556582,14.7584296 C131.556582,13.1916859 130.263279,12.0295612 128.362125,12.0295612 L124.083141,12.0295612 L124.083141,22.8822171 L128.022171,22.8822171 C130.424018,22.8822171 131.696998,21.5168591 131.696998,19.656351 C131.696998,18.2448037 131.109469,17.230485 129.91224,16.9755196 Z M125.803233,13.4872979 L128.020323,13.4872979 C129.106697,13.4872979 129.834642,14.0785219 129.834642,14.965358 C129.834642,15.7893764 129.106697,16.4545035 128.020323,16.4545035 L125.803233,16.4545035 L125.803233,13.4872979 Z M127.866975,21.4318707 L125.803233,21.4318707 L125.803233,17.7810624 L128.036952,17.7810624 C129.199076,17.7810624 129.915935,18.5200924 129.915935,19.6101617 C129.915935,20.7002309 129.060508,21.4318707 127.866975,21.4318707 L127.866975,21.4318707 Z" id="Shape"></path>
                    <path d="M60.0461894,18.6808314 C61.4263279,18.1690531 62.2170901,17.0678984 62.2170901,15.5399538 C62.2170901,13.3986143 60.6503464,12.0295612 58.0452656,12.0295612 L54.5034642,12.0295612 L54.5034642,22.8822171 L56.2235566,22.8822171 L56.2235566,19.0023095 L58.0526559,19.0023095 C58.1668464,19.0054359 58.2811094,18.9998771 58.3944573,18.9856813 L60.6891455,22.8785219 L62.6327945,22.8785219 L60.0461894,18.6808314 Z M58.2484988,17.4854503 L56.2161663,17.4854503 L56.2161663,13.6406467 L58.2484988,13.6406467 C59.6581986,13.6406467 60.4323326,14.4314088 60.4323326,15.5491917 C60.4397229,16.6281755 59.7284065,17.4854503 58.2558891,17.4854503 L58.2484988,17.4854503 Z" id="Shape"></path>
                    <path d="M74.5016166,17.4558891 C74.5016166,14.1838337 71.9741339,11.8115473 68.8591224,11.8115473 C65.7441109,11.8115473 63.2314088,14.1838337 63.2314088,17.4558891 C63.2314088,20.7279446 65.7422633,23.0946882 68.8591224,23.0946882 C71.9759815,23.0946882 74.5016166,20.726097 74.5016166,17.4558891 Z M68.8591224,21.4096998 C66.6254042,21.4096998 64.9976905,19.7967667 64.9976905,17.4558891 C64.9976905,15.0836028 66.6254042,13.5020785 68.8591224,13.5020785 C71.0928406,13.5020785 72.7187067,15.0836028 72.7187067,17.4558891 C72.7187067,19.7967667 71.0743649,21.4096998 68.8591224,21.4096998 Z" id="Shape"></path>
                    <polygon id="Path" points="74.3667436 12.0295612 74.3667436 13.6406467 77.8715935 13.6406467 77.8715935 22.8822171 79.5769053 22.8822171 79.5769053 13.6406467 83.3773672 13.6406467 82.4110855 12.0295612"></polygon>
                    <path d="M106.420323,22.8803695 L101.838337,12.0295612 L100.242032,12.0295612 L95.6526559,22.8803695 L97.5002309,22.8803695 L98.5071594,20.4157044 L103.575058,20.4157044 L104.581986,22.8803695 L106.420323,22.8803695 Z M99.1187067,18.9117783 L100.521016,15.5196305 C100.753811,14.930254 101.016166,14.1080831 101.032794,14.1080831 L101.047575,14.1080831 C101.064203,14.1080831 101.328406,14.930254 101.559353,15.5196305 L102.95612,18.9136259 L99.1187067,18.9117783 Z" id="Shape"></path>
                    <path d="M109.47067,14.8822171 C109.487298,14.8822171 110.416628,16.2309469 111.377367,17.5482679 L115.331178,22.8822171 L116.951501,22.8822171 L116.951501,12.0295612 L115.229561,12.0295612 L115.229561,16.6484988 C115.229561,18.3538106 115.275751,19.951963 115.26097,19.951963 L115.246189,19.951963 C115.229561,19.951963 114.137644,18.4332564 113.369053,17.378291 L109.376443,12.0295612 L107.76351,12.0295612 L107.76351,22.8822171 L109.48545,22.8822171 L109.48545,18.27806 C109.48545,16.3381062 109.439261,14.8822171 109.454042,14.8822171 L109.47067,14.8822171 Z" id="Path"></path>
                    <path d="M136.842494,12.0554273 L132.253118,22.9099307 L134.100693,22.9099307 L135.107621,20.4452656 L140.17552,20.4452656 L141.184296,22.9099307 L143.031871,22.9099307 L138.438799,12.0554273 L136.842494,12.0554273 Z M135.733949,18.9376443 L137.128868,15.543649 C137.361663,14.9542725 137.624018,14.1321016 137.640647,14.1321016 L137.644342,14.1321016 C137.66097,14.1321016 137.923326,14.9542725 138.15612,15.543649 L139.552887,18.9376443 L135.733949,18.9376443 Z" id="Shape"></path>
                    <polygon id="Path" points="141.812471 12.0295612 141.812471 13.6406467 145.315473 13.6406467 145.315473 22.8822171 147.020785 22.8822171 147.020785 13.6406467 149.557506 13.6406467 148.375058 12.0295612"></polygon>
                    <path d="M157.967667,12.0295612 L155.501155,15.3551963 C155.222171,15.7431871 154.896998,16.1921478 154.882217,16.1921478 L154.865589,16.1921478 C154.850808,16.1921478 154.525635,15.7431871 154.231871,15.3551963 L151.765358,12.0295612 L149.821709,12.0295612 L154.008314,17.7367206 L154.008314,22.8840647 L155.713626,22.8840647 L155.713626,17.7367206 L159.900231,12.0314088 L157.967667,12.0295612 Z" id="Path"></path>
                    <path d="M94.3150115,22.8822171 L94.3150115,12.0295612 L92.7020785,12.0295612 C92.7020785,12.0295612 89.1916859,18.0452656 89.182448,18.0452656 L89.1676674,18.0452656 C89.1528868,18.0452656 85.7108545,12.0295612 85.7108545,12.0295612 L83.8244804,12.0295612 L88.7187067,20.1995381 L89.6166282,20.1995381 C89.6166282,20.1995381 92.6725173,14.9136259 92.6872979,14.9136259 L92.7020785,14.9136259 C92.7187067,14.9136259 92.6244804,22.8822171 92.6244804,22.8822171 L94.3150115,22.8822171 Z" id="Path"></path>
                    <polygon id="Path" points="85.7016166 17.5575058 84.0203233 14.7547344 84.0203233 22.8803695 85.7108545 22.8803695"></polygon>
                    <path d="M31.3644342,21.4928406 L31.0762125,21.7515012 C30.6036713,22.1729578 30.1030589,22.5618429 29.5778291,22.9154734 L29.5778291,22.9154734 L29.5113164,22.9635104 C28.8715639,23.3945294 28.1973811,23.7720965 27.495612,24.0923788 L26.9413395,24.3418014 L27.4050808,24.7353349 C29.5107558,26.5035013 30.7223562,29.1155494 30.7122402,31.865127 C30.7122402,32.06097 30.7122402,32.2549654 30.6937644,32.4508083 C30.6752887,32.6466513 30.6623557,32.8443418 30.6364896,33.0401848 C30.4573627,34.4481165 29.9511748,35.7945763 29.1584296,36.9718245 C28.6889836,37.6628859 28.1298208,38.2885269 27.495612,38.8323326 C27.2849885,39.0133949 27.0669746,39.1852194 26.8415704,39.347806 C25.2052284,40.5243208 23.2403329,41.1564484 21.2249423,41.1547344 L5.04757506,41.1547344 L5.04757506,28.0702079 C5.04757506,25.8290993 6.62725173,24.0424942 8.97736721,23.6230947 C12.8055427,22.9431871 16.2235566,22.9635104 19.5639723,22.9838337 C20.1293303,22.9838337 20.6725173,22.9838337 21.2138568,22.9838337 C29.8106236,22.9838337 32.9293303,15.9963048 32.9293303,11.2997691 C32.9160972,5.05952042 27.8568879,0.00609488996 21.6166282,0 L0.0258660508,0 L0.0258660508,20.9404157 C0.678060046,19.8318707 1.54642032,19.0928406 2.42771363,18.4923788 C3.22754674,17.9571741 4.09814062,17.5361798 5.01431871,17.2415704 L5.01431871,4.76859122 L20.4655889,4.76859122 C22.341841,4.77639752 24.1374215,5.53253644 25.4540416,6.86928406 C25.9305611,7.35108543 26.3339207,7.90010269 26.6512702,8.49884527 C27.1690077,9.48020184 27.4302198,10.5765301 27.4106236,11.6859122 C27.3295392,15.3844759 24.3165072,18.3450645 20.6170901,18.3612009 L19.6064665,18.3778291 L19.126097,18.3778291 C18.9635104,18.3778291 18.8027714,18.3778291 18.6383372,18.3778291 C18.1191686,18.3648961 17.6166282,18.3575058 17.1214781,18.3556582 L16.6983834,18.3556582 C16.2882217,18.3556582 15.8854503,18.3599692 15.4900693,18.3685912 L14.9745958,18.3815242 C14.6568129,18.3815242 14.3464203,18.4018476 14.0397229,18.4147806 C13.8161663,18.4240185 13.5963048,18.4351039 13.378291,18.448037 L12.8683603,18.4812933 C12.0794457,18.5071594 11.347806,18.5496536 10.6660508,18.608776 C9.84757506,18.6789838 9.10300231,18.7732102 8.42124711,18.8896074 C8.0812933,18.9468822 7.75612009,19.0115473 7.44757506,19.0743649 C7.24064665,19.1205543 7.04110855,19.1704388 6.84711316,19.2203233 L6.56073903,19.2997691 C6.37598152,19.3533487 6.19122402,19.408776 6.01570439,19.4678984 C5.00357169,19.7903553 4.05340019,20.2819956 3.20554273,20.92194 C0.600461894,22.9247113 0,25.4965358 0,27.5842956 L0,46.3963048 L20.6060046,46.3963048 L20.9903002,46.3722864 L20.9903002,46.3722864 C26.7379942,46.2244355 31.8767522,42.7524454 34.1587042,37.4750843 C36.4406563,32.1977232 35.4504544,26.0755463 31.6212471,21.7866051 L31.3644342,21.4928406 Z" id="Path"></path>
                </g>
            </g>
        </g>
    </g>
</svg>