<?xml version="1.0" encoding="UTF-8"?>
<svg width="218px" height="53px" viewBox="0 0 218 53" version="1.1" xmlns="http://www.w3.org/2000/svg" xmlns:xlink="http://www.w3.org/1999/xlink">
    <!-- Generator: Sketch 53.2 (72643) - https://sketchapp.com -->
    <title>Fred_Hutch_logo</title>
    <desc>Created with Sketch.</desc>
    <g id="Page-1" stroke="none" stroke-width="1" fill="none" fill-rule="evenodd" opacity="0.5">
        <g id="XL-Desktop-v1.0" transform="translate(-741.000000, -2082.000000)" fill="#FFFFFF" fill-rule="nonzero">
            <g id="Group" transform="translate(0.000000, 2029.441344)">
                <g id="Fred_Hutch_logo" transform="translate(740.333333, 51.815961)">
                    <g id="g230" transform="translate(110.202278, 27.307123) scale(-1, 1) rotate(-180.000000) translate(-110.202278, -27.307123) translate(0.702278, 0.307123)">
                        <path d="M0.702278295,26.6787921 C0.702278295,23.5009828 1.2781465,20.4566064 2.32454116,17.6422261 L6.49607423,29.1104307 C7.07545382,30.7081138 6.25203252,32.4743437 4.6561051,33.0589904 C3.43238517,33.49967 2.11034628,33.118684 1.29745915,32.1969438 C0.911206088,30.418424 0.702278295,28.5731878 0.702278295,26.6787921" id="path240"></path>
                        <path d="M5.17210407,34.4688141 C6.75398593,33.8929459 8.53426141,34.7128558 9.11715239,36.3087832 L13.8136385,49.2149026 C9.18738022,46.5778476 5.45301539,42.55906 3.17061093,37.7203626 C3.00908692,36.3351186 3.81670696,34.9639203 5.17210407,34.4688141" id="path244"></path>
                        <path d="M41.8075047,14.773946 C41.2246138,13.1762629 39.4583838,12.3528416 37.8624564,12.9339768 C36.2630176,13.5151121 35.4395963,15.2795864 36.0207316,16.8807809 C36.6001112,18.4767083 38.3680968,19.3018853 39.9657799,18.7189943 C41.5652187,18.137859 42.3851286,16.3698734 41.8075047,14.773946" id="path248"></path>
                        <path d="M37.9670959,4.22783283 C37.3842049,2.62488262 35.6056851,1.80672841 34.0220476,2.386108 C32.43841,2.9602205 31.6026988,4.7317175 32.1838341,6.32940062 L33.402287,9.67926809 C33.985178,11.2787069 35.7496522,12.0986168 37.3455796,11.5209929 C38.9432627,10.9381019 39.766684,9.17187202 39.183793,7.57243321 L37.9670959,4.22783283 Z" id="path252"></path>
                        <path d="M44.4257738,21.9768633 C43.8446385,20.3791802 42.0661187,19.5592703 40.4842369,20.1333828 C38.8988436,20.7110067 38.0596211,22.4825037 38.6407563,24.0801868 L43.9587587,38.6875753 C44.539894,40.2835028 46.3078796,41.1086798 47.9055628,40.5275445 C49.5014902,39.9464092 50.3249115,38.1801793 49.7455319,36.5807405 L44.4257738,21.9768633 Z" id="path256"></path>
                        <path d="M52.5667594,26.675983 C52.5667594,29.837991 51.9996696,32.8665661 50.9638092,35.6686565 L47.392724,25.850806 C46.8133444,24.2548785 47.6490556,22.4868929 49.2326932,21.9075133 C50.272065,21.5300387 51.397466,21.7547678 52.2103531,22.4061309 C52.442105,23.7948863 52.5667594,25.2222669 52.5667594,26.675983" id="path260"></path>
                        <path d="M50.6676233,16.931696 C50.9994498,18.4187703 50.184807,19.9585155 48.718801,20.4940027 C47.1211179,21.075138 45.3531323,20.249961 44.771997,18.6540336 L39.4943756,4.16252095 C44.5103983,7.03308348 48.4730036,11.5259089 50.6676233,16.931696" id="path264"></path>
                        <path d="M32.763916,34.4693408 C32.1792693,32.8716576 30.4007495,32.0535034 28.817112,32.6276159 C27.2317187,33.2052398 26.3960076,34.9784925 26.9771429,36.57442 L31.598134,49.2716115 C32.1792693,50.8692946 33.9472549,51.6944716 35.5466937,51.1115807 C37.1408655,50.5322011 37.9660425,48.7607041 37.3813958,47.1665323 L32.763916,34.4693408 Z" id="path268"></path>
                        <path d="M25.1410363,22.5244648 C23.5433531,23.1073558 21.7753675,22.2839345 21.1942322,20.6862514 L14.9492225,3.52959263 C16.7663676,2.61136376 18.7046557,1.90030699 20.7359956,1.42802483 L26.9810054,18.5794165 C27.5621407,20.1788553 26.735208,21.9468409 25.1410363,22.5244648" id="path272"></path>
                        <path d="M16.42032,43.0984097 C18.0022018,42.5225415 19.7807216,43.3406958 20.3636126,44.9383789 L23.0638726,52.3597048 C20.4794885,52.0032985 18.0144917,51.2659063 15.7320872,50.2072218 L14.5803508,47.0434581 C14.0009712,45.4440192 14.8384381,43.6760336 16.42032,43.0984097" id="path276"></path>
                        <path d="M17.7469237,37.7400264 C17.162277,36.1405875 15.3978028,35.3171662 13.8018753,35.9000572 C12.2041922,36.4811925 11.3772595,38.2474224 11.9566391,39.8451055 C12.5395301,41.4445444 14.3075157,42.26621 15.9034431,41.6850747 C17.5028819,41.1021837 18.3263032,39.3377095 17.7469237,37.7400264" id="path280"></path>
                        <path d="M9.53851937,24.1953604 C7.95663751,24.7677173 7.12092634,26.5357029 7.69679454,28.133386 L3.51999438,16.6528916 C2.94061479,15.0552084 3.77632596,13.2872228 5.36171921,12.7078432 C6.94008968,12.1337307 8.72036516,12.9536406 9.30325614,14.5478124 L13.4835677,26.0318182 C12.9006767,24.4358908 11.1221569,23.6194922 9.53851937,24.1953604" id="path284"></path>
                        <path d="M13.4835677,26.0330472 C12.9006767,24.4371198 11.1221569,23.6189655 9.54027507,24.1948337 C7.95488182,24.7689462 7.12092634,26.5404432 7.69855024,28.1381264 L9.33837006,32.6432416 C9.92126104,34.2426804 11.6892466,35.064346 13.2816627,34.4832108 C14.8828572,33.9003198 15.7027671,32.1358456 15.1233875,30.5364067 L13.4835677,26.0330472 Z" id="path288"></path>
                        <path d="M43.7712504,42.4438864 L44.7755084,45.2003287 C43.2392746,46.7049599 41.5151814,48.019976 39.6453654,49.104996 L37.9879887,44.552477 C37.4086091,42.9547938 38.2478316,41.1850525 39.8279578,40.6074286 C41.4098397,40.0315604 43.1918708,40.8497146 43.7712504,42.4438864" id="path292"></path>
                        <path d="M26.6360112,0.745059193 C27.3066869,0.745059193 27.9685842,0.778417412 28.6252144,0.827576892 L29.2783333,2.62014224 C29.8577128,4.21958106 29.0360472,5.98581097 27.4383641,6.56694626 C25.8389253,7.14808155 24.0726954,6.32641594 23.4915601,4.72697713 L22.1835668,1.13482365 C23.6302601,0.883759156 25.1173344,0.745059193 26.6360112,0.745059193" id="path296"></path>
                        <path d="M31.9113502,9.85255526 C31.3319706,8.25487214 29.5481837,7.43847362 27.9663018,8.01785322 C26.3826643,8.58845433 25.541686,10.3599513 26.1280884,11.9611458 L35.3648037,37.3502619 C35.9494503,38.947945 37.7156803,39.7713663 39.3116077,39.190231 C40.9092908,38.6090957 41.7309564,36.8411101 41.1533325,35.243427 L31.9113502,9.85255526 Z" id="path300"></path>
                        <path d="M24.6959674,52.5298317 C24.288646,51.0093992 25.1173344,49.3941591 26.6166985,48.8481377 C28.1968247,48.2740252 29.9771002,49.088668 30.5617468,50.6863512 L31.1165467,52.2155621 C29.6610749,52.470138 28.1652222,52.608838 26.6360112,52.608838 C25.9828924,52.608838 25.3367963,52.5772355 24.6959674,52.5298317" id="path304"></path>
                        <path d="M13.6549236,4.23169536 L16.8362443,12.9750601 C16.2428191,11.3914226 14.4888791,10.5802911 12.8999744,11.157915 C11.3005356,11.7390503 10.4771143,13.5070359 11.0600053,15.1047191 L11.0600053,15.1064748 L8.51951357,8.12933989 C10.057503,6.62822004 11.7815962,5.31671532 13.6549236,4.23169536" id="path308"></path>
                        <path d="M16.8441449,12.9991132 C16.2577425,11.396163 14.495024,10.576253 12.8973409,11.1573883 C11.2979021,11.7402793 10.4744808,13.5082649 11.0591274,15.1041924 C11.638507,16.7036312 13.404737,17.5252968 15.0006644,16.9459172 C16.6001032,16.3630262 17.4235245,14.5967963 16.8441449,12.9991132" id="path312"></path>
                        <path d="M28.0679566,31.191808 C27.4517074,31.416537 26.8143899,31.4692079 26.2104305,31.3744003 C25.3975434,31.2743257 23.6453591,31.3059282 24.4617576,33.9131364 L24.4582462,33.9131364 L27.9696377,43.5641958 C28.5490172,45.1601232 27.7273516,46.9298646 26.1296685,47.5092441 C24.5319854,48.0921351 22.7675112,47.2652024 22.1828645,45.669275 L13.6607174,22.2500496 C13.0778264,20.6541221 13.917049,18.8791138 15.4989308,18.3050012 C17.0825684,17.7273774 18.8610882,18.5455316 19.4457348,20.1432147 L20.9889914,24.3832199 L20.9925028,24.3832199 C22.0459202,26.9131774 23.4171186,25.7912879 23.9701628,25.196107 C24.3722171,24.7378704 24.891903,24.37093 25.5011294,24.1479567 C27.448196,23.4386556 29.6024347,24.4411579 30.3082244,26.3882244 C31.0175255,28.3317796 30.0132675,30.4860183 28.0679566,31.191808" id="path316"></path>
                        <path d="M68.087812,41.6620751 C68.087812,41.8832927 68.2651372,42.0816863 68.5091789,42.0816863 L77.6651322,42.0816863 C77.9074182,42.0816863 78.0864992,41.8832927 78.0864992,41.6620751 L78.0864992,39.2515048 C78.0864992,39.0302872 77.9074182,38.8318935 77.6651322,38.8318935 L71.5377541,38.8318935 L71.5377541,35.6470615 L76.5801122,35.6470615 C76.8030856,35.6470615 77.0014792,35.4469122 77.0014792,35.2256945 L77.0014792,32.8151242 C77.0014792,32.5939066 76.8030856,32.395513 76.5801122,32.395513 L71.5377541,32.395513 L71.5377541,27.0213283 C71.5377541,26.7983549 71.3393605,26.5999613 71.1181428,26.5999613 L68.5091789,26.5999613 C68.2651372,26.5999613 68.087812,26.7983549 68.087812,27.0213283 L68.087812,41.6620751 Z" id="path320"></path>
                        <path d="M82.7803517,41.6620751 C82.7803517,41.8832927 82.957677,42.0816863 83.199963,42.0816863 L89.8136689,42.0816863 C92.4682808,42.0816863 94.6348094,39.9379818 94.6348094,37.3044382 C94.6348094,35.2695869 93.2846793,33.6332785 91.3621925,32.8590166 L94.3907677,27.242546 C94.5470246,26.9546119 94.3907677,26.5999613 94.0150488,26.5999613 L91.0742584,26.5999613 C90.8969331,26.5999613 90.765256,26.7105702 90.7196079,26.7983549 L87.7788175,32.660623 L86.2531179,32.660623 L86.2531179,27.0213283 C86.2531179,26.7983549 86.0529686,26.5999613 85.8335066,26.5999613 L83.199963,26.5999613 C82.957677,26.5999613 82.7803517,26.7983549 82.7803517,27.0213283 L82.7803517,41.6620751 Z M89.5257348,35.4697362 C90.4334295,35.4697362 91.2076913,36.3107145 91.2076913,37.2394775 C91.2076913,38.1682405 90.4334295,38.9196783 89.5257348,38.9196783 L86.2531179,38.9196783 L86.2531179,35.4697362 L89.5257348,35.4697362 Z" id="path324"></path>
                        <path d="M99.2096257,41.6620751 C99.2096257,41.8832927 99.386951,42.0816863 99.629237,42.0816863 L108.78519,42.0816863 C109.029232,42.0816863 109.206557,41.8832927 109.206557,41.6620751 L109.206557,39.2515048 C109.206557,39.0302872 109.029232,38.8318935 108.78519,38.8318935 L102.659568,38.8318935 L102.659568,36.0877411 L107.701926,36.0877411 C107.924899,36.0877411 108.121537,35.8893475 108.121537,35.6681298 L108.121537,33.2575596 C108.121537,33.0152736 107.924899,32.8379483 107.701926,32.8379483 L102.659568,32.8379483 L102.659568,29.8515098 L108.78519,29.8515098 C109.029232,29.8515098 109.206557,29.6531162 109.206557,29.4318986 L109.206557,27.0213283 C109.206557,26.7983549 109.029232,26.5999613 108.78519,26.5999613 L99.629237,26.5999613 C99.386951,26.5999613 99.2096257,26.7983549 99.2096257,27.0213283 L99.2096257,41.6620751 Z" id="path328"></path>
                        <path d="M114.483476,41.6620751 C114.483476,41.8832927 114.660802,42.0816863 114.882019,42.0816863 L120.277272,42.0816863 C124.547124,42.0816863 128.040959,38.6106759 128.040959,34.3636479 C128.040959,30.0727275 124.547124,26.5999613 120.277272,26.5999613 L114.882019,26.5999613 C114.660802,26.5999613 114.483476,26.7983549 114.483476,27.0213283 L114.483476,41.6620751 Z M120.05781,29.8743339 C122.556165,29.8743339 124.369799,31.8424688 124.369799,34.3636479 C124.369799,36.8620029 122.556165,38.8318935 120.05781,38.8318935 L117.933419,38.8318935 L117.933419,29.8743339 L120.05781,29.8743339 Z" id="path332"></path>
                        <path d="M138.829709,41.6620751 C138.829709,41.8832927 139.028103,42.0816863 139.251076,42.0816863 L141.882864,42.0816863 C142.12515,42.0816863 142.302475,41.8832927 142.302475,41.6620751 L142.302475,36.0877411 L148.628247,36.0877411 L148.628247,41.6620751 C148.628247,41.8832927 148.805572,42.0816863 149.047858,42.0816863 L151.679646,42.0816863 C151.900864,42.0816863 152.101013,41.8832927 152.101013,41.6620751 L152.101013,27.0213283 C152.101013,26.7983549 151.900864,26.5999613 151.679646,26.5999613 L149.047858,26.5999613 C148.805572,26.5999613 148.628247,26.7983549 148.628247,27.0213283 L148.628247,32.8379483 L142.302475,32.8379483 L142.302475,27.0213283 C142.302475,26.7983549 142.12515,26.5999613 141.882864,26.5999613 L139.251076,26.5999613 C139.028103,26.5999613 138.829709,26.7983549 138.829709,27.0213283 L138.829709,41.6620751 Z" id="path336"></path>
                        <path d="M157.072968,41.6620751 C157.072968,41.8832927 157.271362,42.0816863 157.494335,42.0816863 L160.213908,42.0816863 C160.457949,42.0816863 160.633519,41.8832927 160.633519,41.6620751 L160.633519,32.7045154 C160.633519,31.1559918 161.785255,29.9182263 163.354847,29.9182263 C164.947263,29.9182263 166.120068,31.1559918 166.120068,32.7045154 L166.120068,41.6620751 C166.120068,41.8832927 166.295638,42.0816863 166.539679,42.0816863 L169.259252,42.0816863 C169.48047,42.0816863 169.680619,41.8832927 169.680619,41.6620751 L169.680619,32.5271901 C169.680619,29.1650328 166.848682,26.3787437 163.354847,26.3787437 C159.882081,26.3787437 157.072968,29.1650328 157.072968,32.5271901 L157.072968,41.6620751 Z" id="path340"></path>
                        <path d="M177.10809,38.8310157 L173.946082,38.8310157 C173.70204,38.8310157 173.526471,39.0294093 173.526471,39.250627 L173.526471,41.6611972 C173.526471,41.8824149 173.70204,42.0825642 173.946082,42.0825642 L183.765688,42.0825642 C184.007974,42.0825642 184.185299,41.8824149 184.185299,41.6611972 L184.185299,39.250627 C184.185299,39.0294093 184.007974,38.8310157 183.765688,38.8310157 L180.601924,38.8310157 L180.601924,27.0204505 C180.601924,26.7992328 180.403531,26.6008392 180.182313,26.6008392 L177.529457,26.6008392 C177.306484,26.6008392 177.10809,26.7992328 177.10809,27.0204505 L177.10809,38.8310157 Z" id="path344"></path>
                        <path d="M194.688925,42.3037819 C196.901101,42.3037819 198.53741,41.6173048 200.042041,40.2461064 C200.240435,40.0705369 200.240435,39.8054268 200.064865,39.6281015 L198.339016,37.8355362 C198.182759,37.681035 197.940473,37.681035 197.785972,37.8355362 C196.967818,38.5659056 195.882798,38.9644486 194.799534,38.9644486 C192.301179,38.9644486 190.464721,36.8839491 190.464721,34.4084181 C190.464721,31.9521998 192.322247,29.9173484 194.822358,29.9173484 C195.86173,29.9173484 196.988886,30.2930673 197.785972,30.9795443 C197.940473,31.1129772 198.226652,31.1129772 198.360085,30.9567203 L200.085933,29.1220183 C200.240435,28.9657613 200.217611,28.6795829 200.064865,28.5250817 C198.558478,27.0643429 196.65706,26.3796215 194.688925,26.3796215 C190.264571,26.3796215 186.704021,29.8962801 186.704021,34.3188776 C186.704021,38.7432309 190.264571,42.3037819 194.688925,42.3037819" id="path348"></path>
                        <path d="M204.019745,41.6620751 C204.019745,41.8832927 204.218139,42.0816863 204.439357,42.0816863 L207.0729,42.0816863 C207.315186,42.0816863 207.492511,41.8832927 207.492511,41.6620751 L207.492511,36.0877411 L213.816528,36.0877411 L213.816528,41.6620751 C213.816528,41.8832927 213.993853,42.0816863 214.237895,42.0816863 L216.869682,42.0816863 C217.0909,42.0816863 217.289294,41.8832927 217.289294,41.6620751 L217.289294,27.0213283 C217.289294,26.7983549 217.0909,26.5999613 216.869682,26.5999613 L214.237895,26.5999613 C213.993853,26.5999613 213.816528,26.7983549 213.816528,27.0213283 L213.816528,32.8379483 L207.492511,32.8379483 L207.492511,27.0213283 C207.492511,26.7983549 207.315186,26.5999613 207.0729,26.5999613 L204.439357,26.5999613 C204.218139,26.5999613 204.019745,26.7983549 204.019745,27.0213283 L204.019745,41.6620751 Z" id="path352"></path>
                        <path d="M71.288972,19.0610038 C72.4055945,19.0610038 73.2114588,18.7063533 73.9646523,18.0321661 C74.0629713,17.9443813 74.0629713,17.8109485 73.9751865,17.7231637 L73.3009993,17.0261525 C73.2237487,16.9383677 73.1131399,16.9383677 73.0235994,17.0261525 C72.5618514,17.4352296 71.9420908,17.6792713 71.3223302,17.6792713 C69.9072395,17.6792713 68.8573334,16.4959324 68.8573334,15.1036656 C68.8573334,13.7219331 69.9195293,12.5491283 71.3346201,12.5491283 C71.9965174,12.5491283 72.5618514,12.8037042 73.0235994,13.1794231 C73.1131399,13.2566737 73.2342829,13.2461396 73.3009993,13.1794231 L73.9857207,12.4718777 C74.0752611,12.3946271 74.0524371,12.2524158 73.9751865,12.1734095 C73.2237487,11.4447957 72.2739173,11.1006794 71.288972,11.1006794 C69.0785511,11.1006794 67.2982756,12.8598865 67.2982756,15.0703074 C67.2982756,17.2807284 69.0785511,19.0610038 71.288972,19.0610038" id="path356"></path>
                        <path d="M76.3243074,18.7404138 C76.3243074,18.8510226 76.4226263,18.9493416 76.5349909,18.9493416 L77.5831412,18.9493416 C77.7060399,18.9493416 77.7938247,18.8510226 77.7938247,18.7404138 L77.7938247,14.2194973 C77.7938247,13.2802 78.4346537,12.5392964 79.3967749,12.5392964 C80.3588962,12.5392964 81.0102593,13.2802 81.0102593,14.2072074 L81.0102593,18.7404138 C81.0102593,18.8510226 81.0997998,18.9493416 81.2209428,18.9493416 L82.2708488,18.9493416 C82.3814577,18.9493416 82.4815323,18.8510226 82.4815323,18.7404138 L82.4815323,14.140491 C82.4815323,12.4602901 81.1436922,11.1013816 79.3967749,11.1013816 C77.6621475,11.1013816 76.3243074,12.4602901 76.3243074,14.140491 L76.3243074,18.7404138 Z" id="path360"></path>
                        <path d="M85.0889161,18.7404138 C85.0889161,18.8510226 85.1767009,18.9493416 85.2978439,18.9493416 L88.4598519,18.9493416 C89.7871579,18.9493416 90.8704221,17.8889014 90.8704221,16.5738853 C90.8704221,15.5555817 90.1944793,14.7268933 89.2341137,14.3406403 L90.7492791,11.5332828 C90.824774,11.3893157 90.7492791,11.2119905 90.5614197,11.2119905 L89.4009048,11.2119905 C89.2990744,11.2119905 89.2446479,11.2681727 89.2218238,11.3120651 L87.7523065,14.2405656 L86.5250752,14.2405656 L86.5250752,11.4209183 C86.5250752,11.3120651 86.4267562,11.2119905 86.3161474,11.2119905 L85.2978439,11.2119905 C85.1767009,11.2119905 85.0889161,11.3120651 85.0889161,11.4209183 L85.0889161,18.7404138 Z M88.3387089,15.4239045 C88.9251113,15.4239045 89.4325073,15.9313006 89.4325073,16.5510612 C89.4325073,17.1374636 88.9251113,17.6237913 88.3387089,17.6237913 L86.5356094,17.6237913 L86.5356094,15.4239045 L88.3387089,15.4239045 L88.3387089,15.4239045 Z" id="path364"></path>
                        <path d="M93.4548063,18.7404138 C93.4548063,18.8510226 93.542591,18.9493416 93.663734,18.9493416 L98.1635822,18.9493416 C98.2847252,18.9493416 98.37251,18.8510226 98.37251,18.7404138 L98.37251,17.8344748 C98.37251,17.723866 98.2847252,17.6237913 98.1635822,17.6237913 L94.8909654,17.6237913 L94.8909654,15.8101576 L97.6228279,15.8101576 C97.7316811,15.8101576 97.8317557,15.7118386 97.8317557,15.6012298 L97.8317557,14.6830009 C97.8317557,14.5618579 97.7316811,14.4723175 97.6228279,14.4723175 L94.8909654,14.4723175 L94.8909654,12.5392964 L98.1635822,12.5392964 C98.2847252,12.5392964 98.37251,12.4392218 98.37251,12.328613 L98.37251,11.4209183 C98.37251,11.3120651 98.2847252,11.2119905 98.1635822,11.2119905 L93.663734,11.2119905 C93.542591,11.2119905 93.4548063,11.3120651 93.4548063,11.4209183 L93.4548063,18.7404138 Z" id="path368"></path>
                        <path d="M100.726196,12.2956059 L101.124739,12.9803272 C101.212523,13.1365841 101.400383,13.1365841 101.500458,13.0575778 C101.554884,13.0259753 102.450289,12.3728565 103.168368,12.3728565 C103.744237,12.3728565 104.176138,12.7485754 104.176138,13.2243689 C104.176138,13.7879473 103.700344,14.1742003 102.771581,14.5499192 C101.732209,14.9695305 100.692838,15.6331835 100.692838,16.9394211 C100.692838,17.9226107 101.423207,19.0603016 103.180658,19.0603016 C104.307815,19.0603016 105.169862,18.486189 105.391079,18.319398 C105.501688,18.2526815 105.535046,18.0648221 105.457796,17.9559689 L105.038184,17.3256742 C104.948644,17.1922413 104.783609,17.1044565 104.650176,17.1922413 C104.562391,17.2484236 103.723168,17.799712 103.113942,17.799712 C102.483647,17.799712 102.141286,17.3801007 102.141286,17.0272059 C102.141286,16.50752 102.550364,16.1528694 103.445768,15.7894404 C104.518499,15.3575392 105.756264,14.7167103 105.756264,13.2893297 C105.756264,12.1516388 104.771319,11.1017328 103.212261,11.1017328 C101.819994,11.1017328 101.003596,11.7530959 100.780622,11.9637794 C100.682303,12.063854 100.627877,12.1182806 100.726196,12.2956059" id="path372"></path>
                        <path d="M111.816223,12.2956059 L112.213011,12.9803272 C112.302551,13.1365841 112.490411,13.1365841 112.590485,13.0575778 C112.644912,13.0259753 113.540317,12.3728565 114.258396,12.3728565 C114.834264,12.3728565 115.26441,12.7485754 115.26441,13.2243689 C115.26441,13.7879473 114.788616,14.1742003 113.861609,14.5499192 C112.822237,14.9695305 111.782865,15.6331835 111.782865,16.9394211 C111.782865,17.9226107 112.513235,19.0603016 114.26893,19.0603016 C115.397843,19.0603016 116.259889,18.486189 116.481107,18.319398 C116.58996,18.2526815 116.625074,18.0648221 116.546068,17.9559689 L116.128212,17.3256742 C116.038672,17.1922413 115.873636,17.1044565 115.740203,17.1922413 C115.652419,17.2484236 114.81144,17.799712 114.20397,17.799712 C113.573675,17.799712 113.231314,17.3801007 113.231314,17.0272059 C113.231314,16.50752 113.638636,16.1528694 114.53404,15.7894404 C115.608526,15.3575392 116.844536,14.7167103 116.844536,13.2893297 C116.844536,12.1516388 115.861346,11.1017328 114.302289,11.1017328 C112.910022,11.1017328 112.091868,11.7530959 111.87065,11.9637794 C111.770575,12.063854 111.716149,12.1182806 111.816223,12.2956059" id="path376"></path>
                        <path d="M120.528512,17.6234402 L118.836022,17.6234402 C118.714879,17.6234402 118.627094,17.7235148 118.627094,17.8341237 L118.627094,18.7400627 C118.627094,18.8506715 118.714879,18.9507461 118.836022,18.9507461 L123.667696,18.9507461 C123.788839,18.9507461 123.87838,18.8506715 123.87838,18.7400627 L123.87838,17.8341237 C123.87838,17.7235148 123.788839,17.6234402 123.667696,17.6234402 L121.975206,17.6234402 L121.975206,11.4223228 C121.975206,11.311714 121.876887,11.2116393 121.766278,11.2116393 L120.739196,11.2116393 C120.626831,11.2116393 120.528512,11.311714 120.528512,11.4223228 L120.528512,17.6234402 Z" id="path380"></path>
                        <path d="M124.598917,11.4992223 L128.03657,18.9381051 C128.069928,19.0048216 128.124354,19.0610038 128.224429,19.0610038 L128.335038,19.0610038 C128.445647,19.0610038 128.489539,19.0048216 128.522897,18.9381051 L131.927191,11.4992223 C131.993908,11.3570109 131.904367,11.2130439 131.739332,11.2130439 L130.778966,11.2130439 C130.612175,11.2130439 130.534925,11.2780046 130.457674,11.4325059 L129.915164,12.6281347 L126.609189,12.6281347 L126.068435,11.4325059 C126.024542,11.321897 125.924468,11.2130439 125.748898,11.2130439 L124.786777,11.2130439 C124.619986,11.2130439 124.532201,11.3570109 124.598917,11.4992223 L124.598917,11.4992223 Z M129.372654,13.8536103 L128.268321,16.2870046 L128.234963,16.2870046 L127.151699,13.8536103 L129.372654,13.8536103 L129.372654,13.8536103 Z" id="path384"></path>
                        <path d="M133.881456,18.7404138 C133.881456,18.8510226 133.970997,18.9493416 134.09214,18.9493416 L137.254148,18.9493416 C138.579698,18.9493416 139.662962,17.8889014 139.662962,16.5738853 C139.662962,15.5555817 138.988775,14.7268933 138.026654,14.3406403 L139.541819,11.5332828 C139.61907,11.3893157 139.541819,11.2119905 139.35396,11.2119905 L138.193445,11.2119905 C138.09337,11.2119905 138.037188,11.2681727 138.01612,11.3120651 L136.546602,14.2405656 L135.319371,14.2405656 L135.319371,11.4209183 C135.319371,11.3120651 135.219296,11.2119905 135.108688,11.2119905 L134.09214,11.2119905 C133.970997,11.2119905 133.881456,11.3120651 133.881456,11.4209183 L133.881456,18.7404138 Z M137.131249,15.4239045 C137.717651,15.4239045 138.226803,15.9313006 138.226803,16.5510612 C138.226803,17.1374636 137.717651,17.6237913 137.131249,17.6237913 L135.329905,17.6237913 L135.329905,15.4239045 L137.131249,15.4239045 L137.131249,15.4239045 Z" id="path388"></path>
                        <path d="M143.43525,17.6234402 L141.74276,17.6234402 C141.621617,17.6234402 141.532076,17.7235148 141.532076,17.8341237 L141.532076,18.7400627 C141.532076,18.8506715 141.621617,18.9507461 141.74276,18.9507461 L146.574434,18.9507461 C146.697333,18.9507461 146.785118,18.8506715 146.785118,18.7400627 L146.785118,17.8341237 C146.785118,17.7235148 146.697333,17.6234402 146.574434,17.6234402 L144.883699,17.6234402 L144.883699,11.4223228 C144.883699,11.311714 144.783625,11.2116393 144.673016,11.2116393 L143.645934,11.2116393 C143.535325,11.2116393 143.43525,11.311714 143.43525,11.4223228 L143.43525,17.6234402 Z" id="path392"></path>
                        <path d="M153.049265,18.7404138 C153.049265,18.8510226 153.149339,18.9493416 153.259948,18.9493416 L154.28703,18.9493416 C154.409929,18.9493416 154.497713,18.8510226 154.497713,18.7404138 L154.497713,15.8101576 L158.102157,15.8101576 L158.102157,18.7404138 C158.102157,18.8510226 158.189942,18.9493416 158.311085,18.9493416 L159.327632,18.9493416 C159.438241,18.9493416 159.538316,18.8510226 159.538316,18.7404138 L159.538316,11.4209183 C159.538316,11.3120651 159.438241,11.2119905 159.327632,11.2119905 L158.311085,11.2119905 C158.189942,11.2119905 158.102157,11.3120651 158.102157,11.4209183 L158.102157,14.4723175 L154.497713,14.4723175 L154.497713,11.4209183 C154.497713,11.3120651 154.409929,11.2119905 154.28703,11.2119905 L153.259948,11.2119905 C153.149339,11.2119905 153.049265,11.3120651 153.049265,11.4209183 L153.049265,18.7404138 Z" id="path396"></path>
                        <path d="M162.599371,18.7404138 C162.599371,18.8510226 162.688912,18.9493416 162.810055,18.9493416 L167.308147,18.9493416 C167.42929,18.9493416 167.518831,18.8510226 167.518831,18.7404138 L167.518831,17.8344748 C167.518831,17.723866 167.42929,17.6237913 167.308147,17.6237913 L164.037286,17.6237913 L164.037286,15.8101576 L166.767393,15.8101576 C166.878002,15.8101576 166.976321,15.7118386 166.976321,15.6012298 L166.976321,14.6830009 C166.976321,14.5618579 166.878002,14.4723175 166.767393,14.4723175 L164.037286,14.4723175 L164.037286,12.5392964 L167.308147,12.5392964 C167.42929,12.5392964 167.518831,12.4392218 167.518831,12.328613 L167.518831,11.4209183 C167.518831,11.3120651 167.42929,11.2119905 167.308147,11.2119905 L162.810055,11.2119905 C162.688912,11.2119905 162.599371,11.3120651 162.599371,11.4209183 L162.599371,18.7404138 Z" id="path400"></path>
                        <path d="M170.407477,18.7404138 C170.407477,18.8510226 170.497018,18.9493416 170.618161,18.9493416 L173.780169,18.9493416 C175.105719,18.9493416 176.188983,17.8889014 176.188983,16.5738853 C176.188983,15.5555817 175.514796,14.7268933 174.552675,14.3406403 L176.06784,11.5332828 C176.145091,11.3893157 176.06784,11.2119905 175.879981,11.2119905 L174.719466,11.2119905 C174.619391,11.2119905 174.563209,11.2681727 174.542141,11.3120651 L173.072623,14.2405656 L171.845392,14.2405656 L171.845392,11.4209183 C171.845392,11.3120651 171.745317,11.2119905 171.634708,11.2119905 L170.618161,11.2119905 C170.497018,11.2119905 170.407477,11.3120651 170.407477,11.4209183 L170.407477,18.7404138 Z M173.65727,15.4239045 C174.243672,15.4239045 174.752824,15.9313006 174.752824,16.5510612 C174.752824,17.1374636 174.243672,17.6237913 173.65727,17.6237913 L171.855926,17.6237913 L171.855926,15.4239045 L173.65727,15.4239045 L173.65727,15.4239045 Z" id="path404"></path>
                        <path d="M178.720345,18.7404138 C178.720345,18.8510226 178.80813,18.9493416 178.929273,18.9493416 L183.429121,18.9493416 C183.550264,18.9493416 183.638049,18.8510226 183.638049,18.7404138 L183.638049,17.8344748 C183.638049,17.723866 183.550264,17.6237913 183.429121,17.6237913 L180.156504,17.6237913 L180.156504,15.8101576 L182.888367,15.8101576 C182.99722,15.8101576 183.097295,15.7118386 183.097295,15.6012298 L183.097295,14.6830009 C183.097295,14.5618579 182.99722,14.4723175 182.888367,14.4723175 L180.156504,14.4723175 L180.156504,12.5392964 L183.429121,12.5392964 C183.550264,12.5392964 183.638049,12.4392218 183.638049,12.328613 L183.638049,11.4209183 C183.638049,11.3120651 183.550264,11.2119905 183.429121,11.2119905 L178.929273,11.2119905 C178.80813,11.2119905 178.720345,11.3120651 178.720345,11.4209183 L178.720345,18.7404138 Z" id="path408"></path>
                        <path d="M185.743304,18.5599283 L185.144612,18.5599283 C185.104231,18.5599283 185.074384,18.5932865 185.074384,18.6301561 L185.074384,18.8355725 C185.074384,18.8724421 185.104231,18.9058003 185.144612,18.9058003 L186.724738,18.9058003 C186.765119,18.9058003 186.794966,18.8724421 186.794966,18.8355725 L186.794966,18.6301561 C186.794966,18.5932865 186.765119,18.5599283 186.724738,18.5599283 L186.126045,18.5599283 L186.126045,16.4021782 C186.126045,16.3653086 186.092687,16.3337061 186.055818,16.3337061 L185.813532,16.3337061 C185.776662,16.3337061 185.743304,16.3653086 185.743304,16.4021782 L185.743304,18.5599283 Z" id="path412"></path>
                        <path d="M187.686157,18.88719 C187.69318,18.9170368 187.721271,18.9416165 187.751117,18.9416165 L187.810811,18.9416165 C187.833635,18.9416165 187.865238,18.9240596 187.87226,18.9012355 L188.641255,17.0243968 L188.657056,17.0243968 L189.420784,18.9012355 C189.427807,18.9240596 189.457654,18.9416165 189.482233,18.9416165 L189.541927,18.9416165 C189.571774,18.9416165 189.599865,18.9170368 189.608644,18.88719 L190.059857,16.4169261 C190.070392,16.3660109 190.045812,16.3326527 189.994897,16.3326527 L189.754366,16.3326527 C189.722764,16.3326527 189.692917,16.3589881 189.684138,16.3835678 L189.413761,18.026899 L189.401471,18.026899 L188.74133,16.336164 C188.732551,16.3150957 188.711483,16.295783 188.678125,16.295783 L188.611408,16.295783 C188.583317,16.295783 188.556982,16.3150957 188.549959,16.336164 L187.88455,18.026899 L187.868749,18.026899 L187.605395,16.3835678 C187.601883,16.3589881 187.568525,16.3326527 187.538678,16.3326527 L187.299904,16.3326527 C187.247233,16.3326527 187.222653,16.3660109 187.229676,16.4169261 L187.686157,18.88719 Z" id="path416"></path>
                    </g>
                </g>
            </g>
        </g>
    </g>
</svg>