<?xml version="1.0" encoding="UTF-8"?>
<svg width="349px" height="190px" viewBox="0 0 349 190" version="1.1" xmlns="http://www.w3.org/2000/svg" xmlns:xlink="http://www.w3.org/1999/xlink">
    <!-- Generator: Sketch 63.1 (92452) - https://sketch.com -->
    <title>Group</title>
    <desc>Created with Sketch.</desc>
    <g id="Page1" stroke="none" stroke-width="1" fill="none" fill-rule="evenodd">
        <g id="Home_Desktop_NEW" transform="translate(-925.000000, -668.000000)">
            <g id="Group-7" transform="translate(924.000000, 668.000000)">
                <g id="Group-9">
                    <g id="Group" transform="translate(1.000000, 0.000000)">
                        <g id="Group-6" transform="translate(113.000000, 24.000000)" fill="#6CC6F3">
                            <path d="M13.1553237,165.261032 C11.8805656,153.598194 11.1220978,144.200452 10.8080656,130.398355 C10.6004849,121.359387 10.5845172,112.315065 10.738872,103.276097 C10.8719366,95.4794516 11.9284688,87.3641935 10.821372,79.6157419 C9.71693656,71.910129 5.81016236,64.9649032 3.61193656,57.569871 C0.0883881685,45.7089032 -0.316127961,32.7475161 1.19282365,20.5197419 C1.84217849,15.2800323 2.45427527,8.65074194 5.09161397,3.984 C7.32443656,0.0321290323 12.5219366,-2.15532258 14.8532269,3.11919355 C16.577743,7.02019355 11.9258075,17.0819355 12.3808882,28.1262903 C12.9344366,41.4009355 22.371372,48.0034516 34.8075817,47.7437419 C47.5631462,47.4786774 59.5336301,54.2766452 61.9793559,66.649 C63.025243,71.9342258 71.669114,123.798516 57.1570978,118.815839 L56.8989527,121.287097 C57.3620172,130.826742 55.7545978,150.749419 54.3148398,165.261032 L13.1553237,165.261032 Z" id="Fill-1"></path>
                            <path d="M36.2090172,39.0614065 C28.2730495,39.0614065 21.8380495,32.5900839 21.8380495,24.6033419 C21.8380495,16.6192774 28.2730495,10.1452774 36.2090172,10.1452774 C44.1449849,10.1452774 50.5799849,16.6192774 50.5799849,24.6033419 C50.5799849,32.5900839 44.1449849,39.0614065 36.2090172,39.0614065" id="Fill-4"></path>
                        </g>
                        <g id="Group-6" transform="translate(180.000000, 24.000000)" fill="#CCE7F4">
                            <path d="M13.1553237,165.261032 C11.8805656,153.598194 11.1220978,144.200452 10.8080656,130.398355 C10.6004849,121.359387 10.5845172,112.315065 10.738872,103.276097 C10.8719366,95.4794516 11.9284688,87.3641935 10.821372,79.6157419 C9.71693656,71.910129 5.81016236,64.9649032 3.61193656,57.569871 C0.0883881685,45.7089032 -0.316127961,32.7475161 1.19282365,20.5197419 C1.84217849,15.2800323 2.45427527,8.65074194 5.09161397,3.984 C7.32443656,0.0321290323 12.5219366,-2.15532258 14.8532269,3.11919355 C16.577743,7.02019355 11.9258075,17.0819355 12.3808882,28.1262903 C12.9344366,41.4009355 22.371372,48.0034516 34.8075817,47.7437419 C47.5631462,47.4786774 59.5336301,54.2766452 61.9793559,66.649 C63.025243,71.9342258 71.669114,123.798516 57.1570978,118.815839 L56.8989527,121.287097 C57.3620172,130.826742 55.7545978,150.749419 54.3148398,165.261032 L13.1553237,165.261032 Z" id="Fill-1"></path>
                            <path d="M36.2090172,39.0614065 C28.2730495,39.0614065 21.8380495,32.5900839 21.8380495,24.6033419 C21.8380495,16.6192774 28.2730495,10.1452774 36.2090172,10.1452774 C44.1449849,10.1452774 50.5799849,16.6192774 50.5799849,24.6033419 C50.5799849,32.5900839 44.1449849,39.0614065 36.2090172,39.0614065" id="Fill-4"></path>
                        </g>
                        <g id="Group-6" transform="translate(28.000000, 0.000000)" fill="#6CC6F3">
                            <path d="M14.7245701,189.154194 C13.2572899,175.805161 12.3842735,165.04871 12.0228141,149.251129 C11.7838833,138.905323 11.765504,128.553387 11.9431705,118.207581 C12.0963313,109.28371 13.3124278,99.9951613 12.0381302,91.1264516 C10.7668958,82.3067742 6.2700956,74.3574194 3.73987968,65.8932258 C-0.315817508,52.3174194 -0.781426249,37.4820968 0.955416883,23.4864516 C1.70284144,17.4891935 2.40738098,9.90145161 5.44302745,4.56 C8.01306517,0.0367741935 13.9955248,-2.46693548 16.6789015,3.57016129 C18.6638651,8.03516129 13.3093646,19.5516129 13.8331744,32.1927419 C14.4703232,47.3866129 25.332485,54.9437097 39.6468906,54.6464516 C54.328882,54.3430645 68.1072249,62.123871 70.9223198,76.285 C72.1261635,82.3343548 82.0754871,141.697097 65.3717735,135.994032 L65.0746416,138.822581 C65.6076411,149.741452 63.757459,172.544516 62.1002595,189.154194 L14.7245701,189.154194 Z" id="Fill-1"></path>
                            <path d="M41.2599798,44.7088387 C32.1254715,44.7088387 24.7186167,37.3019032 24.7186167,28.1604516 C24.7186167,19.0220645 32.1254715,11.6120645 41.2599798,11.6120645 C50.3944882,11.6120645 57.801343,19.0220645 57.801343,28.1604516 C57.801343,37.3019032 50.3944882,44.7088387 41.2599798,44.7088387" id="Fill-4"></path>
                        </g>
                        <g id="Group-6" transform="translate(284.500000, 95.000000) scale(-1, 1) translate(-284.500000, -95.000000) translate(247.000000, 0.000000)" fill="#CCE7F4">
                            <path d="M14.7308226,189.154194 C13.2629194,175.805161 12.3895323,165.04871 12.0279194,149.251129 C11.7888871,138.905323 11.7705,128.553387 11.9482419,118.207581 C12.1014677,109.28371 13.3180806,99.9951613 12.0432419,91.1264516 C10.7714677,82.3067742 6.27275806,74.3574194 3.74146774,65.8932258 C-0.315951613,52.3174194 -0.781758065,37.4820968 0.955822581,23.4864516 C1.70356452,17.4891935 2.40840323,9.90145161 5.44533871,4.56 C8.01646774,0.0367741935 14.0014677,-2.46693548 16.6859839,3.57016129 C18.6717903,8.03516129 13.3150161,19.5516129 13.8390484,32.1927419 C14.4764677,47.3866129 25.3432419,54.9437097 39.6637258,54.6464516 C54.3519516,54.3430645 68.1361452,62.123871 70.9524355,76.285 C72.1567903,82.3343548 82.1103387,141.697097 65.3995323,135.994032 L65.1022742,138.822581 C65.6355,149.741452 63.7845323,172.544516 62.126629,189.154194 L14.7308226,189.154194 Z" id="Fill-1"></path>
                            <path d="M41.2775,44.7088387 C32.1391129,44.7088387 24.7291129,37.3019032 24.7291129,28.1604516 C24.7291129,19.0220645 32.1391129,11.6120645 41.2775,11.6120645 C50.4158871,11.6120645 57.8258871,19.0220645 57.8258871,28.1604516 C57.8258871,37.3019032 50.4158871,44.7088387 41.2775,44.7088387" id="Fill-4"></path>
                        </g>
                        <g id="Group-6" transform="translate(0.000000, 48.000000)" fill="#0A5CA9">
                            <path d="M10.9411246,141.367871 C9.85085884,131.391226 9.20216206,123.352194 8.93357884,111.545581 C8.75604077,103.813452 8.742384,96.0767419 8.87439948,88.3446129 C8.98820594,81.6751935 9.89182916,74.7332258 8.94495948,68.1050323 C8.00036594,61.5134839 4.65900852,55.5723871 2.77892594,49.2465161 C-0.234668903,39.1003871 -0.580640516,28.0129355 0.709924645,17.5530323 C1.26530013,13.070871 1.78880981,7.40003226 4.04445368,3.408 C5.95412594,0.027483871 10.3994059,-1.84370968 12.393295,2.66822581 C13.8682266,6.00522581 9.88955303,14.6122581 10.2787711,24.0598387 C10.7522059,35.4152581 18.8233595,41.0631935 29.4597105,40.8410323 C40.3691969,40.6142903 50.6072253,46.4294194 52.6989879,57.013 C53.5935066,61.5340968 60.9863737,105.899935 48.5746421,101.637645 L48.3538575,103.751613 C48.749904,111.912032 47.3751221,128.954323 46.1437363,141.367871 L10.9411246,141.367871 Z" id="Fill-1"></path>
                            <path d="M30.65832,33.4139742 C23.8709032,33.4139742 18.3672232,27.8782645 18.3672232,21.0462323 C18.3672232,14.2164903 23.8709032,8.67849032 30.65832,8.67849032 C37.4457368,8.67849032 42.9494168,14.2164903 42.9494168,21.0462323 C42.9494168,27.8782645 37.4457368,33.4139742 30.65832,33.4139742" id="Fill-4"></path>
                        </g>
                        <g id="Group-6" transform="translate(224.000000, 36.000000)" fill="#2A9CE6">
                            <path d="M11.9719019,153.314452 C10.7789208,142.49471 10.0691094,133.776323 9.77522264,120.971968 C9.58095849,112.586419 9.56601509,104.195903 9.71046792,95.8103548 C9.83499623,88.5773226 10.8237509,81.0487097 9.78767547,73.8603871 C8.75409057,66.7118065 5.09793962,60.2686452 3.04073208,53.4081935 C-0.256777358,42.4046452 -0.635343396,30.3802258 0.776807547,19.0363871 C1.38450566,14.1754516 1.95733585,8.0253871 4.42548679,3.696 C6.5150717,0.0298064516 11.3791472,-1.99951613 13.560883,2.89370968 C15.1747698,6.51270968 10.8212604,15.8470968 11.2471472,26.0930645 C11.7651849,38.4080968 20.5967321,44.5333226 32.2351472,44.2923871 C44.1724302,44.0464839 55.3749962,50.3530323 57.6638264,61.831 C58.6426189,66.7341613 66.7319774,114.849226 53.1509208,110.226742 L52.9093358,112.519355 C53.3426943,121.369387 51.8383925,139.851871 50.4909962,153.314452 L11.9719019,153.314452 Z" id="Fill-1"></path>
                            <path d="M33.5466792,36.2376903 C26.1198113,36.2376903 20.0976226,30.2341742 20.0976226,22.8247871 C20.0976226,15.4178839 26.1198113,9.41188387 33.5466792,9.41188387 C40.9735472,9.41188387 46.9957358,15.4178839 46.9957358,22.8247871 C46.9957358,30.2341742 40.9735472,36.2376903 33.5466792,36.2376903" id="Fill-4"></path>
                        </g>
                        <g id="Group-6" transform="translate(179.500000, 119.000000) scale(-1, 1) translate(-179.500000, -119.000000) translate(150.000000, 48.000000)" fill="#0A5CA9">
                            <path d="M11.5272563,141.367871 C10.3785834,131.391226 9.69513503,123.352194 9.41216342,111.545581 C9.22511439,103.813452 9.210726,96.0767419 9.34981374,88.3446129 C9.46971697,81.6751935 10.4217486,74.7332258 9.42415374,68.1050323 C8.42895697,61.5134839 4.90859826,55.5723871 2.92779697,49.2465161 C-0.247240452,39.1003871 -0.611746258,28.0129355 0.747956323,17.5530323 C1.33308406,13.070871 1.8846389,7.40003226 4.26112084,3.408 C6.27309697,0.027483871 10.956517,-1.84370968 13.0572215,2.66822581 C14.6111673,6.00522581 10.4193505,14.6122581 10.8294195,24.0598387 C11.328217,35.4152581 19.8317537,41.0631935 31.0379092,40.8410323 C42.5318325,40.6142903 53.3183266,46.4294194 55.5221479,57.013 C56.4645873,61.5340968 64.2535008,105.899935 51.176855,101.637645 L50.9442428,103.751613 C51.361506,111.912032 49.913075,128.954323 48.6157221,141.367871 L11.5272563,141.367871 Z" id="Fill-1"></path>
                            <path d="M32.30073,33.4139742 C25.1497016,33.4139742 19.3511816,27.8782645 19.3511816,21.0462323 C19.3511816,14.2164903 25.1497016,8.67849032 32.30073,8.67849032 C39.4517584,8.67849032 45.2502784,14.2164903 45.2502784,21.0462323 C45.2502784,27.8782645 39.4517584,33.4139742 32.30073,33.4139742" id="Fill-4"></path>
                        </g>
                        <g id="Group-6" transform="translate(323.000000, 125.000000) scale(-1, 1) translate(-323.000000, -125.000000) translate(297.000000, 60.000000)" fill="#2A9CE6">
                            <path d="M10.0789839,129.42129 C9.07462903,120.287742 8.47704839,112.928065 8.22962903,102.119194 C8.06608065,95.0404839 8.0535,87.9575806 8.1751129,80.878871 C8.27995161,74.7730645 9.11237097,68.4177419 8.2401129,62.3496774 C7.36995161,56.3151613 4.2918871,50.876129 2.55995161,45.0848387 C-0.216177419,35.796129 -0.534887097,25.6456452 0.653983871,16.0696774 C1.16559677,11.9662903 1.64785484,6.77467742 3.72575806,3.12 C5.48495161,0.0251612903 9.57995161,-1.68790323 11.4167258,2.44274194 C12.7754355,5.49774194 9.11027419,13.3774194 9.46882258,22.0266129 C9.90495161,32.4224194 17.3401129,37.5930645 27.1383387,37.3896774 C37.1881774,37.1820968 46.6194677,42.5058065 48.5464032,52.195 C49.3704355,56.3340323 56.1807581,96.9506452 44.7470484,93.0485484 L44.5436613,94.983871 C44.9085,102.454677 43.6420484,118.056774 42.5076935,129.42129 L10.0789839,129.42129 Z" id="Fill-1"></path>
                            <path d="M28.2425,30.5902581 C21.9899194,30.5902581 16.9199194,25.5223548 16.9199194,19.2676774 C16.9199194,13.0150968 21.9899194,7.94509677 28.2425,7.94509677 C34.4950806,7.94509677 39.5650806,13.0150968 39.5650806,19.2676774 C39.5650806,25.5223548 34.4950806,30.5902581 28.2425,30.5902581" id="Fill-4"></path>
                        </g>
                        <g id="Group-6" transform="translate(110.500000, 101.000000) scale(-1, 1) translate(-110.500000, -101.000000) translate(75.000000, 12.000000)" fill="#0A5CA9">
                            <path d="M13.7616895,177.207613 C12.3903589,164.701677 11.5744315,154.624581 11.2366089,139.824742 C11.0133024,130.132355 10.996125,120.434226 11.1621734,110.741839 C11.3053185,102.381581 12.4418911,93.6796774 11.2509234,85.3710968 C10.0628185,77.1084516 5.86007661,69.6611613 3.49531855,61.7315484 C-0.295165323,49.0131613 -0.730326613,35.1148065 0.892939516,22.0030968 C1.5914879,16.3846129 2.24995565,9.27609677 5.08709274,4.272 C7.48906855,0.0344516129 13.0803185,-2.31112903 15.5882218,3.34467742 C17.4433831,7.52767742 12.4390282,18.3167742 12.9285847,30.1595161 C13.5240685,44.3937742 23.6759234,51.4735806 37.0542702,51.1950968 C50.7761653,50.910871 63.653504,58.2002581 66.2845121,71.467 C67.4096331,77.1342903 76.7083427,132.747806 61.0969315,127.404935 L60.8192298,130.054839 C61.317375,140.284097 59.5881815,161.646968 58.0393508,177.207613 L13.7616895,177.207613 Z" id="Fill-1"></path>
                            <path d="M38.561875,41.8851226 C30.0246976,41.8851226 23.1021976,34.9459935 23.1021976,26.3818968 C23.1021976,17.820671 30.0246976,10.878671 38.561875,10.878671 C47.0990524,10.878671 54.0215524,17.820671 54.0215524,26.3818968 C54.0215524,34.9459935 47.0990524,41.8851226 38.561875,41.8851226" id="Fill-4"></path>
                        </g>
                    </g>
                </g>
            </g>
        </g>
    </g>
</svg>