<svg xmlns="http://www.w3.org/2000/svg" viewBox="0 0 140 140"><title>Rain_Pattern_Tile</title><rect width="140" height="140" style="fill:#095da8"/><path d="M90,87.5a2.49,2.49,0,0,1-1.77-.73,2.52,2.52,0,0,1,0-3.54l30-30a2.5,2.5,0,1,1,3.54,3.54l-30,30A2.49,2.49,0,0,1,90,87.5Z" style="fill:#074f8e"/><circle cx="47.5" cy="107.5" r="2.5" style="fill:#074f8e"/><path d="M50,127.5a2.49,2.49,0,0,1-1.77-.73,2.52,2.52,0,0,1,0-3.54l25-25a2.5,2.5,0,0,1,3.54,3.54l-25,25A2.49,2.49,0,0,1,50,127.5Z" style="fill:#074f8e"/><circle cx="82.5" cy="92.5" r="2.5" style="fill:#074f8e"/><circle cx="72.5" cy="122.5" r="2.5" style="fill:#074f8e"/><path d="M80,117.5a2.49,2.49,0,0,1-1.77-.73,2.52,2.52,0,0,1,0-3.54l40-40a2.5,2.5,0,0,1,3.54,3.54l-40,40A2.49,2.49,0,0,1,80,117.5Z" style="fill:#074f8e"/><circle cx="127.5" cy="67.5" r="2.5" style="fill:#074f8e"/><circle cx="32.5" cy="22.5" r="2.5" style="fill:#074f8e"/><path d="M50,87.5a2.49,2.49,0,0,1-1.77-.73,2.52,2.52,0,0,1,0-3.54l40-40a2.5,2.5,0,1,1,3.54,3.54l-40,40A2.49,2.49,0,0,1,50,87.5Z" style="fill:#074f8e"/><path d="M20,97.5a2.49,2.49,0,0,1-1.77-.73,2.52,2.52,0,0,1,0-3.54l30-30a2.5,2.5,0,0,1,3.54,3.54l-30,30A2.49,2.49,0,0,1,20,97.5Z" style="fill:#074f8e"/><circle cx="97.5" cy="37.5" r="2.5" style="fill:#074f8e"/><path d="M25,112.5a2.49,2.49,0,0,1-1.77-.73,2.52,2.52,0,0,1,0-3.54l15-15a2.5,2.5,0,0,1,3.54,3.54l-15,15A2.49,2.49,0,0,1,25,112.5Z" style="fill:#074f8e"/><circle cx="17.5" cy="117.5" r="2.5" style="fill:#074f8e"/><circle cx="117.5" cy="97.5" r="2.5" style="fill:#074f8e"/><circle cx="97.5" cy="17.5" r="2.5" style="fill:#074f8e"/><circle cx="57.5" cy="57.5" r="2.5" style="fill:#074f8e"/><path d="M65,52.5a2.49,2.49,0,0,1-1.77-.73,2.52,2.52,0,0,1,0-3.54l25-25a2.5,2.5,0,0,1,3.54,3.54l-25,25A2.49,2.49,0,0,1,65,52.5Z" style="fill:#074f8e"/><path d="M5,132.5a2.49,2.49,0,0,1-1.77-.73,2.52,2.52,0,0,1,0-3.54l5-5a2.5,2.5,0,0,1,3.54,3.54l-5,5A2.49,2.49,0,0,1,5,132.5Z" style="fill:#074f8e"/><circle cx="12.5" cy="62.5" r="2.5" style="fill:#074f8e"/><path d="M25,72.5a2.49,2.49,0,0,1-1.77-.73,2.52,2.52,0,0,1,0-3.54l30-30a2.5,2.5,0,0,1,3.54,3.54l-30,30A2.49,2.49,0,0,1,25,72.5Z" style="fill:#074f8e"/><path d="M65,32.5a2.49,2.49,0,0,1-1.77-.73,2.52,2.52,0,0,1,0-3.54l5-5a2.5,2.5,0,0,1,3.54,3.54l-5,5A2.49,2.49,0,0,1,65,32.5Z" style="fill:#074f8e"/><polygon points="0 18.54 18.54 0 11.46 0 0 11.46 0 18.54" style="fill:#074f8e"/><path d="M31.46,0,28.23,3.23a2.52,2.52,0,0,0,0,3.54,2.51,2.51,0,0,0,3.54,0L38.54,0Z" style="fill:#074f8e"/><path d="M51.46,0,38.23,13.23a2.52,2.52,0,0,0,0,3.54,2.51,2.51,0,0,0,3.54,0L58.54,0Z" style="fill:#074f8e"/><path d="M71.46,0,18.23,53.23a2.52,2.52,0,0,0,0,3.54,2.51,2.51,0,0,0,3.54,0L78.54,0Z" style="fill:#074f8e"/><path d="M91.46,0,78.23,13.23a2.52,2.52,0,0,0,0,3.54,2.51,2.51,0,0,0,3.54,0L98.54,0Z" style="fill:#074f8e"/><path d="M111.46,0l-8.23,8.23a2.52,2.52,0,0,0,0,3.54,2.51,2.51,0,0,0,3.54,0L118.54,0Z" style="fill:#074f8e"/><path d="M103.23,28.23a2.52,2.52,0,0,0,0,3.54,2.51,2.51,0,0,0,3.54,0l30-30A2.49,2.49,0,0,0,137.5,0h-6Z" style="fill:#074f8e"/><path d="M140,11.46,53.23,98.23a2.52,2.52,0,0,0,0,3.54,2.51,2.51,0,0,0,3.54,0L140,18.54Z" style="fill:#074f8e"/><path d="M140,31.46,128.23,43.23a2.52,2.52,0,0,0,0,3.54,2.51,2.51,0,0,0,3.54,0L140,38.54Z" style="fill:#074f8e"/><path d="M140,51.46l-6.77,6.77a2.52,2.52,0,0,0,0,3.54,2.51,2.51,0,0,0,3.54,0L140,58.54Z" style="fill:#074f8e"/><path d="M140,71.46,123.23,88.23a2.52,2.52,0,0,0,0,3.54,2.51,2.51,0,0,0,3.54,0L140,78.54Z" style="fill:#074f8e"/><polygon points="98.53 140 140 98.53 140 91.47 91.47 140 98.53 140" style="fill:#074f8e"/><polygon points="118.53 140 140 118.53 140 111.47 111.47 140 118.53 140" style="fill:#074f8e"/><path d="M133.23,138.23,131.46,140h6a2.49,2.49,0,0,0-.73-1.77A2.52,2.52,0,0,0,133.23,138.23Z" style="fill:#074f8e"/><path d="M108.23,103.23,71.46,140h7.08l33.23-33.23a2.5,2.5,0,0,0-3.54-3.54Z" style="fill:#074f8e"/><path d="M63.23,128.23,51.46,140h7.08l8.23-8.23a2.5,2.5,0,1,0-3.54-3.54Z" style="fill:#074f8e"/><path d="M38.23,133.23,31.46,140h7.08l3.23-3.23a2.5,2.5,0,1,0-3.54-3.54Z" style="fill:#074f8e"/><path d="M38.23,113.23,11.46,140h7.08l23.23-23.23a2.5,2.5,0,0,0-3.54-3.54Z" style="fill:#074f8e"/><path d="M8.23,103.23,0,111.46v7.08l11.77-11.77a2.5,2.5,0,0,0-3.54-3.54Z" style="fill:#074f8e"/><path d="M13.23,78.23,0,91.46v7.08L16.77,81.77a2.5,2.5,0,0,0-3.54-3.54Z" style="fill:#074f8e"/><path d="M3.23,68.23,0,71.46v7.08l6.77-6.77a2.5,2.5,0,1,0-3.54-3.54Z" style="fill:#074f8e"/><path d="M23.23,28.23,0,51.46v7.08L26.77,31.77a2.5,2.5,0,0,0-3.54-3.54Z" style="fill:#074f8e"/><path d="M18.23,13.23,0,31.46v7.08L21.77,16.77a2.5,2.5,0,0,0-3.54-3.54Z" style="fill:#074f8e"/></svg>