<?xml version="1.0" encoding="UTF-8"?>
<svg width="179px" height="89px" viewBox="0 0 179 89" version="1.1" xmlns="http://www.w3.org/2000/svg" xmlns:xlink="http://www.w3.org/1999/xlink">
    <title>Signature_Stacked_Purple</title>
    <defs>
        <polygon id="path-1" points="0 0.524 179 0.524 179 45.94 0 45.94"></polygon>
    </defs>
    <g id="Signature_Stacked_Purple" stroke="none" stroke-width="1" fill="none" fill-rule="evenodd">
        <g id="Group-4" transform="translate(0.000000, 43.000000)">
            <mask id="mask-2" fill="white">
                <use xlink:href="#path-1"></use>
            </mask>
            <g id="Clip-2"></g>
            <path d="M17.423,11.269 C17.423,13.665 19.449,15.493 21.943,15.493 C24.315,15.493 26.662,13.74 26.662,11.269 L26.662,1.857 L27.896,0.599 L24.093,0.599 L25.352,1.857 L25.352,11.269 C25.352,12.949 24.018,14.283 22.338,14.283 C20.635,14.283 19.128,12.975 19.128,11.269 L19.128,1.857 L20.387,0.599 L16.163,0.599 L17.423,1.857 L17.423,11.269 Z M34.442,13.912 L34.442,2.994 L42.297,15.198 L42.767,15.198 L42.767,1.857 L44.025,0.599 L40.223,0.599 L41.481,1.857 L41.481,11.121 L34.912,0.599 L31.898,0.599 L33.133,1.857 L33.133,13.912 L31.898,15.172 L35.703,15.172 L34.442,13.912 Z M48.621,0.599 L49.781,1.759 L49.781,14.012 L48.621,15.172 L52.547,15.172 L51.387,14.012 L51.387,1.759 L52.547,0.599 L48.621,0.599 Z M60.551,0.599 L56.426,0.599 L57.611,1.759 L61.713,15.172 L62.453,15.172 L66.678,1.759 L67.863,0.599 L64.355,0.599 L65.492,1.734 L62.404,11.812 L59.415,1.734 L60.551,0.599 Z M80.064,15.172 L80.064,12.504 L78.509,14.085 L74.087,14.085 L74.087,7.959 L77.372,7.959 L78.533,9.12 L78.533,5.712 L77.372,6.873 L74.087,6.873 L74.087,1.685 L78.509,1.685 L80.064,3.241 L80.064,0.599 L71.346,0.599 L72.481,1.759 L72.481,14.012 L71.346,15.172 L80.064,15.172 Z M87.229,14.012 L87.229,8.379 L89.426,8.379 L92.959,15.172 L95.38,15.172 L94.243,14.012 L90.983,8.033 C92.613,7.539 93.726,6.008 93.726,4.625 C93.726,2.154 91.428,0.599 89.006,0.599 L84.486,0.599 L85.622,1.759 L85.622,14.012 L84.486,15.172 L88.389,15.172 L87.229,14.012 Z M87.229,1.685 L89.006,1.685 C90.563,1.685 91.798,3.019 91.798,4.6 C91.798,6.106 90.538,7.292 89.006,7.292 L87.229,7.292 L87.229,1.685 Z M106.569,11.121 C106.569,9.688 105.902,8.799 105.21,8.33 L102.246,6.181 C101.184,5.416 100.641,4.427 100.641,3.685 C100.641,2.154 101.95,1.611 102.74,1.611 C103.16,1.611 103.457,1.784 103.678,1.784 L104.963,3.168 L106.322,1.142 L103.433,0.599 C103.234,0.549 103.111,0.524 102.74,0.524 C100.195,0.524 99.035,2.698 99.035,4.106 C99.035,5.217 99.604,6.477 100.912,7.44 L103.9,9.59 C104.716,10.158 104.938,10.998 104.938,11.714 C104.938,12.949 104.173,14.283 102.518,14.283 C102.123,14.283 101.777,14.208 101.505,14.085 L100.121,12.455 L98.861,14.727 L101.654,15.27 C101.654,15.27 102.123,15.37 102.518,15.37 C104.271,15.37 106.569,13.888 106.569,11.121 L106.569,11.121 Z M111.41,0.599 L112.57,1.759 L112.57,14.012 L111.41,15.172 L115.337,15.172 L114.177,14.012 L114.177,1.759 L115.337,0.599 L111.41,0.599 Z M125.242,14.012 L125.242,1.685 L128.009,1.685 L129.565,3.241 L129.565,0.599 L119.314,0.599 L119.314,3.241 L120.896,1.685 L123.637,1.685 L123.637,14.012 L122.5,15.172 L126.403,15.172 L125.242,14.012 Z M133.542,1.759 L137.223,8.404 L137.223,14.012 L136.063,15.172 L139.989,15.172 L138.828,14.012 L138.828,8.404 L142.582,1.784 L143.793,0.599 L140.187,0.599 L141.323,1.734 L138.26,7.194 L135.345,1.734 L136.482,0.599 L132.356,0.599 L133.542,1.759 Z M155.662,5.973 C155.13,5.973 154.29,6.218 153.451,6.71 C152.038,7.55 150.503,9.453 150.503,12.319 C150.503,13.752 151.179,15.35 153.082,15.35 C153.982,15.35 155.273,14.756 156.133,13.978 C157.484,12.749 158.282,10.641 158.282,8.818 C158.282,7.119 157.382,5.973 155.662,5.973 L155.662,5.973 Z M152.16,11.827 C152.16,8.799 153.696,7.16 154.33,6.893 C154.515,6.812 154.803,6.73 155.007,6.73 C156.03,6.73 156.624,7.508 156.624,9.085 C156.665,11.745 155.273,14.162 154.413,14.448 C154.249,14.511 153.982,14.592 153.778,14.592 C152.633,14.592 152.16,13.364 152.16,11.827 L152.16,11.827 Z M161.361,6.464 L160.807,6.996 L160.869,7.201 L162.568,7.201 C162.302,9.044 162.056,10.641 161.667,13.22 C161.115,17.049 160.643,18.4 160.255,18.727 C160.132,18.851 159.927,18.911 159.743,18.911 C159.497,18.911 159.109,18.727 158.842,18.604 C158.596,18.482 158.391,18.625 158.269,18.747 C158.105,18.933 157.92,19.219 157.92,19.444 C157.92,19.853 158.453,20.059 158.801,20.059 C159.189,20.059 160.172,19.73 161.053,18.646 C161.749,17.785 162.691,15.8 163.489,11.173 C163.633,10.312 163.797,9.453 164.145,7.201 L166.232,6.996 L166.683,6.464 L164.267,6.464 C164.881,2.677 165.393,1.53 166.273,1.53 C166.888,1.53 167.398,1.775 167.85,2.206 C167.993,2.349 168.219,2.349 168.423,2.185 C168.587,2.042 168.833,1.714 168.833,1.428 C168.853,1.018 168.301,0.567 167.604,0.567 C166.417,0.567 165.168,1.265 164.308,2.288 C163.509,3.25 162.977,4.806 162.691,6.464 L161.361,6.464 L161.361,6.464 Z" id="Fill-1" fill="#2E296E" mask="url(#mask-2)"></path>
            <path d="M8.102,45.568 L12.583,31.393 L16.932,45.568 L17.928,45.568 L23.606,27.541 L25.199,25.98 L20.484,25.98 L22.012,27.508 L17.861,41.054 L13.844,27.508 L15.371,25.98 L9.826,25.98 L11.388,27.541 L11.786,28.835 L8.034,41.054 L4.018,27.508 L5.545,25.98 L0,25.98 L1.594,27.541 L7.104,45.568 L8.102,45.568 Z M27.574,44.041 L29.002,39.892 L35.476,39.892 L36.837,44.041 L35.309,45.568 L40.855,45.568 L39.293,43.975 L33.186,25.98 L32.188,25.98 L25.98,43.975 L24.387,45.568 L29.102,45.568 L27.574,44.041 Z M32.288,30.329 L34.979,38.43 L29.5,38.43 L32.288,30.329 Z M53.706,40.124 C53.706,38.198 52.809,37.003 51.88,36.371 L47.896,33.483 C46.469,32.455 45.737,31.126 45.737,30.131 C45.737,28.072 47.497,27.341 48.56,27.341 C49.124,27.341 49.522,27.574 49.821,27.574 L51.547,29.434 L53.373,26.711 L49.488,25.98 C49.224,25.914 49.059,25.881 48.56,25.881 C45.14,25.881 43.58,28.803 43.58,30.694 C43.58,32.188 44.343,33.882 46.103,35.177 L50.12,38.065 C51.216,38.828 51.515,39.958 51.515,40.921 C51.515,42.58 50.485,44.374 48.261,44.374 C47.729,44.374 47.266,44.273 46.899,44.107 L45.04,41.917 L43.348,44.971 L47.1,45.701 C47.1,45.701 47.729,45.834 48.261,45.834 C50.617,45.834 53.706,43.843 53.706,40.124 L53.706,40.124 Z M62.038,35.741 L70.271,35.741 L70.271,44.008 L68.712,45.568 L73.99,45.568 L72.43,44.008 L72.43,27.541 L73.99,25.98 L68.712,25.98 L70.271,27.541 L70.271,34.281 L62.038,34.281 L62.038,27.541 L63.599,25.98 L58.354,25.98 L59.881,27.541 L59.881,44.008 L58.354,45.568 L63.599,45.568 L62.038,44.008 L62.038,35.741 Z M93.339,43.875 L93.339,29.201 L103.757,45.56 L104.527,45.565 L104.528,27.674 L106.221,25.98 L101.108,25.98 L102.801,27.674 L102.801,40.124 L93.97,25.98 L89.919,25.98 L91.578,27.674 L91.578,43.875 L89.919,45.568 L95.032,45.568 L93.339,43.875 Z M121.306,36.671 L121.306,42.979 C120.843,43.444 119.912,44.374 118.087,44.374 C113.737,44.374 111.546,39.991 111.546,35.775 C111.546,31.525 114.301,27.176 118.087,27.176 C119.082,27.176 119.812,27.408 120.476,28.105 L122.635,30.229 L122.635,26.844 C121.473,26.246 120.311,25.715 118.087,25.715 C112.741,25.715 108.988,30.496 108.988,35.775 C108.988,40.954 112.741,45.834 118.087,45.834 C121.107,45.834 122.401,45.104 123.464,44.406 L123.464,36.671 L124.991,35.11 L119.746,35.11 L121.306,36.671 Z M135.589,44.008 L135.589,27.441 L139.308,27.441 L141.399,29.533 L141.399,25.98 L127.62,25.98 L127.62,29.533 L129.746,27.441 L133.431,27.441 L133.431,44.008 L131.903,45.568 L137.149,45.568 L135.589,44.008 Z M143.37,35.775 C143.37,40.754 146.192,46 151.205,46 C156.251,46 159.074,40.754 159.074,35.775 C159.074,30.794 156.251,25.549 151.205,25.549 C146.192,25.549 143.37,30.794 143.37,35.775 L143.37,35.775 Z M151.205,44.506 C147.289,44.506 145.927,39.824 145.927,35.775 C145.927,31.724 147.289,27.042 151.205,27.042 C155.156,27.042 156.518,31.724 156.518,35.775 C156.518,39.824 155.156,44.506 151.205,44.506 L151.205,44.506 Z M166.118,43.875 L166.118,29.201 L176.483,45.579 L177.307,45.579 L177.307,27.674 L179,25.98 L173.887,25.98 L175.58,27.674 L175.58,40.124 L166.75,25.98 L162.698,25.98 L164.359,27.674 L164.359,43.875 L162.698,45.568 L167.813,45.568 L166.118,43.875 L166.118,43.875 Z" id="Fill-3" fill="#2E296E" mask="url(#mask-2)"></path>
        </g>
        <polyline id="Fill-5" fill="#2E296E" points="79.274 68.98 80.835 70.541 80.835 87.008 79.274 88.568 84.553 88.568 82.992 87.008 82.992 70.541 84.553 68.98 79.274 68.98"></polyline>
        <polyline id="Fill-6" fill="#2E296E" points="67.856 0.816 67.856 5.787 71.006 5.787 76.534 27.998 84.287 27.998 87.974 14.099 91.506 27.998 99.262 27.998 105.096 5.787 108.091 5.787 108.091 0.816 97.418 0.816 97.418 5.787 100.949 5.787 97.11 20.242 92.35 0.816 87.436 0.816 82.215 20.395 78.453 5.787 82.292 5.787 82.292 0.816 67.856 0.816"></polyline>
    </g>
</svg>