<?xml version="1.0" encoding="UTF-8"?>
<svg width="50px" height="50px" viewBox="0 0 50 50" version="1.1" xmlns="http://www.w3.org/2000/svg" xmlns:xlink="http://www.w3.org/1999/xlink">
    <!-- Generator: Sketch 55.2 (78181) - https://sketchapp.com -->
    <title>Group 5</title>
    <desc>Created with Sketch.</desc>
    <g id="Page1" stroke="none" stroke-width="1" fill="none" fill-rule="evenodd">
        <g id="ThankYou_Subhead_B" transform="translate(-540.000000, -540.000000)">
            <g id="Group-5" transform="translate(540.000000, 540.000000)">
                <circle id="Oval" fill="#0A5CA8" cx="25" cy="25" r="25"></circle>
                <path d="M37.5,17.433358 C36.5801602,17.8314661 35.5916456,18.1005305 34.5541168,18.2215425 C35.6131351,17.6020252 36.4263506,16.6210783 36.80932,15.4522772 C35.8183364,16.0258348 34.7206372,16.442416 33.5523428,16.6669486 C32.6166831,15.6941227 31.2836973,15.0862069 29.8085153,15.0862069 C26.9758404,15.0862069 24.6793043,17.3273387 24.6793043,20.0916064 C24.6793043,20.4839138 24.7247522,20.8659584 24.8121731,21.2322963 C20.5493983,21.0235596 16.7700903,19.030788 14.2403709,16.0024535 C13.7988771,16.7417333 13.5459417,17.601579 13.5459417,18.5188965 C13.5459417,20.2554545 14.4515161,21.7875594 15.8277552,22.6851544 C14.9869234,22.659185 14.1961118,22.4340277 13.5045174,22.0591225 C13.5041516,22.0800051 13.5041516,22.100977 13.5041516,22.1220381 C13.5041516,24.5472759 15.2721387,26.5703897 17.618512,27.0301639 C17.188083,27.144572 16.7349757,27.2057027 16.2671458,27.2057027 C15.9366656,27.2057027 15.6153297,27.1743788 15.3022239,27.1159254 C15.954863,29.1045918 17.8490435,30.5517384 20.0934562,30.592165 C18.3380884,31.9346309 16.1265043,32.7348629 13.7235268,32.7348629 C13.3095578,32.7348629 12.9012583,32.7112138 12.5,32.6649865 C14.7698343,34.0851821 17.4658912,34.9137931 20.3623944,34.9137931 C29.7965361,34.9137931 34.9554665,27.2865559 34.9554665,20.6720357 C34.9554665,20.4549994 34.9505285,20.2391233 34.9406525,20.0244965 C35.9427009,19.3187716 36.8123377,18.4371509 37.5,17.433358" id="Fill-1" fill="#FFFFFF"></path>
            </g>
        </g>
    </g>
</svg>