<?xml version="1.0" standalone="no"?>
<!DOCTYPE svg PUBLIC "-//W3C//DTD SVG 20010904//EN"
 "http://www.w3.org/TR/2001/REC-SVG-20010904/DTD/svg10.dtd">
<svg version="1.0" xmlns="http://www.w3.org/2000/svg"
 width="700.000000pt" height="700.000000pt" viewBox="0 0 700.000000 700.000000"
 preserveAspectRatio="xMidYMid meet">
<metadata>
Created by potrace 1.11, written by Peter Selinger 2001-2013
</metadata>
<g transform="translate(0.000000,700.000000) scale(0.100000,-0.100000)"
fill="#000000" stroke="none">
<path d="M6257 5314 c-4 -4 -7 -52 -7 -106 0 -55 -4 -107 -10 -117 -5 -10 -24
-21 -41 -25 -18 -3 -38 -15 -46 -26 -8 -11 -21 -20 -29 -20 -21 0 -17 -25 6
-41 11 -8 17 -19 12 -25 -4 -6 -50 -23 -102 -38 -113 -32 -147 -51 -130 -72
14 -15 9 -18 -49 -28 -37 -7 -71 -31 -71 -51 0 -21 57 -41 124 -44 19 -1 19
-2 -2 -21 -28 -26 -28 -36 1 -55 16 -10 50 -16 100 -16 43 -1 77 -4 77 -8 0
-7 25 -194 35 -259 8 -54 19 -165 19 -197 0 -16 -17 -101 -38 -187 -28 -113
-43 -158 -55 -161 -39 -10 -41 -2 -41 206 0 249 -2 255 -112 291 -12 3 -18 16
-18 35 0 17 -10 42 -23 57 -22 25 -30 27 -99 27 -81 1 -127 -17 -129 -51 -1
-9 -2 -138 -2 -286 -2 -259 -3 -269 -22 -277 -30 -12 -42 -10 -58 5 -12 12
-14 93 -14 505 -1 521 -1 521 -48 521 -24 0 -349 -162 -375 -186 -12 -12 -15
-48 -15 -184 0 -103 -5 -174 -11 -180 -7 -7 -37 10 -95 56 -121 96 -211 132
-253 101 -19 -14 -19 -16 20 -63 159 -192 306 -463 387 -714 22 -69 43 -129
48 -134 4 -5 39 -10 77 -11 100 -4 200 -41 267 -99 17 -14 35 -26 41 -26 6 0
37 13 70 29 60 29 201 77 252 85 89 15 126 18 204 18 184 0 366 -52 523 -146
28 -17 56 -36 63 -43 7 -7 17 -13 21 -13 4 0 45 -36 91 -79 48 -47 88 -77 96
-74 15 5 15 27 16 627 l0 269 -29 29 c-29 28 -32 29 -134 30 -159 0 -158 0
-190 -31 -27 -28 -29 -34 -29 -114 0 -62 -4 -88 -15 -97 -8 -6 -19 -9 -25 -5
-15 9 -37 55 -44 90 -3 17 -14 66 -25 109 -19 74 -20 102 -6 201 2 17 7 64 10
105 4 41 8 77 10 80 2 3 6 30 10 60 10 88 9 87 73 89 79 2 111 10 122 31 7 13
4 22 -10 35 -25 23 -20 27 30 31 51 4 80 20 80 44 0 24 -47 50 -90 50 -27 0
-30 3 -25 23 8 29 -9 38 -135 76 -65 19 -96 34 -98 45 -2 9 3 16 12 16 52 0
-7 71 -76 90 -38 11 -38 11 -39 63 -2 140 -5 181 -15 184 -5 2 -13 0 -17 -3z
m-54 -698 c7 -19 9 -441 2 -434 -3 2 -7 24 -10 46 -3 23 -7 61 -10 85 -5 42
-11 99 -20 216 -3 36 -3 73 1 83 6 21 30 24 37 4z m172 -62 c-1 -70 -13 -243
-20 -279 -2 -11 -4 -35 -4 -52 -1 -18 -5 -33 -9 -33 -11 0 -9 411 2 428 18 30
31 4 31 -64z"/>
<path d="M3248 4925 c-1 -1 -47 -5 -101 -9 -119 -7 -318 -46 -419 -82 -214
-76 -391 -190 -576 -368 -81 -79 -83 -80 -129 -77 -25 1 -55 5 -67 7 -126 24
-320 24 -481 -2 -109 -17 -283 -89 -407 -170 -272 -175 -481 -487 -538 -804
-32 -177 -10 -395 56 -552 13 -32 24 -59 24 -62 0 -2 -25 -7 -56 -11 -70 -8
-149 -35 -210 -71 -59 -34 -155 -130 -188 -187 -56 -97 -76 -285 -42 -399 19
-67 64 -118 117 -134 22 -6 295 -10 754 -9 l720 0 -1 30 c-1 17 -5 62 -9 100
-4 39 -9 255 -11 480 -1 226 -5 419 -8 430 -2 11 -25 79 -50 150 -54 155 -64
213 -64 365 1 260 51 406 133 386 29 -8 43 -49 34 -101 -21 -109 -24 -136 -24
-205 0 -83 15 -131 54 -173 49 -54 96 -70 231 -82 113 -9 173 -34 229 -94 46
-49 68 -101 80 -196 6 -44 13 -96 16 -115 3 -19 8 -90 11 -158 9 -175 -17
-272 -71 -272 -24 0 -25 -2 -26 -77 -2 -89 -2 -98 -14 -253 -5 -63 -9 -137 -9
-165 l-1 -50 245 0 c241 -1 274 1 266 14 -2 3 -7 42 -11 86 -3 44 -8 93 -10
109 -12 100 -23 281 -24 408 l-1 97 -32 3 c-78 7 -97 150 -64 483 29 287 76
371 241 429 11 4 57 9 101 12 45 2 99 11 120 20 79 33 137 96 164 178 16 49
16 162 1 241 -30 149 -24 199 23 211 34 8 73 -21 95 -70 35 -77 46 -174 45
-396 -1 -206 -12 -263 -90 -465 l-38 -100 -2 -420 c-2 -393 -5 -493 -18 -612
-3 -27 -8 -79 -11 -118 -4 -38 -9 -73 -12 -78 -2 -4 0 -13 5 -20 8 -9 66 -12
214 -12 l203 0 -1 30 c0 17 -4 75 -8 130 -13 157 -14 174 -15 283 -1 100 -1
102 -24 102 -13 0 -31 8 -40 18 -37 41 -49 210 -27 390 6 48 13 107 16 132 18
152 84 238 219 285 11 4 54 9 95 12 115 7 174 27 220 75 71 73 81 155 42 359
-15 80 -1 129 38 129 80 0 119 -114 125 -367 3 -148 -13 -250 -61 -381 -20
-53 -41 -110 -47 -127 -6 -19 -11 -175 -12 -415 -2 -359 -5 -424 -21 -586 -4
-46 -2 -62 8 -66 7 -2 589 -4 1293 -3 l1280 1 52 28 c80 44 127 128 163 294
111 504 -279 996 -795 1004 -193 3 -405 -67 -532 -177 -32 -27 -42 -35 -46
-35 -3 0 -21 26 -41 58 -88 136 -233 183 -371 121 -28 -13 -57 -26 -66 -30 -9
-4 -16 -2 -16 4 -3 52 -53 254 -90 362 -60 175 -212 460 -304 570 -88 105
-154 179 -204 228 -305 296 -689 474 -1063 493 -59 3 -112 7 -119 9 -6 2 -13
2 -15 0z m-257 -839 c75 -32 126 -127 108 -204 -10 -44 -56 -102 -100 -124
-71 -37 -181 -8 -226 60 -98 148 55 337 218 268z m-936 -284 c110 -54 128
-200 36 -280 -65 -56 -159 -53 -225 7 -113 103 -34 296 119 289 22 -1 54 -8
70 -16z m1851 -1 c132 -60 125 -255 -11 -307 -127 -48 -260 67 -225 196 29
107 134 157 236 111z"/>
</g>
</svg>
